%TF.GenerationSoftware,KiCad,Pcbnew,5.1.9*%
%TF.CreationDate,2020-12-25T23:56:19+01:00*%
%TF.ProjectId,reflow-oven,7265666c-6f77-42d6-9f76-656e2e6b6963,rev?*%
%TF.SameCoordinates,Original*%
%TF.FileFunction,Copper,L1,Top*%
%TF.FilePolarity,Positive*%
%FSLAX46Y46*%
G04 Gerber Fmt 4.6, Leading zero omitted, Abs format (unit mm)*
G04 Created by KiCad (PCBNEW 5.1.9) date 2020-12-25 23:56:19*
%MOMM*%
%LPD*%
G01*
G04 APERTURE LIST*
%TA.AperFunction,ComponentPad*%
%ADD10O,3.000000X1.700000*%
%TD*%
%TA.AperFunction,ComponentPad*%
%ADD11C,1.800000*%
%TD*%
%TA.AperFunction,ComponentPad*%
%ADD12C,2.000000*%
%TD*%
%TA.AperFunction,ViaPad*%
%ADD13C,0.700000*%
%TD*%
%TA.AperFunction,Conductor*%
%ADD14C,0.250000*%
%TD*%
%TA.AperFunction,Conductor*%
%ADD15C,0.200000*%
%TD*%
%TA.AperFunction,Conductor*%
%ADD16C,0.100000*%
%TD*%
G04 APERTURE END LIST*
%TO.P,R3,2*%
%TO.N,GND*%
%TA.AperFunction,SMDPad,CuDef*%
G36*
G01*
X17725000Y-27925000D02*
X18275000Y-27925000D01*
G75*
G02*
X18475000Y-28125000I0J-200000D01*
G01*
X18475000Y-28525000D01*
G75*
G02*
X18275000Y-28725000I-200000J0D01*
G01*
X17725000Y-28725000D01*
G75*
G02*
X17525000Y-28525000I0J200000D01*
G01*
X17525000Y-28125000D01*
G75*
G02*
X17725000Y-27925000I200000J0D01*
G01*
G37*
%TD.AperFunction*%
%TO.P,R3,1*%
%TO.N,/BTN_C*%
%TA.AperFunction,SMDPad,CuDef*%
G36*
G01*
X17725000Y-26275000D02*
X18275000Y-26275000D01*
G75*
G02*
X18475000Y-26475000I0J-200000D01*
G01*
X18475000Y-26875000D01*
G75*
G02*
X18275000Y-27075000I-200000J0D01*
G01*
X17725000Y-27075000D01*
G75*
G02*
X17525000Y-26875000I0J200000D01*
G01*
X17525000Y-26475000D01*
G75*
G02*
X17725000Y-26275000I200000J0D01*
G01*
G37*
%TD.AperFunction*%
%TD*%
%TO.P,R2,2*%
%TO.N,GND*%
%TA.AperFunction,SMDPad,CuDef*%
G36*
G01*
X-5275000Y-27925000D02*
X-4725000Y-27925000D01*
G75*
G02*
X-4525000Y-28125000I0J-200000D01*
G01*
X-4525000Y-28525000D01*
G75*
G02*
X-4725000Y-28725000I-200000J0D01*
G01*
X-5275000Y-28725000D01*
G75*
G02*
X-5475000Y-28525000I0J200000D01*
G01*
X-5475000Y-28125000D01*
G75*
G02*
X-5275000Y-27925000I200000J0D01*
G01*
G37*
%TD.AperFunction*%
%TO.P,R2,1*%
%TO.N,/BTN_B*%
%TA.AperFunction,SMDPad,CuDef*%
G36*
G01*
X-5275000Y-26275000D02*
X-4725000Y-26275000D01*
G75*
G02*
X-4525000Y-26475000I0J-200000D01*
G01*
X-4525000Y-26875000D01*
G75*
G02*
X-4725000Y-27075000I-200000J0D01*
G01*
X-5275000Y-27075000D01*
G75*
G02*
X-5475000Y-26875000I0J200000D01*
G01*
X-5475000Y-26475000D01*
G75*
G02*
X-5275000Y-26275000I200000J0D01*
G01*
G37*
%TD.AperFunction*%
%TD*%
%TO.P,R1,2*%
%TO.N,GND*%
%TA.AperFunction,SMDPad,CuDef*%
G36*
G01*
X-18275000Y-27925000D02*
X-17725000Y-27925000D01*
G75*
G02*
X-17525000Y-28125000I0J-200000D01*
G01*
X-17525000Y-28525000D01*
G75*
G02*
X-17725000Y-28725000I-200000J0D01*
G01*
X-18275000Y-28725000D01*
G75*
G02*
X-18475000Y-28525000I0J200000D01*
G01*
X-18475000Y-28125000D01*
G75*
G02*
X-18275000Y-27925000I200000J0D01*
G01*
G37*
%TD.AperFunction*%
%TO.P,R1,1*%
%TO.N,/BTN_A*%
%TA.AperFunction,SMDPad,CuDef*%
G36*
G01*
X-18275000Y-26275000D02*
X-17725000Y-26275000D01*
G75*
G02*
X-17525000Y-26475000I0J-200000D01*
G01*
X-17525000Y-26875000D01*
G75*
G02*
X-17725000Y-27075000I-200000J0D01*
G01*
X-18275000Y-27075000D01*
G75*
G02*
X-18475000Y-26875000I0J200000D01*
G01*
X-18475000Y-26475000D01*
G75*
G02*
X-18275000Y-26275000I200000J0D01*
G01*
G37*
%TD.AperFunction*%
%TD*%
D10*
%TO.P,J4,2*%
%TO.N,/OUT2-*%
X-14520000Y-6905000D03*
%TO.P,J4,1*%
%TO.N,/5V*%
X-14520000Y-10715000D03*
%TD*%
%TO.P,J3,2*%
%TO.N,/OUT1-*%
X-14520000Y9605000D03*
%TO.P,J3,1*%
%TO.N,/5V*%
X-14520000Y5795000D03*
%TD*%
%TO.P,J2,2*%
%TO.N,/T+*%
X-14520000Y24845000D03*
%TO.P,J2,1*%
%TO.N,/T-*%
X-14520000Y21035000D03*
%TD*%
%TO.P,J1,2*%
%TO.N,GND*%
X-14520000Y17225000D03*
%TO.P,J1,1*%
%TO.N,/5V*%
X-14520000Y13415000D03*
%TD*%
D11*
%TO.P,BZ1,2*%
%TO.N,GND*%
X9000000Y23000000D03*
%TO.P,BZ1,1*%
%TO.N,/BUZZER*%
X14000000Y23000000D03*
%TD*%
%TO.P,DS1,8*%
%TO.N,/3V3_2*%
X8890000Y30000000D03*
%TO.P,DS1,7*%
%TO.N,GND*%
X6350000Y30000000D03*
%TO.P,DS1,6*%
%TO.N,/MOSI1*%
X3810000Y30000000D03*
%TO.P,DS1,5*%
%TO.N,/SCK1*%
X1270000Y30000000D03*
%TO.P,DS1,4*%
%TO.N,/CS1*%
X-1270000Y30000000D03*
%TO.P,DS1,3*%
%TO.N,/DC*%
X-3810000Y30000000D03*
%TO.P,DS1,2*%
%TO.N,/RST*%
X-6350000Y30000000D03*
%TO.P,DS1,1*%
%TO.N,/BL*%
X-8890000Y30000000D03*
%TD*%
%TO.P,U1,1*%
%TO.N,/CS2*%
X-7620000Y-34392000D03*
%TO.P,U1,2*%
%TO.N,/SCK2*%
X-7620000Y-31852000D03*
%TO.P,U1,3*%
%TO.N,/MISO2*%
X-7620000Y-29312000D03*
%TO.P,U1,4*%
%TO.N,/BTN_A*%
X-7620000Y-26772000D03*
%TO.P,U1,5*%
%TO.N,N/C*%
X-7620000Y-24232000D03*
%TO.P,U1,6*%
X-7620000Y-21692000D03*
%TO.P,U1,7*%
X-7620000Y-19152000D03*
%TO.P,U1,8*%
X-7620000Y-16612000D03*
%TO.P,U1,9*%
X-7620000Y-14072000D03*
%TO.P,U1,10*%
X-7620000Y-11532000D03*
%TO.P,U1,11*%
X-7620000Y-8992000D03*
%TO.P,U1,12*%
X-7620000Y-6452000D03*
%TO.P,U1,13*%
%TO.N,/OUT2*%
X-7620000Y-3912000D03*
%TO.P,U1,14*%
%TO.N,/OUT1*%
X-7620000Y-1372000D03*
%TO.P,U1,15*%
%TO.N,N/C*%
X-7620000Y1168000D03*
%TO.P,U1,16*%
X-7620000Y3708000D03*
%TO.P,U1,17*%
X-7620000Y6248000D03*
%TO.P,U1,18*%
%TO.N,/5V*%
X-7620000Y8788000D03*
%TO.P,U1,19*%
%TO.N,GND*%
X-7620000Y11328000D03*
%TO.P,U1,20*%
%TO.N,/3V3_2*%
X-7620000Y13868000D03*
%TO.P,U1,21*%
%TO.N,N/C*%
X7620000Y13868000D03*
%TO.P,U1,22*%
X7620000Y11328000D03*
%TO.P,U1,23*%
X7620000Y8788000D03*
%TO.P,U1,24*%
X7620000Y6248000D03*
%TO.P,U1,25*%
X7620000Y3708000D03*
%TO.P,U1,26*%
X7620000Y1168000D03*
%TO.P,U1,27*%
%TO.N,/BUZZER*%
X7620000Y-1372000D03*
%TO.P,U1,28*%
%TO.N,/DC*%
X7620000Y-3912000D03*
%TO.P,U1,29*%
%TO.N,/RST*%
X7620000Y-6452000D03*
%TO.P,U1,30*%
%TO.N,/CS1*%
X7620000Y-8992000D03*
%TO.P,U1,31*%
%TO.N,/SCK1*%
X7620000Y-11532000D03*
%TO.P,U1,32*%
%TO.N,/BL*%
X7620000Y-14072000D03*
%TO.P,U1,33*%
%TO.N,/MOSI1*%
X7620000Y-16612000D03*
%TO.P,U1,34*%
%TO.N,N/C*%
X7620000Y-19152000D03*
%TO.P,U1,35*%
%TO.N,/BTN_B*%
X7620000Y-21692000D03*
%TO.P,U1,36*%
%TO.N,N/C*%
X7620000Y-24232000D03*
%TO.P,U1,37*%
%TO.N,/BTN_C*%
X7620000Y-26772000D03*
%TO.P,U1,38*%
%TO.N,/3V3*%
X7620000Y-29312000D03*
%TO.P,U1,39*%
%TO.N,GND*%
X7620000Y-31852000D03*
%TO.P,U1,40*%
%TO.N,N/C*%
X7620000Y-34392000D03*
%TD*%
D12*
%TO.P,SW1,2*%
%TO.N,/3V3*%
X-10500000Y-34000000D03*
%TO.P,SW1,1*%
%TO.N,/BTN_A*%
X-15000000Y-34000000D03*
%TO.P,SW1,2*%
%TO.N,/3V3*%
X-10500000Y-27500000D03*
%TO.P,SW1,1*%
%TO.N,/BTN_A*%
X-15000000Y-27500000D03*
%TD*%
%TO.P,SW2,1*%
%TO.N,/BTN_B*%
X-2250000Y-27500000D03*
%TO.P,SW2,2*%
%TO.N,/3V3*%
X2250000Y-27500000D03*
%TO.P,SW2,1*%
%TO.N,/BTN_B*%
X-2250000Y-34000000D03*
%TO.P,SW2,2*%
%TO.N,/3V3*%
X2250000Y-34000000D03*
%TD*%
%TO.P,SW3,2*%
%TO.N,/3V3*%
X15000000Y-34000000D03*
%TO.P,SW3,1*%
%TO.N,/BTN_C*%
X10500000Y-34000000D03*
%TO.P,SW3,2*%
%TO.N,/3V3*%
X15000000Y-27500000D03*
%TO.P,SW3,1*%
%TO.N,/BTN_C*%
X10500000Y-27500000D03*
%TD*%
D13*
%TO.N,GND*%
X18000000Y-29300000D03*
X-18000000Y-29300000D03*
X-12400000Y-3700000D03*
X-14800000Y-3800000D03*
X-14800000Y-20300000D03*
X-12400000Y-20200000D03*
X-14100000Y-3800000D03*
X-15500000Y-3800000D03*
X-15500000Y-20300000D03*
X-14100000Y-20300000D03*
X-1700000Y27000000D03*
X-4900000Y20500000D03*
X-4500000Y-29400000D03*
X15000000Y35000000D03*
X10000000Y35000000D03*
X5000000Y35000000D03*
X0Y35000000D03*
X-5000000Y35000000D03*
X-10000000Y35000000D03*
X-15000000Y35000000D03*
X-20000000Y30000000D03*
X-20000000Y25000000D03*
X-20000000Y20000000D03*
X-20000000Y15000000D03*
X-20000000Y10000000D03*
X-20000000Y5000000D03*
X-20000000Y0D03*
X-20000000Y-5000000D03*
X-20000000Y-10000000D03*
X-20000000Y-15000000D03*
X-20000000Y-20000000D03*
X-20000000Y-25000000D03*
X-20000000Y-30000000D03*
X-5000000Y-35000000D03*
X5000000Y-35000000D03*
X0Y-35000000D03*
X20000000Y-30000000D03*
X20000000Y-25000000D03*
X20000000Y-20000000D03*
X20000000Y-15000000D03*
X20000000Y-10000000D03*
X20000000Y-5000000D03*
X20000000Y0D03*
X20000000Y5000000D03*
X20000000Y10000000D03*
X20000000Y15000000D03*
X20000000Y20000000D03*
X20000000Y25000000D03*
X20000000Y30000000D03*
X0Y10000000D03*
X0Y5000000D03*
X0Y0D03*
X0Y-5000000D03*
X0Y-10000000D03*
X0Y-15000000D03*
X0Y-20000000D03*
X5000000Y-20000000D03*
X5000000Y-25000000D03*
X0Y15000000D03*
X-10000000Y15000000D03*
X15000000Y15000000D03*
X15000000Y10000000D03*
X15000000Y5000000D03*
X15000000Y0D03*
X15000000Y-5000000D03*
X15000000Y-10000000D03*
X15000000Y-15000000D03*
X15000000Y-20000000D03*
X10000000Y-20000000D03*
X10000000Y-15000000D03*
X10000000Y-10000000D03*
X10000000Y-5000000D03*
X10000000Y0D03*
X10000000Y5000000D03*
X10000000Y10000000D03*
X10000000Y15000000D03*
X10000000Y20000000D03*
X10000000Y25000000D03*
X15000000Y25000000D03*
X5000000Y-30000000D03*
X-10000000Y-20000000D03*
X-10000000Y-25000000D03*
X-10000000Y0D03*
X-10000000Y5000000D03*
%TO.N,/CS2*%
X-6300000Y-30600000D03*
%TO.N,/MOSI1*%
X3574787Y17099827D03*
%TO.N,/SCK1*%
X4574980Y19300000D03*
%TO.N,/CS1*%
X4800000Y26725000D03*
%TO.N,/DC*%
X6300000Y26000000D03*
%TO.N,/RST*%
X5570188Y25275000D03*
%TO.N,/BL*%
X4074802Y18199832D03*
%TD*%
D14*
%TO.N,GND*%
X18000000Y-28325000D02*
X18000000Y-29300000D01*
X-18000000Y-28325000D02*
X-18000000Y-29300000D01*
D15*
X-5000000Y-28900000D02*
X-4500000Y-29400000D01*
X-5000000Y-28325000D02*
X-5000000Y-28900000D01*
%TO.N,/CS2*%
X-7620000Y-34392000D02*
X-6100000Y-32872000D01*
X-6300000Y-31300000D02*
X-6100000Y-31500000D01*
X-6300000Y-30600000D02*
X-6300000Y-31300000D01*
X-6100000Y-32872000D02*
X-6100000Y-31500000D01*
D14*
%TO.N,/MOSI1*%
X4069761Y17099827D02*
X5299981Y18330047D01*
X5299981Y18330047D02*
X5299981Y21466863D01*
X3574787Y17099827D02*
X4069761Y17099827D01*
X5299981Y21466863D02*
X7525011Y23691893D01*
X7525011Y26555111D02*
X6130111Y27950011D01*
X7525011Y23691893D02*
X7525011Y26555111D01*
X6130111Y27950011D02*
X4449989Y27950011D01*
X3810000Y28590000D02*
X3810000Y30000000D01*
X4449989Y27950011D02*
X3810000Y28590000D01*
%TO.N,/SCK1*%
X7025001Y23899003D02*
X4574980Y21448982D01*
X7025001Y26348001D02*
X7025001Y23899003D01*
X5923001Y27450001D02*
X7025001Y26348001D01*
X2249999Y27450001D02*
X5923001Y27450001D01*
X1270000Y28430000D02*
X2249999Y27450001D01*
X4574980Y21448982D02*
X4574980Y19300000D01*
X1270000Y30000000D02*
X1270000Y28430000D01*
%TO.N,/CS1*%
X-1270000Y27770000D02*
X-1270000Y30000000D01*
X-225000Y26725000D02*
X-1270000Y27770000D01*
X4800000Y26725000D02*
X-225000Y26725000D01*
%TO.N,/DC*%
X-3810000Y30000000D02*
X-3810000Y26710000D01*
X-3810000Y26710000D02*
X-3100000Y26000000D01*
X-3100000Y26000000D02*
X-300000Y26000000D01*
X6300000Y26000000D02*
X-300000Y26000000D01*
%TO.N,/RST*%
X4600000Y25499990D02*
X4824990Y25275000D01*
X-5692870Y25499990D02*
X4600000Y25499990D01*
X4824990Y25275000D02*
X5570188Y25275000D01*
X-6350000Y26157120D02*
X-5692870Y25499990D01*
X-6350000Y30000000D02*
X-6350000Y26157120D01*
%TO.N,/BL*%
X3849979Y18424655D02*
X4074802Y18199832D01*
X3849979Y24150021D02*
X3849979Y18424655D01*
X3000020Y24999980D02*
X3849979Y24150021D01*
X-5899980Y24999980D02*
X3000020Y24999980D01*
X-8890000Y27990000D02*
X-5899980Y24999980D01*
X-8890000Y30000000D02*
X-8890000Y27990000D01*
%TO.N,/BTN_A*%
X-17825000Y-26500000D02*
X-18000000Y-26675000D01*
X-16000000Y-26500000D02*
X-17825000Y-26500000D01*
X-15000000Y-27500000D02*
X-16000000Y-26500000D01*
%TO.N,/BTN_B*%
X-2250000Y-27500000D02*
X-3250000Y-26500000D01*
X-4825000Y-26500000D02*
X-5000000Y-26675000D01*
X-3250000Y-26500000D02*
X-4825000Y-26500000D01*
X-2250000Y-27500000D02*
X-2250000Y-34000000D01*
%TO.N,/BTN_C*%
X11875001Y-28875001D02*
X10500000Y-27500000D01*
X16375001Y-28160001D02*
X15660001Y-28875001D01*
X15660001Y-28875001D02*
X11875001Y-28875001D01*
X16375001Y-27224999D02*
X16375001Y-28160001D01*
X16925000Y-26675000D02*
X16375001Y-27224999D01*
X18000000Y-26675000D02*
X16925000Y-26675000D01*
%TD*%
D15*
%TO.N,GND*%
X19825040Y35641571D02*
X20137699Y35547173D01*
X20426068Y35393844D01*
X20679167Y35187422D01*
X20887345Y34935777D01*
X21042685Y34648482D01*
X21139261Y34336492D01*
X21175000Y33996460D01*
X21175001Y-33984093D01*
X21141571Y-34325041D01*
X21047173Y-34637700D01*
X20893843Y-34926070D01*
X20687422Y-35179167D01*
X20435780Y-35387344D01*
X20148481Y-35542685D01*
X19836497Y-35639260D01*
X19496460Y-35675000D01*
X-19484103Y-35675000D01*
X-19825041Y-35641571D01*
X-20137700Y-35547173D01*
X-20426070Y-35393843D01*
X-20679167Y-35187422D01*
X-20887344Y-34935780D01*
X-21042685Y-34648481D01*
X-21139260Y-34336497D01*
X-21175000Y-33996460D01*
X-21175000Y-33569158D01*
X-20836116Y-33569158D01*
X-20836116Y-33930842D01*
X-20765555Y-34285575D01*
X-20627145Y-34619727D01*
X-20426204Y-34920456D01*
X-20170456Y-35176204D01*
X-19869727Y-35377145D01*
X-19535575Y-35515555D01*
X-19180842Y-35586116D01*
X-18819158Y-35586116D01*
X-18464425Y-35515555D01*
X-18130273Y-35377145D01*
X-17829544Y-35176204D01*
X-17573796Y-34920456D01*
X-17372855Y-34619727D01*
X-17234445Y-34285575D01*
X-17163884Y-33930842D01*
X-17163884Y-33867037D01*
X-16350000Y-33867037D01*
X-16350000Y-34132963D01*
X-16298120Y-34393780D01*
X-16196354Y-34639465D01*
X-16048613Y-34860575D01*
X-15860575Y-35048613D01*
X-15639465Y-35196354D01*
X-15393780Y-35298120D01*
X-15132963Y-35350000D01*
X-14867037Y-35350000D01*
X-14606220Y-35298120D01*
X-14360535Y-35196354D01*
X-14139425Y-35048613D01*
X-13951387Y-34860575D01*
X-13803646Y-34639465D01*
X-13701880Y-34393780D01*
X-13650000Y-34132963D01*
X-13650000Y-33867037D01*
X-11850000Y-33867037D01*
X-11850000Y-34132963D01*
X-11798120Y-34393780D01*
X-11696354Y-34639465D01*
X-11548613Y-34860575D01*
X-11360575Y-35048613D01*
X-11139465Y-35196354D01*
X-10893780Y-35298120D01*
X-10632963Y-35350000D01*
X-10367037Y-35350000D01*
X-10106220Y-35298120D01*
X-9860535Y-35196354D01*
X-9639425Y-35048613D01*
X-9451387Y-34860575D01*
X-9303646Y-34639465D01*
X-9201880Y-34393780D01*
X-9150000Y-34132963D01*
X-9150000Y-33867037D01*
X-9201880Y-33606220D01*
X-9303646Y-33360535D01*
X-9451387Y-33139425D01*
X-9639425Y-32951387D01*
X-9860535Y-32803646D01*
X-10106220Y-32701880D01*
X-10367037Y-32650000D01*
X-10632963Y-32650000D01*
X-10893780Y-32701880D01*
X-11139465Y-32803646D01*
X-11360575Y-32951387D01*
X-11548613Y-33139425D01*
X-11696354Y-33360535D01*
X-11798120Y-33606220D01*
X-11850000Y-33867037D01*
X-13650000Y-33867037D01*
X-13701880Y-33606220D01*
X-13803646Y-33360535D01*
X-13951387Y-33139425D01*
X-14139425Y-32951387D01*
X-14360535Y-32803646D01*
X-14606220Y-32701880D01*
X-14867037Y-32650000D01*
X-15132963Y-32650000D01*
X-15393780Y-32701880D01*
X-15639465Y-32803646D01*
X-15860575Y-32951387D01*
X-16048613Y-33139425D01*
X-16196354Y-33360535D01*
X-16298120Y-33606220D01*
X-16350000Y-33867037D01*
X-17163884Y-33867037D01*
X-17163884Y-33569158D01*
X-17234445Y-33214425D01*
X-17372855Y-32880273D01*
X-17573796Y-32579544D01*
X-17829544Y-32323796D01*
X-18130273Y-32122855D01*
X-18464425Y-31984445D01*
X-18819158Y-31913884D01*
X-19180842Y-31913884D01*
X-19535575Y-31984445D01*
X-19869727Y-32122855D01*
X-20170456Y-32323796D01*
X-20426204Y-32579544D01*
X-20627145Y-32880273D01*
X-20765555Y-33214425D01*
X-20836116Y-33569158D01*
X-21175000Y-33569158D01*
X-21175000Y-29188886D01*
X-8870000Y-29188886D01*
X-8870000Y-29435114D01*
X-8821963Y-29676611D01*
X-8727735Y-29904097D01*
X-8590938Y-30108828D01*
X-8416828Y-30282938D01*
X-8212097Y-30419735D01*
X-7984611Y-30513963D01*
X-7743114Y-30562000D01*
X-7496886Y-30562000D01*
X-7255389Y-30513963D01*
X-7027903Y-30419735D01*
X-6965824Y-30378255D01*
X-6973099Y-30395818D01*
X-7000000Y-30531056D01*
X-7000000Y-30668944D01*
X-6978444Y-30777313D01*
X-7027903Y-30744265D01*
X-7255389Y-30650037D01*
X-7496886Y-30602000D01*
X-7743114Y-30602000D01*
X-7984611Y-30650037D01*
X-8212097Y-30744265D01*
X-8416828Y-30881062D01*
X-8590938Y-31055172D01*
X-8727735Y-31259903D01*
X-8821963Y-31487389D01*
X-8870000Y-31728886D01*
X-8870000Y-31975114D01*
X-8821963Y-32216611D01*
X-8727735Y-32444097D01*
X-8590938Y-32648828D01*
X-8416828Y-32822938D01*
X-8212097Y-32959735D01*
X-7984611Y-33053963D01*
X-7743114Y-33102000D01*
X-7496886Y-33102000D01*
X-7255389Y-33053963D01*
X-7027903Y-32959735D01*
X-6823172Y-32822938D01*
X-6649062Y-32648828D01*
X-6550000Y-32500571D01*
X-6550000Y-32685604D01*
X-7113291Y-33248896D01*
X-7255389Y-33190037D01*
X-7496886Y-33142000D01*
X-7743114Y-33142000D01*
X-7984611Y-33190037D01*
X-8212097Y-33284265D01*
X-8416828Y-33421062D01*
X-8590938Y-33595172D01*
X-8727735Y-33799903D01*
X-8821963Y-34027389D01*
X-8870000Y-34268886D01*
X-8870000Y-34515114D01*
X-8821963Y-34756611D01*
X-8727735Y-34984097D01*
X-8590938Y-35188828D01*
X-8416828Y-35362938D01*
X-8212097Y-35499735D01*
X-7984611Y-35593963D01*
X-7743114Y-35642000D01*
X-7496886Y-35642000D01*
X-7255389Y-35593963D01*
X-7027903Y-35499735D01*
X-6823172Y-35362938D01*
X-6649062Y-35188828D01*
X-6512265Y-34984097D01*
X-6418037Y-34756611D01*
X-6370000Y-34515114D01*
X-6370000Y-34268886D01*
X-6418037Y-34027389D01*
X-6476896Y-33885291D01*
X-5797427Y-33205823D01*
X-5780263Y-33191737D01*
X-5766176Y-33174572D01*
X-5766172Y-33174568D01*
X-5724029Y-33123217D01*
X-5682243Y-33045041D01*
X-5682243Y-33045040D01*
X-5656511Y-32960215D01*
X-5650000Y-32894105D01*
X-5650000Y-32894094D01*
X-5647824Y-32872000D01*
X-5650000Y-32849906D01*
X-5650000Y-31522094D01*
X-5647824Y-31500000D01*
X-5650000Y-31477906D01*
X-5650000Y-31477895D01*
X-5656511Y-31411785D01*
X-5682243Y-31326959D01*
X-5724029Y-31248784D01*
X-5780263Y-31180263D01*
X-5797434Y-31166171D01*
X-5836828Y-31126778D01*
X-5756274Y-31046224D01*
X-5679668Y-30931574D01*
X-5626901Y-30804182D01*
X-5600000Y-30668944D01*
X-5600000Y-30531056D01*
X-5626901Y-30395818D01*
X-5679668Y-30268426D01*
X-5756274Y-30153776D01*
X-5853776Y-30056274D01*
X-5968426Y-29979668D01*
X-6095818Y-29926901D01*
X-6231056Y-29900000D01*
X-6368944Y-29900000D01*
X-6504182Y-29926901D01*
X-6536426Y-29940257D01*
X-6512265Y-29904097D01*
X-6418037Y-29676611D01*
X-6370000Y-29435114D01*
X-6370000Y-29188886D01*
X-6418037Y-28947389D01*
X-6510153Y-28725000D01*
X-5776452Y-28725000D01*
X-5770660Y-28783810D01*
X-5753505Y-28840361D01*
X-5725648Y-28892478D01*
X-5688159Y-28938159D01*
X-5642478Y-28975648D01*
X-5590361Y-29003505D01*
X-5533810Y-29020660D01*
X-5475000Y-29026452D01*
X-5125000Y-29025000D01*
X-5050000Y-28950000D01*
X-5050000Y-28375000D01*
X-4950000Y-28375000D01*
X-4950000Y-28950000D01*
X-4875000Y-29025000D01*
X-4525000Y-29026452D01*
X-4466190Y-29020660D01*
X-4409639Y-29003505D01*
X-4357522Y-28975648D01*
X-4311841Y-28938159D01*
X-4274352Y-28892478D01*
X-4246495Y-28840361D01*
X-4229340Y-28783810D01*
X-4223548Y-28725000D01*
X-4225000Y-28450000D01*
X-4300000Y-28375000D01*
X-4950000Y-28375000D01*
X-5050000Y-28375000D01*
X-5700000Y-28375000D01*
X-5775000Y-28450000D01*
X-5776452Y-28725000D01*
X-6510153Y-28725000D01*
X-6512265Y-28719903D01*
X-6649062Y-28515172D01*
X-6823172Y-28341062D01*
X-7027903Y-28204265D01*
X-7255389Y-28110037D01*
X-7496886Y-28062000D01*
X-7743114Y-28062000D01*
X-7984611Y-28110037D01*
X-8212097Y-28204265D01*
X-8416828Y-28341062D01*
X-8590938Y-28515172D01*
X-8727735Y-28719903D01*
X-8821963Y-28947389D01*
X-8870000Y-29188886D01*
X-21175000Y-29188886D01*
X-21175000Y-28725000D01*
X-18776452Y-28725000D01*
X-18770660Y-28783810D01*
X-18753505Y-28840361D01*
X-18725648Y-28892478D01*
X-18688159Y-28938159D01*
X-18642478Y-28975648D01*
X-18590361Y-29003505D01*
X-18533810Y-29020660D01*
X-18475000Y-29026452D01*
X-18125000Y-29025000D01*
X-18050000Y-28950000D01*
X-18050000Y-28375000D01*
X-17950000Y-28375000D01*
X-17950000Y-28950000D01*
X-17875000Y-29025000D01*
X-17525000Y-29026452D01*
X-17466190Y-29020660D01*
X-17409639Y-29003505D01*
X-17357522Y-28975648D01*
X-17311841Y-28938159D01*
X-17274352Y-28892478D01*
X-17246495Y-28840361D01*
X-17229340Y-28783810D01*
X-17223548Y-28725000D01*
X-17225000Y-28450000D01*
X-17300000Y-28375000D01*
X-17950000Y-28375000D01*
X-18050000Y-28375000D01*
X-18700000Y-28375000D01*
X-18775000Y-28450000D01*
X-18776452Y-28725000D01*
X-21175000Y-28725000D01*
X-21175000Y-27925000D01*
X-18776452Y-27925000D01*
X-18775000Y-28200000D01*
X-18700000Y-28275000D01*
X-18050000Y-28275000D01*
X-18050000Y-27700000D01*
X-17950000Y-27700000D01*
X-17950000Y-28275000D01*
X-17300000Y-28275000D01*
X-17225000Y-28200000D01*
X-17223548Y-27925000D01*
X-17229340Y-27866190D01*
X-17246495Y-27809639D01*
X-17274352Y-27757522D01*
X-17311841Y-27711841D01*
X-17357522Y-27674352D01*
X-17409639Y-27646495D01*
X-17466190Y-27629340D01*
X-17525000Y-27623548D01*
X-17875000Y-27625000D01*
X-17950000Y-27700000D01*
X-18050000Y-27700000D01*
X-18125000Y-27625000D01*
X-18475000Y-27623548D01*
X-18533810Y-27629340D01*
X-18590361Y-27646495D01*
X-18642478Y-27674352D01*
X-18688159Y-27711841D01*
X-18725648Y-27757522D01*
X-18753505Y-27809639D01*
X-18770660Y-27866190D01*
X-18776452Y-27925000D01*
X-21175000Y-27925000D01*
X-21175000Y-26475000D01*
X-18826693Y-26475000D01*
X-18826693Y-26875000D01*
X-18816092Y-26982630D01*
X-18784698Y-27086124D01*
X-18733716Y-27181504D01*
X-18665106Y-27265106D01*
X-18581504Y-27333716D01*
X-18486124Y-27384698D01*
X-18382630Y-27416092D01*
X-18275000Y-27426693D01*
X-17725000Y-27426693D01*
X-17617370Y-27416092D01*
X-17513876Y-27384698D01*
X-17418496Y-27333716D01*
X-17334894Y-27265106D01*
X-17266284Y-27181504D01*
X-17215302Y-27086124D01*
X-17183908Y-26982630D01*
X-17183156Y-26975000D01*
X-16243767Y-26975000D01*
X-16298120Y-27106220D01*
X-16350000Y-27367037D01*
X-16350000Y-27632963D01*
X-16298120Y-27893780D01*
X-16196354Y-28139465D01*
X-16048613Y-28360575D01*
X-15860575Y-28548613D01*
X-15639465Y-28696354D01*
X-15393780Y-28798120D01*
X-15132963Y-28850000D01*
X-14867037Y-28850000D01*
X-14606220Y-28798120D01*
X-14360535Y-28696354D01*
X-14139425Y-28548613D01*
X-13951387Y-28360575D01*
X-13803646Y-28139465D01*
X-13701880Y-27893780D01*
X-13650000Y-27632963D01*
X-13650000Y-27367037D01*
X-11850000Y-27367037D01*
X-11850000Y-27632963D01*
X-11798120Y-27893780D01*
X-11696354Y-28139465D01*
X-11548613Y-28360575D01*
X-11360575Y-28548613D01*
X-11139465Y-28696354D01*
X-10893780Y-28798120D01*
X-10632963Y-28850000D01*
X-10367037Y-28850000D01*
X-10106220Y-28798120D01*
X-9860535Y-28696354D01*
X-9639425Y-28548613D01*
X-9451387Y-28360575D01*
X-9303646Y-28139465D01*
X-9201880Y-27893780D01*
X-9150000Y-27632963D01*
X-9150000Y-27367037D01*
X-9201880Y-27106220D01*
X-9303646Y-26860535D01*
X-9445065Y-26648886D01*
X-8870000Y-26648886D01*
X-8870000Y-26895114D01*
X-8821963Y-27136611D01*
X-8727735Y-27364097D01*
X-8590938Y-27568828D01*
X-8416828Y-27742938D01*
X-8212097Y-27879735D01*
X-7984611Y-27973963D01*
X-7743114Y-28022000D01*
X-7496886Y-28022000D01*
X-7255389Y-27973963D01*
X-7137183Y-27925000D01*
X-5776452Y-27925000D01*
X-5775000Y-28200000D01*
X-5700000Y-28275000D01*
X-5050000Y-28275000D01*
X-5050000Y-27700000D01*
X-4950000Y-27700000D01*
X-4950000Y-28275000D01*
X-4300000Y-28275000D01*
X-4225000Y-28200000D01*
X-4223548Y-27925000D01*
X-4229340Y-27866190D01*
X-4246495Y-27809639D01*
X-4274352Y-27757522D01*
X-4311841Y-27711841D01*
X-4357522Y-27674352D01*
X-4409639Y-27646495D01*
X-4466190Y-27629340D01*
X-4525000Y-27623548D01*
X-4875000Y-27625000D01*
X-4950000Y-27700000D01*
X-5050000Y-27700000D01*
X-5125000Y-27625000D01*
X-5475000Y-27623548D01*
X-5533810Y-27629340D01*
X-5590361Y-27646495D01*
X-5642478Y-27674352D01*
X-5688159Y-27711841D01*
X-5725648Y-27757522D01*
X-5753505Y-27809639D01*
X-5770660Y-27866190D01*
X-5776452Y-27925000D01*
X-7137183Y-27925000D01*
X-7027903Y-27879735D01*
X-6823172Y-27742938D01*
X-6649062Y-27568828D01*
X-6512265Y-27364097D01*
X-6418037Y-27136611D01*
X-6370000Y-26895114D01*
X-6370000Y-26648886D01*
X-6404588Y-26475000D01*
X-5826693Y-26475000D01*
X-5826693Y-26875000D01*
X-5816092Y-26982630D01*
X-5784698Y-27086124D01*
X-5733716Y-27181504D01*
X-5665106Y-27265106D01*
X-5581504Y-27333716D01*
X-5486124Y-27384698D01*
X-5382630Y-27416092D01*
X-5275000Y-27426693D01*
X-4725000Y-27426693D01*
X-4617370Y-27416092D01*
X-4513876Y-27384698D01*
X-4418496Y-27333716D01*
X-4334894Y-27265106D01*
X-4266284Y-27181504D01*
X-4215302Y-27086124D01*
X-4183908Y-26982630D01*
X-4183156Y-26975000D01*
X-3493767Y-26975000D01*
X-3548120Y-27106220D01*
X-3600000Y-27367037D01*
X-3600000Y-27632963D01*
X-3548120Y-27893780D01*
X-3446354Y-28139465D01*
X-3298613Y-28360575D01*
X-3110575Y-28548613D01*
X-2889465Y-28696354D01*
X-2725000Y-28764478D01*
X-2724999Y-32735522D01*
X-2889465Y-32803646D01*
X-3110575Y-32951387D01*
X-3298613Y-33139425D01*
X-3446354Y-33360535D01*
X-3548120Y-33606220D01*
X-3600000Y-33867037D01*
X-3600000Y-34132963D01*
X-3548120Y-34393780D01*
X-3446354Y-34639465D01*
X-3298613Y-34860575D01*
X-3110575Y-35048613D01*
X-2889465Y-35196354D01*
X-2643780Y-35298120D01*
X-2382963Y-35350000D01*
X-2117037Y-35350000D01*
X-1856220Y-35298120D01*
X-1610535Y-35196354D01*
X-1389425Y-35048613D01*
X-1201387Y-34860575D01*
X-1053646Y-34639465D01*
X-951880Y-34393780D01*
X-900000Y-34132963D01*
X-900000Y-33867037D01*
X900000Y-33867037D01*
X900000Y-34132963D01*
X951880Y-34393780D01*
X1053646Y-34639465D01*
X1201387Y-34860575D01*
X1389425Y-35048613D01*
X1610535Y-35196354D01*
X1856220Y-35298120D01*
X2117037Y-35350000D01*
X2382963Y-35350000D01*
X2643780Y-35298120D01*
X2889465Y-35196354D01*
X3110575Y-35048613D01*
X3298613Y-34860575D01*
X3446354Y-34639465D01*
X3548120Y-34393780D01*
X3572963Y-34268886D01*
X6370000Y-34268886D01*
X6370000Y-34515114D01*
X6418037Y-34756611D01*
X6512265Y-34984097D01*
X6649062Y-35188828D01*
X6823172Y-35362938D01*
X7027903Y-35499735D01*
X7255389Y-35593963D01*
X7496886Y-35642000D01*
X7743114Y-35642000D01*
X7984611Y-35593963D01*
X8212097Y-35499735D01*
X8416828Y-35362938D01*
X8590938Y-35188828D01*
X8727735Y-34984097D01*
X8821963Y-34756611D01*
X8870000Y-34515114D01*
X8870000Y-34268886D01*
X8821963Y-34027389D01*
X8755543Y-33867037D01*
X9150000Y-33867037D01*
X9150000Y-34132963D01*
X9201880Y-34393780D01*
X9303646Y-34639465D01*
X9451387Y-34860575D01*
X9639425Y-35048613D01*
X9860535Y-35196354D01*
X10106220Y-35298120D01*
X10367037Y-35350000D01*
X10632963Y-35350000D01*
X10893780Y-35298120D01*
X11139465Y-35196354D01*
X11360575Y-35048613D01*
X11548613Y-34860575D01*
X11696354Y-34639465D01*
X11798120Y-34393780D01*
X11850000Y-34132963D01*
X11850000Y-33867037D01*
X13650000Y-33867037D01*
X13650000Y-34132963D01*
X13701880Y-34393780D01*
X13803646Y-34639465D01*
X13951387Y-34860575D01*
X14139425Y-35048613D01*
X14360535Y-35196354D01*
X14606220Y-35298120D01*
X14867037Y-35350000D01*
X15132963Y-35350000D01*
X15393780Y-35298120D01*
X15639465Y-35196354D01*
X15860575Y-35048613D01*
X16048613Y-34860575D01*
X16196354Y-34639465D01*
X16298120Y-34393780D01*
X16350000Y-34132963D01*
X16350000Y-33867037D01*
X16298120Y-33606220D01*
X16282769Y-33569158D01*
X17163884Y-33569158D01*
X17163884Y-33930842D01*
X17234445Y-34285575D01*
X17372855Y-34619727D01*
X17573796Y-34920456D01*
X17829544Y-35176204D01*
X18130273Y-35377145D01*
X18464425Y-35515555D01*
X18819158Y-35586116D01*
X19180842Y-35586116D01*
X19535575Y-35515555D01*
X19869727Y-35377145D01*
X20170456Y-35176204D01*
X20426204Y-34920456D01*
X20627145Y-34619727D01*
X20765555Y-34285575D01*
X20836116Y-33930842D01*
X20836116Y-33569158D01*
X20765555Y-33214425D01*
X20627145Y-32880273D01*
X20426204Y-32579544D01*
X20170456Y-32323796D01*
X19869727Y-32122855D01*
X19535575Y-31984445D01*
X19180842Y-31913884D01*
X18819158Y-31913884D01*
X18464425Y-31984445D01*
X18130273Y-32122855D01*
X17829544Y-32323796D01*
X17573796Y-32579544D01*
X17372855Y-32880273D01*
X17234445Y-33214425D01*
X17163884Y-33569158D01*
X16282769Y-33569158D01*
X16196354Y-33360535D01*
X16048613Y-33139425D01*
X15860575Y-32951387D01*
X15639465Y-32803646D01*
X15393780Y-32701880D01*
X15132963Y-32650000D01*
X14867037Y-32650000D01*
X14606220Y-32701880D01*
X14360535Y-32803646D01*
X14139425Y-32951387D01*
X13951387Y-33139425D01*
X13803646Y-33360535D01*
X13701880Y-33606220D01*
X13650000Y-33867037D01*
X11850000Y-33867037D01*
X11798120Y-33606220D01*
X11696354Y-33360535D01*
X11548613Y-33139425D01*
X11360575Y-32951387D01*
X11139465Y-32803646D01*
X10893780Y-32701880D01*
X10632963Y-32650000D01*
X10367037Y-32650000D01*
X10106220Y-32701880D01*
X9860535Y-32803646D01*
X9639425Y-32951387D01*
X9451387Y-33139425D01*
X9303646Y-33360535D01*
X9201880Y-33606220D01*
X9150000Y-33867037D01*
X8755543Y-33867037D01*
X8727735Y-33799903D01*
X8590938Y-33595172D01*
X8416828Y-33421062D01*
X8212097Y-33284265D01*
X7984611Y-33190037D01*
X7743114Y-33142000D01*
X7496886Y-33142000D01*
X7255389Y-33190037D01*
X7027903Y-33284265D01*
X6823172Y-33421062D01*
X6649062Y-33595172D01*
X6512265Y-33799903D01*
X6418037Y-34027389D01*
X6370000Y-34268886D01*
X3572963Y-34268886D01*
X3600000Y-34132963D01*
X3600000Y-33867037D01*
X3548120Y-33606220D01*
X3446354Y-33360535D01*
X3298613Y-33139425D01*
X3110575Y-32951387D01*
X2889465Y-32803646D01*
X2643780Y-32701880D01*
X2564822Y-32686174D01*
X6856537Y-32686174D01*
X6952305Y-32856068D01*
X7161019Y-32967036D01*
X7387371Y-33035153D01*
X7622663Y-33057802D01*
X7857852Y-33034114D01*
X8083900Y-32964997D01*
X8287695Y-32856068D01*
X8383463Y-32686174D01*
X7620000Y-31922711D01*
X6856537Y-32686174D01*
X2564822Y-32686174D01*
X2382963Y-32650000D01*
X2117037Y-32650000D01*
X1856220Y-32701880D01*
X1610535Y-32803646D01*
X1389425Y-32951387D01*
X1201387Y-33139425D01*
X1053646Y-33360535D01*
X951880Y-33606220D01*
X900000Y-33867037D01*
X-900000Y-33867037D01*
X-951880Y-33606220D01*
X-1053646Y-33360535D01*
X-1201387Y-33139425D01*
X-1389425Y-32951387D01*
X-1610535Y-32803646D01*
X-1775000Y-32735522D01*
X-1775000Y-31854663D01*
X6414198Y-31854663D01*
X6437886Y-32089852D01*
X6507003Y-32315900D01*
X6615932Y-32519695D01*
X6785826Y-32615463D01*
X7549289Y-31852000D01*
X7690711Y-31852000D01*
X8454174Y-32615463D01*
X8624068Y-32519695D01*
X8735036Y-32310981D01*
X8803153Y-32084629D01*
X8825802Y-31849337D01*
X8802114Y-31614148D01*
X8732997Y-31388100D01*
X8624068Y-31184305D01*
X8454174Y-31088537D01*
X7690711Y-31852000D01*
X7549289Y-31852000D01*
X6785826Y-31088537D01*
X6615932Y-31184305D01*
X6504964Y-31393019D01*
X6436847Y-31619371D01*
X6414198Y-31854663D01*
X-1775000Y-31854663D01*
X-1775000Y-31017826D01*
X6856537Y-31017826D01*
X7620000Y-31781289D01*
X8383463Y-31017826D01*
X8287695Y-30847932D01*
X8078981Y-30736964D01*
X7852629Y-30668847D01*
X7617337Y-30646198D01*
X7382148Y-30669886D01*
X7156100Y-30739003D01*
X6952305Y-30847932D01*
X6856537Y-31017826D01*
X-1775000Y-31017826D01*
X-1775000Y-29188886D01*
X6370000Y-29188886D01*
X6370000Y-29435114D01*
X6418037Y-29676611D01*
X6512265Y-29904097D01*
X6649062Y-30108828D01*
X6823172Y-30282938D01*
X7027903Y-30419735D01*
X7255389Y-30513963D01*
X7496886Y-30562000D01*
X7743114Y-30562000D01*
X7984611Y-30513963D01*
X8212097Y-30419735D01*
X8416828Y-30282938D01*
X8590938Y-30108828D01*
X8727735Y-29904097D01*
X8821963Y-29676611D01*
X8870000Y-29435114D01*
X8870000Y-29188886D01*
X8821963Y-28947389D01*
X8727735Y-28719903D01*
X8590938Y-28515172D01*
X8416828Y-28341062D01*
X8212097Y-28204265D01*
X7984611Y-28110037D01*
X7743114Y-28062000D01*
X7496886Y-28062000D01*
X7255389Y-28110037D01*
X7027903Y-28204265D01*
X6823172Y-28341062D01*
X6649062Y-28515172D01*
X6512265Y-28719903D01*
X6418037Y-28947389D01*
X6370000Y-29188886D01*
X-1775000Y-29188886D01*
X-1775000Y-28764478D01*
X-1610535Y-28696354D01*
X-1389425Y-28548613D01*
X-1201387Y-28360575D01*
X-1053646Y-28139465D01*
X-951880Y-27893780D01*
X-900000Y-27632963D01*
X-900000Y-27367037D01*
X900000Y-27367037D01*
X900000Y-27632963D01*
X951880Y-27893780D01*
X1053646Y-28139465D01*
X1201387Y-28360575D01*
X1389425Y-28548613D01*
X1610535Y-28696354D01*
X1856220Y-28798120D01*
X2117037Y-28850000D01*
X2382963Y-28850000D01*
X2643780Y-28798120D01*
X2889465Y-28696354D01*
X3110575Y-28548613D01*
X3298613Y-28360575D01*
X3446354Y-28139465D01*
X3548120Y-27893780D01*
X3600000Y-27632963D01*
X3600000Y-27367037D01*
X3548120Y-27106220D01*
X3446354Y-26860535D01*
X3304935Y-26648886D01*
X6370000Y-26648886D01*
X6370000Y-26895114D01*
X6418037Y-27136611D01*
X6512265Y-27364097D01*
X6649062Y-27568828D01*
X6823172Y-27742938D01*
X7027903Y-27879735D01*
X7255389Y-27973963D01*
X7496886Y-28022000D01*
X7743114Y-28022000D01*
X7984611Y-27973963D01*
X8212097Y-27879735D01*
X8416828Y-27742938D01*
X8590938Y-27568828D01*
X8725770Y-27367037D01*
X9150000Y-27367037D01*
X9150000Y-27632963D01*
X9201880Y-27893780D01*
X9303646Y-28139465D01*
X9451387Y-28360575D01*
X9639425Y-28548613D01*
X9860535Y-28696354D01*
X10106220Y-28798120D01*
X10367037Y-28850000D01*
X10632963Y-28850000D01*
X10893780Y-28798120D01*
X11058246Y-28729996D01*
X11522621Y-29194372D01*
X11537500Y-29212502D01*
X11609828Y-29271860D01*
X11692347Y-29315967D01*
X11754723Y-29334889D01*
X11781884Y-29343128D01*
X11875000Y-29352299D01*
X11898333Y-29350001D01*
X15636669Y-29350001D01*
X15660001Y-29352299D01*
X15683333Y-29350001D01*
X15753117Y-29343128D01*
X15842655Y-29315967D01*
X15925174Y-29271860D01*
X15997502Y-29212502D01*
X16012385Y-29194368D01*
X16481753Y-28725000D01*
X17223548Y-28725000D01*
X17229340Y-28783810D01*
X17246495Y-28840361D01*
X17274352Y-28892478D01*
X17311841Y-28938159D01*
X17357522Y-28975648D01*
X17409639Y-29003505D01*
X17466190Y-29020660D01*
X17525000Y-29026452D01*
X17875000Y-29025000D01*
X17950000Y-28950000D01*
X17950000Y-28375000D01*
X18050000Y-28375000D01*
X18050000Y-28950000D01*
X18125000Y-29025000D01*
X18475000Y-29026452D01*
X18533810Y-29020660D01*
X18590361Y-29003505D01*
X18642478Y-28975648D01*
X18688159Y-28938159D01*
X18725648Y-28892478D01*
X18753505Y-28840361D01*
X18770660Y-28783810D01*
X18776452Y-28725000D01*
X18775000Y-28450000D01*
X18700000Y-28375000D01*
X18050000Y-28375000D01*
X17950000Y-28375000D01*
X17300000Y-28375000D01*
X17225000Y-28450000D01*
X17223548Y-28725000D01*
X16481753Y-28725000D01*
X16694378Y-28512376D01*
X16712502Y-28497502D01*
X16771860Y-28425174D01*
X16815967Y-28342655D01*
X16843128Y-28253117D01*
X16850001Y-28183333D01*
X16852299Y-28160001D01*
X16850001Y-28136669D01*
X16850001Y-27925000D01*
X17223548Y-27925000D01*
X17225000Y-28200000D01*
X17300000Y-28275000D01*
X17950000Y-28275000D01*
X17950000Y-27700000D01*
X18050000Y-27700000D01*
X18050000Y-28275000D01*
X18700000Y-28275000D01*
X18775000Y-28200000D01*
X18776452Y-27925000D01*
X18770660Y-27866190D01*
X18753505Y-27809639D01*
X18725648Y-27757522D01*
X18688159Y-27711841D01*
X18642478Y-27674352D01*
X18590361Y-27646495D01*
X18533810Y-27629340D01*
X18475000Y-27623548D01*
X18125000Y-27625000D01*
X18050000Y-27700000D01*
X17950000Y-27700000D01*
X17875000Y-27625000D01*
X17525000Y-27623548D01*
X17466190Y-27629340D01*
X17409639Y-27646495D01*
X17357522Y-27674352D01*
X17311841Y-27711841D01*
X17274352Y-27757522D01*
X17246495Y-27809639D01*
X17229340Y-27866190D01*
X17223548Y-27925000D01*
X16850001Y-27925000D01*
X16850001Y-27421749D01*
X17121751Y-27150000D01*
X17249445Y-27150000D01*
X17266284Y-27181504D01*
X17334894Y-27265106D01*
X17418496Y-27333716D01*
X17513876Y-27384698D01*
X17617370Y-27416092D01*
X17725000Y-27426693D01*
X18275000Y-27426693D01*
X18382630Y-27416092D01*
X18486124Y-27384698D01*
X18581504Y-27333716D01*
X18665106Y-27265106D01*
X18733716Y-27181504D01*
X18784698Y-27086124D01*
X18816092Y-26982630D01*
X18826693Y-26875000D01*
X18826693Y-26475000D01*
X18816092Y-26367370D01*
X18784698Y-26263876D01*
X18733716Y-26168496D01*
X18665106Y-26084894D01*
X18581504Y-26016284D01*
X18486124Y-25965302D01*
X18382630Y-25933908D01*
X18275000Y-25923307D01*
X17725000Y-25923307D01*
X17617370Y-25933908D01*
X17513876Y-25965302D01*
X17418496Y-26016284D01*
X17334894Y-26084894D01*
X17266284Y-26168496D01*
X17249445Y-26200000D01*
X16948332Y-26200000D01*
X16924999Y-26197702D01*
X16831883Y-26206873D01*
X16804722Y-26215112D01*
X16742346Y-26234034D01*
X16659827Y-26278141D01*
X16587499Y-26337499D01*
X16572620Y-26355629D01*
X16144828Y-26783421D01*
X16048613Y-26639425D01*
X15860575Y-26451387D01*
X15639465Y-26303646D01*
X15393780Y-26201880D01*
X15132963Y-26150000D01*
X14867037Y-26150000D01*
X14606220Y-26201880D01*
X14360535Y-26303646D01*
X14139425Y-26451387D01*
X13951387Y-26639425D01*
X13803646Y-26860535D01*
X13701880Y-27106220D01*
X13650000Y-27367037D01*
X13650000Y-27632963D01*
X13701880Y-27893780D01*
X13803646Y-28139465D01*
X13951387Y-28360575D01*
X13990813Y-28400001D01*
X12071752Y-28400001D01*
X11729996Y-28058246D01*
X11798120Y-27893780D01*
X11850000Y-27632963D01*
X11850000Y-27367037D01*
X11798120Y-27106220D01*
X11696354Y-26860535D01*
X11548613Y-26639425D01*
X11360575Y-26451387D01*
X11139465Y-26303646D01*
X10893780Y-26201880D01*
X10632963Y-26150000D01*
X10367037Y-26150000D01*
X10106220Y-26201880D01*
X9860535Y-26303646D01*
X9639425Y-26451387D01*
X9451387Y-26639425D01*
X9303646Y-26860535D01*
X9201880Y-27106220D01*
X9150000Y-27367037D01*
X8725770Y-27367037D01*
X8727735Y-27364097D01*
X8821963Y-27136611D01*
X8870000Y-26895114D01*
X8870000Y-26648886D01*
X8821963Y-26407389D01*
X8727735Y-26179903D01*
X8590938Y-25975172D01*
X8416828Y-25801062D01*
X8212097Y-25664265D01*
X7984611Y-25570037D01*
X7743114Y-25522000D01*
X7496886Y-25522000D01*
X7255389Y-25570037D01*
X7027903Y-25664265D01*
X6823172Y-25801062D01*
X6649062Y-25975172D01*
X6512265Y-26179903D01*
X6418037Y-26407389D01*
X6370000Y-26648886D01*
X3304935Y-26648886D01*
X3298613Y-26639425D01*
X3110575Y-26451387D01*
X2889465Y-26303646D01*
X2643780Y-26201880D01*
X2382963Y-26150000D01*
X2117037Y-26150000D01*
X1856220Y-26201880D01*
X1610535Y-26303646D01*
X1389425Y-26451387D01*
X1201387Y-26639425D01*
X1053646Y-26860535D01*
X951880Y-27106220D01*
X900000Y-27367037D01*
X-900000Y-27367037D01*
X-951880Y-27106220D01*
X-1053646Y-26860535D01*
X-1201387Y-26639425D01*
X-1389425Y-26451387D01*
X-1610535Y-26303646D01*
X-1856220Y-26201880D01*
X-2117037Y-26150000D01*
X-2382963Y-26150000D01*
X-2643780Y-26201880D01*
X-2808246Y-26270004D01*
X-2897616Y-26180634D01*
X-2912499Y-26162499D01*
X-2984827Y-26103141D01*
X-3067346Y-26059034D01*
X-3156884Y-26031873D01*
X-3226668Y-26025000D01*
X-3250000Y-26022702D01*
X-3273332Y-26025000D01*
X-4407875Y-26025000D01*
X-4418496Y-26016284D01*
X-4513876Y-25965302D01*
X-4617370Y-25933908D01*
X-4725000Y-25923307D01*
X-5275000Y-25923307D01*
X-5382630Y-25933908D01*
X-5486124Y-25965302D01*
X-5581504Y-26016284D01*
X-5665106Y-26084894D01*
X-5733716Y-26168496D01*
X-5784698Y-26263876D01*
X-5816092Y-26367370D01*
X-5826693Y-26475000D01*
X-6404588Y-26475000D01*
X-6418037Y-26407389D01*
X-6512265Y-26179903D01*
X-6649062Y-25975172D01*
X-6823172Y-25801062D01*
X-7027903Y-25664265D01*
X-7255389Y-25570037D01*
X-7496886Y-25522000D01*
X-7743114Y-25522000D01*
X-7984611Y-25570037D01*
X-8212097Y-25664265D01*
X-8416828Y-25801062D01*
X-8590938Y-25975172D01*
X-8727735Y-26179903D01*
X-8821963Y-26407389D01*
X-8870000Y-26648886D01*
X-9445065Y-26648886D01*
X-9451387Y-26639425D01*
X-9639425Y-26451387D01*
X-9860535Y-26303646D01*
X-10106220Y-26201880D01*
X-10367037Y-26150000D01*
X-10632963Y-26150000D01*
X-10893780Y-26201880D01*
X-11139465Y-26303646D01*
X-11360575Y-26451387D01*
X-11548613Y-26639425D01*
X-11696354Y-26860535D01*
X-11798120Y-27106220D01*
X-11850000Y-27367037D01*
X-13650000Y-27367037D01*
X-13701880Y-27106220D01*
X-13803646Y-26860535D01*
X-13951387Y-26639425D01*
X-14139425Y-26451387D01*
X-14360535Y-26303646D01*
X-14606220Y-26201880D01*
X-14867037Y-26150000D01*
X-15132963Y-26150000D01*
X-15393780Y-26201880D01*
X-15558246Y-26270004D01*
X-15647616Y-26180634D01*
X-15662499Y-26162499D01*
X-15734827Y-26103141D01*
X-15817346Y-26059034D01*
X-15906884Y-26031873D01*
X-15976668Y-26025000D01*
X-16000000Y-26022702D01*
X-16023332Y-26025000D01*
X-17407875Y-26025000D01*
X-17418496Y-26016284D01*
X-17513876Y-25965302D01*
X-17617370Y-25933908D01*
X-17725000Y-25923307D01*
X-18275000Y-25923307D01*
X-18382630Y-25933908D01*
X-18486124Y-25965302D01*
X-18581504Y-26016284D01*
X-18665106Y-26084894D01*
X-18733716Y-26168496D01*
X-18784698Y-26263876D01*
X-18816092Y-26367370D01*
X-18826693Y-26475000D01*
X-21175000Y-26475000D01*
X-21175000Y-22817791D01*
X-16850000Y-22817791D01*
X-16850000Y-23182209D01*
X-16778905Y-23539625D01*
X-16639448Y-23876303D01*
X-16436989Y-24179306D01*
X-16179306Y-24436989D01*
X-15876303Y-24639448D01*
X-15539625Y-24778905D01*
X-15182209Y-24850000D01*
X-14817791Y-24850000D01*
X-14460375Y-24778905D01*
X-14123697Y-24639448D01*
X-13820694Y-24436989D01*
X-13563011Y-24179306D01*
X-13515959Y-24108886D01*
X-8870000Y-24108886D01*
X-8870000Y-24355114D01*
X-8821963Y-24596611D01*
X-8727735Y-24824097D01*
X-8590938Y-25028828D01*
X-8416828Y-25202938D01*
X-8212097Y-25339735D01*
X-7984611Y-25433963D01*
X-7743114Y-25482000D01*
X-7496886Y-25482000D01*
X-7255389Y-25433963D01*
X-7027903Y-25339735D01*
X-6823172Y-25202938D01*
X-6649062Y-25028828D01*
X-6512265Y-24824097D01*
X-6418037Y-24596611D01*
X-6370000Y-24355114D01*
X-6370000Y-24108886D01*
X6370000Y-24108886D01*
X6370000Y-24355114D01*
X6418037Y-24596611D01*
X6512265Y-24824097D01*
X6649062Y-25028828D01*
X6823172Y-25202938D01*
X7027903Y-25339735D01*
X7255389Y-25433963D01*
X7496886Y-25482000D01*
X7743114Y-25482000D01*
X7984611Y-25433963D01*
X8212097Y-25339735D01*
X8416828Y-25202938D01*
X8590938Y-25028828D01*
X8727735Y-24824097D01*
X8821963Y-24596611D01*
X8870000Y-24355114D01*
X8870000Y-24108886D01*
X8821963Y-23867389D01*
X8727735Y-23639903D01*
X8590938Y-23435172D01*
X8416828Y-23261062D01*
X8212097Y-23124265D01*
X7984611Y-23030037D01*
X7743114Y-22982000D01*
X7496886Y-22982000D01*
X7255389Y-23030037D01*
X7027903Y-23124265D01*
X6823172Y-23261062D01*
X6649062Y-23435172D01*
X6512265Y-23639903D01*
X6418037Y-23867389D01*
X6370000Y-24108886D01*
X-6370000Y-24108886D01*
X-6418037Y-23867389D01*
X-6512265Y-23639903D01*
X-6649062Y-23435172D01*
X-6823172Y-23261062D01*
X-7027903Y-23124265D01*
X-7255389Y-23030037D01*
X-7496886Y-22982000D01*
X-7743114Y-22982000D01*
X-7984611Y-23030037D01*
X-8212097Y-23124265D01*
X-8416828Y-23261062D01*
X-8590938Y-23435172D01*
X-8727735Y-23639903D01*
X-8821963Y-23867389D01*
X-8870000Y-24108886D01*
X-13515959Y-24108886D01*
X-13360552Y-23876303D01*
X-13221095Y-23539625D01*
X-13150000Y-23182209D01*
X-13150000Y-22817791D01*
X-13221095Y-22460375D01*
X-13360552Y-22123697D01*
X-13563011Y-21820694D01*
X-13814819Y-21568886D01*
X-8870000Y-21568886D01*
X-8870000Y-21815114D01*
X-8821963Y-22056611D01*
X-8727735Y-22284097D01*
X-8590938Y-22488828D01*
X-8416828Y-22662938D01*
X-8212097Y-22799735D01*
X-7984611Y-22893963D01*
X-7743114Y-22942000D01*
X-7496886Y-22942000D01*
X-7255389Y-22893963D01*
X-7027903Y-22799735D01*
X-6823172Y-22662938D01*
X-6649062Y-22488828D01*
X-6512265Y-22284097D01*
X-6418037Y-22056611D01*
X-6370000Y-21815114D01*
X-6370000Y-21568886D01*
X6370000Y-21568886D01*
X6370000Y-21815114D01*
X6418037Y-22056611D01*
X6512265Y-22284097D01*
X6649062Y-22488828D01*
X6823172Y-22662938D01*
X7027903Y-22799735D01*
X7255389Y-22893963D01*
X7496886Y-22942000D01*
X7743114Y-22942000D01*
X7984611Y-22893963D01*
X8168506Y-22817791D01*
X13150000Y-22817791D01*
X13150000Y-23182209D01*
X13221095Y-23539625D01*
X13360552Y-23876303D01*
X13563011Y-24179306D01*
X13820694Y-24436989D01*
X14123697Y-24639448D01*
X14460375Y-24778905D01*
X14817791Y-24850000D01*
X15182209Y-24850000D01*
X15539625Y-24778905D01*
X15876303Y-24639448D01*
X16179306Y-24436989D01*
X16436989Y-24179306D01*
X16639448Y-23876303D01*
X16778905Y-23539625D01*
X16850000Y-23182209D01*
X16850000Y-22817791D01*
X16778905Y-22460375D01*
X16639448Y-22123697D01*
X16436989Y-21820694D01*
X16179306Y-21563011D01*
X15876303Y-21360552D01*
X15539625Y-21221095D01*
X15182209Y-21150000D01*
X14817791Y-21150000D01*
X14460375Y-21221095D01*
X14123697Y-21360552D01*
X13820694Y-21563011D01*
X13563011Y-21820694D01*
X13360552Y-22123697D01*
X13221095Y-22460375D01*
X13150000Y-22817791D01*
X8168506Y-22817791D01*
X8212097Y-22799735D01*
X8416828Y-22662938D01*
X8590938Y-22488828D01*
X8727735Y-22284097D01*
X8821963Y-22056611D01*
X8870000Y-21815114D01*
X8870000Y-21568886D01*
X8821963Y-21327389D01*
X8727735Y-21099903D01*
X8590938Y-20895172D01*
X8416828Y-20721062D01*
X8212097Y-20584265D01*
X7984611Y-20490037D01*
X7743114Y-20442000D01*
X7496886Y-20442000D01*
X7255389Y-20490037D01*
X7027903Y-20584265D01*
X6823172Y-20721062D01*
X6649062Y-20895172D01*
X6512265Y-21099903D01*
X6418037Y-21327389D01*
X6370000Y-21568886D01*
X-6370000Y-21568886D01*
X-6418037Y-21327389D01*
X-6512265Y-21099903D01*
X-6649062Y-20895172D01*
X-6823172Y-20721062D01*
X-7027903Y-20584265D01*
X-7255389Y-20490037D01*
X-7496886Y-20442000D01*
X-7743114Y-20442000D01*
X-7984611Y-20490037D01*
X-8212097Y-20584265D01*
X-8416828Y-20721062D01*
X-8590938Y-20895172D01*
X-8727735Y-21099903D01*
X-8821963Y-21327389D01*
X-8870000Y-21568886D01*
X-13814819Y-21568886D01*
X-13820694Y-21563011D01*
X-14123697Y-21360552D01*
X-14460375Y-21221095D01*
X-14817791Y-21150000D01*
X-15182209Y-21150000D01*
X-15539625Y-21221095D01*
X-15876303Y-21360552D01*
X-16179306Y-21563011D01*
X-16436989Y-21820694D01*
X-16639448Y-22123697D01*
X-16778905Y-22460375D01*
X-16850000Y-22817791D01*
X-21175000Y-22817791D01*
X-21175000Y-19028886D01*
X-8870000Y-19028886D01*
X-8870000Y-19275114D01*
X-8821963Y-19516611D01*
X-8727735Y-19744097D01*
X-8590938Y-19948828D01*
X-8416828Y-20122938D01*
X-8212097Y-20259735D01*
X-7984611Y-20353963D01*
X-7743114Y-20402000D01*
X-7496886Y-20402000D01*
X-7255389Y-20353963D01*
X-7027903Y-20259735D01*
X-6823172Y-20122938D01*
X-6649062Y-19948828D01*
X-6512265Y-19744097D01*
X-6418037Y-19516611D01*
X-6370000Y-19275114D01*
X-6370000Y-19028886D01*
X6370000Y-19028886D01*
X6370000Y-19275114D01*
X6418037Y-19516611D01*
X6512265Y-19744097D01*
X6649062Y-19948828D01*
X6823172Y-20122938D01*
X7027903Y-20259735D01*
X7255389Y-20353963D01*
X7496886Y-20402000D01*
X7743114Y-20402000D01*
X7984611Y-20353963D01*
X8212097Y-20259735D01*
X8416828Y-20122938D01*
X8590938Y-19948828D01*
X8727735Y-19744097D01*
X8821963Y-19516611D01*
X8870000Y-19275114D01*
X8870000Y-19028886D01*
X8821963Y-18787389D01*
X8727735Y-18559903D01*
X8590938Y-18355172D01*
X8416828Y-18181062D01*
X8212097Y-18044265D01*
X7984611Y-17950037D01*
X7743114Y-17902000D01*
X7496886Y-17902000D01*
X7255389Y-17950037D01*
X7027903Y-18044265D01*
X6823172Y-18181062D01*
X6649062Y-18355172D01*
X6512265Y-18559903D01*
X6418037Y-18787389D01*
X6370000Y-19028886D01*
X-6370000Y-19028886D01*
X-6418037Y-18787389D01*
X-6512265Y-18559903D01*
X-6649062Y-18355172D01*
X-6823172Y-18181062D01*
X-7027903Y-18044265D01*
X-7255389Y-17950037D01*
X-7496886Y-17902000D01*
X-7743114Y-17902000D01*
X-7984611Y-17950037D01*
X-8212097Y-18044265D01*
X-8416828Y-18181062D01*
X-8590938Y-18355172D01*
X-8727735Y-18559903D01*
X-8821963Y-18787389D01*
X-8870000Y-19028886D01*
X-21175000Y-19028886D01*
X-21175000Y-16488886D01*
X-8870000Y-16488886D01*
X-8870000Y-16735114D01*
X-8821963Y-16976611D01*
X-8727735Y-17204097D01*
X-8590938Y-17408828D01*
X-8416828Y-17582938D01*
X-8212097Y-17719735D01*
X-7984611Y-17813963D01*
X-7743114Y-17862000D01*
X-7496886Y-17862000D01*
X-7255389Y-17813963D01*
X-7027903Y-17719735D01*
X-6823172Y-17582938D01*
X-6649062Y-17408828D01*
X-6512265Y-17204097D01*
X-6418037Y-16976611D01*
X-6370000Y-16735114D01*
X-6370000Y-16488886D01*
X6370000Y-16488886D01*
X6370000Y-16735114D01*
X6418037Y-16976611D01*
X6512265Y-17204097D01*
X6649062Y-17408828D01*
X6823172Y-17582938D01*
X7027903Y-17719735D01*
X7255389Y-17813963D01*
X7496886Y-17862000D01*
X7743114Y-17862000D01*
X7984611Y-17813963D01*
X8212097Y-17719735D01*
X8416828Y-17582938D01*
X8590938Y-17408828D01*
X8727735Y-17204097D01*
X8821963Y-16976611D01*
X8870000Y-16735114D01*
X8870000Y-16488886D01*
X8821963Y-16247389D01*
X8727735Y-16019903D01*
X8590938Y-15815172D01*
X8416828Y-15641062D01*
X8212097Y-15504265D01*
X7984611Y-15410037D01*
X7743114Y-15362000D01*
X7496886Y-15362000D01*
X7255389Y-15410037D01*
X7027903Y-15504265D01*
X6823172Y-15641062D01*
X6649062Y-15815172D01*
X6512265Y-16019903D01*
X6418037Y-16247389D01*
X6370000Y-16488886D01*
X-6370000Y-16488886D01*
X-6418037Y-16247389D01*
X-6512265Y-16019903D01*
X-6649062Y-15815172D01*
X-6823172Y-15641062D01*
X-7027903Y-15504265D01*
X-7255389Y-15410037D01*
X-7496886Y-15362000D01*
X-7743114Y-15362000D01*
X-7984611Y-15410037D01*
X-8212097Y-15504265D01*
X-8416828Y-15641062D01*
X-8590938Y-15815172D01*
X-8727735Y-16019903D01*
X-8821963Y-16247389D01*
X-8870000Y-16488886D01*
X-21175000Y-16488886D01*
X-21175000Y-13948886D01*
X-8870000Y-13948886D01*
X-8870000Y-14195114D01*
X-8821963Y-14436611D01*
X-8727735Y-14664097D01*
X-8590938Y-14868828D01*
X-8416828Y-15042938D01*
X-8212097Y-15179735D01*
X-7984611Y-15273963D01*
X-7743114Y-15322000D01*
X-7496886Y-15322000D01*
X-7255389Y-15273963D01*
X-7027903Y-15179735D01*
X-6823172Y-15042938D01*
X-6649062Y-14868828D01*
X-6512265Y-14664097D01*
X-6418037Y-14436611D01*
X-6370000Y-14195114D01*
X-6370000Y-13948886D01*
X6370000Y-13948886D01*
X6370000Y-14195114D01*
X6418037Y-14436611D01*
X6512265Y-14664097D01*
X6649062Y-14868828D01*
X6823172Y-15042938D01*
X7027903Y-15179735D01*
X7255389Y-15273963D01*
X7496886Y-15322000D01*
X7743114Y-15322000D01*
X7984611Y-15273963D01*
X8212097Y-15179735D01*
X8416828Y-15042938D01*
X8590938Y-14868828D01*
X8727735Y-14664097D01*
X8821963Y-14436611D01*
X8870000Y-14195114D01*
X8870000Y-13948886D01*
X8821963Y-13707389D01*
X8727735Y-13479903D01*
X8590938Y-13275172D01*
X8416828Y-13101062D01*
X8212097Y-12964265D01*
X7984611Y-12870037D01*
X7743114Y-12822000D01*
X7496886Y-12822000D01*
X7255389Y-12870037D01*
X7027903Y-12964265D01*
X6823172Y-13101062D01*
X6649062Y-13275172D01*
X6512265Y-13479903D01*
X6418037Y-13707389D01*
X6370000Y-13948886D01*
X-6370000Y-13948886D01*
X-6418037Y-13707389D01*
X-6512265Y-13479903D01*
X-6649062Y-13275172D01*
X-6823172Y-13101062D01*
X-7027903Y-12964265D01*
X-7255389Y-12870037D01*
X-7496886Y-12822000D01*
X-7743114Y-12822000D01*
X-7984611Y-12870037D01*
X-8212097Y-12964265D01*
X-8416828Y-13101062D01*
X-8590938Y-13275172D01*
X-8727735Y-13479903D01*
X-8821963Y-13707389D01*
X-8870000Y-13948886D01*
X-21175000Y-13948886D01*
X-21175000Y-10715000D01*
X-16375806Y-10715000D01*
X-16352637Y-10950241D01*
X-16284019Y-11176442D01*
X-16172591Y-11384910D01*
X-16022634Y-11567634D01*
X-15839910Y-11717591D01*
X-15631442Y-11829019D01*
X-15405241Y-11897637D01*
X-15228950Y-11915000D01*
X-13811050Y-11915000D01*
X-13634759Y-11897637D01*
X-13408558Y-11829019D01*
X-13200090Y-11717591D01*
X-13017366Y-11567634D01*
X-12887086Y-11408886D01*
X-8870000Y-11408886D01*
X-8870000Y-11655114D01*
X-8821963Y-11896611D01*
X-8727735Y-12124097D01*
X-8590938Y-12328828D01*
X-8416828Y-12502938D01*
X-8212097Y-12639735D01*
X-7984611Y-12733963D01*
X-7743114Y-12782000D01*
X-7496886Y-12782000D01*
X-7255389Y-12733963D01*
X-7027903Y-12639735D01*
X-6823172Y-12502938D01*
X-6649062Y-12328828D01*
X-6512265Y-12124097D01*
X-6418037Y-11896611D01*
X-6370000Y-11655114D01*
X-6370000Y-11408886D01*
X6370000Y-11408886D01*
X6370000Y-11655114D01*
X6418037Y-11896611D01*
X6512265Y-12124097D01*
X6649062Y-12328828D01*
X6823172Y-12502938D01*
X7027903Y-12639735D01*
X7255389Y-12733963D01*
X7496886Y-12782000D01*
X7743114Y-12782000D01*
X7984611Y-12733963D01*
X8212097Y-12639735D01*
X8416828Y-12502938D01*
X8590938Y-12328828D01*
X8727735Y-12124097D01*
X8821963Y-11896611D01*
X8870000Y-11655114D01*
X8870000Y-11408886D01*
X8821963Y-11167389D01*
X8727735Y-10939903D01*
X8590938Y-10735172D01*
X8416828Y-10561062D01*
X8212097Y-10424265D01*
X7984611Y-10330037D01*
X7743114Y-10282000D01*
X7496886Y-10282000D01*
X7255389Y-10330037D01*
X7027903Y-10424265D01*
X6823172Y-10561062D01*
X6649062Y-10735172D01*
X6512265Y-10939903D01*
X6418037Y-11167389D01*
X6370000Y-11408886D01*
X-6370000Y-11408886D01*
X-6418037Y-11167389D01*
X-6512265Y-10939903D01*
X-6649062Y-10735172D01*
X-6823172Y-10561062D01*
X-7027903Y-10424265D01*
X-7255389Y-10330037D01*
X-7496886Y-10282000D01*
X-7743114Y-10282000D01*
X-7984611Y-10330037D01*
X-8212097Y-10424265D01*
X-8416828Y-10561062D01*
X-8590938Y-10735172D01*
X-8727735Y-10939903D01*
X-8821963Y-11167389D01*
X-8870000Y-11408886D01*
X-12887086Y-11408886D01*
X-12867409Y-11384910D01*
X-12755981Y-11176442D01*
X-12687363Y-10950241D01*
X-12664194Y-10715000D01*
X-12687363Y-10479759D01*
X-12755981Y-10253558D01*
X-12867409Y-10045090D01*
X-13017366Y-9862366D01*
X-13200090Y-9712409D01*
X-13408558Y-9600981D01*
X-13634759Y-9532363D01*
X-13811050Y-9515000D01*
X-15228950Y-9515000D01*
X-15405241Y-9532363D01*
X-15631442Y-9600981D01*
X-15839910Y-9712409D01*
X-16022634Y-9862366D01*
X-16172591Y-10045090D01*
X-16284019Y-10253558D01*
X-16352637Y-10479759D01*
X-16375806Y-10715000D01*
X-21175000Y-10715000D01*
X-21175000Y-8868886D01*
X-8870000Y-8868886D01*
X-8870000Y-9115114D01*
X-8821963Y-9356611D01*
X-8727735Y-9584097D01*
X-8590938Y-9788828D01*
X-8416828Y-9962938D01*
X-8212097Y-10099735D01*
X-7984611Y-10193963D01*
X-7743114Y-10242000D01*
X-7496886Y-10242000D01*
X-7255389Y-10193963D01*
X-7027903Y-10099735D01*
X-6823172Y-9962938D01*
X-6649062Y-9788828D01*
X-6512265Y-9584097D01*
X-6418037Y-9356611D01*
X-6370000Y-9115114D01*
X-6370000Y-8868886D01*
X6370000Y-8868886D01*
X6370000Y-9115114D01*
X6418037Y-9356611D01*
X6512265Y-9584097D01*
X6649062Y-9788828D01*
X6823172Y-9962938D01*
X7027903Y-10099735D01*
X7255389Y-10193963D01*
X7496886Y-10242000D01*
X7743114Y-10242000D01*
X7984611Y-10193963D01*
X8212097Y-10099735D01*
X8416828Y-9962938D01*
X8590938Y-9788828D01*
X8727735Y-9584097D01*
X8821963Y-9356611D01*
X8870000Y-9115114D01*
X8870000Y-8868886D01*
X8821963Y-8627389D01*
X8727735Y-8399903D01*
X8590938Y-8195172D01*
X8416828Y-8021062D01*
X8212097Y-7884265D01*
X7984611Y-7790037D01*
X7743114Y-7742000D01*
X7496886Y-7742000D01*
X7255389Y-7790037D01*
X7027903Y-7884265D01*
X6823172Y-8021062D01*
X6649062Y-8195172D01*
X6512265Y-8399903D01*
X6418037Y-8627389D01*
X6370000Y-8868886D01*
X-6370000Y-8868886D01*
X-6418037Y-8627389D01*
X-6512265Y-8399903D01*
X-6649062Y-8195172D01*
X-6823172Y-8021062D01*
X-7027903Y-7884265D01*
X-7255389Y-7790037D01*
X-7496886Y-7742000D01*
X-7743114Y-7742000D01*
X-7984611Y-7790037D01*
X-8212097Y-7884265D01*
X-8416828Y-8021062D01*
X-8590938Y-8195172D01*
X-8727735Y-8399903D01*
X-8821963Y-8627389D01*
X-8870000Y-8868886D01*
X-21175000Y-8868886D01*
X-21175000Y-6905000D01*
X-16375806Y-6905000D01*
X-16352637Y-7140241D01*
X-16284019Y-7366442D01*
X-16172591Y-7574910D01*
X-16022634Y-7757634D01*
X-15839910Y-7907591D01*
X-15631442Y-8019019D01*
X-15405241Y-8087637D01*
X-15228950Y-8105000D01*
X-13811050Y-8105000D01*
X-13634759Y-8087637D01*
X-13408558Y-8019019D01*
X-13200090Y-7907591D01*
X-13017366Y-7757634D01*
X-12867409Y-7574910D01*
X-12755981Y-7366442D01*
X-12687363Y-7140241D01*
X-12664194Y-6905000D01*
X-12687363Y-6669759D01*
X-12755981Y-6443558D01*
X-12817274Y-6328886D01*
X-8870000Y-6328886D01*
X-8870000Y-6575114D01*
X-8821963Y-6816611D01*
X-8727735Y-7044097D01*
X-8590938Y-7248828D01*
X-8416828Y-7422938D01*
X-8212097Y-7559735D01*
X-7984611Y-7653963D01*
X-7743114Y-7702000D01*
X-7496886Y-7702000D01*
X-7255389Y-7653963D01*
X-7027903Y-7559735D01*
X-6823172Y-7422938D01*
X-6649062Y-7248828D01*
X-6512265Y-7044097D01*
X-6418037Y-6816611D01*
X-6370000Y-6575114D01*
X-6370000Y-6328886D01*
X6370000Y-6328886D01*
X6370000Y-6575114D01*
X6418037Y-6816611D01*
X6512265Y-7044097D01*
X6649062Y-7248828D01*
X6823172Y-7422938D01*
X7027903Y-7559735D01*
X7255389Y-7653963D01*
X7496886Y-7702000D01*
X7743114Y-7702000D01*
X7984611Y-7653963D01*
X8212097Y-7559735D01*
X8416828Y-7422938D01*
X8590938Y-7248828D01*
X8727735Y-7044097D01*
X8821963Y-6816611D01*
X8870000Y-6575114D01*
X8870000Y-6328886D01*
X8821963Y-6087389D01*
X8727735Y-5859903D01*
X8590938Y-5655172D01*
X8416828Y-5481062D01*
X8212097Y-5344265D01*
X7984611Y-5250037D01*
X7743114Y-5202000D01*
X7496886Y-5202000D01*
X7255389Y-5250037D01*
X7027903Y-5344265D01*
X6823172Y-5481062D01*
X6649062Y-5655172D01*
X6512265Y-5859903D01*
X6418037Y-6087389D01*
X6370000Y-6328886D01*
X-6370000Y-6328886D01*
X-6418037Y-6087389D01*
X-6512265Y-5859903D01*
X-6649062Y-5655172D01*
X-6823172Y-5481062D01*
X-7027903Y-5344265D01*
X-7255389Y-5250037D01*
X-7496886Y-5202000D01*
X-7743114Y-5202000D01*
X-7984611Y-5250037D01*
X-8212097Y-5344265D01*
X-8416828Y-5481062D01*
X-8590938Y-5655172D01*
X-8727735Y-5859903D01*
X-8821963Y-6087389D01*
X-8870000Y-6328886D01*
X-12817274Y-6328886D01*
X-12867409Y-6235090D01*
X-13017366Y-6052366D01*
X-13200090Y-5902409D01*
X-13408558Y-5790981D01*
X-13634759Y-5722363D01*
X-13811050Y-5705000D01*
X-15228950Y-5705000D01*
X-15405241Y-5722363D01*
X-15631442Y-5790981D01*
X-15839910Y-5902409D01*
X-16022634Y-6052366D01*
X-16172591Y-6235090D01*
X-16284019Y-6443558D01*
X-16352637Y-6669759D01*
X-16375806Y-6905000D01*
X-21175000Y-6905000D01*
X-21175000Y-3788886D01*
X-8870000Y-3788886D01*
X-8870000Y-4035114D01*
X-8821963Y-4276611D01*
X-8727735Y-4504097D01*
X-8590938Y-4708828D01*
X-8416828Y-4882938D01*
X-8212097Y-5019735D01*
X-7984611Y-5113963D01*
X-7743114Y-5162000D01*
X-7496886Y-5162000D01*
X-7255389Y-5113963D01*
X-7027903Y-5019735D01*
X-6823172Y-4882938D01*
X-6649062Y-4708828D01*
X-6512265Y-4504097D01*
X-6418037Y-4276611D01*
X-6370000Y-4035114D01*
X-6370000Y-3788886D01*
X6370000Y-3788886D01*
X6370000Y-4035114D01*
X6418037Y-4276611D01*
X6512265Y-4504097D01*
X6649062Y-4708828D01*
X6823172Y-4882938D01*
X7027903Y-5019735D01*
X7255389Y-5113963D01*
X7496886Y-5162000D01*
X7743114Y-5162000D01*
X7984611Y-5113963D01*
X8212097Y-5019735D01*
X8416828Y-4882938D01*
X8590938Y-4708828D01*
X8727735Y-4504097D01*
X8821963Y-4276611D01*
X8870000Y-4035114D01*
X8870000Y-3788886D01*
X8821963Y-3547389D01*
X8727735Y-3319903D01*
X8590938Y-3115172D01*
X8416828Y-2941062D01*
X8212097Y-2804265D01*
X7984611Y-2710037D01*
X7743114Y-2662000D01*
X7496886Y-2662000D01*
X7255389Y-2710037D01*
X7027903Y-2804265D01*
X6823172Y-2941062D01*
X6649062Y-3115172D01*
X6512265Y-3319903D01*
X6418037Y-3547389D01*
X6370000Y-3788886D01*
X-6370000Y-3788886D01*
X-6418037Y-3547389D01*
X-6512265Y-3319903D01*
X-6649062Y-3115172D01*
X-6823172Y-2941062D01*
X-7027903Y-2804265D01*
X-7255389Y-2710037D01*
X-7496886Y-2662000D01*
X-7743114Y-2662000D01*
X-7984611Y-2710037D01*
X-8212097Y-2804265D01*
X-8416828Y-2941062D01*
X-8590938Y-3115172D01*
X-8727735Y-3319903D01*
X-8821963Y-3547389D01*
X-8870000Y-3788886D01*
X-21175000Y-3788886D01*
X-21175000Y-1248886D01*
X-8870000Y-1248886D01*
X-8870000Y-1495114D01*
X-8821963Y-1736611D01*
X-8727735Y-1964097D01*
X-8590938Y-2168828D01*
X-8416828Y-2342938D01*
X-8212097Y-2479735D01*
X-7984611Y-2573963D01*
X-7743114Y-2622000D01*
X-7496886Y-2622000D01*
X-7255389Y-2573963D01*
X-7027903Y-2479735D01*
X-6823172Y-2342938D01*
X-6649062Y-2168828D01*
X-6512265Y-1964097D01*
X-6418037Y-1736611D01*
X-6370000Y-1495114D01*
X-6370000Y-1248886D01*
X6370000Y-1248886D01*
X6370000Y-1495114D01*
X6418037Y-1736611D01*
X6512265Y-1964097D01*
X6649062Y-2168828D01*
X6823172Y-2342938D01*
X7027903Y-2479735D01*
X7255389Y-2573963D01*
X7496886Y-2622000D01*
X7743114Y-2622000D01*
X7984611Y-2573963D01*
X8212097Y-2479735D01*
X8416828Y-2342938D01*
X8590938Y-2168828D01*
X8727735Y-1964097D01*
X8821963Y-1736611D01*
X8870000Y-1495114D01*
X8870000Y-1248886D01*
X8821963Y-1007389D01*
X8727735Y-779903D01*
X8590938Y-575172D01*
X8416828Y-401062D01*
X8212097Y-264265D01*
X7984611Y-170037D01*
X7743114Y-122000D01*
X7496886Y-122000D01*
X7255389Y-170037D01*
X7027903Y-264265D01*
X6823172Y-401062D01*
X6649062Y-575172D01*
X6512265Y-779903D01*
X6418037Y-1007389D01*
X6370000Y-1248886D01*
X-6370000Y-1248886D01*
X-6418037Y-1007389D01*
X-6512265Y-779903D01*
X-6649062Y-575172D01*
X-6823172Y-401062D01*
X-7027903Y-264265D01*
X-7255389Y-170037D01*
X-7496886Y-122000D01*
X-7743114Y-122000D01*
X-7984611Y-170037D01*
X-8212097Y-264265D01*
X-8416828Y-401062D01*
X-8590938Y-575172D01*
X-8727735Y-779903D01*
X-8821963Y-1007389D01*
X-8870000Y-1248886D01*
X-21175000Y-1248886D01*
X-21175000Y1291114D01*
X-8870000Y1291114D01*
X-8870000Y1044886D01*
X-8821963Y803389D01*
X-8727735Y575903D01*
X-8590938Y371172D01*
X-8416828Y197062D01*
X-8212097Y60265D01*
X-7984611Y-33963D01*
X-7743114Y-82000D01*
X-7496886Y-82000D01*
X-7255389Y-33963D01*
X-7027903Y60265D01*
X-6823172Y197062D01*
X-6649062Y371172D01*
X-6512265Y575903D01*
X-6418037Y803389D01*
X-6370000Y1044886D01*
X-6370000Y1291114D01*
X6370000Y1291114D01*
X6370000Y1044886D01*
X6418037Y803389D01*
X6512265Y575903D01*
X6649062Y371172D01*
X6823172Y197062D01*
X7027903Y60265D01*
X7255389Y-33963D01*
X7496886Y-82000D01*
X7743114Y-82000D01*
X7984611Y-33963D01*
X8212097Y60265D01*
X8416828Y197062D01*
X8590938Y371172D01*
X8727735Y575903D01*
X8821963Y803389D01*
X8870000Y1044886D01*
X8870000Y1291114D01*
X8821963Y1532611D01*
X8727735Y1760097D01*
X8590938Y1964828D01*
X8416828Y2138938D01*
X8212097Y2275735D01*
X7984611Y2369963D01*
X7743114Y2418000D01*
X7496886Y2418000D01*
X7255389Y2369963D01*
X7027903Y2275735D01*
X6823172Y2138938D01*
X6649062Y1964828D01*
X6512265Y1760097D01*
X6418037Y1532611D01*
X6370000Y1291114D01*
X-6370000Y1291114D01*
X-6418037Y1532611D01*
X-6512265Y1760097D01*
X-6649062Y1964828D01*
X-6823172Y2138938D01*
X-7027903Y2275735D01*
X-7255389Y2369963D01*
X-7496886Y2418000D01*
X-7743114Y2418000D01*
X-7984611Y2369963D01*
X-8212097Y2275735D01*
X-8416828Y2138938D01*
X-8590938Y1964828D01*
X-8727735Y1760097D01*
X-8821963Y1532611D01*
X-8870000Y1291114D01*
X-21175000Y1291114D01*
X-21175000Y3831114D01*
X-8870000Y3831114D01*
X-8870000Y3584886D01*
X-8821963Y3343389D01*
X-8727735Y3115903D01*
X-8590938Y2911172D01*
X-8416828Y2737062D01*
X-8212097Y2600265D01*
X-7984611Y2506037D01*
X-7743114Y2458000D01*
X-7496886Y2458000D01*
X-7255389Y2506037D01*
X-7027903Y2600265D01*
X-6823172Y2737062D01*
X-6649062Y2911172D01*
X-6512265Y3115903D01*
X-6418037Y3343389D01*
X-6370000Y3584886D01*
X-6370000Y3831114D01*
X6370000Y3831114D01*
X6370000Y3584886D01*
X6418037Y3343389D01*
X6512265Y3115903D01*
X6649062Y2911172D01*
X6823172Y2737062D01*
X7027903Y2600265D01*
X7255389Y2506037D01*
X7496886Y2458000D01*
X7743114Y2458000D01*
X7984611Y2506037D01*
X8212097Y2600265D01*
X8416828Y2737062D01*
X8590938Y2911172D01*
X8727735Y3115903D01*
X8821963Y3343389D01*
X8870000Y3584886D01*
X8870000Y3831114D01*
X8821963Y4072611D01*
X8727735Y4300097D01*
X8590938Y4504828D01*
X8416828Y4678938D01*
X8212097Y4815735D01*
X7984611Y4909963D01*
X7743114Y4958000D01*
X7496886Y4958000D01*
X7255389Y4909963D01*
X7027903Y4815735D01*
X6823172Y4678938D01*
X6649062Y4504828D01*
X6512265Y4300097D01*
X6418037Y4072611D01*
X6370000Y3831114D01*
X-6370000Y3831114D01*
X-6418037Y4072611D01*
X-6512265Y4300097D01*
X-6649062Y4504828D01*
X-6823172Y4678938D01*
X-7027903Y4815735D01*
X-7255389Y4909963D01*
X-7496886Y4958000D01*
X-7743114Y4958000D01*
X-7984611Y4909963D01*
X-8212097Y4815735D01*
X-8416828Y4678938D01*
X-8590938Y4504828D01*
X-8727735Y4300097D01*
X-8821963Y4072611D01*
X-8870000Y3831114D01*
X-21175000Y3831114D01*
X-21175000Y5795000D01*
X-16375806Y5795000D01*
X-16352637Y5559759D01*
X-16284019Y5333558D01*
X-16172591Y5125090D01*
X-16022634Y4942366D01*
X-15839910Y4792409D01*
X-15631442Y4680981D01*
X-15405241Y4612363D01*
X-15228950Y4595000D01*
X-13811050Y4595000D01*
X-13634759Y4612363D01*
X-13408558Y4680981D01*
X-13200090Y4792409D01*
X-13017366Y4942366D01*
X-12867409Y5125090D01*
X-12755981Y5333558D01*
X-12687363Y5559759D01*
X-12664194Y5795000D01*
X-12687363Y6030241D01*
X-12755981Y6256442D01*
X-12817274Y6371114D01*
X-8870000Y6371114D01*
X-8870000Y6124886D01*
X-8821963Y5883389D01*
X-8727735Y5655903D01*
X-8590938Y5451172D01*
X-8416828Y5277062D01*
X-8212097Y5140265D01*
X-7984611Y5046037D01*
X-7743114Y4998000D01*
X-7496886Y4998000D01*
X-7255389Y5046037D01*
X-7027903Y5140265D01*
X-6823172Y5277062D01*
X-6649062Y5451172D01*
X-6512265Y5655903D01*
X-6418037Y5883389D01*
X-6370000Y6124886D01*
X-6370000Y6371114D01*
X6370000Y6371114D01*
X6370000Y6124886D01*
X6418037Y5883389D01*
X6512265Y5655903D01*
X6649062Y5451172D01*
X6823172Y5277062D01*
X7027903Y5140265D01*
X7255389Y5046037D01*
X7496886Y4998000D01*
X7743114Y4998000D01*
X7984611Y5046037D01*
X8212097Y5140265D01*
X8416828Y5277062D01*
X8590938Y5451172D01*
X8727735Y5655903D01*
X8821963Y5883389D01*
X8870000Y6124886D01*
X8870000Y6371114D01*
X8821963Y6612611D01*
X8727735Y6840097D01*
X8590938Y7044828D01*
X8416828Y7218938D01*
X8212097Y7355735D01*
X7984611Y7449963D01*
X7743114Y7498000D01*
X7496886Y7498000D01*
X7255389Y7449963D01*
X7027903Y7355735D01*
X6823172Y7218938D01*
X6649062Y7044828D01*
X6512265Y6840097D01*
X6418037Y6612611D01*
X6370000Y6371114D01*
X-6370000Y6371114D01*
X-6418037Y6612611D01*
X-6512265Y6840097D01*
X-6649062Y7044828D01*
X-6823172Y7218938D01*
X-7027903Y7355735D01*
X-7255389Y7449963D01*
X-7496886Y7498000D01*
X-7743114Y7498000D01*
X-7984611Y7449963D01*
X-8212097Y7355735D01*
X-8416828Y7218938D01*
X-8590938Y7044828D01*
X-8727735Y6840097D01*
X-8821963Y6612611D01*
X-8870000Y6371114D01*
X-12817274Y6371114D01*
X-12867409Y6464910D01*
X-13017366Y6647634D01*
X-13200090Y6797591D01*
X-13408558Y6909019D01*
X-13634759Y6977637D01*
X-13811050Y6995000D01*
X-15228950Y6995000D01*
X-15405241Y6977637D01*
X-15631442Y6909019D01*
X-15839910Y6797591D01*
X-16022634Y6647634D01*
X-16172591Y6464910D01*
X-16284019Y6256442D01*
X-16352637Y6030241D01*
X-16375806Y5795000D01*
X-21175000Y5795000D01*
X-21175000Y9605000D01*
X-16375806Y9605000D01*
X-16352637Y9369759D01*
X-16284019Y9143558D01*
X-16172591Y8935090D01*
X-16022634Y8752366D01*
X-15839910Y8602409D01*
X-15631442Y8490981D01*
X-15405241Y8422363D01*
X-15228950Y8405000D01*
X-13811050Y8405000D01*
X-13634759Y8422363D01*
X-13408558Y8490981D01*
X-13200090Y8602409D01*
X-13017366Y8752366D01*
X-12887086Y8911114D01*
X-8870000Y8911114D01*
X-8870000Y8664886D01*
X-8821963Y8423389D01*
X-8727735Y8195903D01*
X-8590938Y7991172D01*
X-8416828Y7817062D01*
X-8212097Y7680265D01*
X-7984611Y7586037D01*
X-7743114Y7538000D01*
X-7496886Y7538000D01*
X-7255389Y7586037D01*
X-7027903Y7680265D01*
X-6823172Y7817062D01*
X-6649062Y7991172D01*
X-6512265Y8195903D01*
X-6418037Y8423389D01*
X-6370000Y8664886D01*
X-6370000Y8911114D01*
X6370000Y8911114D01*
X6370000Y8664886D01*
X6418037Y8423389D01*
X6512265Y8195903D01*
X6649062Y7991172D01*
X6823172Y7817062D01*
X7027903Y7680265D01*
X7255389Y7586037D01*
X7496886Y7538000D01*
X7743114Y7538000D01*
X7984611Y7586037D01*
X8212097Y7680265D01*
X8416828Y7817062D01*
X8590938Y7991172D01*
X8727735Y8195903D01*
X8821963Y8423389D01*
X8870000Y8664886D01*
X8870000Y8911114D01*
X8821963Y9152611D01*
X8727735Y9380097D01*
X8590938Y9584828D01*
X8416828Y9758938D01*
X8212097Y9895735D01*
X7984611Y9989963D01*
X7743114Y10038000D01*
X7496886Y10038000D01*
X7255389Y9989963D01*
X7027903Y9895735D01*
X6823172Y9758938D01*
X6649062Y9584828D01*
X6512265Y9380097D01*
X6418037Y9152611D01*
X6370000Y8911114D01*
X-6370000Y8911114D01*
X-6418037Y9152611D01*
X-6512265Y9380097D01*
X-6649062Y9584828D01*
X-6823172Y9758938D01*
X-7027903Y9895735D01*
X-7255389Y9989963D01*
X-7496886Y10038000D01*
X-7743114Y10038000D01*
X-7984611Y9989963D01*
X-8212097Y9895735D01*
X-8416828Y9758938D01*
X-8590938Y9584828D01*
X-8727735Y9380097D01*
X-8821963Y9152611D01*
X-8870000Y8911114D01*
X-12887086Y8911114D01*
X-12867409Y8935090D01*
X-12755981Y9143558D01*
X-12687363Y9369759D01*
X-12664194Y9605000D01*
X-12687363Y9840241D01*
X-12755981Y10066442D01*
X-12867409Y10274910D01*
X-13017366Y10457634D01*
X-13061466Y10493826D01*
X-8383463Y10493826D01*
X-8287695Y10323932D01*
X-8078981Y10212964D01*
X-7852629Y10144847D01*
X-7617337Y10122198D01*
X-7382148Y10145886D01*
X-7156100Y10215003D01*
X-6952305Y10323932D01*
X-6856537Y10493826D01*
X-7620000Y11257289D01*
X-8383463Y10493826D01*
X-13061466Y10493826D01*
X-13200090Y10607591D01*
X-13408558Y10719019D01*
X-13634759Y10787637D01*
X-13811050Y10805000D01*
X-15228950Y10805000D01*
X-15405241Y10787637D01*
X-15631442Y10719019D01*
X-15839910Y10607591D01*
X-16022634Y10457634D01*
X-16172591Y10274910D01*
X-16284019Y10066442D01*
X-16352637Y9840241D01*
X-16375806Y9605000D01*
X-21175000Y9605000D01*
X-21175000Y11325337D01*
X-8825802Y11325337D01*
X-8802114Y11090148D01*
X-8732997Y10864100D01*
X-8624068Y10660305D01*
X-8454174Y10564537D01*
X-7690711Y11328000D01*
X-7549289Y11328000D01*
X-6785826Y10564537D01*
X-6615932Y10660305D01*
X-6504964Y10869019D01*
X-6436847Y11095371D01*
X-6414198Y11330663D01*
X-6426329Y11451114D01*
X6370000Y11451114D01*
X6370000Y11204886D01*
X6418037Y10963389D01*
X6512265Y10735903D01*
X6649062Y10531172D01*
X6823172Y10357062D01*
X7027903Y10220265D01*
X7255389Y10126037D01*
X7496886Y10078000D01*
X7743114Y10078000D01*
X7984611Y10126037D01*
X8212097Y10220265D01*
X8416828Y10357062D01*
X8590938Y10531172D01*
X8727735Y10735903D01*
X8821963Y10963389D01*
X8870000Y11204886D01*
X8870000Y11451114D01*
X8821963Y11692611D01*
X8727735Y11920097D01*
X8590938Y12124828D01*
X8416828Y12298938D01*
X8212097Y12435735D01*
X7984611Y12529963D01*
X7743114Y12578000D01*
X7496886Y12578000D01*
X7255389Y12529963D01*
X7027903Y12435735D01*
X6823172Y12298938D01*
X6649062Y12124828D01*
X6512265Y11920097D01*
X6418037Y11692611D01*
X6370000Y11451114D01*
X-6426329Y11451114D01*
X-6437886Y11565852D01*
X-6507003Y11791900D01*
X-6615932Y11995695D01*
X-6785826Y12091463D01*
X-7549289Y11328000D01*
X-7690711Y11328000D01*
X-8454174Y12091463D01*
X-8624068Y11995695D01*
X-8735036Y11786981D01*
X-8803153Y11560629D01*
X-8825802Y11325337D01*
X-21175000Y11325337D01*
X-21175000Y12162174D01*
X-8383463Y12162174D01*
X-7620000Y11398711D01*
X-6856537Y12162174D01*
X-6952305Y12332068D01*
X-7161019Y12443036D01*
X-7387371Y12511153D01*
X-7622663Y12533802D01*
X-7857852Y12510114D01*
X-8083900Y12440997D01*
X-8287695Y12332068D01*
X-8383463Y12162174D01*
X-21175000Y12162174D01*
X-21175000Y13415000D01*
X-16375806Y13415000D01*
X-16352637Y13179759D01*
X-16284019Y12953558D01*
X-16172591Y12745090D01*
X-16022634Y12562366D01*
X-15839910Y12412409D01*
X-15631442Y12300981D01*
X-15405241Y12232363D01*
X-15228950Y12215000D01*
X-13811050Y12215000D01*
X-13634759Y12232363D01*
X-13408558Y12300981D01*
X-13200090Y12412409D01*
X-13017366Y12562366D01*
X-12867409Y12745090D01*
X-12755981Y12953558D01*
X-12687363Y13179759D01*
X-12664194Y13415000D01*
X-12687363Y13650241D01*
X-12755981Y13876442D01*
X-12817274Y13991114D01*
X-8870000Y13991114D01*
X-8870000Y13744886D01*
X-8821963Y13503389D01*
X-8727735Y13275903D01*
X-8590938Y13071172D01*
X-8416828Y12897062D01*
X-8212097Y12760265D01*
X-7984611Y12666037D01*
X-7743114Y12618000D01*
X-7496886Y12618000D01*
X-7255389Y12666037D01*
X-7027903Y12760265D01*
X-6823172Y12897062D01*
X-6649062Y13071172D01*
X-6512265Y13275903D01*
X-6418037Y13503389D01*
X-6370000Y13744886D01*
X-6370000Y13991114D01*
X6370000Y13991114D01*
X6370000Y13744886D01*
X6418037Y13503389D01*
X6512265Y13275903D01*
X6649062Y13071172D01*
X6823172Y12897062D01*
X7027903Y12760265D01*
X7255389Y12666037D01*
X7496886Y12618000D01*
X7743114Y12618000D01*
X7984611Y12666037D01*
X8212097Y12760265D01*
X8416828Y12897062D01*
X8590938Y13071172D01*
X8727735Y13275903D01*
X8821963Y13503389D01*
X8870000Y13744886D01*
X8870000Y13991114D01*
X8821963Y14232611D01*
X8727735Y14460097D01*
X8590938Y14664828D01*
X8416828Y14838938D01*
X8212097Y14975735D01*
X7984611Y15069963D01*
X7743114Y15118000D01*
X7496886Y15118000D01*
X7255389Y15069963D01*
X7027903Y14975735D01*
X6823172Y14838938D01*
X6649062Y14664828D01*
X6512265Y14460097D01*
X6418037Y14232611D01*
X6370000Y13991114D01*
X-6370000Y13991114D01*
X-6418037Y14232611D01*
X-6512265Y14460097D01*
X-6649062Y14664828D01*
X-6823172Y14838938D01*
X-7027903Y14975735D01*
X-7255389Y15069963D01*
X-7496886Y15118000D01*
X-7743114Y15118000D01*
X-7984611Y15069963D01*
X-8212097Y14975735D01*
X-8416828Y14838938D01*
X-8590938Y14664828D01*
X-8727735Y14460097D01*
X-8821963Y14232611D01*
X-8870000Y13991114D01*
X-12817274Y13991114D01*
X-12867409Y14084910D01*
X-13017366Y14267634D01*
X-13200090Y14417591D01*
X-13408558Y14529019D01*
X-13634759Y14597637D01*
X-13811050Y14615000D01*
X-15228950Y14615000D01*
X-15405241Y14597637D01*
X-15631442Y14529019D01*
X-15839910Y14417591D01*
X-16022634Y14267634D01*
X-16172591Y14084910D01*
X-16284019Y13876442D01*
X-16352637Y13650241D01*
X-16375806Y13415000D01*
X-21175000Y13415000D01*
X-21175000Y16995886D01*
X-16296946Y16995886D01*
X-16251596Y16831107D01*
X-16153969Y16627667D01*
X-16018528Y16447182D01*
X-15850479Y16296588D01*
X-15656280Y16181672D01*
X-15443393Y16106851D01*
X-15220000Y16075000D01*
X-14570000Y16075000D01*
X-14570000Y17175000D01*
X-14470000Y17175000D01*
X-14470000Y16075000D01*
X-13820000Y16075000D01*
X-13596607Y16106851D01*
X-13383720Y16181672D01*
X-13189521Y16296588D01*
X-13021472Y16447182D01*
X-12886031Y16627667D01*
X-12788404Y16831107D01*
X-12743054Y16995886D01*
X-12796163Y17175000D01*
X-14470000Y17175000D01*
X-14570000Y17175000D01*
X-16243837Y17175000D01*
X-16296946Y16995886D01*
X-21175000Y16995886D01*
X-21175000Y17454114D01*
X-16296946Y17454114D01*
X-16243837Y17275000D01*
X-14570000Y17275000D01*
X-14570000Y18375000D01*
X-14470000Y18375000D01*
X-14470000Y17275000D01*
X-12796163Y17275000D01*
X-12743054Y17454114D01*
X-12788404Y17618893D01*
X-12886031Y17822333D01*
X-13021472Y18002818D01*
X-13189521Y18153412D01*
X-13383720Y18268328D01*
X-13596607Y18343149D01*
X-13820000Y18375000D01*
X-14470000Y18375000D01*
X-14570000Y18375000D01*
X-15220000Y18375000D01*
X-15443393Y18343149D01*
X-15656280Y18268328D01*
X-15850479Y18153412D01*
X-16018528Y18002818D01*
X-16153969Y17822333D01*
X-16251596Y17618893D01*
X-16296946Y17454114D01*
X-21175000Y17454114D01*
X-21175000Y21035000D01*
X-16375806Y21035000D01*
X-16352637Y20799759D01*
X-16284019Y20573558D01*
X-16172591Y20365090D01*
X-16022634Y20182366D01*
X-15839910Y20032409D01*
X-15631442Y19920981D01*
X-15405241Y19852363D01*
X-15228950Y19835000D01*
X-13811050Y19835000D01*
X-13634759Y19852363D01*
X-13408558Y19920981D01*
X-13200090Y20032409D01*
X-13017366Y20182366D01*
X-12867409Y20365090D01*
X-12755981Y20573558D01*
X-12687363Y20799759D01*
X-12664194Y21035000D01*
X-12687363Y21270241D01*
X-12755981Y21496442D01*
X-12867409Y21704910D01*
X-13017366Y21887634D01*
X-13200090Y22037591D01*
X-13408558Y22149019D01*
X-13634759Y22217637D01*
X-13811050Y22235000D01*
X-15228950Y22235000D01*
X-15405241Y22217637D01*
X-15631442Y22149019D01*
X-15839910Y22037591D01*
X-16022634Y21887634D01*
X-16172591Y21704910D01*
X-16284019Y21496442D01*
X-16352637Y21270241D01*
X-16375806Y21035000D01*
X-21175000Y21035000D01*
X-21175000Y24845000D01*
X-16375806Y24845000D01*
X-16352637Y24609759D01*
X-16284019Y24383558D01*
X-16172591Y24175090D01*
X-16022634Y23992366D01*
X-15839910Y23842409D01*
X-15631442Y23730981D01*
X-15405241Y23662363D01*
X-15228950Y23645000D01*
X-13811050Y23645000D01*
X-13634759Y23662363D01*
X-13408558Y23730981D01*
X-13200090Y23842409D01*
X-13017366Y23992366D01*
X-12867409Y24175090D01*
X-12755981Y24383558D01*
X-12687363Y24609759D01*
X-12664194Y24845000D01*
X-12687363Y25080241D01*
X-12755981Y25306442D01*
X-12867409Y25514910D01*
X-13017366Y25697634D01*
X-13200090Y25847591D01*
X-13408558Y25959019D01*
X-13634759Y26027637D01*
X-13811050Y26045000D01*
X-15228950Y26045000D01*
X-15405241Y26027637D01*
X-15631442Y25959019D01*
X-15839910Y25847591D01*
X-16022634Y25697634D01*
X-16172591Y25514910D01*
X-16284019Y25306442D01*
X-16352637Y25080241D01*
X-16375806Y24845000D01*
X-21175000Y24845000D01*
X-21175000Y30182209D01*
X-16850000Y30182209D01*
X-16850000Y29817791D01*
X-16778905Y29460375D01*
X-16639448Y29123697D01*
X-16436989Y28820694D01*
X-16179306Y28563011D01*
X-15876303Y28360552D01*
X-15539625Y28221095D01*
X-15182209Y28150000D01*
X-14817791Y28150000D01*
X-14460375Y28221095D01*
X-14123697Y28360552D01*
X-13820694Y28563011D01*
X-13563011Y28820694D01*
X-13360552Y29123697D01*
X-13221095Y29460375D01*
X-13150000Y29817791D01*
X-13150000Y30123114D01*
X-10140000Y30123114D01*
X-10140000Y29876886D01*
X-10091963Y29635389D01*
X-9997735Y29407903D01*
X-9860938Y29203172D01*
X-9686828Y29029062D01*
X-9482097Y28892265D01*
X-9364999Y28843761D01*
X-9364999Y28013342D01*
X-9367298Y27990000D01*
X-9358127Y27896884D01*
X-9330965Y27807346D01*
X-9286858Y27724827D01*
X-9227500Y27652499D01*
X-9209371Y27637621D01*
X-6252355Y24680603D01*
X-6237481Y24662479D01*
X-6165153Y24603121D01*
X-6112542Y24575000D01*
X-6082635Y24559014D01*
X-5993096Y24531853D01*
X-5899980Y24522682D01*
X-5876648Y24524980D01*
X2803270Y24524980D01*
X3374979Y23953269D01*
X3374980Y18447997D01*
X3372681Y18424655D01*
X3381852Y18331539D01*
X3385134Y18320719D01*
X3374802Y18268776D01*
X3374802Y18130888D01*
X3401703Y17995650D01*
X3454470Y17868258D01*
X3500856Y17798835D01*
X3370605Y17772926D01*
X3243213Y17720159D01*
X3128563Y17643553D01*
X3031061Y17546051D01*
X2954455Y17431401D01*
X2901688Y17304009D01*
X2874787Y17168771D01*
X2874787Y17030883D01*
X2901688Y16895645D01*
X2954455Y16768253D01*
X3031061Y16653603D01*
X3128563Y16556101D01*
X3243213Y16479495D01*
X3370605Y16426728D01*
X3505843Y16399827D01*
X3643731Y16399827D01*
X3778969Y16426728D01*
X3906361Y16479495D01*
X4021011Y16556101D01*
X4089370Y16624460D01*
X4093093Y16624827D01*
X4162877Y16631700D01*
X4252415Y16658861D01*
X4334934Y16702968D01*
X4407262Y16762326D01*
X4422145Y16780461D01*
X5619358Y17977672D01*
X5637482Y17992546D01*
X5696840Y18064874D01*
X5732125Y18130888D01*
X5740947Y18147392D01*
X5768108Y18236931D01*
X5777279Y18330047D01*
X5774981Y18353379D01*
X5774981Y21270113D01*
X6670694Y22165826D01*
X8236537Y22165826D01*
X8332305Y21995932D01*
X8541019Y21884964D01*
X8767371Y21816847D01*
X9002663Y21794198D01*
X9237852Y21817886D01*
X9463900Y21887003D01*
X9667695Y21995932D01*
X9763463Y22165826D01*
X9000000Y22929289D01*
X8236537Y22165826D01*
X6670694Y22165826D01*
X7844388Y23339518D01*
X7850531Y23344559D01*
X7816847Y23232629D01*
X7794198Y22997337D01*
X7817886Y22762148D01*
X7887003Y22536100D01*
X7995932Y22332305D01*
X8165826Y22236537D01*
X8929289Y23000000D01*
X9070711Y23000000D01*
X9834174Y22236537D01*
X10004068Y22332305D01*
X10115036Y22541019D01*
X10183153Y22767371D01*
X10205802Y23002663D01*
X10193671Y23123114D01*
X12750000Y23123114D01*
X12750000Y22876886D01*
X12798037Y22635389D01*
X12892265Y22407903D01*
X13029062Y22203172D01*
X13203172Y22029062D01*
X13407903Y21892265D01*
X13635389Y21798037D01*
X13876886Y21750000D01*
X14123114Y21750000D01*
X14364611Y21798037D01*
X14592097Y21892265D01*
X14796828Y22029062D01*
X14970938Y22203172D01*
X15107735Y22407903D01*
X15201963Y22635389D01*
X15250000Y22876886D01*
X15250000Y23123114D01*
X15201963Y23364611D01*
X15107735Y23592097D01*
X14970938Y23796828D01*
X14796828Y23970938D01*
X14592097Y24107735D01*
X14364611Y24201963D01*
X14123114Y24250000D01*
X13876886Y24250000D01*
X13635389Y24201963D01*
X13407903Y24107735D01*
X13203172Y23970938D01*
X13029062Y23796828D01*
X12892265Y23592097D01*
X12798037Y23364611D01*
X12750000Y23123114D01*
X10193671Y23123114D01*
X10182114Y23237852D01*
X10112997Y23463900D01*
X10004068Y23667695D01*
X9834174Y23763463D01*
X9070711Y23000000D01*
X8929289Y23000000D01*
X8165826Y23763463D01*
X8000160Y23670079D01*
X8002309Y23691893D01*
X8000011Y23715225D01*
X8000011Y23834174D01*
X8236537Y23834174D01*
X9000000Y23070711D01*
X9763463Y23834174D01*
X9667695Y24004068D01*
X9458981Y24115036D01*
X9232629Y24183153D01*
X8997337Y24205802D01*
X8762148Y24182114D01*
X8536100Y24112997D01*
X8332305Y24004068D01*
X8236537Y23834174D01*
X8000011Y23834174D01*
X8000011Y26531782D01*
X8002309Y26555112D01*
X7996590Y26613175D01*
X7993138Y26648227D01*
X7965977Y26737765D01*
X7921870Y26820284D01*
X7862512Y26892612D01*
X7844382Y26907491D01*
X6482495Y28269377D01*
X6467612Y28287512D01*
X6395284Y28346870D01*
X6312765Y28390977D01*
X6223227Y28418138D01*
X6153443Y28425011D01*
X6130111Y28427309D01*
X6106779Y28425011D01*
X4646740Y28425011D01*
X4285000Y28786750D01*
X4285000Y28843762D01*
X4402097Y28892265D01*
X4606828Y29029062D01*
X4743592Y29165826D01*
X5586537Y29165826D01*
X5682305Y28995932D01*
X5891019Y28884964D01*
X6117371Y28816847D01*
X6352663Y28794198D01*
X6587852Y28817886D01*
X6813900Y28887003D01*
X7017695Y28995932D01*
X7113463Y29165826D01*
X6350000Y29929289D01*
X5586537Y29165826D01*
X4743592Y29165826D01*
X4780938Y29203172D01*
X4917735Y29407903D01*
X5011963Y29635389D01*
X5060000Y29876886D01*
X5060000Y29997337D01*
X5144198Y29997337D01*
X5167886Y29762148D01*
X5237003Y29536100D01*
X5345932Y29332305D01*
X5515826Y29236537D01*
X6279289Y30000000D01*
X6420711Y30000000D01*
X7184174Y29236537D01*
X7354068Y29332305D01*
X7465036Y29541019D01*
X7533153Y29767371D01*
X7555802Y30002663D01*
X7543671Y30123114D01*
X7640000Y30123114D01*
X7640000Y29876886D01*
X7688037Y29635389D01*
X7782265Y29407903D01*
X7919062Y29203172D01*
X8093172Y29029062D01*
X8297903Y28892265D01*
X8525389Y28798037D01*
X8766886Y28750000D01*
X9013114Y28750000D01*
X9254611Y28798037D01*
X9482097Y28892265D01*
X9686828Y29029062D01*
X9860938Y29203172D01*
X9997735Y29407903D01*
X10091963Y29635389D01*
X10140000Y29876886D01*
X10140000Y30123114D01*
X10128246Y30182209D01*
X13150000Y30182209D01*
X13150000Y29817791D01*
X13221095Y29460375D01*
X13360552Y29123697D01*
X13563011Y28820694D01*
X13820694Y28563011D01*
X14123697Y28360552D01*
X14460375Y28221095D01*
X14817791Y28150000D01*
X15182209Y28150000D01*
X15539625Y28221095D01*
X15876303Y28360552D01*
X16179306Y28563011D01*
X16436989Y28820694D01*
X16639448Y29123697D01*
X16778905Y29460375D01*
X16850000Y29817791D01*
X16850000Y30182209D01*
X16778905Y30539625D01*
X16639448Y30876303D01*
X16436989Y31179306D01*
X16179306Y31436989D01*
X15876303Y31639448D01*
X15539625Y31778905D01*
X15182209Y31850000D01*
X14817791Y31850000D01*
X14460375Y31778905D01*
X14123697Y31639448D01*
X13820694Y31436989D01*
X13563011Y31179306D01*
X13360552Y30876303D01*
X13221095Y30539625D01*
X13150000Y30182209D01*
X10128246Y30182209D01*
X10091963Y30364611D01*
X9997735Y30592097D01*
X9860938Y30796828D01*
X9686828Y30970938D01*
X9482097Y31107735D01*
X9254611Y31201963D01*
X9013114Y31250000D01*
X8766886Y31250000D01*
X8525389Y31201963D01*
X8297903Y31107735D01*
X8093172Y30970938D01*
X7919062Y30796828D01*
X7782265Y30592097D01*
X7688037Y30364611D01*
X7640000Y30123114D01*
X7543671Y30123114D01*
X7532114Y30237852D01*
X7462997Y30463900D01*
X7354068Y30667695D01*
X7184174Y30763463D01*
X6420711Y30000000D01*
X6279289Y30000000D01*
X5515826Y30763463D01*
X5345932Y30667695D01*
X5234964Y30458981D01*
X5166847Y30232629D01*
X5144198Y29997337D01*
X5060000Y29997337D01*
X5060000Y30123114D01*
X5011963Y30364611D01*
X4917735Y30592097D01*
X4780938Y30796828D01*
X4743592Y30834174D01*
X5586537Y30834174D01*
X6350000Y30070711D01*
X7113463Y30834174D01*
X7017695Y31004068D01*
X6808981Y31115036D01*
X6582629Y31183153D01*
X6347337Y31205802D01*
X6112148Y31182114D01*
X5886100Y31112997D01*
X5682305Y31004068D01*
X5586537Y30834174D01*
X4743592Y30834174D01*
X4606828Y30970938D01*
X4402097Y31107735D01*
X4174611Y31201963D01*
X3933114Y31250000D01*
X3686886Y31250000D01*
X3445389Y31201963D01*
X3217903Y31107735D01*
X3013172Y30970938D01*
X2839062Y30796828D01*
X2702265Y30592097D01*
X2608037Y30364611D01*
X2560000Y30123114D01*
X2560000Y29876886D01*
X2608037Y29635389D01*
X2702265Y29407903D01*
X2839062Y29203172D01*
X3013172Y29029062D01*
X3217903Y28892265D01*
X3335000Y28843762D01*
X3335000Y28613333D01*
X3332702Y28590000D01*
X3341873Y28496885D01*
X3369034Y28407347D01*
X3413141Y28324827D01*
X3472499Y28252499D01*
X3490634Y28237616D01*
X3803248Y27925001D01*
X2446751Y27925001D01*
X1745000Y28626750D01*
X1745000Y28843762D01*
X1862097Y28892265D01*
X2066828Y29029062D01*
X2240938Y29203172D01*
X2377735Y29407903D01*
X2471963Y29635389D01*
X2520000Y29876886D01*
X2520000Y30123114D01*
X2471963Y30364611D01*
X2377735Y30592097D01*
X2240938Y30796828D01*
X2066828Y30970938D01*
X1862097Y31107735D01*
X1634611Y31201963D01*
X1393114Y31250000D01*
X1146886Y31250000D01*
X905389Y31201963D01*
X677903Y31107735D01*
X473172Y30970938D01*
X299062Y30796828D01*
X162265Y30592097D01*
X68037Y30364611D01*
X20000Y30123114D01*
X20000Y29876886D01*
X68037Y29635389D01*
X162265Y29407903D01*
X299062Y29203172D01*
X473172Y29029062D01*
X677903Y28892265D01*
X795001Y28843761D01*
X795001Y28453342D01*
X792702Y28430000D01*
X801873Y28336884D01*
X816851Y28287511D01*
X829035Y28247346D01*
X873142Y28164827D01*
X932500Y28092499D01*
X950629Y28077621D01*
X1828248Y27200000D01*
X-28249Y27200000D01*
X-795000Y27966750D01*
X-795000Y28843762D01*
X-677903Y28892265D01*
X-473172Y29029062D01*
X-299062Y29203172D01*
X-162265Y29407903D01*
X-68037Y29635389D01*
X-20000Y29876886D01*
X-20000Y30123114D01*
X-68037Y30364611D01*
X-162265Y30592097D01*
X-299062Y30796828D01*
X-473172Y30970938D01*
X-677903Y31107735D01*
X-905389Y31201963D01*
X-1146886Y31250000D01*
X-1393114Y31250000D01*
X-1634611Y31201963D01*
X-1862097Y31107735D01*
X-2066828Y30970938D01*
X-2240938Y30796828D01*
X-2377735Y30592097D01*
X-2471963Y30364611D01*
X-2520000Y30123114D01*
X-2520000Y29876886D01*
X-2471963Y29635389D01*
X-2377735Y29407903D01*
X-2240938Y29203172D01*
X-2066828Y29029062D01*
X-1862097Y28892265D01*
X-1745000Y28843762D01*
X-1745000Y27793333D01*
X-1747298Y27770000D01*
X-1738127Y27676884D01*
X-1730730Y27652499D01*
X-1710966Y27587347D01*
X-1666859Y27504827D01*
X-1607501Y27432499D01*
X-1589366Y27417616D01*
X-646751Y26475000D01*
X-2903248Y26475000D01*
X-3335000Y26906750D01*
X-3335000Y28843762D01*
X-3217903Y28892265D01*
X-3013172Y29029062D01*
X-2839062Y29203172D01*
X-2702265Y29407903D01*
X-2608037Y29635389D01*
X-2560000Y29876886D01*
X-2560000Y30123114D01*
X-2608037Y30364611D01*
X-2702265Y30592097D01*
X-2839062Y30796828D01*
X-3013172Y30970938D01*
X-3217903Y31107735D01*
X-3445389Y31201963D01*
X-3686886Y31250000D01*
X-3933114Y31250000D01*
X-4174611Y31201963D01*
X-4402097Y31107735D01*
X-4606828Y30970938D01*
X-4780938Y30796828D01*
X-4917735Y30592097D01*
X-5011963Y30364611D01*
X-5060000Y30123114D01*
X-5060000Y29876886D01*
X-5011963Y29635389D01*
X-4917735Y29407903D01*
X-4780938Y29203172D01*
X-4606828Y29029062D01*
X-4402097Y28892265D01*
X-4285000Y28843762D01*
X-4284999Y26733342D01*
X-4287298Y26710000D01*
X-4278127Y26616884D01*
X-4250965Y26527346D01*
X-4206858Y26444827D01*
X-4147500Y26372499D01*
X-4129371Y26357621D01*
X-3746741Y25974990D01*
X-5496119Y25974990D01*
X-5875000Y26353870D01*
X-5875000Y28843762D01*
X-5757903Y28892265D01*
X-5553172Y29029062D01*
X-5379062Y29203172D01*
X-5242265Y29407903D01*
X-5148037Y29635389D01*
X-5100000Y29876886D01*
X-5100000Y30123114D01*
X-5148037Y30364611D01*
X-5242265Y30592097D01*
X-5379062Y30796828D01*
X-5553172Y30970938D01*
X-5757903Y31107735D01*
X-5985389Y31201963D01*
X-6226886Y31250000D01*
X-6473114Y31250000D01*
X-6714611Y31201963D01*
X-6942097Y31107735D01*
X-7146828Y30970938D01*
X-7320938Y30796828D01*
X-7457735Y30592097D01*
X-7551963Y30364611D01*
X-7600000Y30123114D01*
X-7600000Y29876886D01*
X-7551963Y29635389D01*
X-7457735Y29407903D01*
X-7320938Y29203172D01*
X-7146828Y29029062D01*
X-6942097Y28892265D01*
X-6825000Y28843762D01*
X-6824999Y26596750D01*
X-8415000Y28186750D01*
X-8415000Y28843762D01*
X-8297903Y28892265D01*
X-8093172Y29029062D01*
X-7919062Y29203172D01*
X-7782265Y29407903D01*
X-7688037Y29635389D01*
X-7640000Y29876886D01*
X-7640000Y30123114D01*
X-7688037Y30364611D01*
X-7782265Y30592097D01*
X-7919062Y30796828D01*
X-8093172Y30970938D01*
X-8297903Y31107735D01*
X-8525389Y31201963D01*
X-8766886Y31250000D01*
X-9013114Y31250000D01*
X-9254611Y31201963D01*
X-9482097Y31107735D01*
X-9686828Y30970938D01*
X-9860938Y30796828D01*
X-9997735Y30592097D01*
X-10091963Y30364611D01*
X-10140000Y30123114D01*
X-13150000Y30123114D01*
X-13150000Y30182209D01*
X-13221095Y30539625D01*
X-13360552Y30876303D01*
X-13563011Y31179306D01*
X-13820694Y31436989D01*
X-14123697Y31639448D01*
X-14460375Y31778905D01*
X-14817791Y31850000D01*
X-15182209Y31850000D01*
X-15539625Y31778905D01*
X-15876303Y31639448D01*
X-16179306Y31436989D01*
X-16436989Y31179306D01*
X-16639448Y30876303D01*
X-16778905Y30539625D01*
X-16850000Y30182209D01*
X-21175000Y30182209D01*
X-21175000Y33930842D01*
X-20836116Y33930842D01*
X-20836116Y33569158D01*
X-20765555Y33214425D01*
X-20627145Y32880273D01*
X-20426204Y32579544D01*
X-20170456Y32323796D01*
X-19869727Y32122855D01*
X-19535575Y31984445D01*
X-19180842Y31913884D01*
X-18819158Y31913884D01*
X-18464425Y31984445D01*
X-18130273Y32122855D01*
X-17829544Y32323796D01*
X-17573796Y32579544D01*
X-17372855Y32880273D01*
X-17234445Y33214425D01*
X-17163884Y33569158D01*
X-17163884Y33930842D01*
X17163884Y33930842D01*
X17163884Y33569158D01*
X17234445Y33214425D01*
X17372855Y32880273D01*
X17573796Y32579544D01*
X17829544Y32323796D01*
X18130273Y32122855D01*
X18464425Y31984445D01*
X18819158Y31913884D01*
X19180842Y31913884D01*
X19535575Y31984445D01*
X19869727Y32122855D01*
X20170456Y32323796D01*
X20426204Y32579544D01*
X20627145Y32880273D01*
X20765555Y33214425D01*
X20836116Y33569158D01*
X20836116Y33930842D01*
X20765555Y34285575D01*
X20627145Y34619727D01*
X20426204Y34920456D01*
X20170456Y35176204D01*
X19869727Y35377145D01*
X19535575Y35515555D01*
X19180842Y35586116D01*
X18819158Y35586116D01*
X18464425Y35515555D01*
X18130273Y35377145D01*
X17829544Y35176204D01*
X17573796Y34920456D01*
X17372855Y34619727D01*
X17234445Y34285575D01*
X17163884Y33930842D01*
X-17163884Y33930842D01*
X-17234445Y34285575D01*
X-17372855Y34619727D01*
X-17573796Y34920456D01*
X-17829544Y35176204D01*
X-18130273Y35377145D01*
X-18464425Y35515555D01*
X-18819158Y35586116D01*
X-19180842Y35586116D01*
X-19535575Y35515555D01*
X-19869727Y35377145D01*
X-20170456Y35176204D01*
X-20426204Y34920456D01*
X-20627145Y34619727D01*
X-20765555Y34285575D01*
X-20836116Y33930842D01*
X-21175000Y33930842D01*
X-21175000Y33984103D01*
X-21141571Y34325040D01*
X-21047173Y34637699D01*
X-20893844Y34926068D01*
X-20687422Y35179167D01*
X-20435777Y35387345D01*
X-20148482Y35542685D01*
X-19836492Y35639261D01*
X-19496460Y35675000D01*
X19484103Y35675000D01*
X19825040Y35641571D01*
%TA.AperFunction,Conductor*%
D16*
G36*
X19825040Y35641571D02*
G01*
X20137699Y35547173D01*
X20426068Y35393844D01*
X20679167Y35187422D01*
X20887345Y34935777D01*
X21042685Y34648482D01*
X21139261Y34336492D01*
X21175000Y33996460D01*
X21175001Y-33984093D01*
X21141571Y-34325041D01*
X21047173Y-34637700D01*
X20893843Y-34926070D01*
X20687422Y-35179167D01*
X20435780Y-35387344D01*
X20148481Y-35542685D01*
X19836497Y-35639260D01*
X19496460Y-35675000D01*
X-19484103Y-35675000D01*
X-19825041Y-35641571D01*
X-20137700Y-35547173D01*
X-20426070Y-35393843D01*
X-20679167Y-35187422D01*
X-20887344Y-34935780D01*
X-21042685Y-34648481D01*
X-21139260Y-34336497D01*
X-21175000Y-33996460D01*
X-21175000Y-33569158D01*
X-20836116Y-33569158D01*
X-20836116Y-33930842D01*
X-20765555Y-34285575D01*
X-20627145Y-34619727D01*
X-20426204Y-34920456D01*
X-20170456Y-35176204D01*
X-19869727Y-35377145D01*
X-19535575Y-35515555D01*
X-19180842Y-35586116D01*
X-18819158Y-35586116D01*
X-18464425Y-35515555D01*
X-18130273Y-35377145D01*
X-17829544Y-35176204D01*
X-17573796Y-34920456D01*
X-17372855Y-34619727D01*
X-17234445Y-34285575D01*
X-17163884Y-33930842D01*
X-17163884Y-33867037D01*
X-16350000Y-33867037D01*
X-16350000Y-34132963D01*
X-16298120Y-34393780D01*
X-16196354Y-34639465D01*
X-16048613Y-34860575D01*
X-15860575Y-35048613D01*
X-15639465Y-35196354D01*
X-15393780Y-35298120D01*
X-15132963Y-35350000D01*
X-14867037Y-35350000D01*
X-14606220Y-35298120D01*
X-14360535Y-35196354D01*
X-14139425Y-35048613D01*
X-13951387Y-34860575D01*
X-13803646Y-34639465D01*
X-13701880Y-34393780D01*
X-13650000Y-34132963D01*
X-13650000Y-33867037D01*
X-11850000Y-33867037D01*
X-11850000Y-34132963D01*
X-11798120Y-34393780D01*
X-11696354Y-34639465D01*
X-11548613Y-34860575D01*
X-11360575Y-35048613D01*
X-11139465Y-35196354D01*
X-10893780Y-35298120D01*
X-10632963Y-35350000D01*
X-10367037Y-35350000D01*
X-10106220Y-35298120D01*
X-9860535Y-35196354D01*
X-9639425Y-35048613D01*
X-9451387Y-34860575D01*
X-9303646Y-34639465D01*
X-9201880Y-34393780D01*
X-9150000Y-34132963D01*
X-9150000Y-33867037D01*
X-9201880Y-33606220D01*
X-9303646Y-33360535D01*
X-9451387Y-33139425D01*
X-9639425Y-32951387D01*
X-9860535Y-32803646D01*
X-10106220Y-32701880D01*
X-10367037Y-32650000D01*
X-10632963Y-32650000D01*
X-10893780Y-32701880D01*
X-11139465Y-32803646D01*
X-11360575Y-32951387D01*
X-11548613Y-33139425D01*
X-11696354Y-33360535D01*
X-11798120Y-33606220D01*
X-11850000Y-33867037D01*
X-13650000Y-33867037D01*
X-13701880Y-33606220D01*
X-13803646Y-33360535D01*
X-13951387Y-33139425D01*
X-14139425Y-32951387D01*
X-14360535Y-32803646D01*
X-14606220Y-32701880D01*
X-14867037Y-32650000D01*
X-15132963Y-32650000D01*
X-15393780Y-32701880D01*
X-15639465Y-32803646D01*
X-15860575Y-32951387D01*
X-16048613Y-33139425D01*
X-16196354Y-33360535D01*
X-16298120Y-33606220D01*
X-16350000Y-33867037D01*
X-17163884Y-33867037D01*
X-17163884Y-33569158D01*
X-17234445Y-33214425D01*
X-17372855Y-32880273D01*
X-17573796Y-32579544D01*
X-17829544Y-32323796D01*
X-18130273Y-32122855D01*
X-18464425Y-31984445D01*
X-18819158Y-31913884D01*
X-19180842Y-31913884D01*
X-19535575Y-31984445D01*
X-19869727Y-32122855D01*
X-20170456Y-32323796D01*
X-20426204Y-32579544D01*
X-20627145Y-32880273D01*
X-20765555Y-33214425D01*
X-20836116Y-33569158D01*
X-21175000Y-33569158D01*
X-21175000Y-29188886D01*
X-8870000Y-29188886D01*
X-8870000Y-29435114D01*
X-8821963Y-29676611D01*
X-8727735Y-29904097D01*
X-8590938Y-30108828D01*
X-8416828Y-30282938D01*
X-8212097Y-30419735D01*
X-7984611Y-30513963D01*
X-7743114Y-30562000D01*
X-7496886Y-30562000D01*
X-7255389Y-30513963D01*
X-7027903Y-30419735D01*
X-6965824Y-30378255D01*
X-6973099Y-30395818D01*
X-7000000Y-30531056D01*
X-7000000Y-30668944D01*
X-6978444Y-30777313D01*
X-7027903Y-30744265D01*
X-7255389Y-30650037D01*
X-7496886Y-30602000D01*
X-7743114Y-30602000D01*
X-7984611Y-30650037D01*
X-8212097Y-30744265D01*
X-8416828Y-30881062D01*
X-8590938Y-31055172D01*
X-8727735Y-31259903D01*
X-8821963Y-31487389D01*
X-8870000Y-31728886D01*
X-8870000Y-31975114D01*
X-8821963Y-32216611D01*
X-8727735Y-32444097D01*
X-8590938Y-32648828D01*
X-8416828Y-32822938D01*
X-8212097Y-32959735D01*
X-7984611Y-33053963D01*
X-7743114Y-33102000D01*
X-7496886Y-33102000D01*
X-7255389Y-33053963D01*
X-7027903Y-32959735D01*
X-6823172Y-32822938D01*
X-6649062Y-32648828D01*
X-6550000Y-32500571D01*
X-6550000Y-32685604D01*
X-7113291Y-33248896D01*
X-7255389Y-33190037D01*
X-7496886Y-33142000D01*
X-7743114Y-33142000D01*
X-7984611Y-33190037D01*
X-8212097Y-33284265D01*
X-8416828Y-33421062D01*
X-8590938Y-33595172D01*
X-8727735Y-33799903D01*
X-8821963Y-34027389D01*
X-8870000Y-34268886D01*
X-8870000Y-34515114D01*
X-8821963Y-34756611D01*
X-8727735Y-34984097D01*
X-8590938Y-35188828D01*
X-8416828Y-35362938D01*
X-8212097Y-35499735D01*
X-7984611Y-35593963D01*
X-7743114Y-35642000D01*
X-7496886Y-35642000D01*
X-7255389Y-35593963D01*
X-7027903Y-35499735D01*
X-6823172Y-35362938D01*
X-6649062Y-35188828D01*
X-6512265Y-34984097D01*
X-6418037Y-34756611D01*
X-6370000Y-34515114D01*
X-6370000Y-34268886D01*
X-6418037Y-34027389D01*
X-6476896Y-33885291D01*
X-5797427Y-33205823D01*
X-5780263Y-33191737D01*
X-5766176Y-33174572D01*
X-5766172Y-33174568D01*
X-5724029Y-33123217D01*
X-5682243Y-33045041D01*
X-5682243Y-33045040D01*
X-5656511Y-32960215D01*
X-5650000Y-32894105D01*
X-5650000Y-32894094D01*
X-5647824Y-32872000D01*
X-5650000Y-32849906D01*
X-5650000Y-31522094D01*
X-5647824Y-31500000D01*
X-5650000Y-31477906D01*
X-5650000Y-31477895D01*
X-5656511Y-31411785D01*
X-5682243Y-31326959D01*
X-5724029Y-31248784D01*
X-5780263Y-31180263D01*
X-5797434Y-31166171D01*
X-5836828Y-31126778D01*
X-5756274Y-31046224D01*
X-5679668Y-30931574D01*
X-5626901Y-30804182D01*
X-5600000Y-30668944D01*
X-5600000Y-30531056D01*
X-5626901Y-30395818D01*
X-5679668Y-30268426D01*
X-5756274Y-30153776D01*
X-5853776Y-30056274D01*
X-5968426Y-29979668D01*
X-6095818Y-29926901D01*
X-6231056Y-29900000D01*
X-6368944Y-29900000D01*
X-6504182Y-29926901D01*
X-6536426Y-29940257D01*
X-6512265Y-29904097D01*
X-6418037Y-29676611D01*
X-6370000Y-29435114D01*
X-6370000Y-29188886D01*
X-6418037Y-28947389D01*
X-6510153Y-28725000D01*
X-5776452Y-28725000D01*
X-5770660Y-28783810D01*
X-5753505Y-28840361D01*
X-5725648Y-28892478D01*
X-5688159Y-28938159D01*
X-5642478Y-28975648D01*
X-5590361Y-29003505D01*
X-5533810Y-29020660D01*
X-5475000Y-29026452D01*
X-5125000Y-29025000D01*
X-5050000Y-28950000D01*
X-5050000Y-28375000D01*
X-4950000Y-28375000D01*
X-4950000Y-28950000D01*
X-4875000Y-29025000D01*
X-4525000Y-29026452D01*
X-4466190Y-29020660D01*
X-4409639Y-29003505D01*
X-4357522Y-28975648D01*
X-4311841Y-28938159D01*
X-4274352Y-28892478D01*
X-4246495Y-28840361D01*
X-4229340Y-28783810D01*
X-4223548Y-28725000D01*
X-4225000Y-28450000D01*
X-4300000Y-28375000D01*
X-4950000Y-28375000D01*
X-5050000Y-28375000D01*
X-5700000Y-28375000D01*
X-5775000Y-28450000D01*
X-5776452Y-28725000D01*
X-6510153Y-28725000D01*
X-6512265Y-28719903D01*
X-6649062Y-28515172D01*
X-6823172Y-28341062D01*
X-7027903Y-28204265D01*
X-7255389Y-28110037D01*
X-7496886Y-28062000D01*
X-7743114Y-28062000D01*
X-7984611Y-28110037D01*
X-8212097Y-28204265D01*
X-8416828Y-28341062D01*
X-8590938Y-28515172D01*
X-8727735Y-28719903D01*
X-8821963Y-28947389D01*
X-8870000Y-29188886D01*
X-21175000Y-29188886D01*
X-21175000Y-28725000D01*
X-18776452Y-28725000D01*
X-18770660Y-28783810D01*
X-18753505Y-28840361D01*
X-18725648Y-28892478D01*
X-18688159Y-28938159D01*
X-18642478Y-28975648D01*
X-18590361Y-29003505D01*
X-18533810Y-29020660D01*
X-18475000Y-29026452D01*
X-18125000Y-29025000D01*
X-18050000Y-28950000D01*
X-18050000Y-28375000D01*
X-17950000Y-28375000D01*
X-17950000Y-28950000D01*
X-17875000Y-29025000D01*
X-17525000Y-29026452D01*
X-17466190Y-29020660D01*
X-17409639Y-29003505D01*
X-17357522Y-28975648D01*
X-17311841Y-28938159D01*
X-17274352Y-28892478D01*
X-17246495Y-28840361D01*
X-17229340Y-28783810D01*
X-17223548Y-28725000D01*
X-17225000Y-28450000D01*
X-17300000Y-28375000D01*
X-17950000Y-28375000D01*
X-18050000Y-28375000D01*
X-18700000Y-28375000D01*
X-18775000Y-28450000D01*
X-18776452Y-28725000D01*
X-21175000Y-28725000D01*
X-21175000Y-27925000D01*
X-18776452Y-27925000D01*
X-18775000Y-28200000D01*
X-18700000Y-28275000D01*
X-18050000Y-28275000D01*
X-18050000Y-27700000D01*
X-17950000Y-27700000D01*
X-17950000Y-28275000D01*
X-17300000Y-28275000D01*
X-17225000Y-28200000D01*
X-17223548Y-27925000D01*
X-17229340Y-27866190D01*
X-17246495Y-27809639D01*
X-17274352Y-27757522D01*
X-17311841Y-27711841D01*
X-17357522Y-27674352D01*
X-17409639Y-27646495D01*
X-17466190Y-27629340D01*
X-17525000Y-27623548D01*
X-17875000Y-27625000D01*
X-17950000Y-27700000D01*
X-18050000Y-27700000D01*
X-18125000Y-27625000D01*
X-18475000Y-27623548D01*
X-18533810Y-27629340D01*
X-18590361Y-27646495D01*
X-18642478Y-27674352D01*
X-18688159Y-27711841D01*
X-18725648Y-27757522D01*
X-18753505Y-27809639D01*
X-18770660Y-27866190D01*
X-18776452Y-27925000D01*
X-21175000Y-27925000D01*
X-21175000Y-26475000D01*
X-18826693Y-26475000D01*
X-18826693Y-26875000D01*
X-18816092Y-26982630D01*
X-18784698Y-27086124D01*
X-18733716Y-27181504D01*
X-18665106Y-27265106D01*
X-18581504Y-27333716D01*
X-18486124Y-27384698D01*
X-18382630Y-27416092D01*
X-18275000Y-27426693D01*
X-17725000Y-27426693D01*
X-17617370Y-27416092D01*
X-17513876Y-27384698D01*
X-17418496Y-27333716D01*
X-17334894Y-27265106D01*
X-17266284Y-27181504D01*
X-17215302Y-27086124D01*
X-17183908Y-26982630D01*
X-17183156Y-26975000D01*
X-16243767Y-26975000D01*
X-16298120Y-27106220D01*
X-16350000Y-27367037D01*
X-16350000Y-27632963D01*
X-16298120Y-27893780D01*
X-16196354Y-28139465D01*
X-16048613Y-28360575D01*
X-15860575Y-28548613D01*
X-15639465Y-28696354D01*
X-15393780Y-28798120D01*
X-15132963Y-28850000D01*
X-14867037Y-28850000D01*
X-14606220Y-28798120D01*
X-14360535Y-28696354D01*
X-14139425Y-28548613D01*
X-13951387Y-28360575D01*
X-13803646Y-28139465D01*
X-13701880Y-27893780D01*
X-13650000Y-27632963D01*
X-13650000Y-27367037D01*
X-11850000Y-27367037D01*
X-11850000Y-27632963D01*
X-11798120Y-27893780D01*
X-11696354Y-28139465D01*
X-11548613Y-28360575D01*
X-11360575Y-28548613D01*
X-11139465Y-28696354D01*
X-10893780Y-28798120D01*
X-10632963Y-28850000D01*
X-10367037Y-28850000D01*
X-10106220Y-28798120D01*
X-9860535Y-28696354D01*
X-9639425Y-28548613D01*
X-9451387Y-28360575D01*
X-9303646Y-28139465D01*
X-9201880Y-27893780D01*
X-9150000Y-27632963D01*
X-9150000Y-27367037D01*
X-9201880Y-27106220D01*
X-9303646Y-26860535D01*
X-9445065Y-26648886D01*
X-8870000Y-26648886D01*
X-8870000Y-26895114D01*
X-8821963Y-27136611D01*
X-8727735Y-27364097D01*
X-8590938Y-27568828D01*
X-8416828Y-27742938D01*
X-8212097Y-27879735D01*
X-7984611Y-27973963D01*
X-7743114Y-28022000D01*
X-7496886Y-28022000D01*
X-7255389Y-27973963D01*
X-7137183Y-27925000D01*
X-5776452Y-27925000D01*
X-5775000Y-28200000D01*
X-5700000Y-28275000D01*
X-5050000Y-28275000D01*
X-5050000Y-27700000D01*
X-4950000Y-27700000D01*
X-4950000Y-28275000D01*
X-4300000Y-28275000D01*
X-4225000Y-28200000D01*
X-4223548Y-27925000D01*
X-4229340Y-27866190D01*
X-4246495Y-27809639D01*
X-4274352Y-27757522D01*
X-4311841Y-27711841D01*
X-4357522Y-27674352D01*
X-4409639Y-27646495D01*
X-4466190Y-27629340D01*
X-4525000Y-27623548D01*
X-4875000Y-27625000D01*
X-4950000Y-27700000D01*
X-5050000Y-27700000D01*
X-5125000Y-27625000D01*
X-5475000Y-27623548D01*
X-5533810Y-27629340D01*
X-5590361Y-27646495D01*
X-5642478Y-27674352D01*
X-5688159Y-27711841D01*
X-5725648Y-27757522D01*
X-5753505Y-27809639D01*
X-5770660Y-27866190D01*
X-5776452Y-27925000D01*
X-7137183Y-27925000D01*
X-7027903Y-27879735D01*
X-6823172Y-27742938D01*
X-6649062Y-27568828D01*
X-6512265Y-27364097D01*
X-6418037Y-27136611D01*
X-6370000Y-26895114D01*
X-6370000Y-26648886D01*
X-6404588Y-26475000D01*
X-5826693Y-26475000D01*
X-5826693Y-26875000D01*
X-5816092Y-26982630D01*
X-5784698Y-27086124D01*
X-5733716Y-27181504D01*
X-5665106Y-27265106D01*
X-5581504Y-27333716D01*
X-5486124Y-27384698D01*
X-5382630Y-27416092D01*
X-5275000Y-27426693D01*
X-4725000Y-27426693D01*
X-4617370Y-27416092D01*
X-4513876Y-27384698D01*
X-4418496Y-27333716D01*
X-4334894Y-27265106D01*
X-4266284Y-27181504D01*
X-4215302Y-27086124D01*
X-4183908Y-26982630D01*
X-4183156Y-26975000D01*
X-3493767Y-26975000D01*
X-3548120Y-27106220D01*
X-3600000Y-27367037D01*
X-3600000Y-27632963D01*
X-3548120Y-27893780D01*
X-3446354Y-28139465D01*
X-3298613Y-28360575D01*
X-3110575Y-28548613D01*
X-2889465Y-28696354D01*
X-2725000Y-28764478D01*
X-2724999Y-32735522D01*
X-2889465Y-32803646D01*
X-3110575Y-32951387D01*
X-3298613Y-33139425D01*
X-3446354Y-33360535D01*
X-3548120Y-33606220D01*
X-3600000Y-33867037D01*
X-3600000Y-34132963D01*
X-3548120Y-34393780D01*
X-3446354Y-34639465D01*
X-3298613Y-34860575D01*
X-3110575Y-35048613D01*
X-2889465Y-35196354D01*
X-2643780Y-35298120D01*
X-2382963Y-35350000D01*
X-2117037Y-35350000D01*
X-1856220Y-35298120D01*
X-1610535Y-35196354D01*
X-1389425Y-35048613D01*
X-1201387Y-34860575D01*
X-1053646Y-34639465D01*
X-951880Y-34393780D01*
X-900000Y-34132963D01*
X-900000Y-33867037D01*
X900000Y-33867037D01*
X900000Y-34132963D01*
X951880Y-34393780D01*
X1053646Y-34639465D01*
X1201387Y-34860575D01*
X1389425Y-35048613D01*
X1610535Y-35196354D01*
X1856220Y-35298120D01*
X2117037Y-35350000D01*
X2382963Y-35350000D01*
X2643780Y-35298120D01*
X2889465Y-35196354D01*
X3110575Y-35048613D01*
X3298613Y-34860575D01*
X3446354Y-34639465D01*
X3548120Y-34393780D01*
X3572963Y-34268886D01*
X6370000Y-34268886D01*
X6370000Y-34515114D01*
X6418037Y-34756611D01*
X6512265Y-34984097D01*
X6649062Y-35188828D01*
X6823172Y-35362938D01*
X7027903Y-35499735D01*
X7255389Y-35593963D01*
X7496886Y-35642000D01*
X7743114Y-35642000D01*
X7984611Y-35593963D01*
X8212097Y-35499735D01*
X8416828Y-35362938D01*
X8590938Y-35188828D01*
X8727735Y-34984097D01*
X8821963Y-34756611D01*
X8870000Y-34515114D01*
X8870000Y-34268886D01*
X8821963Y-34027389D01*
X8755543Y-33867037D01*
X9150000Y-33867037D01*
X9150000Y-34132963D01*
X9201880Y-34393780D01*
X9303646Y-34639465D01*
X9451387Y-34860575D01*
X9639425Y-35048613D01*
X9860535Y-35196354D01*
X10106220Y-35298120D01*
X10367037Y-35350000D01*
X10632963Y-35350000D01*
X10893780Y-35298120D01*
X11139465Y-35196354D01*
X11360575Y-35048613D01*
X11548613Y-34860575D01*
X11696354Y-34639465D01*
X11798120Y-34393780D01*
X11850000Y-34132963D01*
X11850000Y-33867037D01*
X13650000Y-33867037D01*
X13650000Y-34132963D01*
X13701880Y-34393780D01*
X13803646Y-34639465D01*
X13951387Y-34860575D01*
X14139425Y-35048613D01*
X14360535Y-35196354D01*
X14606220Y-35298120D01*
X14867037Y-35350000D01*
X15132963Y-35350000D01*
X15393780Y-35298120D01*
X15639465Y-35196354D01*
X15860575Y-35048613D01*
X16048613Y-34860575D01*
X16196354Y-34639465D01*
X16298120Y-34393780D01*
X16350000Y-34132963D01*
X16350000Y-33867037D01*
X16298120Y-33606220D01*
X16282769Y-33569158D01*
X17163884Y-33569158D01*
X17163884Y-33930842D01*
X17234445Y-34285575D01*
X17372855Y-34619727D01*
X17573796Y-34920456D01*
X17829544Y-35176204D01*
X18130273Y-35377145D01*
X18464425Y-35515555D01*
X18819158Y-35586116D01*
X19180842Y-35586116D01*
X19535575Y-35515555D01*
X19869727Y-35377145D01*
X20170456Y-35176204D01*
X20426204Y-34920456D01*
X20627145Y-34619727D01*
X20765555Y-34285575D01*
X20836116Y-33930842D01*
X20836116Y-33569158D01*
X20765555Y-33214425D01*
X20627145Y-32880273D01*
X20426204Y-32579544D01*
X20170456Y-32323796D01*
X19869727Y-32122855D01*
X19535575Y-31984445D01*
X19180842Y-31913884D01*
X18819158Y-31913884D01*
X18464425Y-31984445D01*
X18130273Y-32122855D01*
X17829544Y-32323796D01*
X17573796Y-32579544D01*
X17372855Y-32880273D01*
X17234445Y-33214425D01*
X17163884Y-33569158D01*
X16282769Y-33569158D01*
X16196354Y-33360535D01*
X16048613Y-33139425D01*
X15860575Y-32951387D01*
X15639465Y-32803646D01*
X15393780Y-32701880D01*
X15132963Y-32650000D01*
X14867037Y-32650000D01*
X14606220Y-32701880D01*
X14360535Y-32803646D01*
X14139425Y-32951387D01*
X13951387Y-33139425D01*
X13803646Y-33360535D01*
X13701880Y-33606220D01*
X13650000Y-33867037D01*
X11850000Y-33867037D01*
X11798120Y-33606220D01*
X11696354Y-33360535D01*
X11548613Y-33139425D01*
X11360575Y-32951387D01*
X11139465Y-32803646D01*
X10893780Y-32701880D01*
X10632963Y-32650000D01*
X10367037Y-32650000D01*
X10106220Y-32701880D01*
X9860535Y-32803646D01*
X9639425Y-32951387D01*
X9451387Y-33139425D01*
X9303646Y-33360535D01*
X9201880Y-33606220D01*
X9150000Y-33867037D01*
X8755543Y-33867037D01*
X8727735Y-33799903D01*
X8590938Y-33595172D01*
X8416828Y-33421062D01*
X8212097Y-33284265D01*
X7984611Y-33190037D01*
X7743114Y-33142000D01*
X7496886Y-33142000D01*
X7255389Y-33190037D01*
X7027903Y-33284265D01*
X6823172Y-33421062D01*
X6649062Y-33595172D01*
X6512265Y-33799903D01*
X6418037Y-34027389D01*
X6370000Y-34268886D01*
X3572963Y-34268886D01*
X3600000Y-34132963D01*
X3600000Y-33867037D01*
X3548120Y-33606220D01*
X3446354Y-33360535D01*
X3298613Y-33139425D01*
X3110575Y-32951387D01*
X2889465Y-32803646D01*
X2643780Y-32701880D01*
X2564822Y-32686174D01*
X6856537Y-32686174D01*
X6952305Y-32856068D01*
X7161019Y-32967036D01*
X7387371Y-33035153D01*
X7622663Y-33057802D01*
X7857852Y-33034114D01*
X8083900Y-32964997D01*
X8287695Y-32856068D01*
X8383463Y-32686174D01*
X7620000Y-31922711D01*
X6856537Y-32686174D01*
X2564822Y-32686174D01*
X2382963Y-32650000D01*
X2117037Y-32650000D01*
X1856220Y-32701880D01*
X1610535Y-32803646D01*
X1389425Y-32951387D01*
X1201387Y-33139425D01*
X1053646Y-33360535D01*
X951880Y-33606220D01*
X900000Y-33867037D01*
X-900000Y-33867037D01*
X-951880Y-33606220D01*
X-1053646Y-33360535D01*
X-1201387Y-33139425D01*
X-1389425Y-32951387D01*
X-1610535Y-32803646D01*
X-1775000Y-32735522D01*
X-1775000Y-31854663D01*
X6414198Y-31854663D01*
X6437886Y-32089852D01*
X6507003Y-32315900D01*
X6615932Y-32519695D01*
X6785826Y-32615463D01*
X7549289Y-31852000D01*
X7690711Y-31852000D01*
X8454174Y-32615463D01*
X8624068Y-32519695D01*
X8735036Y-32310981D01*
X8803153Y-32084629D01*
X8825802Y-31849337D01*
X8802114Y-31614148D01*
X8732997Y-31388100D01*
X8624068Y-31184305D01*
X8454174Y-31088537D01*
X7690711Y-31852000D01*
X7549289Y-31852000D01*
X6785826Y-31088537D01*
X6615932Y-31184305D01*
X6504964Y-31393019D01*
X6436847Y-31619371D01*
X6414198Y-31854663D01*
X-1775000Y-31854663D01*
X-1775000Y-31017826D01*
X6856537Y-31017826D01*
X7620000Y-31781289D01*
X8383463Y-31017826D01*
X8287695Y-30847932D01*
X8078981Y-30736964D01*
X7852629Y-30668847D01*
X7617337Y-30646198D01*
X7382148Y-30669886D01*
X7156100Y-30739003D01*
X6952305Y-30847932D01*
X6856537Y-31017826D01*
X-1775000Y-31017826D01*
X-1775000Y-29188886D01*
X6370000Y-29188886D01*
X6370000Y-29435114D01*
X6418037Y-29676611D01*
X6512265Y-29904097D01*
X6649062Y-30108828D01*
X6823172Y-30282938D01*
X7027903Y-30419735D01*
X7255389Y-30513963D01*
X7496886Y-30562000D01*
X7743114Y-30562000D01*
X7984611Y-30513963D01*
X8212097Y-30419735D01*
X8416828Y-30282938D01*
X8590938Y-30108828D01*
X8727735Y-29904097D01*
X8821963Y-29676611D01*
X8870000Y-29435114D01*
X8870000Y-29188886D01*
X8821963Y-28947389D01*
X8727735Y-28719903D01*
X8590938Y-28515172D01*
X8416828Y-28341062D01*
X8212097Y-28204265D01*
X7984611Y-28110037D01*
X7743114Y-28062000D01*
X7496886Y-28062000D01*
X7255389Y-28110037D01*
X7027903Y-28204265D01*
X6823172Y-28341062D01*
X6649062Y-28515172D01*
X6512265Y-28719903D01*
X6418037Y-28947389D01*
X6370000Y-29188886D01*
X-1775000Y-29188886D01*
X-1775000Y-28764478D01*
X-1610535Y-28696354D01*
X-1389425Y-28548613D01*
X-1201387Y-28360575D01*
X-1053646Y-28139465D01*
X-951880Y-27893780D01*
X-900000Y-27632963D01*
X-900000Y-27367037D01*
X900000Y-27367037D01*
X900000Y-27632963D01*
X951880Y-27893780D01*
X1053646Y-28139465D01*
X1201387Y-28360575D01*
X1389425Y-28548613D01*
X1610535Y-28696354D01*
X1856220Y-28798120D01*
X2117037Y-28850000D01*
X2382963Y-28850000D01*
X2643780Y-28798120D01*
X2889465Y-28696354D01*
X3110575Y-28548613D01*
X3298613Y-28360575D01*
X3446354Y-28139465D01*
X3548120Y-27893780D01*
X3600000Y-27632963D01*
X3600000Y-27367037D01*
X3548120Y-27106220D01*
X3446354Y-26860535D01*
X3304935Y-26648886D01*
X6370000Y-26648886D01*
X6370000Y-26895114D01*
X6418037Y-27136611D01*
X6512265Y-27364097D01*
X6649062Y-27568828D01*
X6823172Y-27742938D01*
X7027903Y-27879735D01*
X7255389Y-27973963D01*
X7496886Y-28022000D01*
X7743114Y-28022000D01*
X7984611Y-27973963D01*
X8212097Y-27879735D01*
X8416828Y-27742938D01*
X8590938Y-27568828D01*
X8725770Y-27367037D01*
X9150000Y-27367037D01*
X9150000Y-27632963D01*
X9201880Y-27893780D01*
X9303646Y-28139465D01*
X9451387Y-28360575D01*
X9639425Y-28548613D01*
X9860535Y-28696354D01*
X10106220Y-28798120D01*
X10367037Y-28850000D01*
X10632963Y-28850000D01*
X10893780Y-28798120D01*
X11058246Y-28729996D01*
X11522621Y-29194372D01*
X11537500Y-29212502D01*
X11609828Y-29271860D01*
X11692347Y-29315967D01*
X11754723Y-29334889D01*
X11781884Y-29343128D01*
X11875000Y-29352299D01*
X11898333Y-29350001D01*
X15636669Y-29350001D01*
X15660001Y-29352299D01*
X15683333Y-29350001D01*
X15753117Y-29343128D01*
X15842655Y-29315967D01*
X15925174Y-29271860D01*
X15997502Y-29212502D01*
X16012385Y-29194368D01*
X16481753Y-28725000D01*
X17223548Y-28725000D01*
X17229340Y-28783810D01*
X17246495Y-28840361D01*
X17274352Y-28892478D01*
X17311841Y-28938159D01*
X17357522Y-28975648D01*
X17409639Y-29003505D01*
X17466190Y-29020660D01*
X17525000Y-29026452D01*
X17875000Y-29025000D01*
X17950000Y-28950000D01*
X17950000Y-28375000D01*
X18050000Y-28375000D01*
X18050000Y-28950000D01*
X18125000Y-29025000D01*
X18475000Y-29026452D01*
X18533810Y-29020660D01*
X18590361Y-29003505D01*
X18642478Y-28975648D01*
X18688159Y-28938159D01*
X18725648Y-28892478D01*
X18753505Y-28840361D01*
X18770660Y-28783810D01*
X18776452Y-28725000D01*
X18775000Y-28450000D01*
X18700000Y-28375000D01*
X18050000Y-28375000D01*
X17950000Y-28375000D01*
X17300000Y-28375000D01*
X17225000Y-28450000D01*
X17223548Y-28725000D01*
X16481753Y-28725000D01*
X16694378Y-28512376D01*
X16712502Y-28497502D01*
X16771860Y-28425174D01*
X16815967Y-28342655D01*
X16843128Y-28253117D01*
X16850001Y-28183333D01*
X16852299Y-28160001D01*
X16850001Y-28136669D01*
X16850001Y-27925000D01*
X17223548Y-27925000D01*
X17225000Y-28200000D01*
X17300000Y-28275000D01*
X17950000Y-28275000D01*
X17950000Y-27700000D01*
X18050000Y-27700000D01*
X18050000Y-28275000D01*
X18700000Y-28275000D01*
X18775000Y-28200000D01*
X18776452Y-27925000D01*
X18770660Y-27866190D01*
X18753505Y-27809639D01*
X18725648Y-27757522D01*
X18688159Y-27711841D01*
X18642478Y-27674352D01*
X18590361Y-27646495D01*
X18533810Y-27629340D01*
X18475000Y-27623548D01*
X18125000Y-27625000D01*
X18050000Y-27700000D01*
X17950000Y-27700000D01*
X17875000Y-27625000D01*
X17525000Y-27623548D01*
X17466190Y-27629340D01*
X17409639Y-27646495D01*
X17357522Y-27674352D01*
X17311841Y-27711841D01*
X17274352Y-27757522D01*
X17246495Y-27809639D01*
X17229340Y-27866190D01*
X17223548Y-27925000D01*
X16850001Y-27925000D01*
X16850001Y-27421749D01*
X17121751Y-27150000D01*
X17249445Y-27150000D01*
X17266284Y-27181504D01*
X17334894Y-27265106D01*
X17418496Y-27333716D01*
X17513876Y-27384698D01*
X17617370Y-27416092D01*
X17725000Y-27426693D01*
X18275000Y-27426693D01*
X18382630Y-27416092D01*
X18486124Y-27384698D01*
X18581504Y-27333716D01*
X18665106Y-27265106D01*
X18733716Y-27181504D01*
X18784698Y-27086124D01*
X18816092Y-26982630D01*
X18826693Y-26875000D01*
X18826693Y-26475000D01*
X18816092Y-26367370D01*
X18784698Y-26263876D01*
X18733716Y-26168496D01*
X18665106Y-26084894D01*
X18581504Y-26016284D01*
X18486124Y-25965302D01*
X18382630Y-25933908D01*
X18275000Y-25923307D01*
X17725000Y-25923307D01*
X17617370Y-25933908D01*
X17513876Y-25965302D01*
X17418496Y-26016284D01*
X17334894Y-26084894D01*
X17266284Y-26168496D01*
X17249445Y-26200000D01*
X16948332Y-26200000D01*
X16924999Y-26197702D01*
X16831883Y-26206873D01*
X16804722Y-26215112D01*
X16742346Y-26234034D01*
X16659827Y-26278141D01*
X16587499Y-26337499D01*
X16572620Y-26355629D01*
X16144828Y-26783421D01*
X16048613Y-26639425D01*
X15860575Y-26451387D01*
X15639465Y-26303646D01*
X15393780Y-26201880D01*
X15132963Y-26150000D01*
X14867037Y-26150000D01*
X14606220Y-26201880D01*
X14360535Y-26303646D01*
X14139425Y-26451387D01*
X13951387Y-26639425D01*
X13803646Y-26860535D01*
X13701880Y-27106220D01*
X13650000Y-27367037D01*
X13650000Y-27632963D01*
X13701880Y-27893780D01*
X13803646Y-28139465D01*
X13951387Y-28360575D01*
X13990813Y-28400001D01*
X12071752Y-28400001D01*
X11729996Y-28058246D01*
X11798120Y-27893780D01*
X11850000Y-27632963D01*
X11850000Y-27367037D01*
X11798120Y-27106220D01*
X11696354Y-26860535D01*
X11548613Y-26639425D01*
X11360575Y-26451387D01*
X11139465Y-26303646D01*
X10893780Y-26201880D01*
X10632963Y-26150000D01*
X10367037Y-26150000D01*
X10106220Y-26201880D01*
X9860535Y-26303646D01*
X9639425Y-26451387D01*
X9451387Y-26639425D01*
X9303646Y-26860535D01*
X9201880Y-27106220D01*
X9150000Y-27367037D01*
X8725770Y-27367037D01*
X8727735Y-27364097D01*
X8821963Y-27136611D01*
X8870000Y-26895114D01*
X8870000Y-26648886D01*
X8821963Y-26407389D01*
X8727735Y-26179903D01*
X8590938Y-25975172D01*
X8416828Y-25801062D01*
X8212097Y-25664265D01*
X7984611Y-25570037D01*
X7743114Y-25522000D01*
X7496886Y-25522000D01*
X7255389Y-25570037D01*
X7027903Y-25664265D01*
X6823172Y-25801062D01*
X6649062Y-25975172D01*
X6512265Y-26179903D01*
X6418037Y-26407389D01*
X6370000Y-26648886D01*
X3304935Y-26648886D01*
X3298613Y-26639425D01*
X3110575Y-26451387D01*
X2889465Y-26303646D01*
X2643780Y-26201880D01*
X2382963Y-26150000D01*
X2117037Y-26150000D01*
X1856220Y-26201880D01*
X1610535Y-26303646D01*
X1389425Y-26451387D01*
X1201387Y-26639425D01*
X1053646Y-26860535D01*
X951880Y-27106220D01*
X900000Y-27367037D01*
X-900000Y-27367037D01*
X-951880Y-27106220D01*
X-1053646Y-26860535D01*
X-1201387Y-26639425D01*
X-1389425Y-26451387D01*
X-1610535Y-26303646D01*
X-1856220Y-26201880D01*
X-2117037Y-26150000D01*
X-2382963Y-26150000D01*
X-2643780Y-26201880D01*
X-2808246Y-26270004D01*
X-2897616Y-26180634D01*
X-2912499Y-26162499D01*
X-2984827Y-26103141D01*
X-3067346Y-26059034D01*
X-3156884Y-26031873D01*
X-3226668Y-26025000D01*
X-3250000Y-26022702D01*
X-3273332Y-26025000D01*
X-4407875Y-26025000D01*
X-4418496Y-26016284D01*
X-4513876Y-25965302D01*
X-4617370Y-25933908D01*
X-4725000Y-25923307D01*
X-5275000Y-25923307D01*
X-5382630Y-25933908D01*
X-5486124Y-25965302D01*
X-5581504Y-26016284D01*
X-5665106Y-26084894D01*
X-5733716Y-26168496D01*
X-5784698Y-26263876D01*
X-5816092Y-26367370D01*
X-5826693Y-26475000D01*
X-6404588Y-26475000D01*
X-6418037Y-26407389D01*
X-6512265Y-26179903D01*
X-6649062Y-25975172D01*
X-6823172Y-25801062D01*
X-7027903Y-25664265D01*
X-7255389Y-25570037D01*
X-7496886Y-25522000D01*
X-7743114Y-25522000D01*
X-7984611Y-25570037D01*
X-8212097Y-25664265D01*
X-8416828Y-25801062D01*
X-8590938Y-25975172D01*
X-8727735Y-26179903D01*
X-8821963Y-26407389D01*
X-8870000Y-26648886D01*
X-9445065Y-26648886D01*
X-9451387Y-26639425D01*
X-9639425Y-26451387D01*
X-9860535Y-26303646D01*
X-10106220Y-26201880D01*
X-10367037Y-26150000D01*
X-10632963Y-26150000D01*
X-10893780Y-26201880D01*
X-11139465Y-26303646D01*
X-11360575Y-26451387D01*
X-11548613Y-26639425D01*
X-11696354Y-26860535D01*
X-11798120Y-27106220D01*
X-11850000Y-27367037D01*
X-13650000Y-27367037D01*
X-13701880Y-27106220D01*
X-13803646Y-26860535D01*
X-13951387Y-26639425D01*
X-14139425Y-26451387D01*
X-14360535Y-26303646D01*
X-14606220Y-26201880D01*
X-14867037Y-26150000D01*
X-15132963Y-26150000D01*
X-15393780Y-26201880D01*
X-15558246Y-26270004D01*
X-15647616Y-26180634D01*
X-15662499Y-26162499D01*
X-15734827Y-26103141D01*
X-15817346Y-26059034D01*
X-15906884Y-26031873D01*
X-15976668Y-26025000D01*
X-16000000Y-26022702D01*
X-16023332Y-26025000D01*
X-17407875Y-26025000D01*
X-17418496Y-26016284D01*
X-17513876Y-25965302D01*
X-17617370Y-25933908D01*
X-17725000Y-25923307D01*
X-18275000Y-25923307D01*
X-18382630Y-25933908D01*
X-18486124Y-25965302D01*
X-18581504Y-26016284D01*
X-18665106Y-26084894D01*
X-18733716Y-26168496D01*
X-18784698Y-26263876D01*
X-18816092Y-26367370D01*
X-18826693Y-26475000D01*
X-21175000Y-26475000D01*
X-21175000Y-22817791D01*
X-16850000Y-22817791D01*
X-16850000Y-23182209D01*
X-16778905Y-23539625D01*
X-16639448Y-23876303D01*
X-16436989Y-24179306D01*
X-16179306Y-24436989D01*
X-15876303Y-24639448D01*
X-15539625Y-24778905D01*
X-15182209Y-24850000D01*
X-14817791Y-24850000D01*
X-14460375Y-24778905D01*
X-14123697Y-24639448D01*
X-13820694Y-24436989D01*
X-13563011Y-24179306D01*
X-13515959Y-24108886D01*
X-8870000Y-24108886D01*
X-8870000Y-24355114D01*
X-8821963Y-24596611D01*
X-8727735Y-24824097D01*
X-8590938Y-25028828D01*
X-8416828Y-25202938D01*
X-8212097Y-25339735D01*
X-7984611Y-25433963D01*
X-7743114Y-25482000D01*
X-7496886Y-25482000D01*
X-7255389Y-25433963D01*
X-7027903Y-25339735D01*
X-6823172Y-25202938D01*
X-6649062Y-25028828D01*
X-6512265Y-24824097D01*
X-6418037Y-24596611D01*
X-6370000Y-24355114D01*
X-6370000Y-24108886D01*
X6370000Y-24108886D01*
X6370000Y-24355114D01*
X6418037Y-24596611D01*
X6512265Y-24824097D01*
X6649062Y-25028828D01*
X6823172Y-25202938D01*
X7027903Y-25339735D01*
X7255389Y-25433963D01*
X7496886Y-25482000D01*
X7743114Y-25482000D01*
X7984611Y-25433963D01*
X8212097Y-25339735D01*
X8416828Y-25202938D01*
X8590938Y-25028828D01*
X8727735Y-24824097D01*
X8821963Y-24596611D01*
X8870000Y-24355114D01*
X8870000Y-24108886D01*
X8821963Y-23867389D01*
X8727735Y-23639903D01*
X8590938Y-23435172D01*
X8416828Y-23261062D01*
X8212097Y-23124265D01*
X7984611Y-23030037D01*
X7743114Y-22982000D01*
X7496886Y-22982000D01*
X7255389Y-23030037D01*
X7027903Y-23124265D01*
X6823172Y-23261062D01*
X6649062Y-23435172D01*
X6512265Y-23639903D01*
X6418037Y-23867389D01*
X6370000Y-24108886D01*
X-6370000Y-24108886D01*
X-6418037Y-23867389D01*
X-6512265Y-23639903D01*
X-6649062Y-23435172D01*
X-6823172Y-23261062D01*
X-7027903Y-23124265D01*
X-7255389Y-23030037D01*
X-7496886Y-22982000D01*
X-7743114Y-22982000D01*
X-7984611Y-23030037D01*
X-8212097Y-23124265D01*
X-8416828Y-23261062D01*
X-8590938Y-23435172D01*
X-8727735Y-23639903D01*
X-8821963Y-23867389D01*
X-8870000Y-24108886D01*
X-13515959Y-24108886D01*
X-13360552Y-23876303D01*
X-13221095Y-23539625D01*
X-13150000Y-23182209D01*
X-13150000Y-22817791D01*
X-13221095Y-22460375D01*
X-13360552Y-22123697D01*
X-13563011Y-21820694D01*
X-13814819Y-21568886D01*
X-8870000Y-21568886D01*
X-8870000Y-21815114D01*
X-8821963Y-22056611D01*
X-8727735Y-22284097D01*
X-8590938Y-22488828D01*
X-8416828Y-22662938D01*
X-8212097Y-22799735D01*
X-7984611Y-22893963D01*
X-7743114Y-22942000D01*
X-7496886Y-22942000D01*
X-7255389Y-22893963D01*
X-7027903Y-22799735D01*
X-6823172Y-22662938D01*
X-6649062Y-22488828D01*
X-6512265Y-22284097D01*
X-6418037Y-22056611D01*
X-6370000Y-21815114D01*
X-6370000Y-21568886D01*
X6370000Y-21568886D01*
X6370000Y-21815114D01*
X6418037Y-22056611D01*
X6512265Y-22284097D01*
X6649062Y-22488828D01*
X6823172Y-22662938D01*
X7027903Y-22799735D01*
X7255389Y-22893963D01*
X7496886Y-22942000D01*
X7743114Y-22942000D01*
X7984611Y-22893963D01*
X8168506Y-22817791D01*
X13150000Y-22817791D01*
X13150000Y-23182209D01*
X13221095Y-23539625D01*
X13360552Y-23876303D01*
X13563011Y-24179306D01*
X13820694Y-24436989D01*
X14123697Y-24639448D01*
X14460375Y-24778905D01*
X14817791Y-24850000D01*
X15182209Y-24850000D01*
X15539625Y-24778905D01*
X15876303Y-24639448D01*
X16179306Y-24436989D01*
X16436989Y-24179306D01*
X16639448Y-23876303D01*
X16778905Y-23539625D01*
X16850000Y-23182209D01*
X16850000Y-22817791D01*
X16778905Y-22460375D01*
X16639448Y-22123697D01*
X16436989Y-21820694D01*
X16179306Y-21563011D01*
X15876303Y-21360552D01*
X15539625Y-21221095D01*
X15182209Y-21150000D01*
X14817791Y-21150000D01*
X14460375Y-21221095D01*
X14123697Y-21360552D01*
X13820694Y-21563011D01*
X13563011Y-21820694D01*
X13360552Y-22123697D01*
X13221095Y-22460375D01*
X13150000Y-22817791D01*
X8168506Y-22817791D01*
X8212097Y-22799735D01*
X8416828Y-22662938D01*
X8590938Y-22488828D01*
X8727735Y-22284097D01*
X8821963Y-22056611D01*
X8870000Y-21815114D01*
X8870000Y-21568886D01*
X8821963Y-21327389D01*
X8727735Y-21099903D01*
X8590938Y-20895172D01*
X8416828Y-20721062D01*
X8212097Y-20584265D01*
X7984611Y-20490037D01*
X7743114Y-20442000D01*
X7496886Y-20442000D01*
X7255389Y-20490037D01*
X7027903Y-20584265D01*
X6823172Y-20721062D01*
X6649062Y-20895172D01*
X6512265Y-21099903D01*
X6418037Y-21327389D01*
X6370000Y-21568886D01*
X-6370000Y-21568886D01*
X-6418037Y-21327389D01*
X-6512265Y-21099903D01*
X-6649062Y-20895172D01*
X-6823172Y-20721062D01*
X-7027903Y-20584265D01*
X-7255389Y-20490037D01*
X-7496886Y-20442000D01*
X-7743114Y-20442000D01*
X-7984611Y-20490037D01*
X-8212097Y-20584265D01*
X-8416828Y-20721062D01*
X-8590938Y-20895172D01*
X-8727735Y-21099903D01*
X-8821963Y-21327389D01*
X-8870000Y-21568886D01*
X-13814819Y-21568886D01*
X-13820694Y-21563011D01*
X-14123697Y-21360552D01*
X-14460375Y-21221095D01*
X-14817791Y-21150000D01*
X-15182209Y-21150000D01*
X-15539625Y-21221095D01*
X-15876303Y-21360552D01*
X-16179306Y-21563011D01*
X-16436989Y-21820694D01*
X-16639448Y-22123697D01*
X-16778905Y-22460375D01*
X-16850000Y-22817791D01*
X-21175000Y-22817791D01*
X-21175000Y-19028886D01*
X-8870000Y-19028886D01*
X-8870000Y-19275114D01*
X-8821963Y-19516611D01*
X-8727735Y-19744097D01*
X-8590938Y-19948828D01*
X-8416828Y-20122938D01*
X-8212097Y-20259735D01*
X-7984611Y-20353963D01*
X-7743114Y-20402000D01*
X-7496886Y-20402000D01*
X-7255389Y-20353963D01*
X-7027903Y-20259735D01*
X-6823172Y-20122938D01*
X-6649062Y-19948828D01*
X-6512265Y-19744097D01*
X-6418037Y-19516611D01*
X-6370000Y-19275114D01*
X-6370000Y-19028886D01*
X6370000Y-19028886D01*
X6370000Y-19275114D01*
X6418037Y-19516611D01*
X6512265Y-19744097D01*
X6649062Y-19948828D01*
X6823172Y-20122938D01*
X7027903Y-20259735D01*
X7255389Y-20353963D01*
X7496886Y-20402000D01*
X7743114Y-20402000D01*
X7984611Y-20353963D01*
X8212097Y-20259735D01*
X8416828Y-20122938D01*
X8590938Y-19948828D01*
X8727735Y-19744097D01*
X8821963Y-19516611D01*
X8870000Y-19275114D01*
X8870000Y-19028886D01*
X8821963Y-18787389D01*
X8727735Y-18559903D01*
X8590938Y-18355172D01*
X8416828Y-18181062D01*
X8212097Y-18044265D01*
X7984611Y-17950037D01*
X7743114Y-17902000D01*
X7496886Y-17902000D01*
X7255389Y-17950037D01*
X7027903Y-18044265D01*
X6823172Y-18181062D01*
X6649062Y-18355172D01*
X6512265Y-18559903D01*
X6418037Y-18787389D01*
X6370000Y-19028886D01*
X-6370000Y-19028886D01*
X-6418037Y-18787389D01*
X-6512265Y-18559903D01*
X-6649062Y-18355172D01*
X-6823172Y-18181062D01*
X-7027903Y-18044265D01*
X-7255389Y-17950037D01*
X-7496886Y-17902000D01*
X-7743114Y-17902000D01*
X-7984611Y-17950037D01*
X-8212097Y-18044265D01*
X-8416828Y-18181062D01*
X-8590938Y-18355172D01*
X-8727735Y-18559903D01*
X-8821963Y-18787389D01*
X-8870000Y-19028886D01*
X-21175000Y-19028886D01*
X-21175000Y-16488886D01*
X-8870000Y-16488886D01*
X-8870000Y-16735114D01*
X-8821963Y-16976611D01*
X-8727735Y-17204097D01*
X-8590938Y-17408828D01*
X-8416828Y-17582938D01*
X-8212097Y-17719735D01*
X-7984611Y-17813963D01*
X-7743114Y-17862000D01*
X-7496886Y-17862000D01*
X-7255389Y-17813963D01*
X-7027903Y-17719735D01*
X-6823172Y-17582938D01*
X-6649062Y-17408828D01*
X-6512265Y-17204097D01*
X-6418037Y-16976611D01*
X-6370000Y-16735114D01*
X-6370000Y-16488886D01*
X6370000Y-16488886D01*
X6370000Y-16735114D01*
X6418037Y-16976611D01*
X6512265Y-17204097D01*
X6649062Y-17408828D01*
X6823172Y-17582938D01*
X7027903Y-17719735D01*
X7255389Y-17813963D01*
X7496886Y-17862000D01*
X7743114Y-17862000D01*
X7984611Y-17813963D01*
X8212097Y-17719735D01*
X8416828Y-17582938D01*
X8590938Y-17408828D01*
X8727735Y-17204097D01*
X8821963Y-16976611D01*
X8870000Y-16735114D01*
X8870000Y-16488886D01*
X8821963Y-16247389D01*
X8727735Y-16019903D01*
X8590938Y-15815172D01*
X8416828Y-15641062D01*
X8212097Y-15504265D01*
X7984611Y-15410037D01*
X7743114Y-15362000D01*
X7496886Y-15362000D01*
X7255389Y-15410037D01*
X7027903Y-15504265D01*
X6823172Y-15641062D01*
X6649062Y-15815172D01*
X6512265Y-16019903D01*
X6418037Y-16247389D01*
X6370000Y-16488886D01*
X-6370000Y-16488886D01*
X-6418037Y-16247389D01*
X-6512265Y-16019903D01*
X-6649062Y-15815172D01*
X-6823172Y-15641062D01*
X-7027903Y-15504265D01*
X-7255389Y-15410037D01*
X-7496886Y-15362000D01*
X-7743114Y-15362000D01*
X-7984611Y-15410037D01*
X-8212097Y-15504265D01*
X-8416828Y-15641062D01*
X-8590938Y-15815172D01*
X-8727735Y-16019903D01*
X-8821963Y-16247389D01*
X-8870000Y-16488886D01*
X-21175000Y-16488886D01*
X-21175000Y-13948886D01*
X-8870000Y-13948886D01*
X-8870000Y-14195114D01*
X-8821963Y-14436611D01*
X-8727735Y-14664097D01*
X-8590938Y-14868828D01*
X-8416828Y-15042938D01*
X-8212097Y-15179735D01*
X-7984611Y-15273963D01*
X-7743114Y-15322000D01*
X-7496886Y-15322000D01*
X-7255389Y-15273963D01*
X-7027903Y-15179735D01*
X-6823172Y-15042938D01*
X-6649062Y-14868828D01*
X-6512265Y-14664097D01*
X-6418037Y-14436611D01*
X-6370000Y-14195114D01*
X-6370000Y-13948886D01*
X6370000Y-13948886D01*
X6370000Y-14195114D01*
X6418037Y-14436611D01*
X6512265Y-14664097D01*
X6649062Y-14868828D01*
X6823172Y-15042938D01*
X7027903Y-15179735D01*
X7255389Y-15273963D01*
X7496886Y-15322000D01*
X7743114Y-15322000D01*
X7984611Y-15273963D01*
X8212097Y-15179735D01*
X8416828Y-15042938D01*
X8590938Y-14868828D01*
X8727735Y-14664097D01*
X8821963Y-14436611D01*
X8870000Y-14195114D01*
X8870000Y-13948886D01*
X8821963Y-13707389D01*
X8727735Y-13479903D01*
X8590938Y-13275172D01*
X8416828Y-13101062D01*
X8212097Y-12964265D01*
X7984611Y-12870037D01*
X7743114Y-12822000D01*
X7496886Y-12822000D01*
X7255389Y-12870037D01*
X7027903Y-12964265D01*
X6823172Y-13101062D01*
X6649062Y-13275172D01*
X6512265Y-13479903D01*
X6418037Y-13707389D01*
X6370000Y-13948886D01*
X-6370000Y-13948886D01*
X-6418037Y-13707389D01*
X-6512265Y-13479903D01*
X-6649062Y-13275172D01*
X-6823172Y-13101062D01*
X-7027903Y-12964265D01*
X-7255389Y-12870037D01*
X-7496886Y-12822000D01*
X-7743114Y-12822000D01*
X-7984611Y-12870037D01*
X-8212097Y-12964265D01*
X-8416828Y-13101062D01*
X-8590938Y-13275172D01*
X-8727735Y-13479903D01*
X-8821963Y-13707389D01*
X-8870000Y-13948886D01*
X-21175000Y-13948886D01*
X-21175000Y-10715000D01*
X-16375806Y-10715000D01*
X-16352637Y-10950241D01*
X-16284019Y-11176442D01*
X-16172591Y-11384910D01*
X-16022634Y-11567634D01*
X-15839910Y-11717591D01*
X-15631442Y-11829019D01*
X-15405241Y-11897637D01*
X-15228950Y-11915000D01*
X-13811050Y-11915000D01*
X-13634759Y-11897637D01*
X-13408558Y-11829019D01*
X-13200090Y-11717591D01*
X-13017366Y-11567634D01*
X-12887086Y-11408886D01*
X-8870000Y-11408886D01*
X-8870000Y-11655114D01*
X-8821963Y-11896611D01*
X-8727735Y-12124097D01*
X-8590938Y-12328828D01*
X-8416828Y-12502938D01*
X-8212097Y-12639735D01*
X-7984611Y-12733963D01*
X-7743114Y-12782000D01*
X-7496886Y-12782000D01*
X-7255389Y-12733963D01*
X-7027903Y-12639735D01*
X-6823172Y-12502938D01*
X-6649062Y-12328828D01*
X-6512265Y-12124097D01*
X-6418037Y-11896611D01*
X-6370000Y-11655114D01*
X-6370000Y-11408886D01*
X6370000Y-11408886D01*
X6370000Y-11655114D01*
X6418037Y-11896611D01*
X6512265Y-12124097D01*
X6649062Y-12328828D01*
X6823172Y-12502938D01*
X7027903Y-12639735D01*
X7255389Y-12733963D01*
X7496886Y-12782000D01*
X7743114Y-12782000D01*
X7984611Y-12733963D01*
X8212097Y-12639735D01*
X8416828Y-12502938D01*
X8590938Y-12328828D01*
X8727735Y-12124097D01*
X8821963Y-11896611D01*
X8870000Y-11655114D01*
X8870000Y-11408886D01*
X8821963Y-11167389D01*
X8727735Y-10939903D01*
X8590938Y-10735172D01*
X8416828Y-10561062D01*
X8212097Y-10424265D01*
X7984611Y-10330037D01*
X7743114Y-10282000D01*
X7496886Y-10282000D01*
X7255389Y-10330037D01*
X7027903Y-10424265D01*
X6823172Y-10561062D01*
X6649062Y-10735172D01*
X6512265Y-10939903D01*
X6418037Y-11167389D01*
X6370000Y-11408886D01*
X-6370000Y-11408886D01*
X-6418037Y-11167389D01*
X-6512265Y-10939903D01*
X-6649062Y-10735172D01*
X-6823172Y-10561062D01*
X-7027903Y-10424265D01*
X-7255389Y-10330037D01*
X-7496886Y-10282000D01*
X-7743114Y-10282000D01*
X-7984611Y-10330037D01*
X-8212097Y-10424265D01*
X-8416828Y-10561062D01*
X-8590938Y-10735172D01*
X-8727735Y-10939903D01*
X-8821963Y-11167389D01*
X-8870000Y-11408886D01*
X-12887086Y-11408886D01*
X-12867409Y-11384910D01*
X-12755981Y-11176442D01*
X-12687363Y-10950241D01*
X-12664194Y-10715000D01*
X-12687363Y-10479759D01*
X-12755981Y-10253558D01*
X-12867409Y-10045090D01*
X-13017366Y-9862366D01*
X-13200090Y-9712409D01*
X-13408558Y-9600981D01*
X-13634759Y-9532363D01*
X-13811050Y-9515000D01*
X-15228950Y-9515000D01*
X-15405241Y-9532363D01*
X-15631442Y-9600981D01*
X-15839910Y-9712409D01*
X-16022634Y-9862366D01*
X-16172591Y-10045090D01*
X-16284019Y-10253558D01*
X-16352637Y-10479759D01*
X-16375806Y-10715000D01*
X-21175000Y-10715000D01*
X-21175000Y-8868886D01*
X-8870000Y-8868886D01*
X-8870000Y-9115114D01*
X-8821963Y-9356611D01*
X-8727735Y-9584097D01*
X-8590938Y-9788828D01*
X-8416828Y-9962938D01*
X-8212097Y-10099735D01*
X-7984611Y-10193963D01*
X-7743114Y-10242000D01*
X-7496886Y-10242000D01*
X-7255389Y-10193963D01*
X-7027903Y-10099735D01*
X-6823172Y-9962938D01*
X-6649062Y-9788828D01*
X-6512265Y-9584097D01*
X-6418037Y-9356611D01*
X-6370000Y-9115114D01*
X-6370000Y-8868886D01*
X6370000Y-8868886D01*
X6370000Y-9115114D01*
X6418037Y-9356611D01*
X6512265Y-9584097D01*
X6649062Y-9788828D01*
X6823172Y-9962938D01*
X7027903Y-10099735D01*
X7255389Y-10193963D01*
X7496886Y-10242000D01*
X7743114Y-10242000D01*
X7984611Y-10193963D01*
X8212097Y-10099735D01*
X8416828Y-9962938D01*
X8590938Y-9788828D01*
X8727735Y-9584097D01*
X8821963Y-9356611D01*
X8870000Y-9115114D01*
X8870000Y-8868886D01*
X8821963Y-8627389D01*
X8727735Y-8399903D01*
X8590938Y-8195172D01*
X8416828Y-8021062D01*
X8212097Y-7884265D01*
X7984611Y-7790037D01*
X7743114Y-7742000D01*
X7496886Y-7742000D01*
X7255389Y-7790037D01*
X7027903Y-7884265D01*
X6823172Y-8021062D01*
X6649062Y-8195172D01*
X6512265Y-8399903D01*
X6418037Y-8627389D01*
X6370000Y-8868886D01*
X-6370000Y-8868886D01*
X-6418037Y-8627389D01*
X-6512265Y-8399903D01*
X-6649062Y-8195172D01*
X-6823172Y-8021062D01*
X-7027903Y-7884265D01*
X-7255389Y-7790037D01*
X-7496886Y-7742000D01*
X-7743114Y-7742000D01*
X-7984611Y-7790037D01*
X-8212097Y-7884265D01*
X-8416828Y-8021062D01*
X-8590938Y-8195172D01*
X-8727735Y-8399903D01*
X-8821963Y-8627389D01*
X-8870000Y-8868886D01*
X-21175000Y-8868886D01*
X-21175000Y-6905000D01*
X-16375806Y-6905000D01*
X-16352637Y-7140241D01*
X-16284019Y-7366442D01*
X-16172591Y-7574910D01*
X-16022634Y-7757634D01*
X-15839910Y-7907591D01*
X-15631442Y-8019019D01*
X-15405241Y-8087637D01*
X-15228950Y-8105000D01*
X-13811050Y-8105000D01*
X-13634759Y-8087637D01*
X-13408558Y-8019019D01*
X-13200090Y-7907591D01*
X-13017366Y-7757634D01*
X-12867409Y-7574910D01*
X-12755981Y-7366442D01*
X-12687363Y-7140241D01*
X-12664194Y-6905000D01*
X-12687363Y-6669759D01*
X-12755981Y-6443558D01*
X-12817274Y-6328886D01*
X-8870000Y-6328886D01*
X-8870000Y-6575114D01*
X-8821963Y-6816611D01*
X-8727735Y-7044097D01*
X-8590938Y-7248828D01*
X-8416828Y-7422938D01*
X-8212097Y-7559735D01*
X-7984611Y-7653963D01*
X-7743114Y-7702000D01*
X-7496886Y-7702000D01*
X-7255389Y-7653963D01*
X-7027903Y-7559735D01*
X-6823172Y-7422938D01*
X-6649062Y-7248828D01*
X-6512265Y-7044097D01*
X-6418037Y-6816611D01*
X-6370000Y-6575114D01*
X-6370000Y-6328886D01*
X6370000Y-6328886D01*
X6370000Y-6575114D01*
X6418037Y-6816611D01*
X6512265Y-7044097D01*
X6649062Y-7248828D01*
X6823172Y-7422938D01*
X7027903Y-7559735D01*
X7255389Y-7653963D01*
X7496886Y-7702000D01*
X7743114Y-7702000D01*
X7984611Y-7653963D01*
X8212097Y-7559735D01*
X8416828Y-7422938D01*
X8590938Y-7248828D01*
X8727735Y-7044097D01*
X8821963Y-6816611D01*
X8870000Y-6575114D01*
X8870000Y-6328886D01*
X8821963Y-6087389D01*
X8727735Y-5859903D01*
X8590938Y-5655172D01*
X8416828Y-5481062D01*
X8212097Y-5344265D01*
X7984611Y-5250037D01*
X7743114Y-5202000D01*
X7496886Y-5202000D01*
X7255389Y-5250037D01*
X7027903Y-5344265D01*
X6823172Y-5481062D01*
X6649062Y-5655172D01*
X6512265Y-5859903D01*
X6418037Y-6087389D01*
X6370000Y-6328886D01*
X-6370000Y-6328886D01*
X-6418037Y-6087389D01*
X-6512265Y-5859903D01*
X-6649062Y-5655172D01*
X-6823172Y-5481062D01*
X-7027903Y-5344265D01*
X-7255389Y-5250037D01*
X-7496886Y-5202000D01*
X-7743114Y-5202000D01*
X-7984611Y-5250037D01*
X-8212097Y-5344265D01*
X-8416828Y-5481062D01*
X-8590938Y-5655172D01*
X-8727735Y-5859903D01*
X-8821963Y-6087389D01*
X-8870000Y-6328886D01*
X-12817274Y-6328886D01*
X-12867409Y-6235090D01*
X-13017366Y-6052366D01*
X-13200090Y-5902409D01*
X-13408558Y-5790981D01*
X-13634759Y-5722363D01*
X-13811050Y-5705000D01*
X-15228950Y-5705000D01*
X-15405241Y-5722363D01*
X-15631442Y-5790981D01*
X-15839910Y-5902409D01*
X-16022634Y-6052366D01*
X-16172591Y-6235090D01*
X-16284019Y-6443558D01*
X-16352637Y-6669759D01*
X-16375806Y-6905000D01*
X-21175000Y-6905000D01*
X-21175000Y-3788886D01*
X-8870000Y-3788886D01*
X-8870000Y-4035114D01*
X-8821963Y-4276611D01*
X-8727735Y-4504097D01*
X-8590938Y-4708828D01*
X-8416828Y-4882938D01*
X-8212097Y-5019735D01*
X-7984611Y-5113963D01*
X-7743114Y-5162000D01*
X-7496886Y-5162000D01*
X-7255389Y-5113963D01*
X-7027903Y-5019735D01*
X-6823172Y-4882938D01*
X-6649062Y-4708828D01*
X-6512265Y-4504097D01*
X-6418037Y-4276611D01*
X-6370000Y-4035114D01*
X-6370000Y-3788886D01*
X6370000Y-3788886D01*
X6370000Y-4035114D01*
X6418037Y-4276611D01*
X6512265Y-4504097D01*
X6649062Y-4708828D01*
X6823172Y-4882938D01*
X7027903Y-5019735D01*
X7255389Y-5113963D01*
X7496886Y-5162000D01*
X7743114Y-5162000D01*
X7984611Y-5113963D01*
X8212097Y-5019735D01*
X8416828Y-4882938D01*
X8590938Y-4708828D01*
X8727735Y-4504097D01*
X8821963Y-4276611D01*
X8870000Y-4035114D01*
X8870000Y-3788886D01*
X8821963Y-3547389D01*
X8727735Y-3319903D01*
X8590938Y-3115172D01*
X8416828Y-2941062D01*
X8212097Y-2804265D01*
X7984611Y-2710037D01*
X7743114Y-2662000D01*
X7496886Y-2662000D01*
X7255389Y-2710037D01*
X7027903Y-2804265D01*
X6823172Y-2941062D01*
X6649062Y-3115172D01*
X6512265Y-3319903D01*
X6418037Y-3547389D01*
X6370000Y-3788886D01*
X-6370000Y-3788886D01*
X-6418037Y-3547389D01*
X-6512265Y-3319903D01*
X-6649062Y-3115172D01*
X-6823172Y-2941062D01*
X-7027903Y-2804265D01*
X-7255389Y-2710037D01*
X-7496886Y-2662000D01*
X-7743114Y-2662000D01*
X-7984611Y-2710037D01*
X-8212097Y-2804265D01*
X-8416828Y-2941062D01*
X-8590938Y-3115172D01*
X-8727735Y-3319903D01*
X-8821963Y-3547389D01*
X-8870000Y-3788886D01*
X-21175000Y-3788886D01*
X-21175000Y-1248886D01*
X-8870000Y-1248886D01*
X-8870000Y-1495114D01*
X-8821963Y-1736611D01*
X-8727735Y-1964097D01*
X-8590938Y-2168828D01*
X-8416828Y-2342938D01*
X-8212097Y-2479735D01*
X-7984611Y-2573963D01*
X-7743114Y-2622000D01*
X-7496886Y-2622000D01*
X-7255389Y-2573963D01*
X-7027903Y-2479735D01*
X-6823172Y-2342938D01*
X-6649062Y-2168828D01*
X-6512265Y-1964097D01*
X-6418037Y-1736611D01*
X-6370000Y-1495114D01*
X-6370000Y-1248886D01*
X6370000Y-1248886D01*
X6370000Y-1495114D01*
X6418037Y-1736611D01*
X6512265Y-1964097D01*
X6649062Y-2168828D01*
X6823172Y-2342938D01*
X7027903Y-2479735D01*
X7255389Y-2573963D01*
X7496886Y-2622000D01*
X7743114Y-2622000D01*
X7984611Y-2573963D01*
X8212097Y-2479735D01*
X8416828Y-2342938D01*
X8590938Y-2168828D01*
X8727735Y-1964097D01*
X8821963Y-1736611D01*
X8870000Y-1495114D01*
X8870000Y-1248886D01*
X8821963Y-1007389D01*
X8727735Y-779903D01*
X8590938Y-575172D01*
X8416828Y-401062D01*
X8212097Y-264265D01*
X7984611Y-170037D01*
X7743114Y-122000D01*
X7496886Y-122000D01*
X7255389Y-170037D01*
X7027903Y-264265D01*
X6823172Y-401062D01*
X6649062Y-575172D01*
X6512265Y-779903D01*
X6418037Y-1007389D01*
X6370000Y-1248886D01*
X-6370000Y-1248886D01*
X-6418037Y-1007389D01*
X-6512265Y-779903D01*
X-6649062Y-575172D01*
X-6823172Y-401062D01*
X-7027903Y-264265D01*
X-7255389Y-170037D01*
X-7496886Y-122000D01*
X-7743114Y-122000D01*
X-7984611Y-170037D01*
X-8212097Y-264265D01*
X-8416828Y-401062D01*
X-8590938Y-575172D01*
X-8727735Y-779903D01*
X-8821963Y-1007389D01*
X-8870000Y-1248886D01*
X-21175000Y-1248886D01*
X-21175000Y1291114D01*
X-8870000Y1291114D01*
X-8870000Y1044886D01*
X-8821963Y803389D01*
X-8727735Y575903D01*
X-8590938Y371172D01*
X-8416828Y197062D01*
X-8212097Y60265D01*
X-7984611Y-33963D01*
X-7743114Y-82000D01*
X-7496886Y-82000D01*
X-7255389Y-33963D01*
X-7027903Y60265D01*
X-6823172Y197062D01*
X-6649062Y371172D01*
X-6512265Y575903D01*
X-6418037Y803389D01*
X-6370000Y1044886D01*
X-6370000Y1291114D01*
X6370000Y1291114D01*
X6370000Y1044886D01*
X6418037Y803389D01*
X6512265Y575903D01*
X6649062Y371172D01*
X6823172Y197062D01*
X7027903Y60265D01*
X7255389Y-33963D01*
X7496886Y-82000D01*
X7743114Y-82000D01*
X7984611Y-33963D01*
X8212097Y60265D01*
X8416828Y197062D01*
X8590938Y371172D01*
X8727735Y575903D01*
X8821963Y803389D01*
X8870000Y1044886D01*
X8870000Y1291114D01*
X8821963Y1532611D01*
X8727735Y1760097D01*
X8590938Y1964828D01*
X8416828Y2138938D01*
X8212097Y2275735D01*
X7984611Y2369963D01*
X7743114Y2418000D01*
X7496886Y2418000D01*
X7255389Y2369963D01*
X7027903Y2275735D01*
X6823172Y2138938D01*
X6649062Y1964828D01*
X6512265Y1760097D01*
X6418037Y1532611D01*
X6370000Y1291114D01*
X-6370000Y1291114D01*
X-6418037Y1532611D01*
X-6512265Y1760097D01*
X-6649062Y1964828D01*
X-6823172Y2138938D01*
X-7027903Y2275735D01*
X-7255389Y2369963D01*
X-7496886Y2418000D01*
X-7743114Y2418000D01*
X-7984611Y2369963D01*
X-8212097Y2275735D01*
X-8416828Y2138938D01*
X-8590938Y1964828D01*
X-8727735Y1760097D01*
X-8821963Y1532611D01*
X-8870000Y1291114D01*
X-21175000Y1291114D01*
X-21175000Y3831114D01*
X-8870000Y3831114D01*
X-8870000Y3584886D01*
X-8821963Y3343389D01*
X-8727735Y3115903D01*
X-8590938Y2911172D01*
X-8416828Y2737062D01*
X-8212097Y2600265D01*
X-7984611Y2506037D01*
X-7743114Y2458000D01*
X-7496886Y2458000D01*
X-7255389Y2506037D01*
X-7027903Y2600265D01*
X-6823172Y2737062D01*
X-6649062Y2911172D01*
X-6512265Y3115903D01*
X-6418037Y3343389D01*
X-6370000Y3584886D01*
X-6370000Y3831114D01*
X6370000Y3831114D01*
X6370000Y3584886D01*
X6418037Y3343389D01*
X6512265Y3115903D01*
X6649062Y2911172D01*
X6823172Y2737062D01*
X7027903Y2600265D01*
X7255389Y2506037D01*
X7496886Y2458000D01*
X7743114Y2458000D01*
X7984611Y2506037D01*
X8212097Y2600265D01*
X8416828Y2737062D01*
X8590938Y2911172D01*
X8727735Y3115903D01*
X8821963Y3343389D01*
X8870000Y3584886D01*
X8870000Y3831114D01*
X8821963Y4072611D01*
X8727735Y4300097D01*
X8590938Y4504828D01*
X8416828Y4678938D01*
X8212097Y4815735D01*
X7984611Y4909963D01*
X7743114Y4958000D01*
X7496886Y4958000D01*
X7255389Y4909963D01*
X7027903Y4815735D01*
X6823172Y4678938D01*
X6649062Y4504828D01*
X6512265Y4300097D01*
X6418037Y4072611D01*
X6370000Y3831114D01*
X-6370000Y3831114D01*
X-6418037Y4072611D01*
X-6512265Y4300097D01*
X-6649062Y4504828D01*
X-6823172Y4678938D01*
X-7027903Y4815735D01*
X-7255389Y4909963D01*
X-7496886Y4958000D01*
X-7743114Y4958000D01*
X-7984611Y4909963D01*
X-8212097Y4815735D01*
X-8416828Y4678938D01*
X-8590938Y4504828D01*
X-8727735Y4300097D01*
X-8821963Y4072611D01*
X-8870000Y3831114D01*
X-21175000Y3831114D01*
X-21175000Y5795000D01*
X-16375806Y5795000D01*
X-16352637Y5559759D01*
X-16284019Y5333558D01*
X-16172591Y5125090D01*
X-16022634Y4942366D01*
X-15839910Y4792409D01*
X-15631442Y4680981D01*
X-15405241Y4612363D01*
X-15228950Y4595000D01*
X-13811050Y4595000D01*
X-13634759Y4612363D01*
X-13408558Y4680981D01*
X-13200090Y4792409D01*
X-13017366Y4942366D01*
X-12867409Y5125090D01*
X-12755981Y5333558D01*
X-12687363Y5559759D01*
X-12664194Y5795000D01*
X-12687363Y6030241D01*
X-12755981Y6256442D01*
X-12817274Y6371114D01*
X-8870000Y6371114D01*
X-8870000Y6124886D01*
X-8821963Y5883389D01*
X-8727735Y5655903D01*
X-8590938Y5451172D01*
X-8416828Y5277062D01*
X-8212097Y5140265D01*
X-7984611Y5046037D01*
X-7743114Y4998000D01*
X-7496886Y4998000D01*
X-7255389Y5046037D01*
X-7027903Y5140265D01*
X-6823172Y5277062D01*
X-6649062Y5451172D01*
X-6512265Y5655903D01*
X-6418037Y5883389D01*
X-6370000Y6124886D01*
X-6370000Y6371114D01*
X6370000Y6371114D01*
X6370000Y6124886D01*
X6418037Y5883389D01*
X6512265Y5655903D01*
X6649062Y5451172D01*
X6823172Y5277062D01*
X7027903Y5140265D01*
X7255389Y5046037D01*
X7496886Y4998000D01*
X7743114Y4998000D01*
X7984611Y5046037D01*
X8212097Y5140265D01*
X8416828Y5277062D01*
X8590938Y5451172D01*
X8727735Y5655903D01*
X8821963Y5883389D01*
X8870000Y6124886D01*
X8870000Y6371114D01*
X8821963Y6612611D01*
X8727735Y6840097D01*
X8590938Y7044828D01*
X8416828Y7218938D01*
X8212097Y7355735D01*
X7984611Y7449963D01*
X7743114Y7498000D01*
X7496886Y7498000D01*
X7255389Y7449963D01*
X7027903Y7355735D01*
X6823172Y7218938D01*
X6649062Y7044828D01*
X6512265Y6840097D01*
X6418037Y6612611D01*
X6370000Y6371114D01*
X-6370000Y6371114D01*
X-6418037Y6612611D01*
X-6512265Y6840097D01*
X-6649062Y7044828D01*
X-6823172Y7218938D01*
X-7027903Y7355735D01*
X-7255389Y7449963D01*
X-7496886Y7498000D01*
X-7743114Y7498000D01*
X-7984611Y7449963D01*
X-8212097Y7355735D01*
X-8416828Y7218938D01*
X-8590938Y7044828D01*
X-8727735Y6840097D01*
X-8821963Y6612611D01*
X-8870000Y6371114D01*
X-12817274Y6371114D01*
X-12867409Y6464910D01*
X-13017366Y6647634D01*
X-13200090Y6797591D01*
X-13408558Y6909019D01*
X-13634759Y6977637D01*
X-13811050Y6995000D01*
X-15228950Y6995000D01*
X-15405241Y6977637D01*
X-15631442Y6909019D01*
X-15839910Y6797591D01*
X-16022634Y6647634D01*
X-16172591Y6464910D01*
X-16284019Y6256442D01*
X-16352637Y6030241D01*
X-16375806Y5795000D01*
X-21175000Y5795000D01*
X-21175000Y9605000D01*
X-16375806Y9605000D01*
X-16352637Y9369759D01*
X-16284019Y9143558D01*
X-16172591Y8935090D01*
X-16022634Y8752366D01*
X-15839910Y8602409D01*
X-15631442Y8490981D01*
X-15405241Y8422363D01*
X-15228950Y8405000D01*
X-13811050Y8405000D01*
X-13634759Y8422363D01*
X-13408558Y8490981D01*
X-13200090Y8602409D01*
X-13017366Y8752366D01*
X-12887086Y8911114D01*
X-8870000Y8911114D01*
X-8870000Y8664886D01*
X-8821963Y8423389D01*
X-8727735Y8195903D01*
X-8590938Y7991172D01*
X-8416828Y7817062D01*
X-8212097Y7680265D01*
X-7984611Y7586037D01*
X-7743114Y7538000D01*
X-7496886Y7538000D01*
X-7255389Y7586037D01*
X-7027903Y7680265D01*
X-6823172Y7817062D01*
X-6649062Y7991172D01*
X-6512265Y8195903D01*
X-6418037Y8423389D01*
X-6370000Y8664886D01*
X-6370000Y8911114D01*
X6370000Y8911114D01*
X6370000Y8664886D01*
X6418037Y8423389D01*
X6512265Y8195903D01*
X6649062Y7991172D01*
X6823172Y7817062D01*
X7027903Y7680265D01*
X7255389Y7586037D01*
X7496886Y7538000D01*
X7743114Y7538000D01*
X7984611Y7586037D01*
X8212097Y7680265D01*
X8416828Y7817062D01*
X8590938Y7991172D01*
X8727735Y8195903D01*
X8821963Y8423389D01*
X8870000Y8664886D01*
X8870000Y8911114D01*
X8821963Y9152611D01*
X8727735Y9380097D01*
X8590938Y9584828D01*
X8416828Y9758938D01*
X8212097Y9895735D01*
X7984611Y9989963D01*
X7743114Y10038000D01*
X7496886Y10038000D01*
X7255389Y9989963D01*
X7027903Y9895735D01*
X6823172Y9758938D01*
X6649062Y9584828D01*
X6512265Y9380097D01*
X6418037Y9152611D01*
X6370000Y8911114D01*
X-6370000Y8911114D01*
X-6418037Y9152611D01*
X-6512265Y9380097D01*
X-6649062Y9584828D01*
X-6823172Y9758938D01*
X-7027903Y9895735D01*
X-7255389Y9989963D01*
X-7496886Y10038000D01*
X-7743114Y10038000D01*
X-7984611Y9989963D01*
X-8212097Y9895735D01*
X-8416828Y9758938D01*
X-8590938Y9584828D01*
X-8727735Y9380097D01*
X-8821963Y9152611D01*
X-8870000Y8911114D01*
X-12887086Y8911114D01*
X-12867409Y8935090D01*
X-12755981Y9143558D01*
X-12687363Y9369759D01*
X-12664194Y9605000D01*
X-12687363Y9840241D01*
X-12755981Y10066442D01*
X-12867409Y10274910D01*
X-13017366Y10457634D01*
X-13061466Y10493826D01*
X-8383463Y10493826D01*
X-8287695Y10323932D01*
X-8078981Y10212964D01*
X-7852629Y10144847D01*
X-7617337Y10122198D01*
X-7382148Y10145886D01*
X-7156100Y10215003D01*
X-6952305Y10323932D01*
X-6856537Y10493826D01*
X-7620000Y11257289D01*
X-8383463Y10493826D01*
X-13061466Y10493826D01*
X-13200090Y10607591D01*
X-13408558Y10719019D01*
X-13634759Y10787637D01*
X-13811050Y10805000D01*
X-15228950Y10805000D01*
X-15405241Y10787637D01*
X-15631442Y10719019D01*
X-15839910Y10607591D01*
X-16022634Y10457634D01*
X-16172591Y10274910D01*
X-16284019Y10066442D01*
X-16352637Y9840241D01*
X-16375806Y9605000D01*
X-21175000Y9605000D01*
X-21175000Y11325337D01*
X-8825802Y11325337D01*
X-8802114Y11090148D01*
X-8732997Y10864100D01*
X-8624068Y10660305D01*
X-8454174Y10564537D01*
X-7690711Y11328000D01*
X-7549289Y11328000D01*
X-6785826Y10564537D01*
X-6615932Y10660305D01*
X-6504964Y10869019D01*
X-6436847Y11095371D01*
X-6414198Y11330663D01*
X-6426329Y11451114D01*
X6370000Y11451114D01*
X6370000Y11204886D01*
X6418037Y10963389D01*
X6512265Y10735903D01*
X6649062Y10531172D01*
X6823172Y10357062D01*
X7027903Y10220265D01*
X7255389Y10126037D01*
X7496886Y10078000D01*
X7743114Y10078000D01*
X7984611Y10126037D01*
X8212097Y10220265D01*
X8416828Y10357062D01*
X8590938Y10531172D01*
X8727735Y10735903D01*
X8821963Y10963389D01*
X8870000Y11204886D01*
X8870000Y11451114D01*
X8821963Y11692611D01*
X8727735Y11920097D01*
X8590938Y12124828D01*
X8416828Y12298938D01*
X8212097Y12435735D01*
X7984611Y12529963D01*
X7743114Y12578000D01*
X7496886Y12578000D01*
X7255389Y12529963D01*
X7027903Y12435735D01*
X6823172Y12298938D01*
X6649062Y12124828D01*
X6512265Y11920097D01*
X6418037Y11692611D01*
X6370000Y11451114D01*
X-6426329Y11451114D01*
X-6437886Y11565852D01*
X-6507003Y11791900D01*
X-6615932Y11995695D01*
X-6785826Y12091463D01*
X-7549289Y11328000D01*
X-7690711Y11328000D01*
X-8454174Y12091463D01*
X-8624068Y11995695D01*
X-8735036Y11786981D01*
X-8803153Y11560629D01*
X-8825802Y11325337D01*
X-21175000Y11325337D01*
X-21175000Y12162174D01*
X-8383463Y12162174D01*
X-7620000Y11398711D01*
X-6856537Y12162174D01*
X-6952305Y12332068D01*
X-7161019Y12443036D01*
X-7387371Y12511153D01*
X-7622663Y12533802D01*
X-7857852Y12510114D01*
X-8083900Y12440997D01*
X-8287695Y12332068D01*
X-8383463Y12162174D01*
X-21175000Y12162174D01*
X-21175000Y13415000D01*
X-16375806Y13415000D01*
X-16352637Y13179759D01*
X-16284019Y12953558D01*
X-16172591Y12745090D01*
X-16022634Y12562366D01*
X-15839910Y12412409D01*
X-15631442Y12300981D01*
X-15405241Y12232363D01*
X-15228950Y12215000D01*
X-13811050Y12215000D01*
X-13634759Y12232363D01*
X-13408558Y12300981D01*
X-13200090Y12412409D01*
X-13017366Y12562366D01*
X-12867409Y12745090D01*
X-12755981Y12953558D01*
X-12687363Y13179759D01*
X-12664194Y13415000D01*
X-12687363Y13650241D01*
X-12755981Y13876442D01*
X-12817274Y13991114D01*
X-8870000Y13991114D01*
X-8870000Y13744886D01*
X-8821963Y13503389D01*
X-8727735Y13275903D01*
X-8590938Y13071172D01*
X-8416828Y12897062D01*
X-8212097Y12760265D01*
X-7984611Y12666037D01*
X-7743114Y12618000D01*
X-7496886Y12618000D01*
X-7255389Y12666037D01*
X-7027903Y12760265D01*
X-6823172Y12897062D01*
X-6649062Y13071172D01*
X-6512265Y13275903D01*
X-6418037Y13503389D01*
X-6370000Y13744886D01*
X-6370000Y13991114D01*
X6370000Y13991114D01*
X6370000Y13744886D01*
X6418037Y13503389D01*
X6512265Y13275903D01*
X6649062Y13071172D01*
X6823172Y12897062D01*
X7027903Y12760265D01*
X7255389Y12666037D01*
X7496886Y12618000D01*
X7743114Y12618000D01*
X7984611Y12666037D01*
X8212097Y12760265D01*
X8416828Y12897062D01*
X8590938Y13071172D01*
X8727735Y13275903D01*
X8821963Y13503389D01*
X8870000Y13744886D01*
X8870000Y13991114D01*
X8821963Y14232611D01*
X8727735Y14460097D01*
X8590938Y14664828D01*
X8416828Y14838938D01*
X8212097Y14975735D01*
X7984611Y15069963D01*
X7743114Y15118000D01*
X7496886Y15118000D01*
X7255389Y15069963D01*
X7027903Y14975735D01*
X6823172Y14838938D01*
X6649062Y14664828D01*
X6512265Y14460097D01*
X6418037Y14232611D01*
X6370000Y13991114D01*
X-6370000Y13991114D01*
X-6418037Y14232611D01*
X-6512265Y14460097D01*
X-6649062Y14664828D01*
X-6823172Y14838938D01*
X-7027903Y14975735D01*
X-7255389Y15069963D01*
X-7496886Y15118000D01*
X-7743114Y15118000D01*
X-7984611Y15069963D01*
X-8212097Y14975735D01*
X-8416828Y14838938D01*
X-8590938Y14664828D01*
X-8727735Y14460097D01*
X-8821963Y14232611D01*
X-8870000Y13991114D01*
X-12817274Y13991114D01*
X-12867409Y14084910D01*
X-13017366Y14267634D01*
X-13200090Y14417591D01*
X-13408558Y14529019D01*
X-13634759Y14597637D01*
X-13811050Y14615000D01*
X-15228950Y14615000D01*
X-15405241Y14597637D01*
X-15631442Y14529019D01*
X-15839910Y14417591D01*
X-16022634Y14267634D01*
X-16172591Y14084910D01*
X-16284019Y13876442D01*
X-16352637Y13650241D01*
X-16375806Y13415000D01*
X-21175000Y13415000D01*
X-21175000Y16995886D01*
X-16296946Y16995886D01*
X-16251596Y16831107D01*
X-16153969Y16627667D01*
X-16018528Y16447182D01*
X-15850479Y16296588D01*
X-15656280Y16181672D01*
X-15443393Y16106851D01*
X-15220000Y16075000D01*
X-14570000Y16075000D01*
X-14570000Y17175000D01*
X-14470000Y17175000D01*
X-14470000Y16075000D01*
X-13820000Y16075000D01*
X-13596607Y16106851D01*
X-13383720Y16181672D01*
X-13189521Y16296588D01*
X-13021472Y16447182D01*
X-12886031Y16627667D01*
X-12788404Y16831107D01*
X-12743054Y16995886D01*
X-12796163Y17175000D01*
X-14470000Y17175000D01*
X-14570000Y17175000D01*
X-16243837Y17175000D01*
X-16296946Y16995886D01*
X-21175000Y16995886D01*
X-21175000Y17454114D01*
X-16296946Y17454114D01*
X-16243837Y17275000D01*
X-14570000Y17275000D01*
X-14570000Y18375000D01*
X-14470000Y18375000D01*
X-14470000Y17275000D01*
X-12796163Y17275000D01*
X-12743054Y17454114D01*
X-12788404Y17618893D01*
X-12886031Y17822333D01*
X-13021472Y18002818D01*
X-13189521Y18153412D01*
X-13383720Y18268328D01*
X-13596607Y18343149D01*
X-13820000Y18375000D01*
X-14470000Y18375000D01*
X-14570000Y18375000D01*
X-15220000Y18375000D01*
X-15443393Y18343149D01*
X-15656280Y18268328D01*
X-15850479Y18153412D01*
X-16018528Y18002818D01*
X-16153969Y17822333D01*
X-16251596Y17618893D01*
X-16296946Y17454114D01*
X-21175000Y17454114D01*
X-21175000Y21035000D01*
X-16375806Y21035000D01*
X-16352637Y20799759D01*
X-16284019Y20573558D01*
X-16172591Y20365090D01*
X-16022634Y20182366D01*
X-15839910Y20032409D01*
X-15631442Y19920981D01*
X-15405241Y19852363D01*
X-15228950Y19835000D01*
X-13811050Y19835000D01*
X-13634759Y19852363D01*
X-13408558Y19920981D01*
X-13200090Y20032409D01*
X-13017366Y20182366D01*
X-12867409Y20365090D01*
X-12755981Y20573558D01*
X-12687363Y20799759D01*
X-12664194Y21035000D01*
X-12687363Y21270241D01*
X-12755981Y21496442D01*
X-12867409Y21704910D01*
X-13017366Y21887634D01*
X-13200090Y22037591D01*
X-13408558Y22149019D01*
X-13634759Y22217637D01*
X-13811050Y22235000D01*
X-15228950Y22235000D01*
X-15405241Y22217637D01*
X-15631442Y22149019D01*
X-15839910Y22037591D01*
X-16022634Y21887634D01*
X-16172591Y21704910D01*
X-16284019Y21496442D01*
X-16352637Y21270241D01*
X-16375806Y21035000D01*
X-21175000Y21035000D01*
X-21175000Y24845000D01*
X-16375806Y24845000D01*
X-16352637Y24609759D01*
X-16284019Y24383558D01*
X-16172591Y24175090D01*
X-16022634Y23992366D01*
X-15839910Y23842409D01*
X-15631442Y23730981D01*
X-15405241Y23662363D01*
X-15228950Y23645000D01*
X-13811050Y23645000D01*
X-13634759Y23662363D01*
X-13408558Y23730981D01*
X-13200090Y23842409D01*
X-13017366Y23992366D01*
X-12867409Y24175090D01*
X-12755981Y24383558D01*
X-12687363Y24609759D01*
X-12664194Y24845000D01*
X-12687363Y25080241D01*
X-12755981Y25306442D01*
X-12867409Y25514910D01*
X-13017366Y25697634D01*
X-13200090Y25847591D01*
X-13408558Y25959019D01*
X-13634759Y26027637D01*
X-13811050Y26045000D01*
X-15228950Y26045000D01*
X-15405241Y26027637D01*
X-15631442Y25959019D01*
X-15839910Y25847591D01*
X-16022634Y25697634D01*
X-16172591Y25514910D01*
X-16284019Y25306442D01*
X-16352637Y25080241D01*
X-16375806Y24845000D01*
X-21175000Y24845000D01*
X-21175000Y30182209D01*
X-16850000Y30182209D01*
X-16850000Y29817791D01*
X-16778905Y29460375D01*
X-16639448Y29123697D01*
X-16436989Y28820694D01*
X-16179306Y28563011D01*
X-15876303Y28360552D01*
X-15539625Y28221095D01*
X-15182209Y28150000D01*
X-14817791Y28150000D01*
X-14460375Y28221095D01*
X-14123697Y28360552D01*
X-13820694Y28563011D01*
X-13563011Y28820694D01*
X-13360552Y29123697D01*
X-13221095Y29460375D01*
X-13150000Y29817791D01*
X-13150000Y30123114D01*
X-10140000Y30123114D01*
X-10140000Y29876886D01*
X-10091963Y29635389D01*
X-9997735Y29407903D01*
X-9860938Y29203172D01*
X-9686828Y29029062D01*
X-9482097Y28892265D01*
X-9364999Y28843761D01*
X-9364999Y28013342D01*
X-9367298Y27990000D01*
X-9358127Y27896884D01*
X-9330965Y27807346D01*
X-9286858Y27724827D01*
X-9227500Y27652499D01*
X-9209371Y27637621D01*
X-6252355Y24680603D01*
X-6237481Y24662479D01*
X-6165153Y24603121D01*
X-6112542Y24575000D01*
X-6082635Y24559014D01*
X-5993096Y24531853D01*
X-5899980Y24522682D01*
X-5876648Y24524980D01*
X2803270Y24524980D01*
X3374979Y23953269D01*
X3374980Y18447997D01*
X3372681Y18424655D01*
X3381852Y18331539D01*
X3385134Y18320719D01*
X3374802Y18268776D01*
X3374802Y18130888D01*
X3401703Y17995650D01*
X3454470Y17868258D01*
X3500856Y17798835D01*
X3370605Y17772926D01*
X3243213Y17720159D01*
X3128563Y17643553D01*
X3031061Y17546051D01*
X2954455Y17431401D01*
X2901688Y17304009D01*
X2874787Y17168771D01*
X2874787Y17030883D01*
X2901688Y16895645D01*
X2954455Y16768253D01*
X3031061Y16653603D01*
X3128563Y16556101D01*
X3243213Y16479495D01*
X3370605Y16426728D01*
X3505843Y16399827D01*
X3643731Y16399827D01*
X3778969Y16426728D01*
X3906361Y16479495D01*
X4021011Y16556101D01*
X4089370Y16624460D01*
X4093093Y16624827D01*
X4162877Y16631700D01*
X4252415Y16658861D01*
X4334934Y16702968D01*
X4407262Y16762326D01*
X4422145Y16780461D01*
X5619358Y17977672D01*
X5637482Y17992546D01*
X5696840Y18064874D01*
X5732125Y18130888D01*
X5740947Y18147392D01*
X5768108Y18236931D01*
X5777279Y18330047D01*
X5774981Y18353379D01*
X5774981Y21270113D01*
X6670694Y22165826D01*
X8236537Y22165826D01*
X8332305Y21995932D01*
X8541019Y21884964D01*
X8767371Y21816847D01*
X9002663Y21794198D01*
X9237852Y21817886D01*
X9463900Y21887003D01*
X9667695Y21995932D01*
X9763463Y22165826D01*
X9000000Y22929289D01*
X8236537Y22165826D01*
X6670694Y22165826D01*
X7844388Y23339518D01*
X7850531Y23344559D01*
X7816847Y23232629D01*
X7794198Y22997337D01*
X7817886Y22762148D01*
X7887003Y22536100D01*
X7995932Y22332305D01*
X8165826Y22236537D01*
X8929289Y23000000D01*
X9070711Y23000000D01*
X9834174Y22236537D01*
X10004068Y22332305D01*
X10115036Y22541019D01*
X10183153Y22767371D01*
X10205802Y23002663D01*
X10193671Y23123114D01*
X12750000Y23123114D01*
X12750000Y22876886D01*
X12798037Y22635389D01*
X12892265Y22407903D01*
X13029062Y22203172D01*
X13203172Y22029062D01*
X13407903Y21892265D01*
X13635389Y21798037D01*
X13876886Y21750000D01*
X14123114Y21750000D01*
X14364611Y21798037D01*
X14592097Y21892265D01*
X14796828Y22029062D01*
X14970938Y22203172D01*
X15107735Y22407903D01*
X15201963Y22635389D01*
X15250000Y22876886D01*
X15250000Y23123114D01*
X15201963Y23364611D01*
X15107735Y23592097D01*
X14970938Y23796828D01*
X14796828Y23970938D01*
X14592097Y24107735D01*
X14364611Y24201963D01*
X14123114Y24250000D01*
X13876886Y24250000D01*
X13635389Y24201963D01*
X13407903Y24107735D01*
X13203172Y23970938D01*
X13029062Y23796828D01*
X12892265Y23592097D01*
X12798037Y23364611D01*
X12750000Y23123114D01*
X10193671Y23123114D01*
X10182114Y23237852D01*
X10112997Y23463900D01*
X10004068Y23667695D01*
X9834174Y23763463D01*
X9070711Y23000000D01*
X8929289Y23000000D01*
X8165826Y23763463D01*
X8000160Y23670079D01*
X8002309Y23691893D01*
X8000011Y23715225D01*
X8000011Y23834174D01*
X8236537Y23834174D01*
X9000000Y23070711D01*
X9763463Y23834174D01*
X9667695Y24004068D01*
X9458981Y24115036D01*
X9232629Y24183153D01*
X8997337Y24205802D01*
X8762148Y24182114D01*
X8536100Y24112997D01*
X8332305Y24004068D01*
X8236537Y23834174D01*
X8000011Y23834174D01*
X8000011Y26531782D01*
X8002309Y26555112D01*
X7996590Y26613175D01*
X7993138Y26648227D01*
X7965977Y26737765D01*
X7921870Y26820284D01*
X7862512Y26892612D01*
X7844382Y26907491D01*
X6482495Y28269377D01*
X6467612Y28287512D01*
X6395284Y28346870D01*
X6312765Y28390977D01*
X6223227Y28418138D01*
X6153443Y28425011D01*
X6130111Y28427309D01*
X6106779Y28425011D01*
X4646740Y28425011D01*
X4285000Y28786750D01*
X4285000Y28843762D01*
X4402097Y28892265D01*
X4606828Y29029062D01*
X4743592Y29165826D01*
X5586537Y29165826D01*
X5682305Y28995932D01*
X5891019Y28884964D01*
X6117371Y28816847D01*
X6352663Y28794198D01*
X6587852Y28817886D01*
X6813900Y28887003D01*
X7017695Y28995932D01*
X7113463Y29165826D01*
X6350000Y29929289D01*
X5586537Y29165826D01*
X4743592Y29165826D01*
X4780938Y29203172D01*
X4917735Y29407903D01*
X5011963Y29635389D01*
X5060000Y29876886D01*
X5060000Y29997337D01*
X5144198Y29997337D01*
X5167886Y29762148D01*
X5237003Y29536100D01*
X5345932Y29332305D01*
X5515826Y29236537D01*
X6279289Y30000000D01*
X6420711Y30000000D01*
X7184174Y29236537D01*
X7354068Y29332305D01*
X7465036Y29541019D01*
X7533153Y29767371D01*
X7555802Y30002663D01*
X7543671Y30123114D01*
X7640000Y30123114D01*
X7640000Y29876886D01*
X7688037Y29635389D01*
X7782265Y29407903D01*
X7919062Y29203172D01*
X8093172Y29029062D01*
X8297903Y28892265D01*
X8525389Y28798037D01*
X8766886Y28750000D01*
X9013114Y28750000D01*
X9254611Y28798037D01*
X9482097Y28892265D01*
X9686828Y29029062D01*
X9860938Y29203172D01*
X9997735Y29407903D01*
X10091963Y29635389D01*
X10140000Y29876886D01*
X10140000Y30123114D01*
X10128246Y30182209D01*
X13150000Y30182209D01*
X13150000Y29817791D01*
X13221095Y29460375D01*
X13360552Y29123697D01*
X13563011Y28820694D01*
X13820694Y28563011D01*
X14123697Y28360552D01*
X14460375Y28221095D01*
X14817791Y28150000D01*
X15182209Y28150000D01*
X15539625Y28221095D01*
X15876303Y28360552D01*
X16179306Y28563011D01*
X16436989Y28820694D01*
X16639448Y29123697D01*
X16778905Y29460375D01*
X16850000Y29817791D01*
X16850000Y30182209D01*
X16778905Y30539625D01*
X16639448Y30876303D01*
X16436989Y31179306D01*
X16179306Y31436989D01*
X15876303Y31639448D01*
X15539625Y31778905D01*
X15182209Y31850000D01*
X14817791Y31850000D01*
X14460375Y31778905D01*
X14123697Y31639448D01*
X13820694Y31436989D01*
X13563011Y31179306D01*
X13360552Y30876303D01*
X13221095Y30539625D01*
X13150000Y30182209D01*
X10128246Y30182209D01*
X10091963Y30364611D01*
X9997735Y30592097D01*
X9860938Y30796828D01*
X9686828Y30970938D01*
X9482097Y31107735D01*
X9254611Y31201963D01*
X9013114Y31250000D01*
X8766886Y31250000D01*
X8525389Y31201963D01*
X8297903Y31107735D01*
X8093172Y30970938D01*
X7919062Y30796828D01*
X7782265Y30592097D01*
X7688037Y30364611D01*
X7640000Y30123114D01*
X7543671Y30123114D01*
X7532114Y30237852D01*
X7462997Y30463900D01*
X7354068Y30667695D01*
X7184174Y30763463D01*
X6420711Y30000000D01*
X6279289Y30000000D01*
X5515826Y30763463D01*
X5345932Y30667695D01*
X5234964Y30458981D01*
X5166847Y30232629D01*
X5144198Y29997337D01*
X5060000Y29997337D01*
X5060000Y30123114D01*
X5011963Y30364611D01*
X4917735Y30592097D01*
X4780938Y30796828D01*
X4743592Y30834174D01*
X5586537Y30834174D01*
X6350000Y30070711D01*
X7113463Y30834174D01*
X7017695Y31004068D01*
X6808981Y31115036D01*
X6582629Y31183153D01*
X6347337Y31205802D01*
X6112148Y31182114D01*
X5886100Y31112997D01*
X5682305Y31004068D01*
X5586537Y30834174D01*
X4743592Y30834174D01*
X4606828Y30970938D01*
X4402097Y31107735D01*
X4174611Y31201963D01*
X3933114Y31250000D01*
X3686886Y31250000D01*
X3445389Y31201963D01*
X3217903Y31107735D01*
X3013172Y30970938D01*
X2839062Y30796828D01*
X2702265Y30592097D01*
X2608037Y30364611D01*
X2560000Y30123114D01*
X2560000Y29876886D01*
X2608037Y29635389D01*
X2702265Y29407903D01*
X2839062Y29203172D01*
X3013172Y29029062D01*
X3217903Y28892265D01*
X3335000Y28843762D01*
X3335000Y28613333D01*
X3332702Y28590000D01*
X3341873Y28496885D01*
X3369034Y28407347D01*
X3413141Y28324827D01*
X3472499Y28252499D01*
X3490634Y28237616D01*
X3803248Y27925001D01*
X2446751Y27925001D01*
X1745000Y28626750D01*
X1745000Y28843762D01*
X1862097Y28892265D01*
X2066828Y29029062D01*
X2240938Y29203172D01*
X2377735Y29407903D01*
X2471963Y29635389D01*
X2520000Y29876886D01*
X2520000Y30123114D01*
X2471963Y30364611D01*
X2377735Y30592097D01*
X2240938Y30796828D01*
X2066828Y30970938D01*
X1862097Y31107735D01*
X1634611Y31201963D01*
X1393114Y31250000D01*
X1146886Y31250000D01*
X905389Y31201963D01*
X677903Y31107735D01*
X473172Y30970938D01*
X299062Y30796828D01*
X162265Y30592097D01*
X68037Y30364611D01*
X20000Y30123114D01*
X20000Y29876886D01*
X68037Y29635389D01*
X162265Y29407903D01*
X299062Y29203172D01*
X473172Y29029062D01*
X677903Y28892265D01*
X795001Y28843761D01*
X795001Y28453342D01*
X792702Y28430000D01*
X801873Y28336884D01*
X816851Y28287511D01*
X829035Y28247346D01*
X873142Y28164827D01*
X932500Y28092499D01*
X950629Y28077621D01*
X1828248Y27200000D01*
X-28249Y27200000D01*
X-795000Y27966750D01*
X-795000Y28843762D01*
X-677903Y28892265D01*
X-473172Y29029062D01*
X-299062Y29203172D01*
X-162265Y29407903D01*
X-68037Y29635389D01*
X-20000Y29876886D01*
X-20000Y30123114D01*
X-68037Y30364611D01*
X-162265Y30592097D01*
X-299062Y30796828D01*
X-473172Y30970938D01*
X-677903Y31107735D01*
X-905389Y31201963D01*
X-1146886Y31250000D01*
X-1393114Y31250000D01*
X-1634611Y31201963D01*
X-1862097Y31107735D01*
X-2066828Y30970938D01*
X-2240938Y30796828D01*
X-2377735Y30592097D01*
X-2471963Y30364611D01*
X-2520000Y30123114D01*
X-2520000Y29876886D01*
X-2471963Y29635389D01*
X-2377735Y29407903D01*
X-2240938Y29203172D01*
X-2066828Y29029062D01*
X-1862097Y28892265D01*
X-1745000Y28843762D01*
X-1745000Y27793333D01*
X-1747298Y27770000D01*
X-1738127Y27676884D01*
X-1730730Y27652499D01*
X-1710966Y27587347D01*
X-1666859Y27504827D01*
X-1607501Y27432499D01*
X-1589366Y27417616D01*
X-646751Y26475000D01*
X-2903248Y26475000D01*
X-3335000Y26906750D01*
X-3335000Y28843762D01*
X-3217903Y28892265D01*
X-3013172Y29029062D01*
X-2839062Y29203172D01*
X-2702265Y29407903D01*
X-2608037Y29635389D01*
X-2560000Y29876886D01*
X-2560000Y30123114D01*
X-2608037Y30364611D01*
X-2702265Y30592097D01*
X-2839062Y30796828D01*
X-3013172Y30970938D01*
X-3217903Y31107735D01*
X-3445389Y31201963D01*
X-3686886Y31250000D01*
X-3933114Y31250000D01*
X-4174611Y31201963D01*
X-4402097Y31107735D01*
X-4606828Y30970938D01*
X-4780938Y30796828D01*
X-4917735Y30592097D01*
X-5011963Y30364611D01*
X-5060000Y30123114D01*
X-5060000Y29876886D01*
X-5011963Y29635389D01*
X-4917735Y29407903D01*
X-4780938Y29203172D01*
X-4606828Y29029062D01*
X-4402097Y28892265D01*
X-4285000Y28843762D01*
X-4284999Y26733342D01*
X-4287298Y26710000D01*
X-4278127Y26616884D01*
X-4250965Y26527346D01*
X-4206858Y26444827D01*
X-4147500Y26372499D01*
X-4129371Y26357621D01*
X-3746741Y25974990D01*
X-5496119Y25974990D01*
X-5875000Y26353870D01*
X-5875000Y28843762D01*
X-5757903Y28892265D01*
X-5553172Y29029062D01*
X-5379062Y29203172D01*
X-5242265Y29407903D01*
X-5148037Y29635389D01*
X-5100000Y29876886D01*
X-5100000Y30123114D01*
X-5148037Y30364611D01*
X-5242265Y30592097D01*
X-5379062Y30796828D01*
X-5553172Y30970938D01*
X-5757903Y31107735D01*
X-5985389Y31201963D01*
X-6226886Y31250000D01*
X-6473114Y31250000D01*
X-6714611Y31201963D01*
X-6942097Y31107735D01*
X-7146828Y30970938D01*
X-7320938Y30796828D01*
X-7457735Y30592097D01*
X-7551963Y30364611D01*
X-7600000Y30123114D01*
X-7600000Y29876886D01*
X-7551963Y29635389D01*
X-7457735Y29407903D01*
X-7320938Y29203172D01*
X-7146828Y29029062D01*
X-6942097Y28892265D01*
X-6825000Y28843762D01*
X-6824999Y26596750D01*
X-8415000Y28186750D01*
X-8415000Y28843762D01*
X-8297903Y28892265D01*
X-8093172Y29029062D01*
X-7919062Y29203172D01*
X-7782265Y29407903D01*
X-7688037Y29635389D01*
X-7640000Y29876886D01*
X-7640000Y30123114D01*
X-7688037Y30364611D01*
X-7782265Y30592097D01*
X-7919062Y30796828D01*
X-8093172Y30970938D01*
X-8297903Y31107735D01*
X-8525389Y31201963D01*
X-8766886Y31250000D01*
X-9013114Y31250000D01*
X-9254611Y31201963D01*
X-9482097Y31107735D01*
X-9686828Y30970938D01*
X-9860938Y30796828D01*
X-9997735Y30592097D01*
X-10091963Y30364611D01*
X-10140000Y30123114D01*
X-13150000Y30123114D01*
X-13150000Y30182209D01*
X-13221095Y30539625D01*
X-13360552Y30876303D01*
X-13563011Y31179306D01*
X-13820694Y31436989D01*
X-14123697Y31639448D01*
X-14460375Y31778905D01*
X-14817791Y31850000D01*
X-15182209Y31850000D01*
X-15539625Y31778905D01*
X-15876303Y31639448D01*
X-16179306Y31436989D01*
X-16436989Y31179306D01*
X-16639448Y30876303D01*
X-16778905Y30539625D01*
X-16850000Y30182209D01*
X-21175000Y30182209D01*
X-21175000Y33930842D01*
X-20836116Y33930842D01*
X-20836116Y33569158D01*
X-20765555Y33214425D01*
X-20627145Y32880273D01*
X-20426204Y32579544D01*
X-20170456Y32323796D01*
X-19869727Y32122855D01*
X-19535575Y31984445D01*
X-19180842Y31913884D01*
X-18819158Y31913884D01*
X-18464425Y31984445D01*
X-18130273Y32122855D01*
X-17829544Y32323796D01*
X-17573796Y32579544D01*
X-17372855Y32880273D01*
X-17234445Y33214425D01*
X-17163884Y33569158D01*
X-17163884Y33930842D01*
X17163884Y33930842D01*
X17163884Y33569158D01*
X17234445Y33214425D01*
X17372855Y32880273D01*
X17573796Y32579544D01*
X17829544Y32323796D01*
X18130273Y32122855D01*
X18464425Y31984445D01*
X18819158Y31913884D01*
X19180842Y31913884D01*
X19535575Y31984445D01*
X19869727Y32122855D01*
X20170456Y32323796D01*
X20426204Y32579544D01*
X20627145Y32880273D01*
X20765555Y33214425D01*
X20836116Y33569158D01*
X20836116Y33930842D01*
X20765555Y34285575D01*
X20627145Y34619727D01*
X20426204Y34920456D01*
X20170456Y35176204D01*
X19869727Y35377145D01*
X19535575Y35515555D01*
X19180842Y35586116D01*
X18819158Y35586116D01*
X18464425Y35515555D01*
X18130273Y35377145D01*
X17829544Y35176204D01*
X17573796Y34920456D01*
X17372855Y34619727D01*
X17234445Y34285575D01*
X17163884Y33930842D01*
X-17163884Y33930842D01*
X-17234445Y34285575D01*
X-17372855Y34619727D01*
X-17573796Y34920456D01*
X-17829544Y35176204D01*
X-18130273Y35377145D01*
X-18464425Y35515555D01*
X-18819158Y35586116D01*
X-19180842Y35586116D01*
X-19535575Y35515555D01*
X-19869727Y35377145D01*
X-20170456Y35176204D01*
X-20426204Y34920456D01*
X-20627145Y34619727D01*
X-20765555Y34285575D01*
X-20836116Y33930842D01*
X-21175000Y33930842D01*
X-21175000Y33984103D01*
X-21141571Y34325040D01*
X-21047173Y34637699D01*
X-20893844Y34926068D01*
X-20687422Y35179167D01*
X-20435777Y35387345D01*
X-20148482Y35542685D01*
X-19836492Y35639261D01*
X-19496460Y35675000D01*
X19484103Y35675000D01*
X19825040Y35641571D01*
G37*
%TD.AperFunction*%
%TD*%
M02*
