M48
; DRILL file {KiCad 5.1.9} date Fri Dec 25 23:56:46 2020
; FORMAT={-:-/ absolute / metric / decimal}
; #@! TF.CreationDate,2020-12-25T23:56:46+01:00
; #@! TF.GenerationSoftware,Kicad,Pcbnew,5.1.9
FMAT,2
METRIC
T1C0.300
T2C1.000
T3C1.020
T4C1.100
T5C1.300
T6C3.000
%
G90
G05
T1
X-20.0Y30.0
X-20.0Y25.0
X-20.0Y20.0
X-20.0Y15.0
X-20.0Y10.0
X-20.0Y5.0
X-20.0Y0.0
X-20.0Y-5.0
X-20.0Y-10.0
X-20.0Y-15.0
X-20.0Y-20.0
X-20.0Y-25.0
X-20.0Y-30.0
X-18.0Y-29.3
X-15.5Y-3.8
X-15.5Y-20.3
X-15.0Y35.0
X-14.8Y-3.8
X-14.8Y-20.3
X-14.1Y-3.8
X-14.1Y-20.3
X-12.4Y-3.7
X-12.4Y-20.2
X-10.0Y35.0
X-10.0Y15.0
X-10.0Y5.0
X-10.0Y0.0
X-10.0Y-20.0
X-10.0Y-25.0
X-6.3Y-30.6
X-5.0Y35.0
X-5.0Y-35.0
X-4.9Y20.5
X-4.5Y-29.4
X-1.7Y27.0
X0.0Y35.0
X0.0Y15.0
X0.0Y10.0
X0.0Y5.0
X0.0Y0.0
X0.0Y-5.0
X0.0Y-10.0
X0.0Y-15.0
X0.0Y-20.0
X0.0Y-35.0
X3.575Y17.1
X4.075Y18.2
X4.575Y19.3
X4.8Y26.725
X5.0Y35.0
X5.0Y-20.0
X5.0Y-25.0
X5.0Y-30.0
X5.0Y-35.0
X5.57Y25.275
X6.3Y26.0
X10.0Y35.0
X10.0Y25.0
X10.0Y20.0
X10.0Y15.0
X10.0Y10.0
X10.0Y5.0
X10.0Y0.0
X10.0Y-5.0
X10.0Y-10.0
X10.0Y-15.0
X10.0Y-20.0
X15.0Y35.0
X15.0Y25.0
X15.0Y15.0
X15.0Y10.0
X15.0Y5.0
X15.0Y0.0
X15.0Y-5.0
X15.0Y-10.0
X15.0Y-15.0
X15.0Y-20.0
X18.0Y-29.3
X20.0Y30.0
X20.0Y25.0
X20.0Y20.0
X20.0Y15.0
X20.0Y10.0
X20.0Y5.0
X20.0Y0.0
X20.0Y-5.0
X20.0Y-10.0
X20.0Y-15.0
X20.0Y-20.0
X20.0Y-25.0
X20.0Y-30.0
T2
X9.0Y23.0
X14.0Y23.0
T3
X-8.89Y30.0
X-7.62Y13.868
X-7.62Y11.328
X-7.62Y8.788
X-7.62Y6.248
X-7.62Y3.708
X-7.62Y1.168
X-7.62Y-1.372
X-7.62Y-3.912
X-7.62Y-6.452
X-7.62Y-8.992
X-7.62Y-11.532
X-7.62Y-14.072
X-7.62Y-16.612
X-7.62Y-19.152
X-7.62Y-21.692
X-7.62Y-24.232
X-7.62Y-26.772
X-7.62Y-29.312
X-7.62Y-31.852
X-7.62Y-34.392
X-6.35Y30.0
X-3.81Y30.0
X-1.27Y30.0
X1.27Y30.0
X3.81Y30.0
X6.35Y30.0
X7.62Y13.868
X7.62Y11.328
X7.62Y8.788
X7.62Y6.248
X7.62Y3.708
X7.62Y1.168
X7.62Y-1.372
X7.62Y-3.912
X7.62Y-6.452
X7.62Y-8.992
X7.62Y-11.532
X7.62Y-14.072
X7.62Y-16.612
X7.62Y-19.152
X7.62Y-21.692
X7.62Y-24.232
X7.62Y-26.772
X7.62Y-29.312
X7.62Y-31.852
X7.62Y-34.392
X8.89Y30.0
T4
X-15.0Y-27.5
X-15.0Y-34.0
X-10.5Y-27.5
X-10.5Y-34.0
X-2.25Y-27.5
X-2.25Y-34.0
X2.25Y-27.5
X2.25Y-34.0
X10.5Y-27.5
X10.5Y-34.0
X15.0Y-27.5
X15.0Y-34.0
T5
X-14.52Y24.845
X-14.52Y21.035
X-14.52Y17.225
X-14.52Y13.415
X-14.52Y9.605
X-14.52Y5.795
X-14.52Y-6.905
X-14.52Y-10.715
T6
X-15.0Y30.0
X-15.0Y-23.0
X15.0Y30.0
X15.0Y-23.0
T0
M30
