%TF.GenerationSoftware,KiCad,Pcbnew,5.1.9*%
%TF.CreationDate,2020-12-25T23:56:19+01:00*%
%TF.ProjectId,reflow-oven,7265666c-6f77-42d6-9f76-656e2e6b6963,rev?*%
%TF.SameCoordinates,Original*%
%TF.FileFunction,Soldermask,Bot*%
%TF.FilePolarity,Negative*%
%FSLAX46Y46*%
G04 Gerber Fmt 4.6, Leading zero omitted, Abs format (unit mm)*
G04 Created by KiCad (PCBNEW 5.1.9) date 2020-12-25 23:56:19*
%MOMM*%
%LPD*%
G01*
G04 APERTURE LIST*
%ADD10R,0.900000X0.800000*%
%ADD11R,1.250000X1.220000*%
%ADD12O,3.000000X1.700000*%
%ADD13C,1.800000*%
%ADD14C,3.000000*%
%ADD15C,2.000000*%
G04 APERTURE END LIST*
%TO.C,R5*%
G36*
G01*
X-12675000Y-18825000D02*
X-12125000Y-18825000D01*
G75*
G02*
X-11925000Y-19025000I0J-200000D01*
G01*
X-11925000Y-19425000D01*
G75*
G02*
X-12125000Y-19625000I-200000J0D01*
G01*
X-12675000Y-19625000D01*
G75*
G02*
X-12875000Y-19425000I0J200000D01*
G01*
X-12875000Y-19025000D01*
G75*
G02*
X-12675000Y-18825000I200000J0D01*
G01*
G37*
G36*
G01*
X-12675000Y-17175000D02*
X-12125000Y-17175000D01*
G75*
G02*
X-11925000Y-17375000I0J-200000D01*
G01*
X-11925000Y-17775000D01*
G75*
G02*
X-12125000Y-17975000I-200000J0D01*
G01*
X-12675000Y-17975000D01*
G75*
G02*
X-12875000Y-17775000I0J200000D01*
G01*
X-12875000Y-17375000D01*
G75*
G02*
X-12675000Y-17175000I200000J0D01*
G01*
G37*
%TD*%
%TO.C,R4*%
G36*
G01*
X-12675000Y-2325000D02*
X-12125000Y-2325000D01*
G75*
G02*
X-11925000Y-2525000I0J-200000D01*
G01*
X-11925000Y-2925000D01*
G75*
G02*
X-12125000Y-3125000I-200000J0D01*
G01*
X-12675000Y-3125000D01*
G75*
G02*
X-12875000Y-2925000I0J200000D01*
G01*
X-12875000Y-2525000D01*
G75*
G02*
X-12675000Y-2325000I200000J0D01*
G01*
G37*
G36*
G01*
X-12675000Y-675000D02*
X-12125000Y-675000D01*
G75*
G02*
X-11925000Y-875000I0J-200000D01*
G01*
X-11925000Y-1275000D01*
G75*
G02*
X-12125000Y-1475000I-200000J0D01*
G01*
X-12675000Y-1475000D01*
G75*
G02*
X-12875000Y-1275000I0J200000D01*
G01*
X-12875000Y-875000D01*
G75*
G02*
X-12675000Y-675000I200000J0D01*
G01*
G37*
%TD*%
D10*
%TO.C,Q2*%
X-16800000Y-18400000D03*
X-14800000Y-19350000D03*
X-14800000Y-17450000D03*
%TD*%
%TO.C,Q1*%
X-16800000Y-1900000D03*
X-14800000Y-2850000D03*
X-14800000Y-950000D03*
%TD*%
D11*
%TO.C,D2*%
X-15975000Y-14500000D03*
X-13025000Y-14500000D03*
%TD*%
%TO.C,D1*%
X-15975000Y2000000D03*
X-13025000Y2000000D03*
%TD*%
D12*
%TO.C,J4*%
X-14520000Y-6905000D03*
X-14520000Y-10715000D03*
%TD*%
%TO.C,J3*%
X-14520000Y9605000D03*
X-14520000Y5795000D03*
%TD*%
%TO.C,J2*%
X-14520000Y24845000D03*
X-14520000Y21035000D03*
%TD*%
%TO.C,J1*%
X-14520000Y17225000D03*
X-14520000Y13415000D03*
%TD*%
D13*
%TO.C,BZ1*%
X9000000Y23000000D03*
X14000000Y23000000D03*
%TD*%
%TO.C,DS1*%
X8890000Y30000000D03*
X6350000Y30000000D03*
X3810000Y30000000D03*
X1270000Y30000000D03*
X-1270000Y30000000D03*
X-3810000Y30000000D03*
X-6350000Y30000000D03*
X-8890000Y30000000D03*
D14*
X15000000Y-23000000D03*
X-15000000Y-23000000D03*
X15000000Y30000000D03*
X-15000000Y30000000D03*
%TD*%
%TO.C,FB2*%
G36*
G01*
X-8150000Y20743750D02*
X-8150000Y21256250D01*
G75*
G02*
X-7931250Y21475000I218750J0D01*
G01*
X-7493750Y21475000D01*
G75*
G02*
X-7275000Y21256250I0J-218750D01*
G01*
X-7275000Y20743750D01*
G75*
G02*
X-7493750Y20525000I-218750J0D01*
G01*
X-7931250Y20525000D01*
G75*
G02*
X-8150000Y20743750I0J218750D01*
G01*
G37*
G36*
G01*
X-9725000Y20743750D02*
X-9725000Y21256250D01*
G75*
G02*
X-9506250Y21475000I218750J0D01*
G01*
X-9068750Y21475000D01*
G75*
G02*
X-8850000Y21256250I0J-218750D01*
G01*
X-8850000Y20743750D01*
G75*
G02*
X-9068750Y20525000I-218750J0D01*
G01*
X-9506250Y20525000D01*
G75*
G02*
X-9725000Y20743750I0J218750D01*
G01*
G37*
%TD*%
%TO.C,FB1*%
G36*
G01*
X-8150000Y24743750D02*
X-8150000Y25256250D01*
G75*
G02*
X-7931250Y25475000I218750J0D01*
G01*
X-7493750Y25475000D01*
G75*
G02*
X-7275000Y25256250I0J-218750D01*
G01*
X-7275000Y24743750D01*
G75*
G02*
X-7493750Y24525000I-218750J0D01*
G01*
X-7931250Y24525000D01*
G75*
G02*
X-8150000Y24743750I0J218750D01*
G01*
G37*
G36*
G01*
X-9725000Y24743750D02*
X-9725000Y25256250D01*
G75*
G02*
X-9506250Y25475000I218750J0D01*
G01*
X-9068750Y25475000D01*
G75*
G02*
X-8850000Y25256250I0J-218750D01*
G01*
X-8850000Y24743750D01*
G75*
G02*
X-9068750Y24525000I-218750J0D01*
G01*
X-9506250Y24525000D01*
G75*
G02*
X-9725000Y24743750I0J218750D01*
G01*
G37*
%TD*%
%TO.C,C2*%
G36*
G01*
X-5721000Y22675000D02*
X-5221000Y22675000D01*
G75*
G02*
X-4996000Y22450000I0J-225000D01*
G01*
X-4996000Y22000000D01*
G75*
G02*
X-5221000Y21775000I-225000J0D01*
G01*
X-5721000Y21775000D01*
G75*
G02*
X-5946000Y22000000I0J225000D01*
G01*
X-5946000Y22450000D01*
G75*
G02*
X-5721000Y22675000I225000J0D01*
G01*
G37*
G36*
G01*
X-5721000Y24225000D02*
X-5221000Y24225000D01*
G75*
G02*
X-4996000Y24000000I0J-225000D01*
G01*
X-4996000Y23550000D01*
G75*
G02*
X-5221000Y23325000I-225000J0D01*
G01*
X-5721000Y23325000D01*
G75*
G02*
X-5946000Y23550000I0J225000D01*
G01*
X-5946000Y24000000D01*
G75*
G02*
X-5721000Y24225000I225000J0D01*
G01*
G37*
%TD*%
%TO.C,C1*%
G36*
G01*
X-3175000Y26750000D02*
X-3175000Y27250000D01*
G75*
G02*
X-2950000Y27475000I225000J0D01*
G01*
X-2500000Y27475000D01*
G75*
G02*
X-2275000Y27250000I0J-225000D01*
G01*
X-2275000Y26750000D01*
G75*
G02*
X-2500000Y26525000I-225000J0D01*
G01*
X-2950000Y26525000D01*
G75*
G02*
X-3175000Y26750000I0J225000D01*
G01*
G37*
G36*
G01*
X-4725000Y26750000D02*
X-4725000Y27250000D01*
G75*
G02*
X-4500000Y27475000I225000J0D01*
G01*
X-4050000Y27475000D01*
G75*
G02*
X-3825000Y27250000I0J-225000D01*
G01*
X-3825000Y26750000D01*
G75*
G02*
X-4050000Y26525000I-225000J0D01*
G01*
X-4500000Y26525000D01*
G75*
G02*
X-4725000Y26750000I0J225000D01*
G01*
G37*
%TD*%
%TO.C,U2*%
G36*
G01*
X1000000Y20945000D02*
X1000000Y21245000D01*
G75*
G02*
X1150000Y21395000I150000J0D01*
G01*
X2800000Y21395000D01*
G75*
G02*
X2950000Y21245000I0J-150000D01*
G01*
X2950000Y20945000D01*
G75*
G02*
X2800000Y20795000I-150000J0D01*
G01*
X1150000Y20795000D01*
G75*
G02*
X1000000Y20945000I0J150000D01*
G01*
G37*
G36*
G01*
X1000000Y22215000D02*
X1000000Y22515000D01*
G75*
G02*
X1150000Y22665000I150000J0D01*
G01*
X2800000Y22665000D01*
G75*
G02*
X2950000Y22515000I0J-150000D01*
G01*
X2950000Y22215000D01*
G75*
G02*
X2800000Y22065000I-150000J0D01*
G01*
X1150000Y22065000D01*
G75*
G02*
X1000000Y22215000I0J150000D01*
G01*
G37*
G36*
G01*
X1000000Y23485000D02*
X1000000Y23785000D01*
G75*
G02*
X1150000Y23935000I150000J0D01*
G01*
X2800000Y23935000D01*
G75*
G02*
X2950000Y23785000I0J-150000D01*
G01*
X2950000Y23485000D01*
G75*
G02*
X2800000Y23335000I-150000J0D01*
G01*
X1150000Y23335000D01*
G75*
G02*
X1000000Y23485000I0J150000D01*
G01*
G37*
G36*
G01*
X1000000Y24755000D02*
X1000000Y25055000D01*
G75*
G02*
X1150000Y25205000I150000J0D01*
G01*
X2800000Y25205000D01*
G75*
G02*
X2950000Y25055000I0J-150000D01*
G01*
X2950000Y24755000D01*
G75*
G02*
X2800000Y24605000I-150000J0D01*
G01*
X1150000Y24605000D01*
G75*
G02*
X1000000Y24755000I0J150000D01*
G01*
G37*
G36*
G01*
X-3950000Y24755000D02*
X-3950000Y25055000D01*
G75*
G02*
X-3800000Y25205000I150000J0D01*
G01*
X-2150000Y25205000D01*
G75*
G02*
X-2000000Y25055000I0J-150000D01*
G01*
X-2000000Y24755000D01*
G75*
G02*
X-2150000Y24605000I-150000J0D01*
G01*
X-3800000Y24605000D01*
G75*
G02*
X-3950000Y24755000I0J150000D01*
G01*
G37*
G36*
G01*
X-3950000Y23485000D02*
X-3950000Y23785000D01*
G75*
G02*
X-3800000Y23935000I150000J0D01*
G01*
X-2150000Y23935000D01*
G75*
G02*
X-2000000Y23785000I0J-150000D01*
G01*
X-2000000Y23485000D01*
G75*
G02*
X-2150000Y23335000I-150000J0D01*
G01*
X-3800000Y23335000D01*
G75*
G02*
X-3950000Y23485000I0J150000D01*
G01*
G37*
G36*
G01*
X-3950000Y22215000D02*
X-3950000Y22515000D01*
G75*
G02*
X-3800000Y22665000I150000J0D01*
G01*
X-2150000Y22665000D01*
G75*
G02*
X-2000000Y22515000I0J-150000D01*
G01*
X-2000000Y22215000D01*
G75*
G02*
X-2150000Y22065000I-150000J0D01*
G01*
X-3800000Y22065000D01*
G75*
G02*
X-3950000Y22215000I0J150000D01*
G01*
G37*
G36*
G01*
X-3950000Y20945000D02*
X-3950000Y21245000D01*
G75*
G02*
X-3800000Y21395000I150000J0D01*
G01*
X-2150000Y21395000D01*
G75*
G02*
X-2000000Y21245000I0J-150000D01*
G01*
X-2000000Y20945000D01*
G75*
G02*
X-2150000Y20795000I-150000J0D01*
G01*
X-3800000Y20795000D01*
G75*
G02*
X-3950000Y20945000I0J150000D01*
G01*
G37*
%TD*%
D13*
%TO.C,U1*%
X-7620000Y-34392000D03*
X-7620000Y-31852000D03*
X-7620000Y-29312000D03*
X-7620000Y-26772000D03*
X-7620000Y-24232000D03*
X-7620000Y-21692000D03*
X-7620000Y-19152000D03*
X-7620000Y-16612000D03*
X-7620000Y-14072000D03*
X-7620000Y-11532000D03*
X-7620000Y-8992000D03*
X-7620000Y-6452000D03*
X-7620000Y-3912000D03*
X-7620000Y-1372000D03*
X-7620000Y1168000D03*
X-7620000Y3708000D03*
X-7620000Y6248000D03*
X-7620000Y8788000D03*
X-7620000Y11328000D03*
X-7620000Y13868000D03*
X7620000Y13868000D03*
X7620000Y11328000D03*
X7620000Y8788000D03*
X7620000Y6248000D03*
X7620000Y3708000D03*
X7620000Y1168000D03*
X7620000Y-1372000D03*
X7620000Y-3912000D03*
X7620000Y-6452000D03*
X7620000Y-8992000D03*
X7620000Y-11532000D03*
X7620000Y-14072000D03*
X7620000Y-16612000D03*
X7620000Y-19152000D03*
X7620000Y-21692000D03*
X7620000Y-24232000D03*
X7620000Y-26772000D03*
X7620000Y-29312000D03*
X7620000Y-31852000D03*
X7620000Y-34392000D03*
%TD*%
D15*
%TO.C,SW1*%
X-10500000Y-34000000D03*
X-15000000Y-34000000D03*
X-10500000Y-27500000D03*
X-15000000Y-27500000D03*
%TD*%
%TO.C,SW2*%
X-2250000Y-27500000D03*
X2250000Y-27500000D03*
X-2250000Y-34000000D03*
X2250000Y-34000000D03*
%TD*%
%TO.C,SW3*%
X15000000Y-34000000D03*
X10500000Y-34000000D03*
X15000000Y-27500000D03*
X10500000Y-27500000D03*
%TD*%
M02*
