%TF.GenerationSoftware,KiCad,Pcbnew,5.1.10*%
%TF.CreationDate,2021-05-04T12:35:39+02:00*%
%TF.ProjectId,Generic_Oven,47656e65-7269-4635-9f4f-76656e2e6b69,rev?*%
%TF.SameCoordinates,Original*%
%TF.FileFunction,Copper,L2,Bot*%
%TF.FilePolarity,Positive*%
%FSLAX46Y46*%
G04 Gerber Fmt 4.6, Leading zero omitted, Abs format (unit mm)*
G04 Created by KiCad (PCBNEW 5.1.10) date 2021-05-04 12:35:39*
%MOMM*%
%LPD*%
G01*
G04 APERTURE LIST*
%TA.AperFunction,NonConductor*%
%ADD10C,0.200000*%
%TD*%
%TA.AperFunction,NonConductor*%
%ADD11C,0.100000*%
%TD*%
G04 APERTURE END LIST*
D10*
X19327641Y34599844D02*
X20129125Y34380582D01*
X20879110Y34022858D01*
X21553896Y33537975D01*
X22132155Y32941259D01*
X22595602Y32251575D01*
X22929593Y31490724D01*
X23124171Y30680249D01*
X23175001Y29988072D01*
X23175000Y-29985531D01*
X23099843Y-30827643D01*
X22880582Y-31629125D01*
X22522858Y-32379110D01*
X22037975Y-33053896D01*
X21441259Y-33632155D01*
X20751576Y-34095601D01*
X19990723Y-34429593D01*
X19180249Y-34624171D01*
X18488086Y-34675000D01*
X-18485531Y-34675000D01*
X-19327643Y-34599843D01*
X-20129125Y-34380582D01*
X-20879110Y-34022858D01*
X-21553896Y-33537975D01*
X-22132155Y-32941259D01*
X-22595601Y-32251576D01*
X-22929593Y-31490723D01*
X-23124171Y-30680249D01*
X-23175000Y-29988086D01*
X-23175000Y-29809357D01*
X-20185634Y-29809357D01*
X-20185634Y-30190643D01*
X-20111249Y-30564604D01*
X-19965337Y-30916867D01*
X-19753505Y-31233895D01*
X-19483895Y-31503505D01*
X-19166867Y-31715337D01*
X-18814604Y-31861249D01*
X-18440643Y-31935634D01*
X-18059357Y-31935634D01*
X-17685396Y-31861249D01*
X-17333133Y-31715337D01*
X-17016105Y-31503505D01*
X-16746495Y-31233895D01*
X-16534663Y-30916867D01*
X-16388751Y-30564604D01*
X-16314366Y-30190643D01*
X-16314366Y-29809357D01*
X16314366Y-29809357D01*
X16314366Y-30190643D01*
X16388751Y-30564604D01*
X16534663Y-30916867D01*
X16746495Y-31233895D01*
X17016105Y-31503505D01*
X17333133Y-31715337D01*
X17685396Y-31861249D01*
X18059357Y-31935634D01*
X18440643Y-31935634D01*
X18814604Y-31861249D01*
X19166867Y-31715337D01*
X19483895Y-31503505D01*
X19753505Y-31233895D01*
X19965337Y-30916867D01*
X20111249Y-30564604D01*
X20185634Y-30190643D01*
X20185634Y-29809357D01*
X20111249Y-29435396D01*
X19965337Y-29083133D01*
X19753505Y-28766105D01*
X19483895Y-28496495D01*
X19166867Y-28284663D01*
X18814604Y-28138751D01*
X18440643Y-28064366D01*
X18059357Y-28064366D01*
X17685396Y-28138751D01*
X17333133Y-28284663D01*
X17016105Y-28496495D01*
X16746495Y-28766105D01*
X16534663Y-29083133D01*
X16388751Y-29435396D01*
X16314366Y-29809357D01*
X-16314366Y-29809357D01*
X-16388751Y-29435396D01*
X-16534663Y-29083133D01*
X-16746495Y-28766105D01*
X-17016105Y-28496495D01*
X-17333133Y-28284663D01*
X-17685396Y-28138751D01*
X-18059357Y-28064366D01*
X-18440643Y-28064366D01*
X-18814604Y-28138751D01*
X-19166867Y-28284663D01*
X-19483895Y-28496495D01*
X-19753505Y-28766105D01*
X-19965337Y-29083133D01*
X-20111249Y-29435396D01*
X-20185634Y-29809357D01*
X-23175000Y-29809357D01*
X-23175000Y-9133861D01*
X-19936838Y-9133861D01*
X-19936838Y-9466139D01*
X-19872014Y-9792033D01*
X-19744857Y-10099017D01*
X-19560253Y-10375297D01*
X-19325297Y-10610253D01*
X-19049017Y-10794857D01*
X-18742033Y-10922014D01*
X-18416139Y-10986838D01*
X-18083861Y-10986838D01*
X-17757967Y-10922014D01*
X-17450983Y-10794857D01*
X-17174703Y-10610253D01*
X-16939747Y-10375297D01*
X-16755143Y-10099017D01*
X-16627986Y-9792033D01*
X-16563162Y-9466139D01*
X-16563162Y-9133861D01*
X16563162Y-9133861D01*
X16563162Y-9466139D01*
X16627986Y-9792033D01*
X16755143Y-10099017D01*
X16939747Y-10375297D01*
X17174703Y-10610253D01*
X17450983Y-10794857D01*
X17757967Y-10922014D01*
X18083861Y-10986838D01*
X18416139Y-10986838D01*
X18742033Y-10922014D01*
X19049017Y-10794857D01*
X19325297Y-10610253D01*
X19560253Y-10375297D01*
X19744857Y-10099017D01*
X19872014Y-9792033D01*
X19936838Y-9466139D01*
X19936838Y-9133861D01*
X19872014Y-8807967D01*
X19744857Y-8500983D01*
X19560253Y-8224703D01*
X19325297Y-7989747D01*
X19049017Y-7805143D01*
X18742033Y-7677986D01*
X18416139Y-7613162D01*
X18083861Y-7613162D01*
X17757967Y-7677986D01*
X17450983Y-7805143D01*
X17174703Y-7989747D01*
X16939747Y-8224703D01*
X16755143Y-8500983D01*
X16627986Y-8807967D01*
X16563162Y-9133861D01*
X-16563162Y-9133861D01*
X-16627986Y-8807967D01*
X-16755143Y-8500983D01*
X-16939747Y-8224703D01*
X-17174703Y-7989747D01*
X-17450983Y-7805143D01*
X-17757967Y-7677986D01*
X-18083861Y-7613162D01*
X-18416139Y-7613162D01*
X-18742033Y-7677986D01*
X-19049017Y-7805143D01*
X-19325297Y-7989747D01*
X-19560253Y-8224703D01*
X-19744857Y-8500983D01*
X-19872014Y-8807967D01*
X-19936838Y-9133861D01*
X-23175000Y-9133861D01*
X-23175000Y-75051D01*
X-20533949Y-75051D01*
X-20533949Y-524949D01*
X-20446178Y-966203D01*
X-20274009Y-1381856D01*
X-20024059Y-1755933D01*
X-19705933Y-2074059D01*
X-19331856Y-2324009D01*
X-18916203Y-2496178D01*
X-18474949Y-2583949D01*
X-18025051Y-2583949D01*
X-17583797Y-2496178D01*
X-17168144Y-2324009D01*
X-16794067Y-2074059D01*
X-16475941Y-1755933D01*
X-16225991Y-1381856D01*
X-16148991Y-1195960D01*
X-12195000Y-1195960D01*
X-12193595Y-1210228D01*
X-12193638Y-1216437D01*
X-12193196Y-1220954D01*
X-12172795Y-1415051D01*
X-12166865Y-1443938D01*
X-12161352Y-1472838D01*
X-12160041Y-1477183D01*
X-12102329Y-1663621D01*
X-12090900Y-1690810D01*
X-12079879Y-1718086D01*
X-12077749Y-1722093D01*
X-11984924Y-1893770D01*
X-11968451Y-1918192D01*
X-11952322Y-1942839D01*
X-11949454Y-1946356D01*
X-11825051Y-2096734D01*
X-11804141Y-2117498D01*
X-11783540Y-2138535D01*
X-11780044Y-2141428D01*
X-11628802Y-2264778D01*
X-11604241Y-2281096D01*
X-11579962Y-2297720D01*
X-11575970Y-2299879D01*
X-11403648Y-2391504D01*
X-11376424Y-2402725D01*
X-11349340Y-2414333D01*
X-11345005Y-2415675D01*
X-11158169Y-2472084D01*
X-11129253Y-2477809D01*
X-11100462Y-2483929D01*
X-11095949Y-2484404D01*
X-10901715Y-2503449D01*
X-10901708Y-2503449D01*
X-10885961Y-2505000D01*
X10885961Y-2505000D01*
X10900229Y-2503595D01*
X10906437Y-2503638D01*
X10910954Y-2503196D01*
X11105051Y-2482795D01*
X11133938Y-2476865D01*
X11162838Y-2471352D01*
X11167183Y-2470041D01*
X11353621Y-2412329D01*
X11380810Y-2400900D01*
X11408086Y-2389879D01*
X11412093Y-2387749D01*
X11583770Y-2294924D01*
X11608192Y-2278451D01*
X11632839Y-2262322D01*
X11636356Y-2259454D01*
X11786734Y-2135051D01*
X11807498Y-2114141D01*
X11828535Y-2093540D01*
X11831428Y-2090044D01*
X11954778Y-1938802D01*
X11971096Y-1914241D01*
X11987720Y-1889962D01*
X11989879Y-1885970D01*
X12081504Y-1713648D01*
X12092725Y-1686424D01*
X12104333Y-1659340D01*
X12105675Y-1655005D01*
X12162084Y-1468169D01*
X12167809Y-1439253D01*
X12173929Y-1410462D01*
X12174404Y-1405949D01*
X12193449Y-1211715D01*
X12193449Y-1211708D01*
X12195000Y-1195961D01*
X12195000Y-75051D01*
X15966051Y-75051D01*
X15966051Y-524949D01*
X16053822Y-966203D01*
X16225991Y-1381856D01*
X16475941Y-1755933D01*
X16794067Y-2074059D01*
X17168144Y-2324009D01*
X17583797Y-2496178D01*
X18025051Y-2583949D01*
X18474949Y-2583949D01*
X18916203Y-2496178D01*
X19331856Y-2324009D01*
X19705933Y-2074059D01*
X20024059Y-1755933D01*
X20274009Y-1381856D01*
X20446178Y-966203D01*
X20533949Y-524949D01*
X20533949Y-75051D01*
X20446178Y366203D01*
X20274009Y781856D01*
X20024059Y1155933D01*
X19705933Y1474059D01*
X19331856Y1724009D01*
X18916203Y1896178D01*
X18474949Y1983949D01*
X18025051Y1983949D01*
X17583797Y1896178D01*
X17168144Y1724009D01*
X16794067Y1474059D01*
X16475941Y1155933D01*
X16225991Y781856D01*
X16053822Y366203D01*
X15966051Y-75051D01*
X12195000Y-75051D01*
X12195000Y9174949D01*
X15966051Y9174949D01*
X15966051Y8725051D01*
X16053822Y8283797D01*
X16225991Y7868144D01*
X16475941Y7494067D01*
X16794067Y7175941D01*
X17168144Y6925991D01*
X17583797Y6753822D01*
X18025051Y6666051D01*
X18474949Y6666051D01*
X18916203Y6753822D01*
X19331856Y6925991D01*
X19705933Y7175941D01*
X20024059Y7494067D01*
X20274009Y7868144D01*
X20446178Y8283797D01*
X20533949Y8725051D01*
X20533949Y9174949D01*
X20446178Y9616203D01*
X20274009Y10031856D01*
X20024059Y10405933D01*
X19705933Y10724059D01*
X19331856Y10974009D01*
X18916203Y11146178D01*
X18474949Y11233949D01*
X18025051Y11233949D01*
X17583797Y11146178D01*
X17168144Y10974009D01*
X16794067Y10724059D01*
X16475941Y10405933D01*
X16225991Y10031856D01*
X16053822Y9616203D01*
X15966051Y9174949D01*
X12195000Y9174949D01*
X12195000Y9835961D01*
X12193595Y9850229D01*
X12193638Y9856437D01*
X12193195Y9860954D01*
X12172795Y10055051D01*
X12166865Y10083938D01*
X12161352Y10112838D01*
X12160041Y10117183D01*
X12102329Y10303621D01*
X12090900Y10330810D01*
X12079879Y10358086D01*
X12077749Y10362094D01*
X11984924Y10533770D01*
X11968447Y10558197D01*
X11952322Y10582840D01*
X11949454Y10586357D01*
X11825050Y10736734D01*
X11804160Y10757479D01*
X11783540Y10778535D01*
X11780044Y10781428D01*
X11628802Y10904778D01*
X11604257Y10921085D01*
X11579962Y10937720D01*
X11575970Y10939879D01*
X11403648Y11031504D01*
X11376453Y11042713D01*
X11349340Y11054333D01*
X11345005Y11055675D01*
X11158169Y11112084D01*
X11129285Y11117803D01*
X11100462Y11123929D01*
X11095948Y11124404D01*
X10901715Y11143449D01*
X10901708Y11143449D01*
X10885961Y11145000D01*
X-10885961Y11145000D01*
X-10900229Y11143595D01*
X-10906437Y11143638D01*
X-10910954Y11143195D01*
X-11105051Y11122795D01*
X-11133938Y11116865D01*
X-11162838Y11111352D01*
X-11167183Y11110041D01*
X-11353621Y11052329D01*
X-11380810Y11040900D01*
X-11408086Y11029879D01*
X-11412094Y11027749D01*
X-11583770Y10934924D01*
X-11608197Y10918447D01*
X-11632840Y10902322D01*
X-11636357Y10899454D01*
X-11786734Y10775050D01*
X-11807479Y10754160D01*
X-11828535Y10733540D01*
X-11831428Y10730044D01*
X-11954778Y10578802D01*
X-11971085Y10554257D01*
X-11987720Y10529962D01*
X-11989879Y10525970D01*
X-12081504Y10353648D01*
X-12092713Y10326453D01*
X-12104333Y10299340D01*
X-12105675Y10295005D01*
X-12162084Y10108169D01*
X-12167803Y10079285D01*
X-12173929Y10050462D01*
X-12174404Y10045948D01*
X-12193449Y9851715D01*
X-12193449Y9851698D01*
X-12194999Y9835961D01*
X-12195000Y-1195960D01*
X-16148991Y-1195960D01*
X-16053822Y-966203D01*
X-15966051Y-524949D01*
X-15966051Y-75051D01*
X-16053822Y366203D01*
X-16225991Y781856D01*
X-16475941Y1155933D01*
X-16794067Y1474059D01*
X-17168144Y1724009D01*
X-17583797Y1896178D01*
X-18025051Y1983949D01*
X-18474949Y1983949D01*
X-18916203Y1896178D01*
X-19331856Y1724009D01*
X-19705933Y1474059D01*
X-20024059Y1155933D01*
X-20274009Y781856D01*
X-20446178Y366203D01*
X-20533949Y-75051D01*
X-23175000Y-75051D01*
X-23175000Y9174949D01*
X-20533949Y9174949D01*
X-20533949Y8725051D01*
X-20446178Y8283797D01*
X-20274009Y7868144D01*
X-20024059Y7494067D01*
X-19705933Y7175941D01*
X-19331856Y6925991D01*
X-18916203Y6753822D01*
X-18474949Y6666051D01*
X-18025051Y6666051D01*
X-17583797Y6753822D01*
X-17168144Y6925991D01*
X-16794067Y7175941D01*
X-16475941Y7494067D01*
X-16225991Y7868144D01*
X-16053822Y8283797D01*
X-15966051Y8725051D01*
X-15966051Y9174949D01*
X-16053822Y9616203D01*
X-16225991Y10031856D01*
X-16475941Y10405933D01*
X-16794067Y10724059D01*
X-17168144Y10974009D01*
X-17583797Y11146178D01*
X-18025051Y11233949D01*
X-18474949Y11233949D01*
X-18916203Y11146178D01*
X-19331856Y10974009D01*
X-19705933Y10724059D01*
X-20024059Y10405933D01*
X-20274009Y10031856D01*
X-20446178Y9616203D01*
X-20533949Y9174949D01*
X-23175000Y9174949D01*
X-23175000Y18116139D01*
X-19936838Y18116139D01*
X-19936838Y17783861D01*
X-19872014Y17457967D01*
X-19744857Y17150983D01*
X-19560253Y16874703D01*
X-19325297Y16639747D01*
X-19049017Y16455143D01*
X-18742033Y16327986D01*
X-18416139Y16263162D01*
X-18083861Y16263162D01*
X-17757967Y16327986D01*
X-17450983Y16455143D01*
X-17174703Y16639747D01*
X-16939747Y16874703D01*
X-16755143Y17150983D01*
X-16627986Y17457967D01*
X-16563162Y17783861D01*
X-16563162Y18116139D01*
X16563162Y18116139D01*
X16563162Y17783861D01*
X16627986Y17457967D01*
X16755143Y17150983D01*
X16939747Y16874703D01*
X17174703Y16639747D01*
X17450983Y16455143D01*
X17757967Y16327986D01*
X18083861Y16263162D01*
X18416139Y16263162D01*
X18742033Y16327986D01*
X19049017Y16455143D01*
X19325297Y16639747D01*
X19560253Y16874703D01*
X19744857Y17150983D01*
X19872014Y17457967D01*
X19936838Y17783861D01*
X19936838Y18116139D01*
X19872014Y18442033D01*
X19744857Y18749017D01*
X19560253Y19025297D01*
X19325297Y19260253D01*
X19049017Y19444857D01*
X18742033Y19572014D01*
X18416139Y19636838D01*
X18083861Y19636838D01*
X17757967Y19572014D01*
X17450983Y19444857D01*
X17174703Y19260253D01*
X16939747Y19025297D01*
X16755143Y18749017D01*
X16627986Y18442033D01*
X16563162Y18116139D01*
X-16563162Y18116139D01*
X-16627986Y18442033D01*
X-16755143Y18749017D01*
X-16939747Y19025297D01*
X-17174703Y19260253D01*
X-17450983Y19444857D01*
X-17757967Y19572014D01*
X-18083861Y19636838D01*
X-18416139Y19636838D01*
X-18742033Y19572014D01*
X-19049017Y19444857D01*
X-19325297Y19260253D01*
X-19560253Y19025297D01*
X-19744857Y18749017D01*
X-19872014Y18442033D01*
X-19936838Y18116139D01*
X-23175000Y18116139D01*
X-23175000Y29985530D01*
X-23156695Y30190643D01*
X-20185634Y30190643D01*
X-20185634Y29809357D01*
X-20111249Y29435396D01*
X-19965337Y29083133D01*
X-19753505Y28766105D01*
X-19483895Y28496495D01*
X-19166867Y28284663D01*
X-18814604Y28138751D01*
X-18440643Y28064366D01*
X-18059357Y28064366D01*
X-17685396Y28138751D01*
X-17333133Y28284663D01*
X-17016105Y28496495D01*
X-16746495Y28766105D01*
X-16534663Y29083133D01*
X-16388751Y29435396D01*
X-16314366Y29809357D01*
X-16314366Y30190643D01*
X16314366Y30190643D01*
X16314366Y29809357D01*
X16388751Y29435396D01*
X16534663Y29083133D01*
X16746495Y28766105D01*
X17016105Y28496495D01*
X17333133Y28284663D01*
X17685396Y28138751D01*
X18059357Y28064366D01*
X18440643Y28064366D01*
X18814604Y28138751D01*
X19166867Y28284663D01*
X19483895Y28496495D01*
X19753505Y28766105D01*
X19965337Y29083133D01*
X20111249Y29435396D01*
X20185634Y29809357D01*
X20185634Y30190643D01*
X20111249Y30564604D01*
X19965337Y30916867D01*
X19753505Y31233895D01*
X19483895Y31503505D01*
X19166867Y31715337D01*
X18814604Y31861249D01*
X18440643Y31935634D01*
X18059357Y31935634D01*
X17685396Y31861249D01*
X17333133Y31715337D01*
X17016105Y31503505D01*
X16746495Y31233895D01*
X16534663Y30916867D01*
X16388751Y30564604D01*
X16314366Y30190643D01*
X-16314366Y30190643D01*
X-16388751Y30564604D01*
X-16534663Y30916867D01*
X-16746495Y31233895D01*
X-17016105Y31503505D01*
X-17333133Y31715337D01*
X-17685396Y31861249D01*
X-18059357Y31935634D01*
X-18440643Y31935634D01*
X-18814604Y31861249D01*
X-19166867Y31715337D01*
X-19483895Y31503505D01*
X-19753505Y31233895D01*
X-19965337Y30916867D01*
X-20111249Y30564604D01*
X-20185634Y30190643D01*
X-23156695Y30190643D01*
X-23099844Y30827641D01*
X-22880582Y31629125D01*
X-22522858Y32379110D01*
X-22037975Y33053896D01*
X-21441259Y33632155D01*
X-20751575Y34095602D01*
X-19990724Y34429593D01*
X-19180249Y34624171D01*
X-18488086Y34675000D01*
X18485530Y34675000D01*
X19327641Y34599844D01*
%TA.AperFunction,NonConductor*%
D11*
G36*
X19327641Y34599844D02*
G01*
X20129125Y34380582D01*
X20879110Y34022858D01*
X21553896Y33537975D01*
X22132155Y32941259D01*
X22595602Y32251575D01*
X22929593Y31490724D01*
X23124171Y30680249D01*
X23175001Y29988072D01*
X23175000Y-29985531D01*
X23099843Y-30827643D01*
X22880582Y-31629125D01*
X22522858Y-32379110D01*
X22037975Y-33053896D01*
X21441259Y-33632155D01*
X20751576Y-34095601D01*
X19990723Y-34429593D01*
X19180249Y-34624171D01*
X18488086Y-34675000D01*
X-18485531Y-34675000D01*
X-19327643Y-34599843D01*
X-20129125Y-34380582D01*
X-20879110Y-34022858D01*
X-21553896Y-33537975D01*
X-22132155Y-32941259D01*
X-22595601Y-32251576D01*
X-22929593Y-31490723D01*
X-23124171Y-30680249D01*
X-23175000Y-29988086D01*
X-23175000Y-29809357D01*
X-20185634Y-29809357D01*
X-20185634Y-30190643D01*
X-20111249Y-30564604D01*
X-19965337Y-30916867D01*
X-19753505Y-31233895D01*
X-19483895Y-31503505D01*
X-19166867Y-31715337D01*
X-18814604Y-31861249D01*
X-18440643Y-31935634D01*
X-18059357Y-31935634D01*
X-17685396Y-31861249D01*
X-17333133Y-31715337D01*
X-17016105Y-31503505D01*
X-16746495Y-31233895D01*
X-16534663Y-30916867D01*
X-16388751Y-30564604D01*
X-16314366Y-30190643D01*
X-16314366Y-29809357D01*
X16314366Y-29809357D01*
X16314366Y-30190643D01*
X16388751Y-30564604D01*
X16534663Y-30916867D01*
X16746495Y-31233895D01*
X17016105Y-31503505D01*
X17333133Y-31715337D01*
X17685396Y-31861249D01*
X18059357Y-31935634D01*
X18440643Y-31935634D01*
X18814604Y-31861249D01*
X19166867Y-31715337D01*
X19483895Y-31503505D01*
X19753505Y-31233895D01*
X19965337Y-30916867D01*
X20111249Y-30564604D01*
X20185634Y-30190643D01*
X20185634Y-29809357D01*
X20111249Y-29435396D01*
X19965337Y-29083133D01*
X19753505Y-28766105D01*
X19483895Y-28496495D01*
X19166867Y-28284663D01*
X18814604Y-28138751D01*
X18440643Y-28064366D01*
X18059357Y-28064366D01*
X17685396Y-28138751D01*
X17333133Y-28284663D01*
X17016105Y-28496495D01*
X16746495Y-28766105D01*
X16534663Y-29083133D01*
X16388751Y-29435396D01*
X16314366Y-29809357D01*
X-16314366Y-29809357D01*
X-16388751Y-29435396D01*
X-16534663Y-29083133D01*
X-16746495Y-28766105D01*
X-17016105Y-28496495D01*
X-17333133Y-28284663D01*
X-17685396Y-28138751D01*
X-18059357Y-28064366D01*
X-18440643Y-28064366D01*
X-18814604Y-28138751D01*
X-19166867Y-28284663D01*
X-19483895Y-28496495D01*
X-19753505Y-28766105D01*
X-19965337Y-29083133D01*
X-20111249Y-29435396D01*
X-20185634Y-29809357D01*
X-23175000Y-29809357D01*
X-23175000Y-9133861D01*
X-19936838Y-9133861D01*
X-19936838Y-9466139D01*
X-19872014Y-9792033D01*
X-19744857Y-10099017D01*
X-19560253Y-10375297D01*
X-19325297Y-10610253D01*
X-19049017Y-10794857D01*
X-18742033Y-10922014D01*
X-18416139Y-10986838D01*
X-18083861Y-10986838D01*
X-17757967Y-10922014D01*
X-17450983Y-10794857D01*
X-17174703Y-10610253D01*
X-16939747Y-10375297D01*
X-16755143Y-10099017D01*
X-16627986Y-9792033D01*
X-16563162Y-9466139D01*
X-16563162Y-9133861D01*
X16563162Y-9133861D01*
X16563162Y-9466139D01*
X16627986Y-9792033D01*
X16755143Y-10099017D01*
X16939747Y-10375297D01*
X17174703Y-10610253D01*
X17450983Y-10794857D01*
X17757967Y-10922014D01*
X18083861Y-10986838D01*
X18416139Y-10986838D01*
X18742033Y-10922014D01*
X19049017Y-10794857D01*
X19325297Y-10610253D01*
X19560253Y-10375297D01*
X19744857Y-10099017D01*
X19872014Y-9792033D01*
X19936838Y-9466139D01*
X19936838Y-9133861D01*
X19872014Y-8807967D01*
X19744857Y-8500983D01*
X19560253Y-8224703D01*
X19325297Y-7989747D01*
X19049017Y-7805143D01*
X18742033Y-7677986D01*
X18416139Y-7613162D01*
X18083861Y-7613162D01*
X17757967Y-7677986D01*
X17450983Y-7805143D01*
X17174703Y-7989747D01*
X16939747Y-8224703D01*
X16755143Y-8500983D01*
X16627986Y-8807967D01*
X16563162Y-9133861D01*
X-16563162Y-9133861D01*
X-16627986Y-8807967D01*
X-16755143Y-8500983D01*
X-16939747Y-8224703D01*
X-17174703Y-7989747D01*
X-17450983Y-7805143D01*
X-17757967Y-7677986D01*
X-18083861Y-7613162D01*
X-18416139Y-7613162D01*
X-18742033Y-7677986D01*
X-19049017Y-7805143D01*
X-19325297Y-7989747D01*
X-19560253Y-8224703D01*
X-19744857Y-8500983D01*
X-19872014Y-8807967D01*
X-19936838Y-9133861D01*
X-23175000Y-9133861D01*
X-23175000Y-75051D01*
X-20533949Y-75051D01*
X-20533949Y-524949D01*
X-20446178Y-966203D01*
X-20274009Y-1381856D01*
X-20024059Y-1755933D01*
X-19705933Y-2074059D01*
X-19331856Y-2324009D01*
X-18916203Y-2496178D01*
X-18474949Y-2583949D01*
X-18025051Y-2583949D01*
X-17583797Y-2496178D01*
X-17168144Y-2324009D01*
X-16794067Y-2074059D01*
X-16475941Y-1755933D01*
X-16225991Y-1381856D01*
X-16148991Y-1195960D01*
X-12195000Y-1195960D01*
X-12193595Y-1210228D01*
X-12193638Y-1216437D01*
X-12193196Y-1220954D01*
X-12172795Y-1415051D01*
X-12166865Y-1443938D01*
X-12161352Y-1472838D01*
X-12160041Y-1477183D01*
X-12102329Y-1663621D01*
X-12090900Y-1690810D01*
X-12079879Y-1718086D01*
X-12077749Y-1722093D01*
X-11984924Y-1893770D01*
X-11968451Y-1918192D01*
X-11952322Y-1942839D01*
X-11949454Y-1946356D01*
X-11825051Y-2096734D01*
X-11804141Y-2117498D01*
X-11783540Y-2138535D01*
X-11780044Y-2141428D01*
X-11628802Y-2264778D01*
X-11604241Y-2281096D01*
X-11579962Y-2297720D01*
X-11575970Y-2299879D01*
X-11403648Y-2391504D01*
X-11376424Y-2402725D01*
X-11349340Y-2414333D01*
X-11345005Y-2415675D01*
X-11158169Y-2472084D01*
X-11129253Y-2477809D01*
X-11100462Y-2483929D01*
X-11095949Y-2484404D01*
X-10901715Y-2503449D01*
X-10901708Y-2503449D01*
X-10885961Y-2505000D01*
X10885961Y-2505000D01*
X10900229Y-2503595D01*
X10906437Y-2503638D01*
X10910954Y-2503196D01*
X11105051Y-2482795D01*
X11133938Y-2476865D01*
X11162838Y-2471352D01*
X11167183Y-2470041D01*
X11353621Y-2412329D01*
X11380810Y-2400900D01*
X11408086Y-2389879D01*
X11412093Y-2387749D01*
X11583770Y-2294924D01*
X11608192Y-2278451D01*
X11632839Y-2262322D01*
X11636356Y-2259454D01*
X11786734Y-2135051D01*
X11807498Y-2114141D01*
X11828535Y-2093540D01*
X11831428Y-2090044D01*
X11954778Y-1938802D01*
X11971096Y-1914241D01*
X11987720Y-1889962D01*
X11989879Y-1885970D01*
X12081504Y-1713648D01*
X12092725Y-1686424D01*
X12104333Y-1659340D01*
X12105675Y-1655005D01*
X12162084Y-1468169D01*
X12167809Y-1439253D01*
X12173929Y-1410462D01*
X12174404Y-1405949D01*
X12193449Y-1211715D01*
X12193449Y-1211708D01*
X12195000Y-1195961D01*
X12195000Y-75051D01*
X15966051Y-75051D01*
X15966051Y-524949D01*
X16053822Y-966203D01*
X16225991Y-1381856D01*
X16475941Y-1755933D01*
X16794067Y-2074059D01*
X17168144Y-2324009D01*
X17583797Y-2496178D01*
X18025051Y-2583949D01*
X18474949Y-2583949D01*
X18916203Y-2496178D01*
X19331856Y-2324009D01*
X19705933Y-2074059D01*
X20024059Y-1755933D01*
X20274009Y-1381856D01*
X20446178Y-966203D01*
X20533949Y-524949D01*
X20533949Y-75051D01*
X20446178Y366203D01*
X20274009Y781856D01*
X20024059Y1155933D01*
X19705933Y1474059D01*
X19331856Y1724009D01*
X18916203Y1896178D01*
X18474949Y1983949D01*
X18025051Y1983949D01*
X17583797Y1896178D01*
X17168144Y1724009D01*
X16794067Y1474059D01*
X16475941Y1155933D01*
X16225991Y781856D01*
X16053822Y366203D01*
X15966051Y-75051D01*
X12195000Y-75051D01*
X12195000Y9174949D01*
X15966051Y9174949D01*
X15966051Y8725051D01*
X16053822Y8283797D01*
X16225991Y7868144D01*
X16475941Y7494067D01*
X16794067Y7175941D01*
X17168144Y6925991D01*
X17583797Y6753822D01*
X18025051Y6666051D01*
X18474949Y6666051D01*
X18916203Y6753822D01*
X19331856Y6925991D01*
X19705933Y7175941D01*
X20024059Y7494067D01*
X20274009Y7868144D01*
X20446178Y8283797D01*
X20533949Y8725051D01*
X20533949Y9174949D01*
X20446178Y9616203D01*
X20274009Y10031856D01*
X20024059Y10405933D01*
X19705933Y10724059D01*
X19331856Y10974009D01*
X18916203Y11146178D01*
X18474949Y11233949D01*
X18025051Y11233949D01*
X17583797Y11146178D01*
X17168144Y10974009D01*
X16794067Y10724059D01*
X16475941Y10405933D01*
X16225991Y10031856D01*
X16053822Y9616203D01*
X15966051Y9174949D01*
X12195000Y9174949D01*
X12195000Y9835961D01*
X12193595Y9850229D01*
X12193638Y9856437D01*
X12193195Y9860954D01*
X12172795Y10055051D01*
X12166865Y10083938D01*
X12161352Y10112838D01*
X12160041Y10117183D01*
X12102329Y10303621D01*
X12090900Y10330810D01*
X12079879Y10358086D01*
X12077749Y10362094D01*
X11984924Y10533770D01*
X11968447Y10558197D01*
X11952322Y10582840D01*
X11949454Y10586357D01*
X11825050Y10736734D01*
X11804160Y10757479D01*
X11783540Y10778535D01*
X11780044Y10781428D01*
X11628802Y10904778D01*
X11604257Y10921085D01*
X11579962Y10937720D01*
X11575970Y10939879D01*
X11403648Y11031504D01*
X11376453Y11042713D01*
X11349340Y11054333D01*
X11345005Y11055675D01*
X11158169Y11112084D01*
X11129285Y11117803D01*
X11100462Y11123929D01*
X11095948Y11124404D01*
X10901715Y11143449D01*
X10901708Y11143449D01*
X10885961Y11145000D01*
X-10885961Y11145000D01*
X-10900229Y11143595D01*
X-10906437Y11143638D01*
X-10910954Y11143195D01*
X-11105051Y11122795D01*
X-11133938Y11116865D01*
X-11162838Y11111352D01*
X-11167183Y11110041D01*
X-11353621Y11052329D01*
X-11380810Y11040900D01*
X-11408086Y11029879D01*
X-11412094Y11027749D01*
X-11583770Y10934924D01*
X-11608197Y10918447D01*
X-11632840Y10902322D01*
X-11636357Y10899454D01*
X-11786734Y10775050D01*
X-11807479Y10754160D01*
X-11828535Y10733540D01*
X-11831428Y10730044D01*
X-11954778Y10578802D01*
X-11971085Y10554257D01*
X-11987720Y10529962D01*
X-11989879Y10525970D01*
X-12081504Y10353648D01*
X-12092713Y10326453D01*
X-12104333Y10299340D01*
X-12105675Y10295005D01*
X-12162084Y10108169D01*
X-12167803Y10079285D01*
X-12173929Y10050462D01*
X-12174404Y10045948D01*
X-12193449Y9851715D01*
X-12193449Y9851698D01*
X-12194999Y9835961D01*
X-12195000Y-1195960D01*
X-16148991Y-1195960D01*
X-16053822Y-966203D01*
X-15966051Y-524949D01*
X-15966051Y-75051D01*
X-16053822Y366203D01*
X-16225991Y781856D01*
X-16475941Y1155933D01*
X-16794067Y1474059D01*
X-17168144Y1724009D01*
X-17583797Y1896178D01*
X-18025051Y1983949D01*
X-18474949Y1983949D01*
X-18916203Y1896178D01*
X-19331856Y1724009D01*
X-19705933Y1474059D01*
X-20024059Y1155933D01*
X-20274009Y781856D01*
X-20446178Y366203D01*
X-20533949Y-75051D01*
X-23175000Y-75051D01*
X-23175000Y9174949D01*
X-20533949Y9174949D01*
X-20533949Y8725051D01*
X-20446178Y8283797D01*
X-20274009Y7868144D01*
X-20024059Y7494067D01*
X-19705933Y7175941D01*
X-19331856Y6925991D01*
X-18916203Y6753822D01*
X-18474949Y6666051D01*
X-18025051Y6666051D01*
X-17583797Y6753822D01*
X-17168144Y6925991D01*
X-16794067Y7175941D01*
X-16475941Y7494067D01*
X-16225991Y7868144D01*
X-16053822Y8283797D01*
X-15966051Y8725051D01*
X-15966051Y9174949D01*
X-16053822Y9616203D01*
X-16225991Y10031856D01*
X-16475941Y10405933D01*
X-16794067Y10724059D01*
X-17168144Y10974009D01*
X-17583797Y11146178D01*
X-18025051Y11233949D01*
X-18474949Y11233949D01*
X-18916203Y11146178D01*
X-19331856Y10974009D01*
X-19705933Y10724059D01*
X-20024059Y10405933D01*
X-20274009Y10031856D01*
X-20446178Y9616203D01*
X-20533949Y9174949D01*
X-23175000Y9174949D01*
X-23175000Y18116139D01*
X-19936838Y18116139D01*
X-19936838Y17783861D01*
X-19872014Y17457967D01*
X-19744857Y17150983D01*
X-19560253Y16874703D01*
X-19325297Y16639747D01*
X-19049017Y16455143D01*
X-18742033Y16327986D01*
X-18416139Y16263162D01*
X-18083861Y16263162D01*
X-17757967Y16327986D01*
X-17450983Y16455143D01*
X-17174703Y16639747D01*
X-16939747Y16874703D01*
X-16755143Y17150983D01*
X-16627986Y17457967D01*
X-16563162Y17783861D01*
X-16563162Y18116139D01*
X16563162Y18116139D01*
X16563162Y17783861D01*
X16627986Y17457967D01*
X16755143Y17150983D01*
X16939747Y16874703D01*
X17174703Y16639747D01*
X17450983Y16455143D01*
X17757967Y16327986D01*
X18083861Y16263162D01*
X18416139Y16263162D01*
X18742033Y16327986D01*
X19049017Y16455143D01*
X19325297Y16639747D01*
X19560253Y16874703D01*
X19744857Y17150983D01*
X19872014Y17457967D01*
X19936838Y17783861D01*
X19936838Y18116139D01*
X19872014Y18442033D01*
X19744857Y18749017D01*
X19560253Y19025297D01*
X19325297Y19260253D01*
X19049017Y19444857D01*
X18742033Y19572014D01*
X18416139Y19636838D01*
X18083861Y19636838D01*
X17757967Y19572014D01*
X17450983Y19444857D01*
X17174703Y19260253D01*
X16939747Y19025297D01*
X16755143Y18749017D01*
X16627986Y18442033D01*
X16563162Y18116139D01*
X-16563162Y18116139D01*
X-16627986Y18442033D01*
X-16755143Y18749017D01*
X-16939747Y19025297D01*
X-17174703Y19260253D01*
X-17450983Y19444857D01*
X-17757967Y19572014D01*
X-18083861Y19636838D01*
X-18416139Y19636838D01*
X-18742033Y19572014D01*
X-19049017Y19444857D01*
X-19325297Y19260253D01*
X-19560253Y19025297D01*
X-19744857Y18749017D01*
X-19872014Y18442033D01*
X-19936838Y18116139D01*
X-23175000Y18116139D01*
X-23175000Y29985530D01*
X-23156695Y30190643D01*
X-20185634Y30190643D01*
X-20185634Y29809357D01*
X-20111249Y29435396D01*
X-19965337Y29083133D01*
X-19753505Y28766105D01*
X-19483895Y28496495D01*
X-19166867Y28284663D01*
X-18814604Y28138751D01*
X-18440643Y28064366D01*
X-18059357Y28064366D01*
X-17685396Y28138751D01*
X-17333133Y28284663D01*
X-17016105Y28496495D01*
X-16746495Y28766105D01*
X-16534663Y29083133D01*
X-16388751Y29435396D01*
X-16314366Y29809357D01*
X-16314366Y30190643D01*
X16314366Y30190643D01*
X16314366Y29809357D01*
X16388751Y29435396D01*
X16534663Y29083133D01*
X16746495Y28766105D01*
X17016105Y28496495D01*
X17333133Y28284663D01*
X17685396Y28138751D01*
X18059357Y28064366D01*
X18440643Y28064366D01*
X18814604Y28138751D01*
X19166867Y28284663D01*
X19483895Y28496495D01*
X19753505Y28766105D01*
X19965337Y29083133D01*
X20111249Y29435396D01*
X20185634Y29809357D01*
X20185634Y30190643D01*
X20111249Y30564604D01*
X19965337Y30916867D01*
X19753505Y31233895D01*
X19483895Y31503505D01*
X19166867Y31715337D01*
X18814604Y31861249D01*
X18440643Y31935634D01*
X18059357Y31935634D01*
X17685396Y31861249D01*
X17333133Y31715337D01*
X17016105Y31503505D01*
X16746495Y31233895D01*
X16534663Y30916867D01*
X16388751Y30564604D01*
X16314366Y30190643D01*
X-16314366Y30190643D01*
X-16388751Y30564604D01*
X-16534663Y30916867D01*
X-16746495Y31233895D01*
X-17016105Y31503505D01*
X-17333133Y31715337D01*
X-17685396Y31861249D01*
X-18059357Y31935634D01*
X-18440643Y31935634D01*
X-18814604Y31861249D01*
X-19166867Y31715337D01*
X-19483895Y31503505D01*
X-19753505Y31233895D01*
X-19965337Y30916867D01*
X-20111249Y30564604D01*
X-20185634Y30190643D01*
X-23156695Y30190643D01*
X-23099844Y30827641D01*
X-22880582Y31629125D01*
X-22522858Y32379110D01*
X-22037975Y33053896D01*
X-21441259Y33632155D01*
X-20751575Y34095602D01*
X-19990724Y34429593D01*
X-19180249Y34624171D01*
X-18488086Y34675000D01*
X18485530Y34675000D01*
X19327641Y34599844D01*
G37*
%TD.AperFunction*%
M02*
