%TF.GenerationSoftware,KiCad,Pcbnew,5.1.9*%
%TF.CreationDate,2020-12-25T23:56:19+01:00*%
%TF.ProjectId,reflow-oven,7265666c-6f77-42d6-9f76-656e2e6b6963,rev?*%
%TF.SameCoordinates,Original*%
%TF.FileFunction,Paste,Top*%
%TF.FilePolarity,Positive*%
%FSLAX46Y46*%
G04 Gerber Fmt 4.6, Leading zero omitted, Abs format (unit mm)*
G04 Created by KiCad (PCBNEW 5.1.9) date 2020-12-25 23:56:19*
%MOMM*%
%LPD*%
G01*
G04 APERTURE LIST*
G04 APERTURE END LIST*
%TO.C,R3*%
G36*
G01*
X17725000Y-27925000D02*
X18275000Y-27925000D01*
G75*
G02*
X18475000Y-28125000I0J-200000D01*
G01*
X18475000Y-28525000D01*
G75*
G02*
X18275000Y-28725000I-200000J0D01*
G01*
X17725000Y-28725000D01*
G75*
G02*
X17525000Y-28525000I0J200000D01*
G01*
X17525000Y-28125000D01*
G75*
G02*
X17725000Y-27925000I200000J0D01*
G01*
G37*
G36*
G01*
X17725000Y-26275000D02*
X18275000Y-26275000D01*
G75*
G02*
X18475000Y-26475000I0J-200000D01*
G01*
X18475000Y-26875000D01*
G75*
G02*
X18275000Y-27075000I-200000J0D01*
G01*
X17725000Y-27075000D01*
G75*
G02*
X17525000Y-26875000I0J200000D01*
G01*
X17525000Y-26475000D01*
G75*
G02*
X17725000Y-26275000I200000J0D01*
G01*
G37*
%TD*%
%TO.C,R2*%
G36*
G01*
X-5275000Y-27925000D02*
X-4725000Y-27925000D01*
G75*
G02*
X-4525000Y-28125000I0J-200000D01*
G01*
X-4525000Y-28525000D01*
G75*
G02*
X-4725000Y-28725000I-200000J0D01*
G01*
X-5275000Y-28725000D01*
G75*
G02*
X-5475000Y-28525000I0J200000D01*
G01*
X-5475000Y-28125000D01*
G75*
G02*
X-5275000Y-27925000I200000J0D01*
G01*
G37*
G36*
G01*
X-5275000Y-26275000D02*
X-4725000Y-26275000D01*
G75*
G02*
X-4525000Y-26475000I0J-200000D01*
G01*
X-4525000Y-26875000D01*
G75*
G02*
X-4725000Y-27075000I-200000J0D01*
G01*
X-5275000Y-27075000D01*
G75*
G02*
X-5475000Y-26875000I0J200000D01*
G01*
X-5475000Y-26475000D01*
G75*
G02*
X-5275000Y-26275000I200000J0D01*
G01*
G37*
%TD*%
%TO.C,R1*%
G36*
G01*
X-18275000Y-27925000D02*
X-17725000Y-27925000D01*
G75*
G02*
X-17525000Y-28125000I0J-200000D01*
G01*
X-17525000Y-28525000D01*
G75*
G02*
X-17725000Y-28725000I-200000J0D01*
G01*
X-18275000Y-28725000D01*
G75*
G02*
X-18475000Y-28525000I0J200000D01*
G01*
X-18475000Y-28125000D01*
G75*
G02*
X-18275000Y-27925000I200000J0D01*
G01*
G37*
G36*
G01*
X-18275000Y-26275000D02*
X-17725000Y-26275000D01*
G75*
G02*
X-17525000Y-26475000I0J-200000D01*
G01*
X-17525000Y-26875000D01*
G75*
G02*
X-17725000Y-27075000I-200000J0D01*
G01*
X-18275000Y-27075000D01*
G75*
G02*
X-18475000Y-26875000I0J200000D01*
G01*
X-18475000Y-26475000D01*
G75*
G02*
X-18275000Y-26275000I200000J0D01*
G01*
G37*
%TD*%
M02*
