%TF.GenerationSoftware,KiCad,Pcbnew,5.1.10*%
%TF.CreationDate,2021-05-04T13:24:29+02:00*%
%TF.ProjectId,Uyue_946_1010,55797565-5f39-4343-965f-313031302e6b,rev?*%
%TF.SameCoordinates,Original*%
%TF.FileFunction,Copper,L1,Top*%
%TF.FilePolarity,Positive*%
%FSLAX46Y46*%
G04 Gerber Fmt 4.6, Leading zero omitted, Abs format (unit mm)*
G04 Created by KiCad (PCBNEW 5.1.10) date 2021-05-04 13:24:29*
%MOMM*%
%LPD*%
G01*
G04 APERTURE LIST*
%TA.AperFunction,NonConductor*%
%ADD10C,0.200000*%
%TD*%
%TA.AperFunction,NonConductor*%
%ADD11C,0.100000*%
%TD*%
G04 APERTURE END LIST*
D10*
X37227641Y22099844D02*
X38029125Y21880582D01*
X38779110Y21522858D01*
X39453896Y21037975D01*
X40032155Y20441259D01*
X40495602Y19751575D01*
X40829593Y18990724D01*
X41024171Y18180249D01*
X41075000Y17488086D01*
X41075001Y6584039D01*
X41076447Y6569362D01*
X41076377Y6559374D01*
X41076819Y6554858D01*
X41109460Y6244303D01*
X41115389Y6215422D01*
X41120903Y6186515D01*
X41122214Y6182170D01*
X41214553Y5883870D01*
X41225977Y5856695D01*
X41237003Y5829404D01*
X41239133Y5825397D01*
X41387654Y5550713D01*
X41404116Y5526308D01*
X41420255Y5501645D01*
X41423123Y5498128D01*
X41622168Y5257524D01*
X41643079Y5236759D01*
X41663679Y5215723D01*
X41667176Y5212830D01*
X41909165Y5015469D01*
X41933696Y4999170D01*
X41958003Y4982527D01*
X41961995Y4980368D01*
X42237708Y4833768D01*
X42264942Y4822544D01*
X42292017Y4810939D01*
X42296352Y4809597D01*
X42595290Y4719343D01*
X42624174Y4713624D01*
X42652997Y4707498D01*
X42657510Y4707023D01*
X42951201Y4678226D01*
X42971111Y4675286D01*
X43827643Y4598843D01*
X44629127Y4379582D01*
X45379113Y4021855D01*
X46053897Y3536974D01*
X46632156Y2940258D01*
X47095603Y2250574D01*
X47429593Y1489722D01*
X47624174Y679234D01*
X47673483Y8690D01*
X47598842Y-827645D01*
X47379582Y-1629127D01*
X47021857Y-2379111D01*
X46536974Y-3053897D01*
X45940258Y-3632156D01*
X45250574Y-4095603D01*
X44489722Y-4429593D01*
X43679234Y-4624174D01*
X42976165Y-4675875D01*
X42972594Y-4676460D01*
X42960376Y-4676375D01*
X42955859Y-4676817D01*
X42645304Y-4709458D01*
X42616430Y-4715385D01*
X42587516Y-4720901D01*
X42583171Y-4722212D01*
X42284871Y-4814551D01*
X42257682Y-4825980D01*
X42230406Y-4837001D01*
X42226399Y-4839131D01*
X41951714Y-4987652D01*
X41927287Y-5004129D01*
X41902646Y-5020253D01*
X41899129Y-5023121D01*
X41658525Y-5222166D01*
X41637760Y-5243077D01*
X41616724Y-5263677D01*
X41613831Y-5267174D01*
X41416470Y-5509163D01*
X41400182Y-5533679D01*
X41383528Y-5558001D01*
X41381370Y-5561993D01*
X41234769Y-5837706D01*
X41223539Y-5864954D01*
X41211940Y-5892016D01*
X41210598Y-5896351D01*
X41120344Y-6195288D01*
X41114619Y-6224204D01*
X41108499Y-6252995D01*
X41108024Y-6257509D01*
X41077552Y-6568283D01*
X41077552Y-6568294D01*
X41076003Y-6584008D01*
X41075002Y-17485510D01*
X40999843Y-18327643D01*
X40780582Y-19129125D01*
X40422858Y-19879110D01*
X39937975Y-20553896D01*
X39341259Y-21132155D01*
X38651576Y-21595601D01*
X37890723Y-21929593D01*
X37080249Y-22124171D01*
X36388086Y-22175000D01*
X-36385531Y-22175000D01*
X-37227643Y-22099843D01*
X-38029125Y-21880582D01*
X-38779110Y-21522858D01*
X-39453896Y-21037975D01*
X-40032155Y-20441259D01*
X-40495601Y-19751576D01*
X-40829593Y-18990723D01*
X-41024171Y-18180249D01*
X-41075001Y-17488073D01*
X-41074999Y-9133861D01*
X-19936838Y-9133861D01*
X-19936838Y-9466139D01*
X-19872014Y-9792033D01*
X-19744857Y-10099017D01*
X-19560253Y-10375297D01*
X-19325297Y-10610253D01*
X-19049017Y-10794857D01*
X-18742033Y-10922014D01*
X-18416139Y-10986838D01*
X-18083861Y-10986838D01*
X-17757967Y-10922014D01*
X-17450983Y-10794857D01*
X-17174703Y-10610253D01*
X-16939747Y-10375297D01*
X-16755143Y-10099017D01*
X-16627986Y-9792033D01*
X-16563162Y-9466139D01*
X-16563162Y-9133861D01*
X16563162Y-9133861D01*
X16563162Y-9466139D01*
X16627986Y-9792033D01*
X16755143Y-10099017D01*
X16939747Y-10375297D01*
X17174703Y-10610253D01*
X17450983Y-10794857D01*
X17757967Y-10922014D01*
X18083861Y-10986838D01*
X18416139Y-10986838D01*
X18742033Y-10922014D01*
X19049017Y-10794857D01*
X19325297Y-10610253D01*
X19560253Y-10375297D01*
X19744857Y-10099017D01*
X19872014Y-9792033D01*
X19936838Y-9466139D01*
X19936838Y-9133861D01*
X19872014Y-8807967D01*
X19744857Y-8500983D01*
X19560253Y-8224703D01*
X19325297Y-7989747D01*
X19049017Y-7805143D01*
X18742033Y-7677986D01*
X18416139Y-7613162D01*
X18083861Y-7613162D01*
X17757967Y-7677986D01*
X17450983Y-7805143D01*
X17174703Y-7989747D01*
X16939747Y-8224703D01*
X16755143Y-8500983D01*
X16627986Y-8807967D01*
X16563162Y-9133861D01*
X-16563162Y-9133861D01*
X-16627986Y-8807967D01*
X-16755143Y-8500983D01*
X-16939747Y-8224703D01*
X-17174703Y-7989747D01*
X-17450983Y-7805143D01*
X-17757967Y-7677986D01*
X-18083861Y-7613162D01*
X-18416139Y-7613162D01*
X-18742033Y-7677986D01*
X-19049017Y-7805143D01*
X-19325297Y-7989747D01*
X-19560253Y-8224703D01*
X-19744857Y-8500983D01*
X-19872014Y-8807967D01*
X-19936838Y-9133861D01*
X-41074999Y-9133861D01*
X-41074998Y-6585041D01*
X-41076445Y-6570354D01*
X-41076375Y-6560376D01*
X-41076817Y-6555859D01*
X-41109458Y-6245304D01*
X-41115385Y-6216430D01*
X-41120901Y-6187516D01*
X-41122212Y-6183171D01*
X-41214551Y-5884871D01*
X-41225980Y-5857682D01*
X-41237001Y-5830406D01*
X-41239131Y-5826399D01*
X-41387652Y-5551714D01*
X-41404129Y-5527287D01*
X-41420253Y-5502646D01*
X-41423121Y-5499129D01*
X-41622166Y-5258525D01*
X-41643077Y-5237760D01*
X-41663677Y-5216724D01*
X-41667174Y-5213831D01*
X-41909163Y-5016470D01*
X-41933679Y-5000182D01*
X-41958001Y-4983528D01*
X-41961990Y-4981371D01*
X-41961998Y-4981367D01*
X-42237706Y-4834769D01*
X-42264954Y-4823539D01*
X-42292016Y-4811940D01*
X-42296351Y-4810598D01*
X-42595288Y-4720344D01*
X-42624204Y-4714619D01*
X-42652995Y-4708499D01*
X-42657509Y-4708024D01*
X-42928446Y-4681458D01*
X-42934097Y-4679752D01*
X-42971113Y-4674286D01*
X-43827646Y-4597842D01*
X-44629128Y-4378582D01*
X-45379112Y-4020857D01*
X-46053898Y-3535974D01*
X-46632157Y-2939258D01*
X-47095604Y-2249574D01*
X-47429594Y-1488722D01*
X-47624175Y-678234D01*
X-47673484Y-7690D01*
X-47655784Y190643D01*
X-44935634Y190643D01*
X-44935634Y-190643D01*
X-44861249Y-564604D01*
X-44715337Y-916867D01*
X-44503505Y-1233895D01*
X-44233895Y-1503505D01*
X-43916867Y-1715337D01*
X-43564604Y-1861249D01*
X-43190643Y-1935634D01*
X-42809357Y-1935634D01*
X-42435396Y-1861249D01*
X-42083133Y-1715337D01*
X-41766105Y-1503505D01*
X-41496495Y-1233895D01*
X-41284663Y-916867D01*
X-41138751Y-564604D01*
X-41064366Y-190643D01*
X-41064366Y-75051D01*
X-20533949Y-75051D01*
X-20533949Y-524949D01*
X-20446178Y-966203D01*
X-20274009Y-1381856D01*
X-20024059Y-1755933D01*
X-19705933Y-2074059D01*
X-19331856Y-2324009D01*
X-18916203Y-2496178D01*
X-18474949Y-2583949D01*
X-18025051Y-2583949D01*
X-17583797Y-2496178D01*
X-17168144Y-2324009D01*
X-16794067Y-2074059D01*
X-16475941Y-1755933D01*
X-16225991Y-1381856D01*
X-16148991Y-1195960D01*
X-12195000Y-1195960D01*
X-12193595Y-1210228D01*
X-12193638Y-1216437D01*
X-12193196Y-1220954D01*
X-12172795Y-1415051D01*
X-12166865Y-1443938D01*
X-12161352Y-1472838D01*
X-12160041Y-1477183D01*
X-12102329Y-1663621D01*
X-12090900Y-1690810D01*
X-12079879Y-1718086D01*
X-12077749Y-1722093D01*
X-11984924Y-1893770D01*
X-11968451Y-1918192D01*
X-11952322Y-1942839D01*
X-11949454Y-1946356D01*
X-11825051Y-2096734D01*
X-11804141Y-2117498D01*
X-11783540Y-2138535D01*
X-11780044Y-2141428D01*
X-11628802Y-2264778D01*
X-11604241Y-2281096D01*
X-11579962Y-2297720D01*
X-11575970Y-2299879D01*
X-11403648Y-2391504D01*
X-11376424Y-2402725D01*
X-11349340Y-2414333D01*
X-11345005Y-2415675D01*
X-11158169Y-2472084D01*
X-11129253Y-2477809D01*
X-11100462Y-2483929D01*
X-11095949Y-2484404D01*
X-10901715Y-2503449D01*
X-10901708Y-2503449D01*
X-10885961Y-2505000D01*
X10885961Y-2505000D01*
X10900229Y-2503595D01*
X10906437Y-2503638D01*
X10910954Y-2503196D01*
X11105051Y-2482795D01*
X11133938Y-2476865D01*
X11162838Y-2471352D01*
X11167183Y-2470041D01*
X11353621Y-2412329D01*
X11380810Y-2400900D01*
X11408086Y-2389879D01*
X11412093Y-2387749D01*
X11583770Y-2294924D01*
X11608192Y-2278451D01*
X11632839Y-2262322D01*
X11636356Y-2259454D01*
X11786734Y-2135051D01*
X11807498Y-2114141D01*
X11828535Y-2093540D01*
X11831428Y-2090044D01*
X11954778Y-1938802D01*
X11971096Y-1914241D01*
X11987720Y-1889962D01*
X11989879Y-1885970D01*
X12081504Y-1713648D01*
X12092725Y-1686424D01*
X12104333Y-1659340D01*
X12105675Y-1655005D01*
X12162084Y-1468169D01*
X12167809Y-1439253D01*
X12173929Y-1410462D01*
X12174404Y-1405949D01*
X12193449Y-1211715D01*
X12193449Y-1211708D01*
X12195000Y-1195961D01*
X12195000Y-75051D01*
X15966051Y-75051D01*
X15966051Y-524949D01*
X16053822Y-966203D01*
X16225991Y-1381856D01*
X16475941Y-1755933D01*
X16794067Y-2074059D01*
X17168144Y-2324009D01*
X17583797Y-2496178D01*
X18025051Y-2583949D01*
X18474949Y-2583949D01*
X18916203Y-2496178D01*
X19331856Y-2324009D01*
X19705933Y-2074059D01*
X20024059Y-1755933D01*
X20274009Y-1381856D01*
X20446178Y-966203D01*
X20533949Y-524949D01*
X20533949Y-75051D01*
X20481100Y190643D01*
X41064366Y190643D01*
X41064366Y-190643D01*
X41138751Y-564604D01*
X41284663Y-916867D01*
X41496495Y-1233895D01*
X41766105Y-1503505D01*
X42083133Y-1715337D01*
X42435396Y-1861249D01*
X42809357Y-1935634D01*
X43190643Y-1935634D01*
X43564604Y-1861249D01*
X43916867Y-1715337D01*
X44233895Y-1503505D01*
X44503505Y-1233895D01*
X44715337Y-916867D01*
X44861249Y-564604D01*
X44935634Y-190643D01*
X44935634Y190643D01*
X44861249Y564604D01*
X44715337Y916867D01*
X44503505Y1233895D01*
X44233895Y1503505D01*
X43916867Y1715337D01*
X43564604Y1861249D01*
X43190643Y1935634D01*
X42809357Y1935634D01*
X42435396Y1861249D01*
X42083133Y1715337D01*
X41766105Y1503505D01*
X41496495Y1233895D01*
X41284663Y916867D01*
X41138751Y564604D01*
X41064366Y190643D01*
X20481100Y190643D01*
X20446178Y366203D01*
X20274009Y781856D01*
X20024059Y1155933D01*
X19705933Y1474059D01*
X19331856Y1724009D01*
X18916203Y1896178D01*
X18474949Y1983949D01*
X18025051Y1983949D01*
X17583797Y1896178D01*
X17168144Y1724009D01*
X16794067Y1474059D01*
X16475941Y1155933D01*
X16225991Y781856D01*
X16053822Y366203D01*
X15966051Y-75051D01*
X12195000Y-75051D01*
X12195000Y9174949D01*
X15966051Y9174949D01*
X15966051Y8725051D01*
X16053822Y8283797D01*
X16225991Y7868144D01*
X16475941Y7494067D01*
X16794067Y7175941D01*
X17168144Y6925991D01*
X17583797Y6753822D01*
X18025051Y6666051D01*
X18474949Y6666051D01*
X18916203Y6753822D01*
X19331856Y6925991D01*
X19705933Y7175941D01*
X20024059Y7494067D01*
X20274009Y7868144D01*
X20446178Y8283797D01*
X20533949Y8725051D01*
X20533949Y9174949D01*
X20446178Y9616203D01*
X20274009Y10031856D01*
X20024059Y10405933D01*
X19705933Y10724059D01*
X19331856Y10974009D01*
X18916203Y11146178D01*
X18474949Y11233949D01*
X18025051Y11233949D01*
X17583797Y11146178D01*
X17168144Y10974009D01*
X16794067Y10724059D01*
X16475941Y10405933D01*
X16225991Y10031856D01*
X16053822Y9616203D01*
X15966051Y9174949D01*
X12195000Y9174949D01*
X12195000Y9835961D01*
X12193595Y9850229D01*
X12193638Y9856437D01*
X12193195Y9860954D01*
X12172795Y10055051D01*
X12166865Y10083938D01*
X12161352Y10112838D01*
X12160041Y10117183D01*
X12102329Y10303621D01*
X12090900Y10330810D01*
X12079879Y10358086D01*
X12077749Y10362094D01*
X11984924Y10533770D01*
X11968447Y10558197D01*
X11952322Y10582840D01*
X11949454Y10586357D01*
X11825050Y10736734D01*
X11804160Y10757479D01*
X11783540Y10778535D01*
X11780044Y10781428D01*
X11628802Y10904778D01*
X11604257Y10921085D01*
X11579962Y10937720D01*
X11575970Y10939879D01*
X11403648Y11031504D01*
X11376453Y11042713D01*
X11349340Y11054333D01*
X11345005Y11055675D01*
X11158169Y11112084D01*
X11129285Y11117803D01*
X11100462Y11123929D01*
X11095948Y11124404D01*
X10901715Y11143449D01*
X10901708Y11143449D01*
X10885961Y11145000D01*
X-10885961Y11145000D01*
X-10900229Y11143595D01*
X-10906437Y11143638D01*
X-10910954Y11143195D01*
X-11105051Y11122795D01*
X-11133938Y11116865D01*
X-11162838Y11111352D01*
X-11167183Y11110041D01*
X-11353621Y11052329D01*
X-11380810Y11040900D01*
X-11408086Y11029879D01*
X-11412094Y11027749D01*
X-11583770Y10934924D01*
X-11608197Y10918447D01*
X-11632840Y10902322D01*
X-11636357Y10899454D01*
X-11786734Y10775050D01*
X-11807479Y10754160D01*
X-11828535Y10733540D01*
X-11831428Y10730044D01*
X-11954778Y10578802D01*
X-11971085Y10554257D01*
X-11987720Y10529962D01*
X-11989879Y10525970D01*
X-12081504Y10353648D01*
X-12092713Y10326453D01*
X-12104333Y10299340D01*
X-12105675Y10295005D01*
X-12162084Y10108169D01*
X-12167803Y10079285D01*
X-12173929Y10050462D01*
X-12174404Y10045948D01*
X-12193449Y9851715D01*
X-12193449Y9851698D01*
X-12194999Y9835961D01*
X-12195000Y-1195960D01*
X-16148991Y-1195960D01*
X-16053822Y-966203D01*
X-15966051Y-524949D01*
X-15966051Y-75051D01*
X-16053822Y366203D01*
X-16225991Y781856D01*
X-16475941Y1155933D01*
X-16794067Y1474059D01*
X-17168144Y1724009D01*
X-17583797Y1896178D01*
X-18025051Y1983949D01*
X-18474949Y1983949D01*
X-18916203Y1896178D01*
X-19331856Y1724009D01*
X-19705933Y1474059D01*
X-20024059Y1155933D01*
X-20274009Y781856D01*
X-20446178Y366203D01*
X-20533949Y-75051D01*
X-41064366Y-75051D01*
X-41064366Y190643D01*
X-41138751Y564604D01*
X-41284663Y916867D01*
X-41496495Y1233895D01*
X-41766105Y1503505D01*
X-42083133Y1715337D01*
X-42435396Y1861249D01*
X-42809357Y1935634D01*
X-43190643Y1935634D01*
X-43564604Y1861249D01*
X-43916867Y1715337D01*
X-44233895Y1503505D01*
X-44503505Y1233895D01*
X-44715337Y916867D01*
X-44861249Y564604D01*
X-44935634Y190643D01*
X-47655784Y190643D01*
X-47598844Y828643D01*
X-47379583Y1630127D01*
X-47021856Y2380113D01*
X-46536975Y3054897D01*
X-45940259Y3633156D01*
X-45250575Y4096603D01*
X-44489723Y4430593D01*
X-43679235Y4625174D01*
X-43001582Y4675006D01*
X-42999866Y4675000D01*
X-42988696Y4675039D01*
X-42974570Y4676474D01*
X-42960375Y4676375D01*
X-42955859Y4676817D01*
X-42645304Y4709458D01*
X-42616423Y4715387D01*
X-42587516Y4720901D01*
X-42583171Y4722212D01*
X-42284871Y4814551D01*
X-42257696Y4825975D01*
X-42230405Y4837001D01*
X-42226398Y4839131D01*
X-41951714Y4987652D01*
X-41927309Y5004114D01*
X-41902646Y5020253D01*
X-41899129Y5023121D01*
X-41658525Y5222166D01*
X-41637760Y5243077D01*
X-41616724Y5263677D01*
X-41613831Y5267174D01*
X-41416470Y5509163D01*
X-41400171Y5533694D01*
X-41383528Y5558001D01*
X-41381369Y5561993D01*
X-41234769Y5837706D01*
X-41223545Y5864940D01*
X-41211940Y5892015D01*
X-41210598Y5896350D01*
X-41120344Y6195288D01*
X-41114625Y6224172D01*
X-41108499Y6252995D01*
X-41108024Y6257508D01*
X-41081160Y6531486D01*
X-41079703Y6536289D01*
X-41075000Y6584039D01*
X-41075000Y9174949D01*
X-20533949Y9174949D01*
X-20533949Y8725051D01*
X-20446178Y8283797D01*
X-20274009Y7868144D01*
X-20024059Y7494067D01*
X-19705933Y7175941D01*
X-19331856Y6925991D01*
X-18916203Y6753822D01*
X-18474949Y6666051D01*
X-18025051Y6666051D01*
X-17583797Y6753822D01*
X-17168144Y6925991D01*
X-16794067Y7175941D01*
X-16475941Y7494067D01*
X-16225991Y7868144D01*
X-16053822Y8283797D01*
X-15966051Y8725051D01*
X-15966051Y9174949D01*
X-16053822Y9616203D01*
X-16225991Y10031856D01*
X-16475941Y10405933D01*
X-16794067Y10724059D01*
X-17168144Y10974009D01*
X-17583797Y11146178D01*
X-18025051Y11233949D01*
X-18474949Y11233949D01*
X-18916203Y11146178D01*
X-19331856Y10974009D01*
X-19705933Y10724059D01*
X-20024059Y10405933D01*
X-20274009Y10031856D01*
X-20446178Y9616203D01*
X-20533949Y9174949D01*
X-41075000Y9174949D01*
X-41075000Y17485530D01*
X-41018720Y18116139D01*
X-19936838Y18116139D01*
X-19936838Y17783861D01*
X-19872014Y17457967D01*
X-19744857Y17150983D01*
X-19560253Y16874703D01*
X-19325297Y16639747D01*
X-19049017Y16455143D01*
X-18742033Y16327986D01*
X-18416139Y16263162D01*
X-18083861Y16263162D01*
X-17757967Y16327986D01*
X-17450983Y16455143D01*
X-17174703Y16639747D01*
X-16939747Y16874703D01*
X-16755143Y17150983D01*
X-16627986Y17457967D01*
X-16563162Y17783861D01*
X-16563162Y18116139D01*
X16563162Y18116139D01*
X16563162Y17783861D01*
X16627986Y17457967D01*
X16755143Y17150983D01*
X16939747Y16874703D01*
X17174703Y16639747D01*
X17450983Y16455143D01*
X17757967Y16327986D01*
X18083861Y16263162D01*
X18416139Y16263162D01*
X18742033Y16327986D01*
X19049017Y16455143D01*
X19325297Y16639747D01*
X19560253Y16874703D01*
X19744857Y17150983D01*
X19872014Y17457967D01*
X19936838Y17783861D01*
X19936838Y18116139D01*
X19872014Y18442033D01*
X19744857Y18749017D01*
X19560253Y19025297D01*
X19325297Y19260253D01*
X19049017Y19444857D01*
X18742033Y19572014D01*
X18416139Y19636838D01*
X18083861Y19636838D01*
X17757967Y19572014D01*
X17450983Y19444857D01*
X17174703Y19260253D01*
X16939747Y19025297D01*
X16755143Y18749017D01*
X16627986Y18442033D01*
X16563162Y18116139D01*
X-16563162Y18116139D01*
X-16627986Y18442033D01*
X-16755143Y18749017D01*
X-16939747Y19025297D01*
X-17174703Y19260253D01*
X-17450983Y19444857D01*
X-17757967Y19572014D01*
X-18083861Y19636838D01*
X-18416139Y19636838D01*
X-18742033Y19572014D01*
X-19049017Y19444857D01*
X-19325297Y19260253D01*
X-19560253Y19025297D01*
X-19744857Y18749017D01*
X-19872014Y18442033D01*
X-19936838Y18116139D01*
X-41018720Y18116139D01*
X-40999844Y18327641D01*
X-40780582Y19129125D01*
X-40422858Y19879110D01*
X-39937975Y20553896D01*
X-39341259Y21132155D01*
X-38651575Y21595602D01*
X-37890724Y21929593D01*
X-37080249Y22124171D01*
X-36388086Y22175000D01*
X36385530Y22175000D01*
X37227641Y22099844D01*
%TA.AperFunction,NonConductor*%
D11*
G36*
X37227641Y22099844D02*
G01*
X38029125Y21880582D01*
X38779110Y21522858D01*
X39453896Y21037975D01*
X40032155Y20441259D01*
X40495602Y19751575D01*
X40829593Y18990724D01*
X41024171Y18180249D01*
X41075000Y17488086D01*
X41075001Y6584039D01*
X41076447Y6569362D01*
X41076377Y6559374D01*
X41076819Y6554858D01*
X41109460Y6244303D01*
X41115389Y6215422D01*
X41120903Y6186515D01*
X41122214Y6182170D01*
X41214553Y5883870D01*
X41225977Y5856695D01*
X41237003Y5829404D01*
X41239133Y5825397D01*
X41387654Y5550713D01*
X41404116Y5526308D01*
X41420255Y5501645D01*
X41423123Y5498128D01*
X41622168Y5257524D01*
X41643079Y5236759D01*
X41663679Y5215723D01*
X41667176Y5212830D01*
X41909165Y5015469D01*
X41933696Y4999170D01*
X41958003Y4982527D01*
X41961995Y4980368D01*
X42237708Y4833768D01*
X42264942Y4822544D01*
X42292017Y4810939D01*
X42296352Y4809597D01*
X42595290Y4719343D01*
X42624174Y4713624D01*
X42652997Y4707498D01*
X42657510Y4707023D01*
X42951201Y4678226D01*
X42971111Y4675286D01*
X43827643Y4598843D01*
X44629127Y4379582D01*
X45379113Y4021855D01*
X46053897Y3536974D01*
X46632156Y2940258D01*
X47095603Y2250574D01*
X47429593Y1489722D01*
X47624174Y679234D01*
X47673483Y8690D01*
X47598842Y-827645D01*
X47379582Y-1629127D01*
X47021857Y-2379111D01*
X46536974Y-3053897D01*
X45940258Y-3632156D01*
X45250574Y-4095603D01*
X44489722Y-4429593D01*
X43679234Y-4624174D01*
X42976165Y-4675875D01*
X42972594Y-4676460D01*
X42960376Y-4676375D01*
X42955859Y-4676817D01*
X42645304Y-4709458D01*
X42616430Y-4715385D01*
X42587516Y-4720901D01*
X42583171Y-4722212D01*
X42284871Y-4814551D01*
X42257682Y-4825980D01*
X42230406Y-4837001D01*
X42226399Y-4839131D01*
X41951714Y-4987652D01*
X41927287Y-5004129D01*
X41902646Y-5020253D01*
X41899129Y-5023121D01*
X41658525Y-5222166D01*
X41637760Y-5243077D01*
X41616724Y-5263677D01*
X41613831Y-5267174D01*
X41416470Y-5509163D01*
X41400182Y-5533679D01*
X41383528Y-5558001D01*
X41381370Y-5561993D01*
X41234769Y-5837706D01*
X41223539Y-5864954D01*
X41211940Y-5892016D01*
X41210598Y-5896351D01*
X41120344Y-6195288D01*
X41114619Y-6224204D01*
X41108499Y-6252995D01*
X41108024Y-6257509D01*
X41077552Y-6568283D01*
X41077552Y-6568294D01*
X41076003Y-6584008D01*
X41075002Y-17485510D01*
X40999843Y-18327643D01*
X40780582Y-19129125D01*
X40422858Y-19879110D01*
X39937975Y-20553896D01*
X39341259Y-21132155D01*
X38651576Y-21595601D01*
X37890723Y-21929593D01*
X37080249Y-22124171D01*
X36388086Y-22175000D01*
X-36385531Y-22175000D01*
X-37227643Y-22099843D01*
X-38029125Y-21880582D01*
X-38779110Y-21522858D01*
X-39453896Y-21037975D01*
X-40032155Y-20441259D01*
X-40495601Y-19751576D01*
X-40829593Y-18990723D01*
X-41024171Y-18180249D01*
X-41075001Y-17488073D01*
X-41074999Y-9133861D01*
X-19936838Y-9133861D01*
X-19936838Y-9466139D01*
X-19872014Y-9792033D01*
X-19744857Y-10099017D01*
X-19560253Y-10375297D01*
X-19325297Y-10610253D01*
X-19049017Y-10794857D01*
X-18742033Y-10922014D01*
X-18416139Y-10986838D01*
X-18083861Y-10986838D01*
X-17757967Y-10922014D01*
X-17450983Y-10794857D01*
X-17174703Y-10610253D01*
X-16939747Y-10375297D01*
X-16755143Y-10099017D01*
X-16627986Y-9792033D01*
X-16563162Y-9466139D01*
X-16563162Y-9133861D01*
X16563162Y-9133861D01*
X16563162Y-9466139D01*
X16627986Y-9792033D01*
X16755143Y-10099017D01*
X16939747Y-10375297D01*
X17174703Y-10610253D01*
X17450983Y-10794857D01*
X17757967Y-10922014D01*
X18083861Y-10986838D01*
X18416139Y-10986838D01*
X18742033Y-10922014D01*
X19049017Y-10794857D01*
X19325297Y-10610253D01*
X19560253Y-10375297D01*
X19744857Y-10099017D01*
X19872014Y-9792033D01*
X19936838Y-9466139D01*
X19936838Y-9133861D01*
X19872014Y-8807967D01*
X19744857Y-8500983D01*
X19560253Y-8224703D01*
X19325297Y-7989747D01*
X19049017Y-7805143D01*
X18742033Y-7677986D01*
X18416139Y-7613162D01*
X18083861Y-7613162D01*
X17757967Y-7677986D01*
X17450983Y-7805143D01*
X17174703Y-7989747D01*
X16939747Y-8224703D01*
X16755143Y-8500983D01*
X16627986Y-8807967D01*
X16563162Y-9133861D01*
X-16563162Y-9133861D01*
X-16627986Y-8807967D01*
X-16755143Y-8500983D01*
X-16939747Y-8224703D01*
X-17174703Y-7989747D01*
X-17450983Y-7805143D01*
X-17757967Y-7677986D01*
X-18083861Y-7613162D01*
X-18416139Y-7613162D01*
X-18742033Y-7677986D01*
X-19049017Y-7805143D01*
X-19325297Y-7989747D01*
X-19560253Y-8224703D01*
X-19744857Y-8500983D01*
X-19872014Y-8807967D01*
X-19936838Y-9133861D01*
X-41074999Y-9133861D01*
X-41074998Y-6585041D01*
X-41076445Y-6570354D01*
X-41076375Y-6560376D01*
X-41076817Y-6555859D01*
X-41109458Y-6245304D01*
X-41115385Y-6216430D01*
X-41120901Y-6187516D01*
X-41122212Y-6183171D01*
X-41214551Y-5884871D01*
X-41225980Y-5857682D01*
X-41237001Y-5830406D01*
X-41239131Y-5826399D01*
X-41387652Y-5551714D01*
X-41404129Y-5527287D01*
X-41420253Y-5502646D01*
X-41423121Y-5499129D01*
X-41622166Y-5258525D01*
X-41643077Y-5237760D01*
X-41663677Y-5216724D01*
X-41667174Y-5213831D01*
X-41909163Y-5016470D01*
X-41933679Y-5000182D01*
X-41958001Y-4983528D01*
X-41961990Y-4981371D01*
X-41961998Y-4981367D01*
X-42237706Y-4834769D01*
X-42264954Y-4823539D01*
X-42292016Y-4811940D01*
X-42296351Y-4810598D01*
X-42595288Y-4720344D01*
X-42624204Y-4714619D01*
X-42652995Y-4708499D01*
X-42657509Y-4708024D01*
X-42928446Y-4681458D01*
X-42934097Y-4679752D01*
X-42971113Y-4674286D01*
X-43827646Y-4597842D01*
X-44629128Y-4378582D01*
X-45379112Y-4020857D01*
X-46053898Y-3535974D01*
X-46632157Y-2939258D01*
X-47095604Y-2249574D01*
X-47429594Y-1488722D01*
X-47624175Y-678234D01*
X-47673484Y-7690D01*
X-47655784Y190643D01*
X-44935634Y190643D01*
X-44935634Y-190643D01*
X-44861249Y-564604D01*
X-44715337Y-916867D01*
X-44503505Y-1233895D01*
X-44233895Y-1503505D01*
X-43916867Y-1715337D01*
X-43564604Y-1861249D01*
X-43190643Y-1935634D01*
X-42809357Y-1935634D01*
X-42435396Y-1861249D01*
X-42083133Y-1715337D01*
X-41766105Y-1503505D01*
X-41496495Y-1233895D01*
X-41284663Y-916867D01*
X-41138751Y-564604D01*
X-41064366Y-190643D01*
X-41064366Y-75051D01*
X-20533949Y-75051D01*
X-20533949Y-524949D01*
X-20446178Y-966203D01*
X-20274009Y-1381856D01*
X-20024059Y-1755933D01*
X-19705933Y-2074059D01*
X-19331856Y-2324009D01*
X-18916203Y-2496178D01*
X-18474949Y-2583949D01*
X-18025051Y-2583949D01*
X-17583797Y-2496178D01*
X-17168144Y-2324009D01*
X-16794067Y-2074059D01*
X-16475941Y-1755933D01*
X-16225991Y-1381856D01*
X-16148991Y-1195960D01*
X-12195000Y-1195960D01*
X-12193595Y-1210228D01*
X-12193638Y-1216437D01*
X-12193196Y-1220954D01*
X-12172795Y-1415051D01*
X-12166865Y-1443938D01*
X-12161352Y-1472838D01*
X-12160041Y-1477183D01*
X-12102329Y-1663621D01*
X-12090900Y-1690810D01*
X-12079879Y-1718086D01*
X-12077749Y-1722093D01*
X-11984924Y-1893770D01*
X-11968451Y-1918192D01*
X-11952322Y-1942839D01*
X-11949454Y-1946356D01*
X-11825051Y-2096734D01*
X-11804141Y-2117498D01*
X-11783540Y-2138535D01*
X-11780044Y-2141428D01*
X-11628802Y-2264778D01*
X-11604241Y-2281096D01*
X-11579962Y-2297720D01*
X-11575970Y-2299879D01*
X-11403648Y-2391504D01*
X-11376424Y-2402725D01*
X-11349340Y-2414333D01*
X-11345005Y-2415675D01*
X-11158169Y-2472084D01*
X-11129253Y-2477809D01*
X-11100462Y-2483929D01*
X-11095949Y-2484404D01*
X-10901715Y-2503449D01*
X-10901708Y-2503449D01*
X-10885961Y-2505000D01*
X10885961Y-2505000D01*
X10900229Y-2503595D01*
X10906437Y-2503638D01*
X10910954Y-2503196D01*
X11105051Y-2482795D01*
X11133938Y-2476865D01*
X11162838Y-2471352D01*
X11167183Y-2470041D01*
X11353621Y-2412329D01*
X11380810Y-2400900D01*
X11408086Y-2389879D01*
X11412093Y-2387749D01*
X11583770Y-2294924D01*
X11608192Y-2278451D01*
X11632839Y-2262322D01*
X11636356Y-2259454D01*
X11786734Y-2135051D01*
X11807498Y-2114141D01*
X11828535Y-2093540D01*
X11831428Y-2090044D01*
X11954778Y-1938802D01*
X11971096Y-1914241D01*
X11987720Y-1889962D01*
X11989879Y-1885970D01*
X12081504Y-1713648D01*
X12092725Y-1686424D01*
X12104333Y-1659340D01*
X12105675Y-1655005D01*
X12162084Y-1468169D01*
X12167809Y-1439253D01*
X12173929Y-1410462D01*
X12174404Y-1405949D01*
X12193449Y-1211715D01*
X12193449Y-1211708D01*
X12195000Y-1195961D01*
X12195000Y-75051D01*
X15966051Y-75051D01*
X15966051Y-524949D01*
X16053822Y-966203D01*
X16225991Y-1381856D01*
X16475941Y-1755933D01*
X16794067Y-2074059D01*
X17168144Y-2324009D01*
X17583797Y-2496178D01*
X18025051Y-2583949D01*
X18474949Y-2583949D01*
X18916203Y-2496178D01*
X19331856Y-2324009D01*
X19705933Y-2074059D01*
X20024059Y-1755933D01*
X20274009Y-1381856D01*
X20446178Y-966203D01*
X20533949Y-524949D01*
X20533949Y-75051D01*
X20481100Y190643D01*
X41064366Y190643D01*
X41064366Y-190643D01*
X41138751Y-564604D01*
X41284663Y-916867D01*
X41496495Y-1233895D01*
X41766105Y-1503505D01*
X42083133Y-1715337D01*
X42435396Y-1861249D01*
X42809357Y-1935634D01*
X43190643Y-1935634D01*
X43564604Y-1861249D01*
X43916867Y-1715337D01*
X44233895Y-1503505D01*
X44503505Y-1233895D01*
X44715337Y-916867D01*
X44861249Y-564604D01*
X44935634Y-190643D01*
X44935634Y190643D01*
X44861249Y564604D01*
X44715337Y916867D01*
X44503505Y1233895D01*
X44233895Y1503505D01*
X43916867Y1715337D01*
X43564604Y1861249D01*
X43190643Y1935634D01*
X42809357Y1935634D01*
X42435396Y1861249D01*
X42083133Y1715337D01*
X41766105Y1503505D01*
X41496495Y1233895D01*
X41284663Y916867D01*
X41138751Y564604D01*
X41064366Y190643D01*
X20481100Y190643D01*
X20446178Y366203D01*
X20274009Y781856D01*
X20024059Y1155933D01*
X19705933Y1474059D01*
X19331856Y1724009D01*
X18916203Y1896178D01*
X18474949Y1983949D01*
X18025051Y1983949D01*
X17583797Y1896178D01*
X17168144Y1724009D01*
X16794067Y1474059D01*
X16475941Y1155933D01*
X16225991Y781856D01*
X16053822Y366203D01*
X15966051Y-75051D01*
X12195000Y-75051D01*
X12195000Y9174949D01*
X15966051Y9174949D01*
X15966051Y8725051D01*
X16053822Y8283797D01*
X16225991Y7868144D01*
X16475941Y7494067D01*
X16794067Y7175941D01*
X17168144Y6925991D01*
X17583797Y6753822D01*
X18025051Y6666051D01*
X18474949Y6666051D01*
X18916203Y6753822D01*
X19331856Y6925991D01*
X19705933Y7175941D01*
X20024059Y7494067D01*
X20274009Y7868144D01*
X20446178Y8283797D01*
X20533949Y8725051D01*
X20533949Y9174949D01*
X20446178Y9616203D01*
X20274009Y10031856D01*
X20024059Y10405933D01*
X19705933Y10724059D01*
X19331856Y10974009D01*
X18916203Y11146178D01*
X18474949Y11233949D01*
X18025051Y11233949D01*
X17583797Y11146178D01*
X17168144Y10974009D01*
X16794067Y10724059D01*
X16475941Y10405933D01*
X16225991Y10031856D01*
X16053822Y9616203D01*
X15966051Y9174949D01*
X12195000Y9174949D01*
X12195000Y9835961D01*
X12193595Y9850229D01*
X12193638Y9856437D01*
X12193195Y9860954D01*
X12172795Y10055051D01*
X12166865Y10083938D01*
X12161352Y10112838D01*
X12160041Y10117183D01*
X12102329Y10303621D01*
X12090900Y10330810D01*
X12079879Y10358086D01*
X12077749Y10362094D01*
X11984924Y10533770D01*
X11968447Y10558197D01*
X11952322Y10582840D01*
X11949454Y10586357D01*
X11825050Y10736734D01*
X11804160Y10757479D01*
X11783540Y10778535D01*
X11780044Y10781428D01*
X11628802Y10904778D01*
X11604257Y10921085D01*
X11579962Y10937720D01*
X11575970Y10939879D01*
X11403648Y11031504D01*
X11376453Y11042713D01*
X11349340Y11054333D01*
X11345005Y11055675D01*
X11158169Y11112084D01*
X11129285Y11117803D01*
X11100462Y11123929D01*
X11095948Y11124404D01*
X10901715Y11143449D01*
X10901708Y11143449D01*
X10885961Y11145000D01*
X-10885961Y11145000D01*
X-10900229Y11143595D01*
X-10906437Y11143638D01*
X-10910954Y11143195D01*
X-11105051Y11122795D01*
X-11133938Y11116865D01*
X-11162838Y11111352D01*
X-11167183Y11110041D01*
X-11353621Y11052329D01*
X-11380810Y11040900D01*
X-11408086Y11029879D01*
X-11412094Y11027749D01*
X-11583770Y10934924D01*
X-11608197Y10918447D01*
X-11632840Y10902322D01*
X-11636357Y10899454D01*
X-11786734Y10775050D01*
X-11807479Y10754160D01*
X-11828535Y10733540D01*
X-11831428Y10730044D01*
X-11954778Y10578802D01*
X-11971085Y10554257D01*
X-11987720Y10529962D01*
X-11989879Y10525970D01*
X-12081504Y10353648D01*
X-12092713Y10326453D01*
X-12104333Y10299340D01*
X-12105675Y10295005D01*
X-12162084Y10108169D01*
X-12167803Y10079285D01*
X-12173929Y10050462D01*
X-12174404Y10045948D01*
X-12193449Y9851715D01*
X-12193449Y9851698D01*
X-12194999Y9835961D01*
X-12195000Y-1195960D01*
X-16148991Y-1195960D01*
X-16053822Y-966203D01*
X-15966051Y-524949D01*
X-15966051Y-75051D01*
X-16053822Y366203D01*
X-16225991Y781856D01*
X-16475941Y1155933D01*
X-16794067Y1474059D01*
X-17168144Y1724009D01*
X-17583797Y1896178D01*
X-18025051Y1983949D01*
X-18474949Y1983949D01*
X-18916203Y1896178D01*
X-19331856Y1724009D01*
X-19705933Y1474059D01*
X-20024059Y1155933D01*
X-20274009Y781856D01*
X-20446178Y366203D01*
X-20533949Y-75051D01*
X-41064366Y-75051D01*
X-41064366Y190643D01*
X-41138751Y564604D01*
X-41284663Y916867D01*
X-41496495Y1233895D01*
X-41766105Y1503505D01*
X-42083133Y1715337D01*
X-42435396Y1861249D01*
X-42809357Y1935634D01*
X-43190643Y1935634D01*
X-43564604Y1861249D01*
X-43916867Y1715337D01*
X-44233895Y1503505D01*
X-44503505Y1233895D01*
X-44715337Y916867D01*
X-44861249Y564604D01*
X-44935634Y190643D01*
X-47655784Y190643D01*
X-47598844Y828643D01*
X-47379583Y1630127D01*
X-47021856Y2380113D01*
X-46536975Y3054897D01*
X-45940259Y3633156D01*
X-45250575Y4096603D01*
X-44489723Y4430593D01*
X-43679235Y4625174D01*
X-43001582Y4675006D01*
X-42999866Y4675000D01*
X-42988696Y4675039D01*
X-42974570Y4676474D01*
X-42960375Y4676375D01*
X-42955859Y4676817D01*
X-42645304Y4709458D01*
X-42616423Y4715387D01*
X-42587516Y4720901D01*
X-42583171Y4722212D01*
X-42284871Y4814551D01*
X-42257696Y4825975D01*
X-42230405Y4837001D01*
X-42226398Y4839131D01*
X-41951714Y4987652D01*
X-41927309Y5004114D01*
X-41902646Y5020253D01*
X-41899129Y5023121D01*
X-41658525Y5222166D01*
X-41637760Y5243077D01*
X-41616724Y5263677D01*
X-41613831Y5267174D01*
X-41416470Y5509163D01*
X-41400171Y5533694D01*
X-41383528Y5558001D01*
X-41381369Y5561993D01*
X-41234769Y5837706D01*
X-41223545Y5864940D01*
X-41211940Y5892015D01*
X-41210598Y5896350D01*
X-41120344Y6195288D01*
X-41114625Y6224172D01*
X-41108499Y6252995D01*
X-41108024Y6257508D01*
X-41081160Y6531486D01*
X-41079703Y6536289D01*
X-41075000Y6584039D01*
X-41075000Y9174949D01*
X-20533949Y9174949D01*
X-20533949Y8725051D01*
X-20446178Y8283797D01*
X-20274009Y7868144D01*
X-20024059Y7494067D01*
X-19705933Y7175941D01*
X-19331856Y6925991D01*
X-18916203Y6753822D01*
X-18474949Y6666051D01*
X-18025051Y6666051D01*
X-17583797Y6753822D01*
X-17168144Y6925991D01*
X-16794067Y7175941D01*
X-16475941Y7494067D01*
X-16225991Y7868144D01*
X-16053822Y8283797D01*
X-15966051Y8725051D01*
X-15966051Y9174949D01*
X-16053822Y9616203D01*
X-16225991Y10031856D01*
X-16475941Y10405933D01*
X-16794067Y10724059D01*
X-17168144Y10974009D01*
X-17583797Y11146178D01*
X-18025051Y11233949D01*
X-18474949Y11233949D01*
X-18916203Y11146178D01*
X-19331856Y10974009D01*
X-19705933Y10724059D01*
X-20024059Y10405933D01*
X-20274009Y10031856D01*
X-20446178Y9616203D01*
X-20533949Y9174949D01*
X-41075000Y9174949D01*
X-41075000Y17485530D01*
X-41018720Y18116139D01*
X-19936838Y18116139D01*
X-19936838Y17783861D01*
X-19872014Y17457967D01*
X-19744857Y17150983D01*
X-19560253Y16874703D01*
X-19325297Y16639747D01*
X-19049017Y16455143D01*
X-18742033Y16327986D01*
X-18416139Y16263162D01*
X-18083861Y16263162D01*
X-17757967Y16327986D01*
X-17450983Y16455143D01*
X-17174703Y16639747D01*
X-16939747Y16874703D01*
X-16755143Y17150983D01*
X-16627986Y17457967D01*
X-16563162Y17783861D01*
X-16563162Y18116139D01*
X16563162Y18116139D01*
X16563162Y17783861D01*
X16627986Y17457967D01*
X16755143Y17150983D01*
X16939747Y16874703D01*
X17174703Y16639747D01*
X17450983Y16455143D01*
X17757967Y16327986D01*
X18083861Y16263162D01*
X18416139Y16263162D01*
X18742033Y16327986D01*
X19049017Y16455143D01*
X19325297Y16639747D01*
X19560253Y16874703D01*
X19744857Y17150983D01*
X19872014Y17457967D01*
X19936838Y17783861D01*
X19936838Y18116139D01*
X19872014Y18442033D01*
X19744857Y18749017D01*
X19560253Y19025297D01*
X19325297Y19260253D01*
X19049017Y19444857D01*
X18742033Y19572014D01*
X18416139Y19636838D01*
X18083861Y19636838D01*
X17757967Y19572014D01*
X17450983Y19444857D01*
X17174703Y19260253D01*
X16939747Y19025297D01*
X16755143Y18749017D01*
X16627986Y18442033D01*
X16563162Y18116139D01*
X-16563162Y18116139D01*
X-16627986Y18442033D01*
X-16755143Y18749017D01*
X-16939747Y19025297D01*
X-17174703Y19260253D01*
X-17450983Y19444857D01*
X-17757967Y19572014D01*
X-18083861Y19636838D01*
X-18416139Y19636838D01*
X-18742033Y19572014D01*
X-19049017Y19444857D01*
X-19325297Y19260253D01*
X-19560253Y19025297D01*
X-19744857Y18749017D01*
X-19872014Y18442033D01*
X-19936838Y18116139D01*
X-41018720Y18116139D01*
X-40999844Y18327641D01*
X-40780582Y19129125D01*
X-40422858Y19879110D01*
X-39937975Y20553896D01*
X-39341259Y21132155D01*
X-38651575Y21595602D01*
X-37890724Y21929593D01*
X-37080249Y22124171D01*
X-36388086Y22175000D01*
X36385530Y22175000D01*
X37227641Y22099844D01*
G37*
%TD.AperFunction*%
M02*
