%TF.GenerationSoftware,KiCad,Pcbnew,5.1.10*%
%TF.CreationDate,2021-05-04T11:05:08+02:00*%
%TF.ProjectId,Mainboard,4d61696e-626f-4617-9264-2e6b69636164,rev?*%
%TF.SameCoordinates,Original*%
%TF.FileFunction,Soldermask,Bot*%
%TF.FilePolarity,Negative*%
%FSLAX46Y46*%
G04 Gerber Fmt 4.6, Leading zero omitted, Abs format (unit mm)*
G04 Created by KiCad (PCBNEW 5.1.10) date 2021-05-04 11:05:08*
%MOMM*%
%LPD*%
G01*
G04 APERTURE LIST*
%ADD10R,0.300000X1.400000*%
%ADD11R,0.900000X0.800000*%
%ADD12C,2.000000*%
%ADD13R,0.800000X0.900000*%
%ADD14O,1.700000X3.000000*%
%ADD15O,1.700000X1.700000*%
%ADD16R,1.700000X1.700000*%
%ADD17R,0.600000X1.450000*%
%ADD18R,0.300000X1.450000*%
%ADD19O,1.000000X2.100000*%
%ADD20C,0.650000*%
%ADD21O,1.000000X1.600000*%
%ADD22C,2.800000*%
%ADD23C,1.800000*%
%ADD24C,2.700000*%
G04 APERTURE END LIST*
%TO.C,U4*%
G36*
G01*
X435000Y-5600000D02*
X135000Y-5600000D01*
G75*
G02*
X-15000Y-5450000I0J150000D01*
G01*
X-15000Y-3800000D01*
G75*
G02*
X135000Y-3650000I150000J0D01*
G01*
X435000Y-3650000D01*
G75*
G02*
X585000Y-3800000I0J-150000D01*
G01*
X585000Y-5450000D01*
G75*
G02*
X435000Y-5600000I-150000J0D01*
G01*
G37*
G36*
G01*
X-835000Y-5600000D02*
X-1135000Y-5600000D01*
G75*
G02*
X-1285000Y-5450000I0J150000D01*
G01*
X-1285000Y-3800000D01*
G75*
G02*
X-1135000Y-3650000I150000J0D01*
G01*
X-835000Y-3650000D01*
G75*
G02*
X-685000Y-3800000I0J-150000D01*
G01*
X-685000Y-5450000D01*
G75*
G02*
X-835000Y-5600000I-150000J0D01*
G01*
G37*
G36*
G01*
X-2105000Y-5600000D02*
X-2405000Y-5600000D01*
G75*
G02*
X-2555000Y-5450000I0J150000D01*
G01*
X-2555000Y-3800000D01*
G75*
G02*
X-2405000Y-3650000I150000J0D01*
G01*
X-2105000Y-3650000D01*
G75*
G02*
X-1955000Y-3800000I0J-150000D01*
G01*
X-1955000Y-5450000D01*
G75*
G02*
X-2105000Y-5600000I-150000J0D01*
G01*
G37*
G36*
G01*
X-3375000Y-5600000D02*
X-3675000Y-5600000D01*
G75*
G02*
X-3825000Y-5450000I0J150000D01*
G01*
X-3825000Y-3800000D01*
G75*
G02*
X-3675000Y-3650000I150000J0D01*
G01*
X-3375000Y-3650000D01*
G75*
G02*
X-3225000Y-3800000I0J-150000D01*
G01*
X-3225000Y-5450000D01*
G75*
G02*
X-3375000Y-5600000I-150000J0D01*
G01*
G37*
G36*
G01*
X-3375000Y-10550000D02*
X-3675000Y-10550000D01*
G75*
G02*
X-3825000Y-10400000I0J150000D01*
G01*
X-3825000Y-8750000D01*
G75*
G02*
X-3675000Y-8600000I150000J0D01*
G01*
X-3375000Y-8600000D01*
G75*
G02*
X-3225000Y-8750000I0J-150000D01*
G01*
X-3225000Y-10400000D01*
G75*
G02*
X-3375000Y-10550000I-150000J0D01*
G01*
G37*
G36*
G01*
X-2105000Y-10550000D02*
X-2405000Y-10550000D01*
G75*
G02*
X-2555000Y-10400000I0J150000D01*
G01*
X-2555000Y-8750000D01*
G75*
G02*
X-2405000Y-8600000I150000J0D01*
G01*
X-2105000Y-8600000D01*
G75*
G02*
X-1955000Y-8750000I0J-150000D01*
G01*
X-1955000Y-10400000D01*
G75*
G02*
X-2105000Y-10550000I-150000J0D01*
G01*
G37*
G36*
G01*
X-835000Y-10550000D02*
X-1135000Y-10550000D01*
G75*
G02*
X-1285000Y-10400000I0J150000D01*
G01*
X-1285000Y-8750000D01*
G75*
G02*
X-1135000Y-8600000I150000J0D01*
G01*
X-835000Y-8600000D01*
G75*
G02*
X-685000Y-8750000I0J-150000D01*
G01*
X-685000Y-10400000D01*
G75*
G02*
X-835000Y-10550000I-150000J0D01*
G01*
G37*
G36*
G01*
X435000Y-10550000D02*
X135000Y-10550000D01*
G75*
G02*
X-15000Y-10400000I0J150000D01*
G01*
X-15000Y-8750000D01*
G75*
G02*
X135000Y-8600000I150000J0D01*
G01*
X435000Y-8600000D01*
G75*
G02*
X585000Y-8750000I0J-150000D01*
G01*
X585000Y-10400000D01*
G75*
G02*
X435000Y-10550000I-150000J0D01*
G01*
G37*
%TD*%
%TO.C,U3*%
G36*
G01*
X5850000Y11400000D02*
X5850000Y10150000D01*
G75*
G02*
X5725000Y10025000I-125000J0D01*
G01*
X5475000Y10025000D01*
G75*
G02*
X5350000Y10150000I0J125000D01*
G01*
X5350000Y11400000D01*
G75*
G02*
X5475000Y11525000I125000J0D01*
G01*
X5725000Y11525000D01*
G75*
G02*
X5850000Y11400000I0J-125000D01*
G01*
G37*
G36*
G01*
X5050000Y11400000D02*
X5050000Y10150000D01*
G75*
G02*
X4925000Y10025000I-125000J0D01*
G01*
X4675000Y10025000D01*
G75*
G02*
X4550000Y10150000I0J125000D01*
G01*
X4550000Y11400000D01*
G75*
G02*
X4675000Y11525000I125000J0D01*
G01*
X4925000Y11525000D01*
G75*
G02*
X5050000Y11400000I0J-125000D01*
G01*
G37*
G36*
G01*
X4250000Y11400000D02*
X4250000Y10150000D01*
G75*
G02*
X4125000Y10025000I-125000J0D01*
G01*
X3875000Y10025000D01*
G75*
G02*
X3750000Y10150000I0J125000D01*
G01*
X3750000Y11400000D01*
G75*
G02*
X3875000Y11525000I125000J0D01*
G01*
X4125000Y11525000D01*
G75*
G02*
X4250000Y11400000I0J-125000D01*
G01*
G37*
G36*
G01*
X3450000Y11400000D02*
X3450000Y10150000D01*
G75*
G02*
X3325000Y10025000I-125000J0D01*
G01*
X3075000Y10025000D01*
G75*
G02*
X2950000Y10150000I0J125000D01*
G01*
X2950000Y11400000D01*
G75*
G02*
X3075000Y11525000I125000J0D01*
G01*
X3325000Y11525000D01*
G75*
G02*
X3450000Y11400000I0J-125000D01*
G01*
G37*
G36*
G01*
X2650000Y11400000D02*
X2650000Y10150000D01*
G75*
G02*
X2525000Y10025000I-125000J0D01*
G01*
X2275000Y10025000D01*
G75*
G02*
X2150000Y10150000I0J125000D01*
G01*
X2150000Y11400000D01*
G75*
G02*
X2275000Y11525000I125000J0D01*
G01*
X2525000Y11525000D01*
G75*
G02*
X2650000Y11400000I0J-125000D01*
G01*
G37*
G36*
G01*
X1850000Y11400000D02*
X1850000Y10150000D01*
G75*
G02*
X1725000Y10025000I-125000J0D01*
G01*
X1475000Y10025000D01*
G75*
G02*
X1350000Y10150000I0J125000D01*
G01*
X1350000Y11400000D01*
G75*
G02*
X1475000Y11525000I125000J0D01*
G01*
X1725000Y11525000D01*
G75*
G02*
X1850000Y11400000I0J-125000D01*
G01*
G37*
G36*
G01*
X1050000Y11400000D02*
X1050000Y10150000D01*
G75*
G02*
X925000Y10025000I-125000J0D01*
G01*
X675000Y10025000D01*
G75*
G02*
X550000Y10150000I0J125000D01*
G01*
X550000Y11400000D01*
G75*
G02*
X675000Y11525000I125000J0D01*
G01*
X925000Y11525000D01*
G75*
G02*
X1050000Y11400000I0J-125000D01*
G01*
G37*
G36*
G01*
X250000Y11400000D02*
X250000Y10150000D01*
G75*
G02*
X125000Y10025000I-125000J0D01*
G01*
X-125000Y10025000D01*
G75*
G02*
X-250000Y10150000I0J125000D01*
G01*
X-250000Y11400000D01*
G75*
G02*
X-125000Y11525000I125000J0D01*
G01*
X125000Y11525000D01*
G75*
G02*
X250000Y11400000I0J-125000D01*
G01*
G37*
G36*
G01*
X-625000Y9525000D02*
X-625000Y9275000D01*
G75*
G02*
X-750000Y9150000I-125000J0D01*
G01*
X-2000000Y9150000D01*
G75*
G02*
X-2125000Y9275000I0J125000D01*
G01*
X-2125000Y9525000D01*
G75*
G02*
X-2000000Y9650000I125000J0D01*
G01*
X-750000Y9650000D01*
G75*
G02*
X-625000Y9525000I0J-125000D01*
G01*
G37*
G36*
G01*
X-625000Y8725000D02*
X-625000Y8475000D01*
G75*
G02*
X-750000Y8350000I-125000J0D01*
G01*
X-2000000Y8350000D01*
G75*
G02*
X-2125000Y8475000I0J125000D01*
G01*
X-2125000Y8725000D01*
G75*
G02*
X-2000000Y8850000I125000J0D01*
G01*
X-750000Y8850000D01*
G75*
G02*
X-625000Y8725000I0J-125000D01*
G01*
G37*
G36*
G01*
X-625000Y7925000D02*
X-625000Y7675000D01*
G75*
G02*
X-750000Y7550000I-125000J0D01*
G01*
X-2000000Y7550000D01*
G75*
G02*
X-2125000Y7675000I0J125000D01*
G01*
X-2125000Y7925000D01*
G75*
G02*
X-2000000Y8050000I125000J0D01*
G01*
X-750000Y8050000D01*
G75*
G02*
X-625000Y7925000I0J-125000D01*
G01*
G37*
G36*
G01*
X-625000Y7125000D02*
X-625000Y6875000D01*
G75*
G02*
X-750000Y6750000I-125000J0D01*
G01*
X-2000000Y6750000D01*
G75*
G02*
X-2125000Y6875000I0J125000D01*
G01*
X-2125000Y7125000D01*
G75*
G02*
X-2000000Y7250000I125000J0D01*
G01*
X-750000Y7250000D01*
G75*
G02*
X-625000Y7125000I0J-125000D01*
G01*
G37*
G36*
G01*
X-625000Y6325000D02*
X-625000Y6075000D01*
G75*
G02*
X-750000Y5950000I-125000J0D01*
G01*
X-2000000Y5950000D01*
G75*
G02*
X-2125000Y6075000I0J125000D01*
G01*
X-2125000Y6325000D01*
G75*
G02*
X-2000000Y6450000I125000J0D01*
G01*
X-750000Y6450000D01*
G75*
G02*
X-625000Y6325000I0J-125000D01*
G01*
G37*
G36*
G01*
X-625000Y5525000D02*
X-625000Y5275000D01*
G75*
G02*
X-750000Y5150000I-125000J0D01*
G01*
X-2000000Y5150000D01*
G75*
G02*
X-2125000Y5275000I0J125000D01*
G01*
X-2125000Y5525000D01*
G75*
G02*
X-2000000Y5650000I125000J0D01*
G01*
X-750000Y5650000D01*
G75*
G02*
X-625000Y5525000I0J-125000D01*
G01*
G37*
G36*
G01*
X-625000Y4725000D02*
X-625000Y4475000D01*
G75*
G02*
X-750000Y4350000I-125000J0D01*
G01*
X-2000000Y4350000D01*
G75*
G02*
X-2125000Y4475000I0J125000D01*
G01*
X-2125000Y4725000D01*
G75*
G02*
X-2000000Y4850000I125000J0D01*
G01*
X-750000Y4850000D01*
G75*
G02*
X-625000Y4725000I0J-125000D01*
G01*
G37*
G36*
G01*
X-625000Y3925000D02*
X-625000Y3675000D01*
G75*
G02*
X-750000Y3550000I-125000J0D01*
G01*
X-2000000Y3550000D01*
G75*
G02*
X-2125000Y3675000I0J125000D01*
G01*
X-2125000Y3925000D01*
G75*
G02*
X-2000000Y4050000I125000J0D01*
G01*
X-750000Y4050000D01*
G75*
G02*
X-625000Y3925000I0J-125000D01*
G01*
G37*
G36*
G01*
X250000Y3050000D02*
X250000Y1800000D01*
G75*
G02*
X125000Y1675000I-125000J0D01*
G01*
X-125000Y1675000D01*
G75*
G02*
X-250000Y1800000I0J125000D01*
G01*
X-250000Y3050000D01*
G75*
G02*
X-125000Y3175000I125000J0D01*
G01*
X125000Y3175000D01*
G75*
G02*
X250000Y3050000I0J-125000D01*
G01*
G37*
G36*
G01*
X1050000Y3050000D02*
X1050000Y1800000D01*
G75*
G02*
X925000Y1675000I-125000J0D01*
G01*
X675000Y1675000D01*
G75*
G02*
X550000Y1800000I0J125000D01*
G01*
X550000Y3050000D01*
G75*
G02*
X675000Y3175000I125000J0D01*
G01*
X925000Y3175000D01*
G75*
G02*
X1050000Y3050000I0J-125000D01*
G01*
G37*
G36*
G01*
X1850000Y3050000D02*
X1850000Y1800000D01*
G75*
G02*
X1725000Y1675000I-125000J0D01*
G01*
X1475000Y1675000D01*
G75*
G02*
X1350000Y1800000I0J125000D01*
G01*
X1350000Y3050000D01*
G75*
G02*
X1475000Y3175000I125000J0D01*
G01*
X1725000Y3175000D01*
G75*
G02*
X1850000Y3050000I0J-125000D01*
G01*
G37*
G36*
G01*
X2650000Y3050000D02*
X2650000Y1800000D01*
G75*
G02*
X2525000Y1675000I-125000J0D01*
G01*
X2275000Y1675000D01*
G75*
G02*
X2150000Y1800000I0J125000D01*
G01*
X2150000Y3050000D01*
G75*
G02*
X2275000Y3175000I125000J0D01*
G01*
X2525000Y3175000D01*
G75*
G02*
X2650000Y3050000I0J-125000D01*
G01*
G37*
G36*
G01*
X3450000Y3050000D02*
X3450000Y1800000D01*
G75*
G02*
X3325000Y1675000I-125000J0D01*
G01*
X3075000Y1675000D01*
G75*
G02*
X2950000Y1800000I0J125000D01*
G01*
X2950000Y3050000D01*
G75*
G02*
X3075000Y3175000I125000J0D01*
G01*
X3325000Y3175000D01*
G75*
G02*
X3450000Y3050000I0J-125000D01*
G01*
G37*
G36*
G01*
X4250000Y3050000D02*
X4250000Y1800000D01*
G75*
G02*
X4125000Y1675000I-125000J0D01*
G01*
X3875000Y1675000D01*
G75*
G02*
X3750000Y1800000I0J125000D01*
G01*
X3750000Y3050000D01*
G75*
G02*
X3875000Y3175000I125000J0D01*
G01*
X4125000Y3175000D01*
G75*
G02*
X4250000Y3050000I0J-125000D01*
G01*
G37*
G36*
G01*
X5050000Y3050000D02*
X5050000Y1800000D01*
G75*
G02*
X4925000Y1675000I-125000J0D01*
G01*
X4675000Y1675000D01*
G75*
G02*
X4550000Y1800000I0J125000D01*
G01*
X4550000Y3050000D01*
G75*
G02*
X4675000Y3175000I125000J0D01*
G01*
X4925000Y3175000D01*
G75*
G02*
X5050000Y3050000I0J-125000D01*
G01*
G37*
G36*
G01*
X5850000Y3050000D02*
X5850000Y1800000D01*
G75*
G02*
X5725000Y1675000I-125000J0D01*
G01*
X5475000Y1675000D01*
G75*
G02*
X5350000Y1800000I0J125000D01*
G01*
X5350000Y3050000D01*
G75*
G02*
X5475000Y3175000I125000J0D01*
G01*
X5725000Y3175000D01*
G75*
G02*
X5850000Y3050000I0J-125000D01*
G01*
G37*
G36*
G01*
X7725000Y3925000D02*
X7725000Y3675000D01*
G75*
G02*
X7600000Y3550000I-125000J0D01*
G01*
X6350000Y3550000D01*
G75*
G02*
X6225000Y3675000I0J125000D01*
G01*
X6225000Y3925000D01*
G75*
G02*
X6350000Y4050000I125000J0D01*
G01*
X7600000Y4050000D01*
G75*
G02*
X7725000Y3925000I0J-125000D01*
G01*
G37*
G36*
G01*
X7725000Y4725000D02*
X7725000Y4475000D01*
G75*
G02*
X7600000Y4350000I-125000J0D01*
G01*
X6350000Y4350000D01*
G75*
G02*
X6225000Y4475000I0J125000D01*
G01*
X6225000Y4725000D01*
G75*
G02*
X6350000Y4850000I125000J0D01*
G01*
X7600000Y4850000D01*
G75*
G02*
X7725000Y4725000I0J-125000D01*
G01*
G37*
G36*
G01*
X7725000Y5525000D02*
X7725000Y5275000D01*
G75*
G02*
X7600000Y5150000I-125000J0D01*
G01*
X6350000Y5150000D01*
G75*
G02*
X6225000Y5275000I0J125000D01*
G01*
X6225000Y5525000D01*
G75*
G02*
X6350000Y5650000I125000J0D01*
G01*
X7600000Y5650000D01*
G75*
G02*
X7725000Y5525000I0J-125000D01*
G01*
G37*
G36*
G01*
X7725000Y6325000D02*
X7725000Y6075000D01*
G75*
G02*
X7600000Y5950000I-125000J0D01*
G01*
X6350000Y5950000D01*
G75*
G02*
X6225000Y6075000I0J125000D01*
G01*
X6225000Y6325000D01*
G75*
G02*
X6350000Y6450000I125000J0D01*
G01*
X7600000Y6450000D01*
G75*
G02*
X7725000Y6325000I0J-125000D01*
G01*
G37*
G36*
G01*
X7725000Y7125000D02*
X7725000Y6875000D01*
G75*
G02*
X7600000Y6750000I-125000J0D01*
G01*
X6350000Y6750000D01*
G75*
G02*
X6225000Y6875000I0J125000D01*
G01*
X6225000Y7125000D01*
G75*
G02*
X6350000Y7250000I125000J0D01*
G01*
X7600000Y7250000D01*
G75*
G02*
X7725000Y7125000I0J-125000D01*
G01*
G37*
G36*
G01*
X7725000Y7925000D02*
X7725000Y7675000D01*
G75*
G02*
X7600000Y7550000I-125000J0D01*
G01*
X6350000Y7550000D01*
G75*
G02*
X6225000Y7675000I0J125000D01*
G01*
X6225000Y7925000D01*
G75*
G02*
X6350000Y8050000I125000J0D01*
G01*
X7600000Y8050000D01*
G75*
G02*
X7725000Y7925000I0J-125000D01*
G01*
G37*
G36*
G01*
X7725000Y8725000D02*
X7725000Y8475000D01*
G75*
G02*
X7600000Y8350000I-125000J0D01*
G01*
X6350000Y8350000D01*
G75*
G02*
X6225000Y8475000I0J125000D01*
G01*
X6225000Y8725000D01*
G75*
G02*
X6350000Y8850000I125000J0D01*
G01*
X7600000Y8850000D01*
G75*
G02*
X7725000Y8725000I0J-125000D01*
G01*
G37*
G36*
G01*
X7725000Y9525000D02*
X7725000Y9275000D01*
G75*
G02*
X7600000Y9150000I-125000J0D01*
G01*
X6350000Y9150000D01*
G75*
G02*
X6225000Y9275000I0J125000D01*
G01*
X6225000Y9525000D01*
G75*
G02*
X6350000Y9650000I125000J0D01*
G01*
X7600000Y9650000D01*
G75*
G02*
X7725000Y9525000I0J-125000D01*
G01*
G37*
%TD*%
D10*
%TO.C,U2*%
X11700000Y-4600000D03*
X11200000Y-4600000D03*
X10700000Y-4600000D03*
X10200000Y-4600000D03*
X9700000Y-4600000D03*
X9700000Y-9000000D03*
X10200000Y-9000000D03*
X10700000Y-9000000D03*
X11200000Y-9000000D03*
X11700000Y-9000000D03*
%TD*%
D11*
%TO.C,U1*%
X5800000Y-3500000D03*
X3800000Y-2550000D03*
X3800000Y-4450000D03*
%TD*%
D12*
%TO.C,SW4*%
X20500000Y-3500000D03*
X16000000Y-3500000D03*
X20500000Y3000000D03*
X16000000Y3000000D03*
%TD*%
%TO.C,SW3*%
X16000000Y12500000D03*
X20500000Y12500000D03*
X16000000Y6000000D03*
X20500000Y6000000D03*
%TD*%
%TO.C,SW2*%
X-16000000Y-3500000D03*
X-20500000Y-3500000D03*
X-16000000Y3000000D03*
X-20500000Y3000000D03*
%TD*%
%TO.C,SW1*%
X-20500000Y12500000D03*
X-16000000Y12500000D03*
X-20500000Y6000000D03*
X-16000000Y6000000D03*
%TD*%
%TO.C,R15*%
G36*
G01*
X-13125000Y9625000D02*
X-13675000Y9625000D01*
G75*
G02*
X-13875000Y9825000I0J200000D01*
G01*
X-13875000Y10225000D01*
G75*
G02*
X-13675000Y10425000I200000J0D01*
G01*
X-13125000Y10425000D01*
G75*
G02*
X-12925000Y10225000I0J-200000D01*
G01*
X-12925000Y9825000D01*
G75*
G02*
X-13125000Y9625000I-200000J0D01*
G01*
G37*
G36*
G01*
X-13125000Y7975000D02*
X-13675000Y7975000D01*
G75*
G02*
X-13875000Y8175000I0J200000D01*
G01*
X-13875000Y8575000D01*
G75*
G02*
X-13675000Y8775000I200000J0D01*
G01*
X-13125000Y8775000D01*
G75*
G02*
X-12925000Y8575000I0J-200000D01*
G01*
X-12925000Y8175000D01*
G75*
G02*
X-13125000Y7975000I-200000J0D01*
G01*
G37*
%TD*%
%TO.C,R14*%
G36*
G01*
X-5075000Y10775000D02*
X-4525000Y10775000D01*
G75*
G02*
X-4325000Y10575000I0J-200000D01*
G01*
X-4325000Y10175000D01*
G75*
G02*
X-4525000Y9975000I-200000J0D01*
G01*
X-5075000Y9975000D01*
G75*
G02*
X-5275000Y10175000I0J200000D01*
G01*
X-5275000Y10575000D01*
G75*
G02*
X-5075000Y10775000I200000J0D01*
G01*
G37*
G36*
G01*
X-5075000Y12425000D02*
X-4525000Y12425000D01*
G75*
G02*
X-4325000Y12225000I0J-200000D01*
G01*
X-4325000Y11825000D01*
G75*
G02*
X-4525000Y11625000I-200000J0D01*
G01*
X-5075000Y11625000D01*
G75*
G02*
X-5275000Y11825000I0J200000D01*
G01*
X-5275000Y12225000D01*
G75*
G02*
X-5075000Y12425000I200000J0D01*
G01*
G37*
%TD*%
%TO.C,R13*%
G36*
G01*
X-10775000Y4225000D02*
X-10775000Y4775000D01*
G75*
G02*
X-10575000Y4975000I200000J0D01*
G01*
X-10175000Y4975000D01*
G75*
G02*
X-9975000Y4775000I0J-200000D01*
G01*
X-9975000Y4225000D01*
G75*
G02*
X-10175000Y4025000I-200000J0D01*
G01*
X-10575000Y4025000D01*
G75*
G02*
X-10775000Y4225000I0J200000D01*
G01*
G37*
G36*
G01*
X-12425000Y4225000D02*
X-12425000Y4775000D01*
G75*
G02*
X-12225000Y4975000I200000J0D01*
G01*
X-11825000Y4975000D01*
G75*
G02*
X-11625000Y4775000I0J-200000D01*
G01*
X-11625000Y4225000D01*
G75*
G02*
X-11825000Y4025000I-200000J0D01*
G01*
X-12225000Y4025000D01*
G75*
G02*
X-12425000Y4225000I0J200000D01*
G01*
G37*
%TD*%
%TO.C,R12*%
G36*
G01*
X-6875000Y4225000D02*
X-6875000Y4775000D01*
G75*
G02*
X-6675000Y4975000I200000J0D01*
G01*
X-6275000Y4975000D01*
G75*
G02*
X-6075000Y4775000I0J-200000D01*
G01*
X-6075000Y4225000D01*
G75*
G02*
X-6275000Y4025000I-200000J0D01*
G01*
X-6675000Y4025000D01*
G75*
G02*
X-6875000Y4225000I0J200000D01*
G01*
G37*
G36*
G01*
X-8525000Y4225000D02*
X-8525000Y4775000D01*
G75*
G02*
X-8325000Y4975000I200000J0D01*
G01*
X-7925000Y4975000D01*
G75*
G02*
X-7725000Y4775000I0J-200000D01*
G01*
X-7725000Y4225000D01*
G75*
G02*
X-7925000Y4025000I-200000J0D01*
G01*
X-8325000Y4025000D01*
G75*
G02*
X-8525000Y4225000I0J200000D01*
G01*
G37*
%TD*%
%TO.C,R11*%
G36*
G01*
X9725000Y-2775000D02*
X9725000Y-2225000D01*
G75*
G02*
X9925000Y-2025000I200000J0D01*
G01*
X10325000Y-2025000D01*
G75*
G02*
X10525000Y-2225000I0J-200000D01*
G01*
X10525000Y-2775000D01*
G75*
G02*
X10325000Y-2975000I-200000J0D01*
G01*
X9925000Y-2975000D01*
G75*
G02*
X9725000Y-2775000I0J200000D01*
G01*
G37*
G36*
G01*
X8075000Y-2775000D02*
X8075000Y-2225000D01*
G75*
G02*
X8275000Y-2025000I200000J0D01*
G01*
X8675000Y-2025000D01*
G75*
G02*
X8875000Y-2225000I0J-200000D01*
G01*
X8875000Y-2775000D01*
G75*
G02*
X8675000Y-2975000I-200000J0D01*
G01*
X8275000Y-2975000D01*
G75*
G02*
X8075000Y-2775000I0J200000D01*
G01*
G37*
%TD*%
%TO.C,R10*%
G36*
G01*
X12175000Y-2225000D02*
X12175000Y-2775000D01*
G75*
G02*
X11975000Y-2975000I-200000J0D01*
G01*
X11575000Y-2975000D01*
G75*
G02*
X11375000Y-2775000I0J200000D01*
G01*
X11375000Y-2225000D01*
G75*
G02*
X11575000Y-2025000I200000J0D01*
G01*
X11975000Y-2025000D01*
G75*
G02*
X12175000Y-2225000I0J-200000D01*
G01*
G37*
G36*
G01*
X13825000Y-2225000D02*
X13825000Y-2775000D01*
G75*
G02*
X13625000Y-2975000I-200000J0D01*
G01*
X13225000Y-2975000D01*
G75*
G02*
X13025000Y-2775000I0J200000D01*
G01*
X13025000Y-2225000D01*
G75*
G02*
X13225000Y-2025000I200000J0D01*
G01*
X13625000Y-2025000D01*
G75*
G02*
X13825000Y-2225000I0J-200000D01*
G01*
G37*
%TD*%
%TO.C,R9*%
G36*
G01*
X10425000Y3725000D02*
X10425000Y4275000D01*
G75*
G02*
X10625000Y4475000I200000J0D01*
G01*
X11025000Y4475000D01*
G75*
G02*
X11225000Y4275000I0J-200000D01*
G01*
X11225000Y3725000D01*
G75*
G02*
X11025000Y3525000I-200000J0D01*
G01*
X10625000Y3525000D01*
G75*
G02*
X10425000Y3725000I0J200000D01*
G01*
G37*
G36*
G01*
X8775000Y3725000D02*
X8775000Y4275000D01*
G75*
G02*
X8975000Y4475000I200000J0D01*
G01*
X9375000Y4475000D01*
G75*
G02*
X9575000Y4275000I0J-200000D01*
G01*
X9575000Y3725000D01*
G75*
G02*
X9375000Y3525000I-200000J0D01*
G01*
X8975000Y3525000D01*
G75*
G02*
X8775000Y3725000I0J200000D01*
G01*
G37*
%TD*%
%TO.C,R8*%
G36*
G01*
X17225000Y525000D02*
X17225000Y1075000D01*
G75*
G02*
X17425000Y1275000I200000J0D01*
G01*
X17825000Y1275000D01*
G75*
G02*
X18025000Y1075000I0J-200000D01*
G01*
X18025000Y525000D01*
G75*
G02*
X17825000Y325000I-200000J0D01*
G01*
X17425000Y325000D01*
G75*
G02*
X17225000Y525000I0J200000D01*
G01*
G37*
G36*
G01*
X15575000Y525000D02*
X15575000Y1075000D01*
G75*
G02*
X15775000Y1275000I200000J0D01*
G01*
X16175000Y1275000D01*
G75*
G02*
X16375000Y1075000I0J-200000D01*
G01*
X16375000Y525000D01*
G75*
G02*
X16175000Y325000I-200000J0D01*
G01*
X15775000Y325000D01*
G75*
G02*
X15575000Y525000I0J200000D01*
G01*
G37*
%TD*%
%TO.C,R7*%
G36*
G01*
X20325000Y-12975000D02*
X20325000Y-12425000D01*
G75*
G02*
X20525000Y-12225000I200000J0D01*
G01*
X20925000Y-12225000D01*
G75*
G02*
X21125000Y-12425000I0J-200000D01*
G01*
X21125000Y-12975000D01*
G75*
G02*
X20925000Y-13175000I-200000J0D01*
G01*
X20525000Y-13175000D01*
G75*
G02*
X20325000Y-12975000I0J200000D01*
G01*
G37*
G36*
G01*
X18675000Y-12975000D02*
X18675000Y-12425000D01*
G75*
G02*
X18875000Y-12225000I200000J0D01*
G01*
X19275000Y-12225000D01*
G75*
G02*
X19475000Y-12425000I0J-200000D01*
G01*
X19475000Y-12975000D01*
G75*
G02*
X19275000Y-13175000I-200000J0D01*
G01*
X18875000Y-13175000D01*
G75*
G02*
X18675000Y-12975000I0J200000D01*
G01*
G37*
%TD*%
%TO.C,R6*%
G36*
G01*
X3525000Y16775000D02*
X4075000Y16775000D01*
G75*
G02*
X4275000Y16575000I0J-200000D01*
G01*
X4275000Y16175000D01*
G75*
G02*
X4075000Y15975000I-200000J0D01*
G01*
X3525000Y15975000D01*
G75*
G02*
X3325000Y16175000I0J200000D01*
G01*
X3325000Y16575000D01*
G75*
G02*
X3525000Y16775000I200000J0D01*
G01*
G37*
G36*
G01*
X3525000Y18425000D02*
X4075000Y18425000D01*
G75*
G02*
X4275000Y18225000I0J-200000D01*
G01*
X4275000Y17825000D01*
G75*
G02*
X4075000Y17625000I-200000J0D01*
G01*
X3525000Y17625000D01*
G75*
G02*
X3325000Y17825000I0J200000D01*
G01*
X3325000Y18225000D01*
G75*
G02*
X3525000Y18425000I200000J0D01*
G01*
G37*
%TD*%
%TO.C,R5*%
G36*
G01*
X8975000Y-11475000D02*
X8975000Y-12025000D01*
G75*
G02*
X8775000Y-12225000I-200000J0D01*
G01*
X8375000Y-12225000D01*
G75*
G02*
X8175000Y-12025000I0J200000D01*
G01*
X8175000Y-11475000D01*
G75*
G02*
X8375000Y-11275000I200000J0D01*
G01*
X8775000Y-11275000D01*
G75*
G02*
X8975000Y-11475000I0J-200000D01*
G01*
G37*
G36*
G01*
X10625000Y-11475000D02*
X10625000Y-12025000D01*
G75*
G02*
X10425000Y-12225000I-200000J0D01*
G01*
X10025000Y-12225000D01*
G75*
G02*
X9825000Y-12025000I0J200000D01*
G01*
X9825000Y-11475000D01*
G75*
G02*
X10025000Y-11275000I200000J0D01*
G01*
X10425000Y-11275000D01*
G75*
G02*
X10625000Y-11475000I0J-200000D01*
G01*
G37*
%TD*%
%TO.C,R4*%
G36*
G01*
X17225000Y10025000D02*
X17225000Y10575000D01*
G75*
G02*
X17425000Y10775000I200000J0D01*
G01*
X17825000Y10775000D01*
G75*
G02*
X18025000Y10575000I0J-200000D01*
G01*
X18025000Y10025000D01*
G75*
G02*
X17825000Y9825000I-200000J0D01*
G01*
X17425000Y9825000D01*
G75*
G02*
X17225000Y10025000I0J200000D01*
G01*
G37*
G36*
G01*
X15575000Y10025000D02*
X15575000Y10575000D01*
G75*
G02*
X15775000Y10775000I200000J0D01*
G01*
X16175000Y10775000D01*
G75*
G02*
X16375000Y10575000I0J-200000D01*
G01*
X16375000Y10025000D01*
G75*
G02*
X16175000Y9825000I-200000J0D01*
G01*
X15775000Y9825000D01*
G75*
G02*
X15575000Y10025000I0J200000D01*
G01*
G37*
%TD*%
%TO.C,R3*%
G36*
G01*
X985000Y16775000D02*
X1535000Y16775000D01*
G75*
G02*
X1735000Y16575000I0J-200000D01*
G01*
X1735000Y16175000D01*
G75*
G02*
X1535000Y15975000I-200000J0D01*
G01*
X985000Y15975000D01*
G75*
G02*
X785000Y16175000I0J200000D01*
G01*
X785000Y16575000D01*
G75*
G02*
X985000Y16775000I200000J0D01*
G01*
G37*
G36*
G01*
X985000Y18425000D02*
X1535000Y18425000D01*
G75*
G02*
X1735000Y18225000I0J-200000D01*
G01*
X1735000Y17825000D01*
G75*
G02*
X1535000Y17625000I-200000J0D01*
G01*
X985000Y17625000D01*
G75*
G02*
X785000Y17825000I0J200000D01*
G01*
X785000Y18225000D01*
G75*
G02*
X985000Y18425000I200000J0D01*
G01*
G37*
%TD*%
%TO.C,R2*%
G36*
G01*
X-17225000Y1075000D02*
X-17225000Y525000D01*
G75*
G02*
X-17425000Y325000I-200000J0D01*
G01*
X-17825000Y325000D01*
G75*
G02*
X-18025000Y525000I0J200000D01*
G01*
X-18025000Y1075000D01*
G75*
G02*
X-17825000Y1275000I200000J0D01*
G01*
X-17425000Y1275000D01*
G75*
G02*
X-17225000Y1075000I0J-200000D01*
G01*
G37*
G36*
G01*
X-15575000Y1075000D02*
X-15575000Y525000D01*
G75*
G02*
X-15775000Y325000I-200000J0D01*
G01*
X-16175000Y325000D01*
G75*
G02*
X-16375000Y525000I0J200000D01*
G01*
X-16375000Y1075000D01*
G75*
G02*
X-16175000Y1275000I200000J0D01*
G01*
X-15775000Y1275000D01*
G75*
G02*
X-15575000Y1075000I0J-200000D01*
G01*
G37*
%TD*%
%TO.C,R1*%
G36*
G01*
X-17225000Y10575000D02*
X-17225000Y10025000D01*
G75*
G02*
X-17425000Y9825000I-200000J0D01*
G01*
X-17825000Y9825000D01*
G75*
G02*
X-18025000Y10025000I0J200000D01*
G01*
X-18025000Y10575000D01*
G75*
G02*
X-17825000Y10775000I200000J0D01*
G01*
X-17425000Y10775000D01*
G75*
G02*
X-17225000Y10575000I0J-200000D01*
G01*
G37*
G36*
G01*
X-15575000Y10575000D02*
X-15575000Y10025000D01*
G75*
G02*
X-15775000Y9825000I-200000J0D01*
G01*
X-16175000Y9825000D01*
G75*
G02*
X-16375000Y10025000I0J200000D01*
G01*
X-16375000Y10575000D01*
G75*
G02*
X-16175000Y10775000I200000J0D01*
G01*
X-15775000Y10775000D01*
G75*
G02*
X-15575000Y10575000I0J-200000D01*
G01*
G37*
%TD*%
D11*
%TO.C,Q3*%
X-8600000Y11200000D03*
X-6600000Y10250000D03*
X-6600000Y12150000D03*
%TD*%
D13*
%TO.C,Q2*%
X-11200000Y700000D03*
X-10250000Y2700000D03*
X-12150000Y2700000D03*
%TD*%
%TO.C,Q1*%
X-7300000Y700000D03*
X-6350000Y2700000D03*
X-8250000Y2700000D03*
%TD*%
D14*
%TO.C,J6*%
X-18765000Y-16700000D03*
X-14955000Y-16700000D03*
%TD*%
%TO.C,J5*%
X-11145000Y-16700000D03*
X-7335000Y-16700000D03*
%TD*%
%TO.C,J4*%
X-3525000Y-16700000D03*
X285000Y-16700000D03*
%TD*%
D15*
%TO.C,J3*%
X13260000Y20200000D03*
X10720000Y20200000D03*
X8180000Y20200000D03*
X5640000Y20200000D03*
D16*
X3100000Y20200000D03*
%TD*%
D17*
%TO.C,J2*%
X12750000Y-14555000D03*
X13550000Y-14555000D03*
X18450000Y-14555000D03*
X19250000Y-14555000D03*
X19250000Y-14555000D03*
X18450000Y-14555000D03*
X13550000Y-14555000D03*
X12750000Y-14555000D03*
D18*
X17750000Y-14555000D03*
X17250000Y-14555000D03*
X16750000Y-14555000D03*
X15750000Y-14555000D03*
X15250000Y-14555000D03*
X14750000Y-14555000D03*
X14250000Y-14555000D03*
X16250000Y-14555000D03*
D19*
X11680000Y-15470000D03*
X20320000Y-15470000D03*
D20*
X18890000Y-16000000D03*
D21*
X20320000Y-19650000D03*
D20*
X13110000Y-16000000D03*
D21*
X11680000Y-19650000D03*
%TD*%
D14*
%TO.C,J1*%
X4095000Y-16700000D03*
X7905000Y-16700000D03*
%TD*%
D22*
%TO.C,DS1*%
X-10250000Y-8880000D03*
X10250000Y14120000D03*
D23*
X-3810000Y14620000D03*
X-1270000Y14620000D03*
X1270000Y14620000D03*
X3810000Y14620000D03*
%TD*%
%TO.C,D5*%
G36*
G01*
X-14000000Y11595000D02*
X-14000000Y12205000D01*
G75*
G02*
X-13695000Y12510000I305000J0D01*
G01*
X-13055000Y12510000D01*
G75*
G02*
X-12750000Y12205000I0J-305000D01*
G01*
X-12750000Y11595000D01*
G75*
G02*
X-13055000Y11290000I-305000J0D01*
G01*
X-13695000Y11290000D01*
G75*
G02*
X-14000000Y11595000I0J305000D01*
G01*
G37*
G36*
G01*
X-11050000Y11595000D02*
X-11050000Y12205000D01*
G75*
G02*
X-10745000Y12510000I305000J0D01*
G01*
X-10105000Y12510000D01*
G75*
G02*
X-9800000Y12205000I0J-305000D01*
G01*
X-9800000Y11595000D01*
G75*
G02*
X-10105000Y11290000I-305000J0D01*
G01*
X-10745000Y11290000D01*
G75*
G02*
X-11050000Y11595000I0J305000D01*
G01*
G37*
%TD*%
%TO.C,D4*%
G36*
G01*
X-11595000Y-4800000D02*
X-12205000Y-4800000D01*
G75*
G02*
X-12510000Y-4495000I0J305000D01*
G01*
X-12510000Y-3855000D01*
G75*
G02*
X-12205000Y-3550000I305000J0D01*
G01*
X-11595000Y-3550000D01*
G75*
G02*
X-11290000Y-3855000I0J-305000D01*
G01*
X-11290000Y-4495000D01*
G75*
G02*
X-11595000Y-4800000I-305000J0D01*
G01*
G37*
G36*
G01*
X-11595000Y-1850000D02*
X-12205000Y-1850000D01*
G75*
G02*
X-12510000Y-1545000I0J305000D01*
G01*
X-12510000Y-905000D01*
G75*
G02*
X-12205000Y-600000I305000J0D01*
G01*
X-11595000Y-600000D01*
G75*
G02*
X-11290000Y-905000I0J-305000D01*
G01*
X-11290000Y-1545000D01*
G75*
G02*
X-11595000Y-1850000I-305000J0D01*
G01*
G37*
%TD*%
%TO.C,D3*%
G36*
G01*
X-7695000Y-4800000D02*
X-8305000Y-4800000D01*
G75*
G02*
X-8610000Y-4495000I0J305000D01*
G01*
X-8610000Y-3855000D01*
G75*
G02*
X-8305000Y-3550000I305000J0D01*
G01*
X-7695000Y-3550000D01*
G75*
G02*
X-7390000Y-3855000I0J-305000D01*
G01*
X-7390000Y-4495000D01*
G75*
G02*
X-7695000Y-4800000I-305000J0D01*
G01*
G37*
G36*
G01*
X-7695000Y-1850000D02*
X-8305000Y-1850000D01*
G75*
G02*
X-8610000Y-1545000I0J305000D01*
G01*
X-8610000Y-905000D01*
G75*
G02*
X-8305000Y-600000I305000J0D01*
G01*
X-7695000Y-600000D01*
G75*
G02*
X-7390000Y-905000I0J-305000D01*
G01*
X-7390000Y-1545000D01*
G75*
G02*
X-7695000Y-1850000I-305000J0D01*
G01*
G37*
%TD*%
%TO.C,D2*%
G36*
G01*
X3295000Y-8100000D02*
X3905000Y-8100000D01*
G75*
G02*
X4210000Y-8405000I0J-305000D01*
G01*
X4210000Y-9045000D01*
G75*
G02*
X3905000Y-9350000I-305000J0D01*
G01*
X3295000Y-9350000D01*
G75*
G02*
X2990000Y-9045000I0J305000D01*
G01*
X2990000Y-8405000D01*
G75*
G02*
X3295000Y-8100000I305000J0D01*
G01*
G37*
G36*
G01*
X3295000Y-11050000D02*
X3905000Y-11050000D01*
G75*
G02*
X4210000Y-11355000I0J-305000D01*
G01*
X4210000Y-11995000D01*
G75*
G02*
X3905000Y-12300000I-305000J0D01*
G01*
X3295000Y-12300000D01*
G75*
G02*
X2990000Y-11995000I0J305000D01*
G01*
X2990000Y-11355000D01*
G75*
G02*
X3295000Y-11050000I305000J0D01*
G01*
G37*
%TD*%
%TO.C,D1*%
G36*
G01*
X5695000Y-8100000D02*
X6305000Y-8100000D01*
G75*
G02*
X6610000Y-8405000I0J-305000D01*
G01*
X6610000Y-9045000D01*
G75*
G02*
X6305000Y-9350000I-305000J0D01*
G01*
X5695000Y-9350000D01*
G75*
G02*
X5390000Y-9045000I0J305000D01*
G01*
X5390000Y-8405000D01*
G75*
G02*
X5695000Y-8100000I305000J0D01*
G01*
G37*
G36*
G01*
X5695000Y-11050000D02*
X6305000Y-11050000D01*
G75*
G02*
X6610000Y-11355000I0J-305000D01*
G01*
X6610000Y-11995000D01*
G75*
G02*
X6305000Y-12300000I-305000J0D01*
G01*
X5695000Y-12300000D01*
G75*
G02*
X5390000Y-11995000I0J305000D01*
G01*
X5390000Y-11355000D01*
G75*
G02*
X5695000Y-11050000I305000J0D01*
G01*
G37*
%TD*%
%TO.C,C7*%
G36*
G01*
X-5550000Y-10675000D02*
X-5050000Y-10675000D01*
G75*
G02*
X-4825000Y-10900000I0J-225000D01*
G01*
X-4825000Y-11350000D01*
G75*
G02*
X-5050000Y-11575000I-225000J0D01*
G01*
X-5550000Y-11575000D01*
G75*
G02*
X-5775000Y-11350000I0J225000D01*
G01*
X-5775000Y-10900000D01*
G75*
G02*
X-5550000Y-10675000I225000J0D01*
G01*
G37*
G36*
G01*
X-5550000Y-9125000D02*
X-5050000Y-9125000D01*
G75*
G02*
X-4825000Y-9350000I0J-225000D01*
G01*
X-4825000Y-9800000D01*
G75*
G02*
X-5050000Y-10025000I-225000J0D01*
G01*
X-5550000Y-10025000D01*
G75*
G02*
X-5775000Y-9800000I0J225000D01*
G01*
X-5775000Y-9350000D01*
G75*
G02*
X-5550000Y-9125000I225000J0D01*
G01*
G37*
%TD*%
%TO.C,C6*%
G36*
G01*
X13350000Y-7125000D02*
X13850000Y-7125000D01*
G75*
G02*
X14075000Y-7350000I0J-225000D01*
G01*
X14075000Y-7800000D01*
G75*
G02*
X13850000Y-8025000I-225000J0D01*
G01*
X13350000Y-8025000D01*
G75*
G02*
X13125000Y-7800000I0J225000D01*
G01*
X13125000Y-7350000D01*
G75*
G02*
X13350000Y-7125000I225000J0D01*
G01*
G37*
G36*
G01*
X13350000Y-5575000D02*
X13850000Y-5575000D01*
G75*
G02*
X14075000Y-5800000I0J-225000D01*
G01*
X14075000Y-6250000D01*
G75*
G02*
X13850000Y-6475000I-225000J0D01*
G01*
X13350000Y-6475000D01*
G75*
G02*
X13125000Y-6250000I0J225000D01*
G01*
X13125000Y-5800000D01*
G75*
G02*
X13350000Y-5575000I225000J0D01*
G01*
G37*
%TD*%
%TO.C,C5*%
G36*
G01*
X-1295000Y-12050000D02*
X-1295000Y-11550000D01*
G75*
G02*
X-1070000Y-11325000I225000J0D01*
G01*
X-620000Y-11325000D01*
G75*
G02*
X-395000Y-11550000I0J-225000D01*
G01*
X-395000Y-12050000D01*
G75*
G02*
X-620000Y-12275000I-225000J0D01*
G01*
X-1070000Y-12275000D01*
G75*
G02*
X-1295000Y-12050000I0J225000D01*
G01*
G37*
G36*
G01*
X-2845000Y-12050000D02*
X-2845000Y-11550000D01*
G75*
G02*
X-2620000Y-11325000I225000J0D01*
G01*
X-2170000Y-11325000D01*
G75*
G02*
X-1945000Y-11550000I0J-225000D01*
G01*
X-1945000Y-12050000D01*
G75*
G02*
X-2170000Y-12275000I-225000J0D01*
G01*
X-2620000Y-12275000D01*
G75*
G02*
X-2845000Y-12050000I0J225000D01*
G01*
G37*
%TD*%
%TO.C,C4*%
G36*
G01*
X8850000Y6275000D02*
X9350000Y6275000D01*
G75*
G02*
X9575000Y6050000I0J-225000D01*
G01*
X9575000Y5600000D01*
G75*
G02*
X9350000Y5375000I-225000J0D01*
G01*
X8850000Y5375000D01*
G75*
G02*
X8625000Y5600000I0J225000D01*
G01*
X8625000Y6050000D01*
G75*
G02*
X8850000Y6275000I225000J0D01*
G01*
G37*
G36*
G01*
X8850000Y7825000D02*
X9350000Y7825000D01*
G75*
G02*
X9575000Y7600000I0J-225000D01*
G01*
X9575000Y7150000D01*
G75*
G02*
X9350000Y6925000I-225000J0D01*
G01*
X8850000Y6925000D01*
G75*
G02*
X8625000Y7150000I0J225000D01*
G01*
X8625000Y7600000D01*
G75*
G02*
X8850000Y7825000I225000J0D01*
G01*
G37*
%TD*%
%TO.C,C3*%
G36*
G01*
X10650000Y6275000D02*
X11150000Y6275000D01*
G75*
G02*
X11375000Y6050000I0J-225000D01*
G01*
X11375000Y5600000D01*
G75*
G02*
X11150000Y5375000I-225000J0D01*
G01*
X10650000Y5375000D01*
G75*
G02*
X10425000Y5600000I0J225000D01*
G01*
X10425000Y6050000D01*
G75*
G02*
X10650000Y6275000I225000J0D01*
G01*
G37*
G36*
G01*
X10650000Y7825000D02*
X11150000Y7825000D01*
G75*
G02*
X11375000Y7600000I0J-225000D01*
G01*
X11375000Y7150000D01*
G75*
G02*
X11150000Y6925000I-225000J0D01*
G01*
X10650000Y6925000D01*
G75*
G02*
X10425000Y7150000I0J225000D01*
G01*
X10425000Y7600000D01*
G75*
G02*
X10650000Y7825000I225000J0D01*
G01*
G37*
%TD*%
%TO.C,C2*%
G36*
G01*
X4875000Y-1050000D02*
X4875000Y-550000D01*
G75*
G02*
X5100000Y-325000I225000J0D01*
G01*
X5550000Y-325000D01*
G75*
G02*
X5775000Y-550000I0J-225000D01*
G01*
X5775000Y-1050000D01*
G75*
G02*
X5550000Y-1275000I-225000J0D01*
G01*
X5100000Y-1275000D01*
G75*
G02*
X4875000Y-1050000I0J225000D01*
G01*
G37*
G36*
G01*
X3325000Y-1050000D02*
X3325000Y-550000D01*
G75*
G02*
X3550000Y-325000I225000J0D01*
G01*
X4000000Y-325000D01*
G75*
G02*
X4225000Y-550000I0J-225000D01*
G01*
X4225000Y-1050000D01*
G75*
G02*
X4000000Y-1275000I-225000J0D01*
G01*
X3550000Y-1275000D01*
G75*
G02*
X3325000Y-1050000I0J225000D01*
G01*
G37*
%TD*%
%TO.C,C1*%
G36*
G01*
X4875000Y-6450000D02*
X4875000Y-5950000D01*
G75*
G02*
X5100000Y-5725000I225000J0D01*
G01*
X5550000Y-5725000D01*
G75*
G02*
X5775000Y-5950000I0J-225000D01*
G01*
X5775000Y-6450000D01*
G75*
G02*
X5550000Y-6675000I-225000J0D01*
G01*
X5100000Y-6675000D01*
G75*
G02*
X4875000Y-6450000I0J225000D01*
G01*
G37*
G36*
G01*
X3325000Y-6450000D02*
X3325000Y-5950000D01*
G75*
G02*
X3550000Y-5725000I225000J0D01*
G01*
X4000000Y-5725000D01*
G75*
G02*
X4225000Y-5950000I0J-225000D01*
G01*
X4225000Y-6450000D01*
G75*
G02*
X4000000Y-6675000I-225000J0D01*
G01*
X3550000Y-6675000D01*
G75*
G02*
X3325000Y-6450000I0J225000D01*
G01*
G37*
%TD*%
%TO.C,BZ1*%
G36*
G01*
X-7195000Y14032500D02*
X-7195000Y14607500D01*
G75*
G02*
X-6907500Y14895000I287500J0D01*
G01*
X-5702500Y14895000D01*
G75*
G02*
X-5415000Y14607500I0J-287500D01*
G01*
X-5415000Y14032500D01*
G75*
G02*
X-5702500Y13745000I-287500J0D01*
G01*
X-6907500Y13745000D01*
G75*
G02*
X-7195000Y14032500I0J287500D01*
G01*
G37*
G36*
G01*
X-7195000Y19992500D02*
X-7195000Y20567500D01*
G75*
G02*
X-6907500Y20855000I287500J0D01*
G01*
X-5702500Y20855000D01*
G75*
G02*
X-5415000Y20567500I0J-287500D01*
G01*
X-5415000Y19992500D01*
G75*
G02*
X-5702500Y19705000I-287500J0D01*
G01*
X-6907500Y19705000D01*
G75*
G02*
X-7195000Y19992500I0J287500D01*
G01*
G37*
G36*
G01*
X-14785000Y19992500D02*
X-14785000Y20567500D01*
G75*
G02*
X-14497500Y20855000I287500J0D01*
G01*
X-13292500Y20855000D01*
G75*
G02*
X-13005000Y20567500I0J-287500D01*
G01*
X-13005000Y19992500D01*
G75*
G02*
X-13292500Y19705000I-287500J0D01*
G01*
X-14497500Y19705000D01*
G75*
G02*
X-14785000Y19992500I0J287500D01*
G01*
G37*
G36*
G01*
X-14785000Y14032500D02*
X-14785000Y14607500D01*
G75*
G02*
X-14497500Y14895000I287500J0D01*
G01*
X-13292500Y14895000D01*
G75*
G02*
X-13005000Y14607500I0J-287500D01*
G01*
X-13005000Y14032500D01*
G75*
G02*
X-13292500Y13745000I-287500J0D01*
G01*
X-14497500Y13745000D01*
G75*
G02*
X-14785000Y14032500I0J287500D01*
G01*
G37*
%TD*%
D24*
%TO.C,REF\u002A\u002A*%
X18250000Y-9000000D03*
%TD*%
%TO.C,REF\u002A\u002A*%
X18250000Y18250000D03*
%TD*%
%TO.C,REF\u002A\u002A*%
X-18250000Y18250000D03*
%TD*%
%TO.C,REF\u002A\u002A*%
X-18250000Y-9000000D03*
%TD*%
M02*
