M48
; DRILL file {KiCad 5.1.10} date Tue May  4 11:05:23 2021
; FORMAT={-:-/ absolute / metric / decimal}
; #@! TF.CreationDate,2021-05-04T11:05:23+02:00
; #@! TF.GenerationSoftware,Kicad,Pcbnew,5.1.10
FMAT,2
METRIC
T1C0.300
T2C0.600
T3C1.000
T4C1.020
T5C1.100
T6C1.300
T7C0.650
T8C2.700
T9C2.800
%
G90
G05
T1
X-21.4Y9.2
X-21.4Y-0.2
X-19.5Y20.5
X-19.5Y15.5
X-19.5Y8.0
X-19.5Y-7.0
X-19.5Y-12.0
X-19.5Y-19.5
X-18.35Y10.3
X-18.35Y0.8
X-13.4Y7.65
X-13.4Y7.05
X-12.0Y15.5
X-12.0Y10.5
X-10.6Y-20.6
X-10.4Y-12.4
X-10.275Y-4.175
X-10.25Y1.95
X-9.675Y-4.175
X-9.65Y4.5
X-9.55Y2.7
X-9.5Y20.5
X-7.35Y10.25
X-7.15Y-7.05
X-6.6Y9.55
X-6.6Y-13.4
X-6.55Y-7.05
X-6.35Y1.95
X-5.75Y4.5
X-5.65Y2.7
X-5.3Y-11.9
X-5.0Y-1.8
X-4.8Y9.65
X-3.4Y1.6
X-2.0Y20.5
X-2.0Y10.5
X-0.985Y-0.63
X-0.985Y-2.245
X0.25Y-8.3
X1.0Y6.2
X1.5Y8.0
X1.8Y4.2
X2.51Y7.0
X2.74Y9.43
X3.59Y9.43
X4.049Y5.399
X5.0Y9.0
X5.72Y5.4
X6.1Y-0.8
X6.1Y-6.2
X6.55Y-3.5
X7.0Y11.0
X7.85Y-11.75
X8.46Y9.78
X9.0Y2.0
X10.0Y9.0
X10.0Y6.1
X10.0Y5.5
X10.1Y-1.5
X10.7Y-7.8
X11.7Y6.1
X11.7Y5.5
X11.8Y-1.5
X12.95Y-13.3
X13.0Y15.5
X13.0Y2.2
X13.55Y-13.3
X13.6Y-8.35
X15.5Y20.5
X15.75Y-15.78
X16.95Y-15.78
X18.15Y-12.7
X18.15Y-13.3
X18.35Y10.3
X18.35Y0.8
X20.5Y20.5
X20.5Y15.5
X20.5Y-7.0
X20.75Y-13.5
X21.4Y9.4
X21.4Y-0.4
T3
X3.1Y20.2
X5.64Y20.2
X8.18Y20.2
X10.72Y20.2
X13.26Y20.2
T4
X-3.81Y14.62
X-1.27Y14.62
X1.27Y14.62
X3.81Y14.62
T5
X-20.5Y12.5
X-20.5Y6.0
X-20.5Y3.0
X-20.5Y-3.5
X-16.0Y12.5
X-16.0Y6.0
X-16.0Y3.0
X-16.0Y-3.5
X16.0Y12.5
X16.0Y6.0
X16.0Y3.0
X16.0Y-3.5
X20.5Y12.5
X20.5Y6.0
X20.5Y3.0
X20.5Y-3.5
T6
X-18.765Y-16.7
X-14.955Y-16.7
X-11.145Y-16.7
X-7.335Y-16.7
X-3.525Y-16.7
X0.285Y-16.7
X4.095Y-16.7
X7.905Y-16.7
T7
X13.11Y-16.0
X18.89Y-16.0
T8
X-18.25Y18.25
X-18.25Y-9.0
X18.25Y18.25
X18.25Y-9.0
T9
X-10.25Y-8.88
X10.25Y14.12
T2
G00X11.68Y-16.02
M15
G01X11.68Y-14.92
M16
G05
G00X11.68Y-19.95
M15
G01X11.68Y-19.35
M16
G05
G00X20.32Y-16.02
M15
G01X20.32Y-14.92
M16
G05
G00X20.32Y-19.95
M15
G01X20.32Y-19.35
M16
G05
T0
M30
