%TF.GenerationSoftware,KiCad,Pcbnew,5.1.10*%
%TF.CreationDate,2021-05-04T11:05:08+02:00*%
%TF.ProjectId,Mainboard,4d61696e-626f-4617-9264-2e6b69636164,rev?*%
%TF.SameCoordinates,Original*%
%TF.FileFunction,Copper,L1,Top*%
%TF.FilePolarity,Positive*%
%FSLAX46Y46*%
G04 Gerber Fmt 4.6, Leading zero omitted, Abs format (unit mm)*
G04 Created by KiCad (PCBNEW 5.1.10) date 2021-05-04 11:05:08*
%MOMM*%
%LPD*%
G01*
G04 APERTURE LIST*
%TA.AperFunction,ComponentPad*%
%ADD10C,2.000000*%
%TD*%
%TA.AperFunction,ComponentPad*%
%ADD11O,1.700000X3.000000*%
%TD*%
%TA.AperFunction,ComponentPad*%
%ADD12O,1.700000X1.700000*%
%TD*%
%TA.AperFunction,ComponentPad*%
%ADD13R,1.700000X1.700000*%
%TD*%
%TA.AperFunction,ComponentPad*%
%ADD14O,1.000000X2.100000*%
%TD*%
%TA.AperFunction,ComponentPad*%
%ADD15O,1.000000X1.600000*%
%TD*%
%TA.AperFunction,ComponentPad*%
%ADD16C,1.800000*%
%TD*%
%TA.AperFunction,ViaPad*%
%ADD17C,0.600000*%
%TD*%
%TA.AperFunction,Conductor*%
%ADD18C,0.500000*%
%TD*%
%TA.AperFunction,Conductor*%
%ADD19C,0.200000*%
%TD*%
%TA.AperFunction,Conductor*%
%ADD20C,0.100000*%
%TD*%
G04 APERTURE END LIST*
D10*
%TO.P,SW4,1*%
%TO.N,/3V3*%
X20500000Y-3500000D03*
%TO.P,SW4,2*%
%TO.N,/BTN_BACK*%
X16000000Y-3500000D03*
%TO.P,SW4,1*%
%TO.N,/3V3*%
X20500000Y3000000D03*
%TO.P,SW4,2*%
%TO.N,/BTN_BACK*%
X16000000Y3000000D03*
%TD*%
%TO.P,SW3,1*%
%TO.N,/BTN_OK*%
X16000000Y12500000D03*
%TO.P,SW3,2*%
%TO.N,/3V3*%
X20500000Y12500000D03*
%TO.P,SW3,1*%
%TO.N,/BTN_OK*%
X16000000Y6000000D03*
%TO.P,SW3,2*%
%TO.N,/3V3*%
X20500000Y6000000D03*
%TD*%
%TO.P,SW2,1*%
%TO.N,/BTN_DOWN*%
X-16000000Y-3500000D03*
%TO.P,SW2,2*%
%TO.N,/3V3*%
X-20500000Y-3500000D03*
%TO.P,SW2,1*%
%TO.N,/BTN_DOWN*%
X-16000000Y3000000D03*
%TO.P,SW2,2*%
%TO.N,/3V3*%
X-20500000Y3000000D03*
%TD*%
%TO.P,SW1,1*%
%TO.N,/3V3*%
X-20500000Y12500000D03*
%TO.P,SW1,2*%
%TO.N,/BTN_UP*%
X-16000000Y12500000D03*
%TO.P,SW1,1*%
%TO.N,/3V3*%
X-20500000Y6000000D03*
%TO.P,SW1,2*%
%TO.N,/BTN_UP*%
X-16000000Y6000000D03*
%TD*%
D11*
%TO.P,J6,2*%
%TO.N,/5V*%
X-18765000Y-16700000D03*
%TO.P,J6,1*%
%TO.N,/OUT_FAN-*%
X-14955000Y-16700000D03*
%TD*%
%TO.P,J5,2*%
%TO.N,/5V*%
X-11145000Y-16700000D03*
%TO.P,J5,1*%
%TO.N,/OUT_SSR-*%
X-7335000Y-16700000D03*
%TD*%
%TO.P,J4,2*%
%TO.N,/T+*%
X-3525000Y-16700000D03*
%TO.P,J4,1*%
%TO.N,/T-*%
X285000Y-16700000D03*
%TD*%
D12*
%TO.P,J3,5*%
%TO.N,/SWDIO*%
X13260000Y20200000D03*
%TO.P,J3,4*%
%TO.N,/BTN_BACK*%
X10720000Y20200000D03*
%TO.P,J3,3*%
%TO.N,/NRST*%
X8180000Y20200000D03*
%TO.P,J3,2*%
%TO.N,GND*%
X5640000Y20200000D03*
D13*
%TO.P,J3,1*%
%TO.N,/3V3*%
X3100000Y20200000D03*
%TD*%
D14*
%TO.P,J2,S1*%
%TO.N,GND*%
X11680000Y-15470000D03*
X20320000Y-15470000D03*
D15*
X20320000Y-19650000D03*
X11680000Y-19650000D03*
%TD*%
D11*
%TO.P,J1,2*%
%TO.N,/VIN*%
X4095000Y-16700000D03*
%TO.P,J1,1*%
%TO.N,GND*%
X7905000Y-16700000D03*
%TD*%
D16*
%TO.P,DS1,1*%
%TO.N,GND*%
X-3810000Y14620000D03*
%TO.P,DS1,2*%
%TO.N,/3V3*%
X-1270000Y14620000D03*
%TO.P,DS1,3*%
%TO.N,/I2C_SCL*%
X1270000Y14620000D03*
%TO.P,DS1,4*%
%TO.N,/I2C_SDA*%
X3810000Y14620000D03*
%TD*%
D17*
%TO.N,GND*%
X10000000Y5500000D03*
X10000000Y6100000D03*
X18350000Y800000D03*
X18350000Y10300000D03*
X-18350000Y10300000D03*
X-18350000Y800000D03*
X7850000Y-11750000D03*
X10700000Y-7800000D03*
X20750000Y-13500000D03*
X250000Y-8300000D03*
X6550000Y-3500000D03*
X-5750000Y4500000D03*
X-5650000Y2700000D03*
X-6350000Y1950000D03*
X-9650000Y4500000D03*
X-9550000Y2700000D03*
X-10250000Y1950000D03*
X-5300000Y-11900000D03*
X-6600000Y9550000D03*
X-7350000Y10250000D03*
X-4800000Y9650000D03*
X13600000Y-8350000D03*
X6100000Y-6200000D03*
X6100000Y-800000D03*
X11700000Y6100000D03*
X11700000Y5500000D03*
X20500000Y20500000D03*
X15500000Y20500000D03*
X-2000000Y20500000D03*
X-9500000Y20500000D03*
X-19500000Y20500000D03*
X-19500000Y15500000D03*
X-12000000Y15500000D03*
X13000000Y15500000D03*
X20500000Y15500000D03*
X-2000000Y10500000D03*
X-12000000Y10500000D03*
X-19500000Y8000000D03*
X-19500000Y-7000000D03*
X-19500000Y-12000000D03*
X-19500000Y-19500000D03*
X20500000Y-7000000D03*
X7000000Y11000000D03*
X10000000Y9000000D03*
X1500000Y8000000D03*
X1000000Y6200000D03*
X1800000Y4200000D03*
X5000000Y9000000D03*
X9000000Y2000000D03*
X13000000Y2200000D03*
X21400000Y9400000D03*
X21400000Y-400000D03*
X-21400000Y9200000D03*
X-21400000Y-200000D03*
X-10600000Y-20600000D03*
X-10400000Y-12400000D03*
X-6600000Y-13400000D03*
X-3400000Y1600000D03*
X-5000000Y-1800000D03*
%TO.N,/5V*%
X-9675000Y-4175000D03*
X-10275000Y-4175000D03*
X-13400000Y7650000D03*
X-13400000Y7050000D03*
%TO.N,/3V3*%
X-7150000Y-7050000D03*
X-6550000Y-7050000D03*
%TO.N,/VUSB*%
X18150000Y-13300000D03*
X18150000Y-12700000D03*
X13550000Y-13300000D03*
X12950000Y-13300000D03*
%TO.N,/USB_DM*%
X15750000Y-15780002D03*
X16950001Y-15780002D03*
%TO.N,/SWDIO*%
X3590000Y9430000D03*
%TO.N,/BTN_BACK*%
X2740000Y9430000D03*
%TO.N,/NRST*%
X5720000Y5400000D03*
%TO.N,/BTN_OK*%
X8460000Y9780000D03*
%TO.N,/MCU_TXD*%
X11800000Y-1500000D03*
X4049265Y5399265D03*
%TO.N,/MCU_RXD*%
X10100000Y-1500000D03*
X2510000Y7000000D03*
%TO.N,/SPI_MISO*%
X-985000Y-2245000D03*
X-985000Y-630000D03*
%TD*%
D18*
%TO.N,/5V*%
X-9675000Y-4175000D02*
X-11225000Y-4175000D01*
X-13400000Y-2000000D02*
X-11225000Y-4175000D01*
X-13400000Y7650000D02*
X-13400000Y-2000000D01*
%TO.N,/3V3*%
X-6550000Y-7050000D02*
X-7150000Y-7050000D01*
X-20500000Y-3500000D02*
X-18500000Y-5500000D01*
X-8700000Y-5500000D02*
X-8425000Y-5775000D01*
X-18500000Y-5500000D02*
X-8700000Y-5500000D01*
X-7150000Y-7050000D02*
X-8425000Y-5775000D01*
%TO.N,/VUSB*%
X18150000Y-13250000D02*
X18200000Y-13300000D01*
X18150000Y-12700000D02*
X18150000Y-13250000D01*
X18150000Y-14300000D02*
X18150000Y-12700000D01*
X18114999Y-14335001D02*
X18150000Y-14300000D01*
X18114999Y-16935001D02*
X18114999Y-14335001D01*
X17200000Y-17850000D02*
X18114999Y-16935001D01*
X14900000Y-17850000D02*
X17200000Y-17850000D01*
X13885001Y-16835001D02*
X14900000Y-17850000D01*
X13885001Y-13635001D02*
X13885001Y-16835001D01*
X13550000Y-13300000D02*
X13885001Y-13635001D01*
X12950000Y-13300000D02*
X13550000Y-13300000D01*
D19*
%TO.N,/USB_DM*%
X16950001Y-15780002D02*
X15750000Y-15780002D01*
%TO.N,/SWDIO*%
X13260000Y18980000D02*
X13260000Y20200000D01*
X12389990Y18109990D02*
X13260000Y18980000D01*
X8759989Y18109990D02*
X12389990Y18109990D01*
X6710000Y16060000D02*
X8759989Y18109990D01*
X3590000Y10130000D02*
X6710000Y13250000D01*
X6710000Y13250000D02*
X6710000Y16060000D01*
X3590000Y9430000D02*
X3590000Y10130000D01*
%TO.N,/BTN_BACK*%
X2740000Y9845698D02*
X2740000Y9430000D01*
X6309990Y13415688D02*
X2740000Y9845698D01*
X6309990Y15200010D02*
X6309990Y13415688D01*
X3251853Y8829999D02*
X2740000Y9341852D01*
X6309990Y15875689D02*
X6309990Y15429990D01*
X6309990Y15429990D02*
X6309990Y15200010D01*
X8594302Y18510000D02*
X10260000Y18510000D01*
X6734302Y16650000D02*
X7712150Y17627850D01*
X10720000Y18970000D02*
X10720000Y20200000D01*
X6309990Y16225689D02*
X6734302Y16650000D01*
X10260000Y18510000D02*
X10720000Y18970000D01*
X7712150Y17627850D02*
X8594302Y18510000D01*
X6309990Y15429990D02*
X6309990Y16225689D01*
X3886852Y8195000D02*
X2740000Y9341852D01*
X10805000Y8195000D02*
X3886852Y8195000D01*
X16000000Y3000000D02*
X10805000Y8195000D01*
X2740000Y9341852D02*
X2740000Y9430000D01*
%TO.N,/NRST*%
X8180000Y18661398D02*
X8180000Y20200000D01*
X5909980Y16391378D02*
X8180000Y18661398D01*
X5909980Y13581376D02*
X5909980Y16391378D01*
X2139999Y9811395D02*
X5909980Y13581376D01*
X2139999Y8980001D02*
X2139999Y9811395D01*
X5720000Y5400000D02*
X2139999Y8980001D01*
%TO.N,/BTN_OK*%
X8460000Y9780000D02*
X9350000Y10670000D01*
X14170000Y10670000D02*
X16000000Y12500000D01*
X9350000Y10670000D02*
X14170000Y10670000D01*
%TO.N,/MCU_TXD*%
X11800000Y-1500000D02*
X11199999Y-899999D01*
X11199999Y-899999D02*
X10065697Y-899999D01*
X4447849Y5000681D02*
X4447849Y4717849D01*
X4049265Y5399265D02*
X4447849Y5000681D01*
X10065697Y-899999D02*
X4447849Y4717849D01*
%TO.N,/MCU_RXD*%
X10100000Y-1500000D02*
X2540000Y6060000D01*
X2540000Y6970000D02*
X2510000Y7000000D01*
X2540000Y6060000D02*
X2540000Y6970000D01*
%TO.N,/SPI_MISO*%
X-985000Y-645000D02*
X-970000Y-630000D01*
X-985000Y-2245000D02*
X-985000Y-645000D01*
X-985000Y-630000D02*
X-985000Y-2245000D01*
%TD*%
%TO.N,GND*%
X19519275Y21622526D02*
X20018770Y21471719D01*
X20479459Y21226767D01*
X20883797Y20896998D01*
X21216384Y20494969D01*
X21464548Y20035999D01*
X21618837Y19537573D01*
X21674986Y19003343D01*
X21675000Y18999441D01*
X21675000Y13060363D01*
X21652045Y13115781D01*
X21509776Y13328702D01*
X21328702Y13509776D01*
X21115781Y13652045D01*
X20879196Y13750042D01*
X20628039Y13800000D01*
X20371961Y13800000D01*
X20120804Y13750042D01*
X19884219Y13652045D01*
X19671298Y13509776D01*
X19490224Y13328702D01*
X19347955Y13115781D01*
X19249958Y12879196D01*
X19200000Y12628039D01*
X19200000Y12371961D01*
X19249958Y12120804D01*
X19347955Y11884219D01*
X19490224Y11671298D01*
X19671298Y11490224D01*
X19884219Y11347955D01*
X20120804Y11249958D01*
X20371961Y11200000D01*
X20628039Y11200000D01*
X20879196Y11249958D01*
X21115781Y11347955D01*
X21328702Y11490224D01*
X21509776Y11671298D01*
X21652045Y11884219D01*
X21675000Y11939637D01*
X21675000Y6560363D01*
X21652045Y6615781D01*
X21509776Y6828702D01*
X21328702Y7009776D01*
X21115781Y7152045D01*
X20879196Y7250042D01*
X20628039Y7300000D01*
X20371961Y7300000D01*
X20120804Y7250042D01*
X19884219Y7152045D01*
X19671298Y7009776D01*
X19490224Y6828702D01*
X19347955Y6615781D01*
X19249958Y6379196D01*
X19200000Y6128039D01*
X19200000Y5871961D01*
X19249958Y5620804D01*
X19347955Y5384219D01*
X19490224Y5171298D01*
X19671298Y4990224D01*
X19884219Y4847955D01*
X20120804Y4749958D01*
X20371961Y4700000D01*
X20628039Y4700000D01*
X20879196Y4749958D01*
X21115781Y4847955D01*
X21328702Y4990224D01*
X21509776Y5171298D01*
X21652045Y5384219D01*
X21675000Y5439637D01*
X21675000Y3560363D01*
X21652045Y3615781D01*
X21509776Y3828702D01*
X21328702Y4009776D01*
X21115781Y4152045D01*
X20879196Y4250042D01*
X20628039Y4300000D01*
X20371961Y4300000D01*
X20120804Y4250042D01*
X19884219Y4152045D01*
X19671298Y4009776D01*
X19490224Y3828702D01*
X19347955Y3615781D01*
X19249958Y3379196D01*
X19200000Y3128039D01*
X19200000Y2871961D01*
X19249958Y2620804D01*
X19347955Y2384219D01*
X19490224Y2171298D01*
X19671298Y1990224D01*
X19884219Y1847955D01*
X20120804Y1749958D01*
X20371961Y1700000D01*
X20628039Y1700000D01*
X20879196Y1749958D01*
X21115781Y1847955D01*
X21328702Y1990224D01*
X21509776Y2171298D01*
X21652045Y2384219D01*
X21675000Y2439637D01*
X21675001Y-2939639D01*
X21652045Y-2884219D01*
X21509776Y-2671298D01*
X21328702Y-2490224D01*
X21115781Y-2347955D01*
X20879196Y-2249958D01*
X20628039Y-2200000D01*
X20371961Y-2200000D01*
X20120804Y-2249958D01*
X19884219Y-2347955D01*
X19671298Y-2490224D01*
X19490224Y-2671298D01*
X19347955Y-2884219D01*
X19249958Y-3120804D01*
X19200000Y-3371961D01*
X19200000Y-3628039D01*
X19249958Y-3879196D01*
X19347955Y-4115781D01*
X19490224Y-4328702D01*
X19671298Y-4509776D01*
X19884219Y-4652045D01*
X20120804Y-4750042D01*
X20371961Y-4800000D01*
X20628039Y-4800000D01*
X20879196Y-4750042D01*
X21115781Y-4652045D01*
X21328702Y-4509776D01*
X21509776Y-4328702D01*
X21652045Y-4115781D01*
X21675001Y-4060361D01*
X21675001Y-18984094D01*
X21622526Y-19519274D01*
X21471719Y-20018770D01*
X21226768Y-20479458D01*
X20896995Y-20883799D01*
X20494970Y-21216383D01*
X20035997Y-21464548D01*
X19537575Y-21618836D01*
X19003342Y-21674986D01*
X18999441Y-21675000D01*
X-18984104Y-21675000D01*
X-19519274Y-21622526D01*
X-20018770Y-21471719D01*
X-20479458Y-21226768D01*
X-20883799Y-20896995D01*
X-21216383Y-20494970D01*
X-21464548Y-20035997D01*
X-21568556Y-19700000D01*
X10880000Y-19700000D01*
X10880000Y-20000000D01*
X10905126Y-20155112D01*
X10960030Y-20302341D01*
X11042602Y-20436030D01*
X11149669Y-20551041D01*
X11277116Y-20642955D01*
X11420046Y-20708239D01*
X11505713Y-20730784D01*
X11630000Y-20673274D01*
X11630000Y-19700000D01*
X11730000Y-19700000D01*
X11730000Y-20673274D01*
X11854287Y-20730784D01*
X11939954Y-20708239D01*
X12082884Y-20642955D01*
X12210331Y-20551041D01*
X12317398Y-20436030D01*
X12399970Y-20302341D01*
X12454874Y-20155112D01*
X12480000Y-20000000D01*
X12480000Y-19700000D01*
X19520000Y-19700000D01*
X19520000Y-20000000D01*
X19545126Y-20155112D01*
X19600030Y-20302341D01*
X19682602Y-20436030D01*
X19789669Y-20551041D01*
X19917116Y-20642955D01*
X20060046Y-20708239D01*
X20145713Y-20730784D01*
X20270000Y-20673274D01*
X20270000Y-19700000D01*
X20370000Y-19700000D01*
X20370000Y-20673274D01*
X20494287Y-20730784D01*
X20579954Y-20708239D01*
X20722884Y-20642955D01*
X20850331Y-20551041D01*
X20957398Y-20436030D01*
X21039970Y-20302341D01*
X21094874Y-20155112D01*
X21120000Y-20000000D01*
X21120000Y-19700000D01*
X20370000Y-19700000D01*
X20270000Y-19700000D01*
X19520000Y-19700000D01*
X12480000Y-19700000D01*
X11730000Y-19700000D01*
X11630000Y-19700000D01*
X10880000Y-19700000D01*
X-21568556Y-19700000D01*
X-21618836Y-19537575D01*
X-21643806Y-19300000D01*
X10880000Y-19300000D01*
X10880000Y-19600000D01*
X11630000Y-19600000D01*
X11630000Y-18626726D01*
X11730000Y-18626726D01*
X11730000Y-19600000D01*
X12480000Y-19600000D01*
X12480000Y-19300000D01*
X19520000Y-19300000D01*
X19520000Y-19600000D01*
X20270000Y-19600000D01*
X20270000Y-18626726D01*
X20370000Y-18626726D01*
X20370000Y-19600000D01*
X21120000Y-19600000D01*
X21120000Y-19300000D01*
X21094874Y-19144888D01*
X21039970Y-18997659D01*
X20957398Y-18863970D01*
X20850331Y-18748959D01*
X20722884Y-18657045D01*
X20579954Y-18591761D01*
X20494287Y-18569216D01*
X20370000Y-18626726D01*
X20270000Y-18626726D01*
X20145713Y-18569216D01*
X20060046Y-18591761D01*
X19917116Y-18657045D01*
X19789669Y-18748959D01*
X19682602Y-18863970D01*
X19600030Y-18997659D01*
X19545126Y-19144888D01*
X19520000Y-19300000D01*
X12480000Y-19300000D01*
X12454874Y-19144888D01*
X12399970Y-18997659D01*
X12317398Y-18863970D01*
X12210331Y-18748959D01*
X12082884Y-18657045D01*
X11939954Y-18591761D01*
X11854287Y-18569216D01*
X11730000Y-18626726D01*
X11630000Y-18626726D01*
X11505713Y-18569216D01*
X11420046Y-18591761D01*
X11277116Y-18657045D01*
X11149669Y-18748959D01*
X11042602Y-18863970D01*
X10960030Y-18997659D01*
X10905126Y-19144888D01*
X10880000Y-19300000D01*
X-21643806Y-19300000D01*
X-21674986Y-19003342D01*
X-21675000Y-18999441D01*
X-21675000Y-15993509D01*
X-19915000Y-15993509D01*
X-19915000Y-17406492D01*
X-19898360Y-17575439D01*
X-19832602Y-17792215D01*
X-19725815Y-17991997D01*
X-19582106Y-18167107D01*
X-19406996Y-18310816D01*
X-19207214Y-18417602D01*
X-18990438Y-18483360D01*
X-18765000Y-18505564D01*
X-18539561Y-18483360D01*
X-18322785Y-18417602D01*
X-18123003Y-18310816D01*
X-17947893Y-18167107D01*
X-17804184Y-17991997D01*
X-17697398Y-17792215D01*
X-17631640Y-17575439D01*
X-17615000Y-17406492D01*
X-17615000Y-15993509D01*
X-16105000Y-15993509D01*
X-16105000Y-17406492D01*
X-16088360Y-17575439D01*
X-16022602Y-17792215D01*
X-15915815Y-17991997D01*
X-15772106Y-18167107D01*
X-15596996Y-18310816D01*
X-15397214Y-18417602D01*
X-15180438Y-18483360D01*
X-14955000Y-18505564D01*
X-14729561Y-18483360D01*
X-14512785Y-18417602D01*
X-14313003Y-18310816D01*
X-14137893Y-18167107D01*
X-13994184Y-17991997D01*
X-13887398Y-17792215D01*
X-13821640Y-17575439D01*
X-13805000Y-17406492D01*
X-13805000Y-15993509D01*
X-12295000Y-15993509D01*
X-12295000Y-17406492D01*
X-12278360Y-17575439D01*
X-12212602Y-17792215D01*
X-12105815Y-17991997D01*
X-11962106Y-18167107D01*
X-11786996Y-18310816D01*
X-11587214Y-18417602D01*
X-11370438Y-18483360D01*
X-11145000Y-18505564D01*
X-10919561Y-18483360D01*
X-10702785Y-18417602D01*
X-10503003Y-18310816D01*
X-10327893Y-18167107D01*
X-10184184Y-17991997D01*
X-10077398Y-17792215D01*
X-10011640Y-17575439D01*
X-9995000Y-17406492D01*
X-9995000Y-15993509D01*
X-8485000Y-15993509D01*
X-8485000Y-17406492D01*
X-8468360Y-17575439D01*
X-8402602Y-17792215D01*
X-8295815Y-17991997D01*
X-8152106Y-18167107D01*
X-7976996Y-18310816D01*
X-7777214Y-18417602D01*
X-7560438Y-18483360D01*
X-7335000Y-18505564D01*
X-7109561Y-18483360D01*
X-6892785Y-18417602D01*
X-6693003Y-18310816D01*
X-6517893Y-18167107D01*
X-6374184Y-17991997D01*
X-6267398Y-17792215D01*
X-6201640Y-17575439D01*
X-6185000Y-17406492D01*
X-6185000Y-15993509D01*
X-4675000Y-15993509D01*
X-4675000Y-17406492D01*
X-4658360Y-17575439D01*
X-4592602Y-17792215D01*
X-4485815Y-17991997D01*
X-4342106Y-18167107D01*
X-4166996Y-18310816D01*
X-3967214Y-18417602D01*
X-3750438Y-18483360D01*
X-3525000Y-18505564D01*
X-3299561Y-18483360D01*
X-3082785Y-18417602D01*
X-2883003Y-18310816D01*
X-2707893Y-18167107D01*
X-2564184Y-17991997D01*
X-2457398Y-17792215D01*
X-2391640Y-17575439D01*
X-2375000Y-17406492D01*
X-2375000Y-15993509D01*
X-865000Y-15993509D01*
X-865000Y-17406492D01*
X-848360Y-17575439D01*
X-782602Y-17792215D01*
X-675815Y-17991997D01*
X-532106Y-18167107D01*
X-356996Y-18310816D01*
X-157214Y-18417602D01*
X59562Y-18483360D01*
X285000Y-18505564D01*
X510439Y-18483360D01*
X727215Y-18417602D01*
X926997Y-18310816D01*
X1102107Y-18167107D01*
X1245816Y-17991997D01*
X1352602Y-17792215D01*
X1418360Y-17575439D01*
X1435000Y-17406492D01*
X1435000Y-15993509D01*
X2945000Y-15993509D01*
X2945000Y-17406492D01*
X2961640Y-17575439D01*
X3027398Y-17792215D01*
X3134185Y-17991997D01*
X3277894Y-18167107D01*
X3453004Y-18310816D01*
X3652786Y-18417602D01*
X3869562Y-18483360D01*
X4095000Y-18505564D01*
X4320439Y-18483360D01*
X4537215Y-18417602D01*
X4736997Y-18310816D01*
X4912107Y-18167107D01*
X5055816Y-17991997D01*
X5162602Y-17792215D01*
X5228360Y-17575439D01*
X5245000Y-17406492D01*
X5245000Y-16750000D01*
X6755000Y-16750000D01*
X6755000Y-17400000D01*
X6786851Y-17623393D01*
X6861672Y-17836280D01*
X6976588Y-18030479D01*
X7127182Y-18198528D01*
X7307667Y-18333969D01*
X7511107Y-18431596D01*
X7675886Y-18476946D01*
X7855000Y-18423837D01*
X7855000Y-16750000D01*
X7955000Y-16750000D01*
X7955000Y-18423837D01*
X8134114Y-18476946D01*
X8298893Y-18431596D01*
X8502333Y-18333969D01*
X8682818Y-18198528D01*
X8833412Y-18030479D01*
X8948328Y-17836280D01*
X9023149Y-17623393D01*
X9055000Y-17400000D01*
X9055000Y-16750000D01*
X7955000Y-16750000D01*
X7855000Y-16750000D01*
X6755000Y-16750000D01*
X5245000Y-16750000D01*
X5245000Y-16000000D01*
X6755000Y-16000000D01*
X6755000Y-16650000D01*
X7855000Y-16650000D01*
X7855000Y-14976163D01*
X7955000Y-14976163D01*
X7955000Y-16650000D01*
X9055000Y-16650000D01*
X9055000Y-16000000D01*
X9023149Y-15776607D01*
X8948328Y-15563720D01*
X8922457Y-15520000D01*
X10880000Y-15520000D01*
X10880000Y-16070000D01*
X10905126Y-16225112D01*
X10960030Y-16372341D01*
X11042602Y-16506030D01*
X11149669Y-16621041D01*
X11277116Y-16712955D01*
X11420046Y-16778239D01*
X11505713Y-16800784D01*
X11630000Y-16743274D01*
X11630000Y-15520000D01*
X11730000Y-15520000D01*
X11730000Y-16743274D01*
X11854287Y-16800784D01*
X11939954Y-16778239D01*
X12082884Y-16712955D01*
X12210331Y-16621041D01*
X12317398Y-16506030D01*
X12399970Y-16372341D01*
X12454874Y-16225112D01*
X12480000Y-16070000D01*
X12480000Y-15520000D01*
X11730000Y-15520000D01*
X11630000Y-15520000D01*
X10880000Y-15520000D01*
X8922457Y-15520000D01*
X8833412Y-15369521D01*
X8682818Y-15201472D01*
X8502333Y-15066031D01*
X8298893Y-14968404D01*
X8134114Y-14923054D01*
X7955000Y-14976163D01*
X7855000Y-14976163D01*
X7675886Y-14923054D01*
X7511107Y-14968404D01*
X7307667Y-15066031D01*
X7127182Y-15201472D01*
X6976588Y-15369521D01*
X6861672Y-15563720D01*
X6786851Y-15776607D01*
X6755000Y-16000000D01*
X5245000Y-16000000D01*
X5245000Y-15993508D01*
X5228360Y-15824561D01*
X5162602Y-15607785D01*
X5055816Y-15408003D01*
X4912107Y-15232893D01*
X4736996Y-15089184D01*
X4537214Y-14982398D01*
X4320438Y-14916640D01*
X4095000Y-14894436D01*
X3869561Y-14916640D01*
X3652785Y-14982398D01*
X3453003Y-15089184D01*
X3277893Y-15232893D01*
X3134184Y-15408004D01*
X3027398Y-15607786D01*
X2961640Y-15824562D01*
X2945000Y-15993509D01*
X1435000Y-15993509D01*
X1435000Y-15993508D01*
X1418360Y-15824561D01*
X1352602Y-15607785D01*
X1245816Y-15408003D01*
X1102107Y-15232893D01*
X926996Y-15089184D01*
X727214Y-14982398D01*
X510438Y-14916640D01*
X285000Y-14894436D01*
X59561Y-14916640D01*
X-157215Y-14982398D01*
X-356997Y-15089184D01*
X-532107Y-15232893D01*
X-675816Y-15408004D01*
X-782602Y-15607786D01*
X-848360Y-15824562D01*
X-865000Y-15993509D01*
X-2375000Y-15993509D01*
X-2375000Y-15993508D01*
X-2391640Y-15824561D01*
X-2457398Y-15607785D01*
X-2564184Y-15408003D01*
X-2707893Y-15232893D01*
X-2883004Y-15089184D01*
X-3082786Y-14982398D01*
X-3299562Y-14916640D01*
X-3525000Y-14894436D01*
X-3750439Y-14916640D01*
X-3967215Y-14982398D01*
X-4166997Y-15089184D01*
X-4342107Y-15232893D01*
X-4485816Y-15408004D01*
X-4592602Y-15607786D01*
X-4658360Y-15824562D01*
X-4675000Y-15993509D01*
X-6185000Y-15993509D01*
X-6185000Y-15993508D01*
X-6201640Y-15824561D01*
X-6267398Y-15607785D01*
X-6374184Y-15408003D01*
X-6517893Y-15232893D01*
X-6693004Y-15089184D01*
X-6892786Y-14982398D01*
X-7109562Y-14916640D01*
X-7335000Y-14894436D01*
X-7560439Y-14916640D01*
X-7777215Y-14982398D01*
X-7976997Y-15089184D01*
X-8152107Y-15232893D01*
X-8295816Y-15408004D01*
X-8402602Y-15607786D01*
X-8468360Y-15824562D01*
X-8485000Y-15993509D01*
X-9995000Y-15993509D01*
X-9995000Y-15993508D01*
X-10011640Y-15824561D01*
X-10077398Y-15607785D01*
X-10184184Y-15408003D01*
X-10327893Y-15232893D01*
X-10503004Y-15089184D01*
X-10702786Y-14982398D01*
X-10919562Y-14916640D01*
X-11145000Y-14894436D01*
X-11370439Y-14916640D01*
X-11587215Y-14982398D01*
X-11786997Y-15089184D01*
X-11962107Y-15232893D01*
X-12105816Y-15408004D01*
X-12212602Y-15607786D01*
X-12278360Y-15824562D01*
X-12295000Y-15993509D01*
X-13805000Y-15993509D01*
X-13805000Y-15993508D01*
X-13821640Y-15824561D01*
X-13887398Y-15607785D01*
X-13994184Y-15408003D01*
X-14137893Y-15232893D01*
X-14313004Y-15089184D01*
X-14512786Y-14982398D01*
X-14729562Y-14916640D01*
X-14955000Y-14894436D01*
X-15180439Y-14916640D01*
X-15397215Y-14982398D01*
X-15596997Y-15089184D01*
X-15772107Y-15232893D01*
X-15915816Y-15408004D01*
X-16022602Y-15607786D01*
X-16088360Y-15824562D01*
X-16105000Y-15993509D01*
X-17615000Y-15993509D01*
X-17615000Y-15993508D01*
X-17631640Y-15824561D01*
X-17697398Y-15607785D01*
X-17804184Y-15408003D01*
X-17947893Y-15232893D01*
X-18123004Y-15089184D01*
X-18322786Y-14982398D01*
X-18539562Y-14916640D01*
X-18765000Y-14894436D01*
X-18990439Y-14916640D01*
X-19207215Y-14982398D01*
X-19406997Y-15089184D01*
X-19582107Y-15232893D01*
X-19725816Y-15408004D01*
X-19832602Y-15607786D01*
X-19898360Y-15824562D01*
X-19915000Y-15993509D01*
X-21675000Y-15993509D01*
X-21675000Y-14870000D01*
X10880000Y-14870000D01*
X10880000Y-15420000D01*
X11630000Y-15420000D01*
X11630000Y-14196726D01*
X11730000Y-14196726D01*
X11730000Y-15420000D01*
X12480000Y-15420000D01*
X12480000Y-14870000D01*
X12454874Y-14714888D01*
X12399970Y-14567659D01*
X12317398Y-14433970D01*
X12210331Y-14318959D01*
X12082884Y-14227045D01*
X11939954Y-14161761D01*
X11854287Y-14139216D01*
X11730000Y-14196726D01*
X11630000Y-14196726D01*
X11505713Y-14139216D01*
X11420046Y-14161761D01*
X11277116Y-14227045D01*
X11149669Y-14318959D01*
X11042602Y-14433970D01*
X10960030Y-14567659D01*
X10905126Y-14714888D01*
X10880000Y-14870000D01*
X-21675000Y-14870000D01*
X-21675000Y-13240905D01*
X12350000Y-13240905D01*
X12350000Y-13359095D01*
X12373058Y-13475014D01*
X12418287Y-13584207D01*
X12483950Y-13682478D01*
X12567522Y-13766050D01*
X12665793Y-13831713D01*
X12774986Y-13876942D01*
X12890905Y-13900000D01*
X13009095Y-13900000D01*
X13125014Y-13876942D01*
X13190058Y-13850000D01*
X13309942Y-13850000D01*
X13330839Y-13858656D01*
X13335001Y-13862818D01*
X13335002Y-15416704D01*
X13292306Y-15399019D01*
X13171557Y-15375000D01*
X13048443Y-15375000D01*
X12927694Y-15399019D01*
X12813952Y-15446132D01*
X12711586Y-15514531D01*
X12624531Y-15601586D01*
X12556132Y-15703952D01*
X12509019Y-15817694D01*
X12485000Y-15938443D01*
X12485000Y-16061557D01*
X12509019Y-16182306D01*
X12556132Y-16296048D01*
X12624531Y-16398414D01*
X12711586Y-16485469D01*
X12813952Y-16553868D01*
X12927694Y-16600981D01*
X13048443Y-16625000D01*
X13171557Y-16625000D01*
X13292306Y-16600981D01*
X13335002Y-16583296D01*
X13335002Y-16807983D01*
X13332341Y-16835001D01*
X13342960Y-16942819D01*
X13374410Y-17046495D01*
X13425480Y-17142043D01*
X13476988Y-17204805D01*
X13476994Y-17204811D01*
X13494212Y-17225791D01*
X13515192Y-17243009D01*
X14491992Y-18219810D01*
X14509210Y-18240790D01*
X14530190Y-18258008D01*
X14530195Y-18258013D01*
X14582097Y-18300607D01*
X14592958Y-18309521D01*
X14688506Y-18360592D01*
X14792181Y-18392042D01*
X14872982Y-18400000D01*
X14872991Y-18400000D01*
X14899999Y-18402660D01*
X14927007Y-18400000D01*
X17172992Y-18400000D01*
X17200000Y-18402660D01*
X17227008Y-18400000D01*
X17227018Y-18400000D01*
X17307819Y-18392042D01*
X17411494Y-18360592D01*
X17507042Y-18309521D01*
X17590790Y-18240790D01*
X17608013Y-18219804D01*
X18484809Y-17343009D01*
X18505789Y-17325791D01*
X18523007Y-17304811D01*
X18523012Y-17304806D01*
X18574520Y-17242044D01*
X18625590Y-17146496D01*
X18625591Y-17146495D01*
X18657041Y-17042820D01*
X18664999Y-16962019D01*
X18664999Y-16962009D01*
X18667659Y-16935001D01*
X18664999Y-16907993D01*
X18664999Y-16583296D01*
X18707694Y-16600981D01*
X18828443Y-16625000D01*
X18951557Y-16625000D01*
X19072306Y-16600981D01*
X19186048Y-16553868D01*
X19288414Y-16485469D01*
X19375469Y-16398414D01*
X19443868Y-16296048D01*
X19490981Y-16182306D01*
X19515000Y-16061557D01*
X19515000Y-15938443D01*
X19490981Y-15817694D01*
X19443868Y-15703952D01*
X19375469Y-15601586D01*
X19293883Y-15520000D01*
X19520000Y-15520000D01*
X19520000Y-16070000D01*
X19545126Y-16225112D01*
X19600030Y-16372341D01*
X19682602Y-16506030D01*
X19789669Y-16621041D01*
X19917116Y-16712955D01*
X20060046Y-16778239D01*
X20145713Y-16800784D01*
X20270000Y-16743274D01*
X20270000Y-15520000D01*
X20370000Y-15520000D01*
X20370000Y-16743274D01*
X20494287Y-16800784D01*
X20579954Y-16778239D01*
X20722884Y-16712955D01*
X20850331Y-16621041D01*
X20957398Y-16506030D01*
X21039970Y-16372341D01*
X21094874Y-16225112D01*
X21120000Y-16070000D01*
X21120000Y-15520000D01*
X20370000Y-15520000D01*
X20270000Y-15520000D01*
X19520000Y-15520000D01*
X19293883Y-15520000D01*
X19288414Y-15514531D01*
X19186048Y-15446132D01*
X19072306Y-15399019D01*
X18951557Y-15375000D01*
X18828443Y-15375000D01*
X18707694Y-15399019D01*
X18664999Y-15416704D01*
X18664999Y-14870000D01*
X19520000Y-14870000D01*
X19520000Y-15420000D01*
X20270000Y-15420000D01*
X20270000Y-14196726D01*
X20370000Y-14196726D01*
X20370000Y-15420000D01*
X21120000Y-15420000D01*
X21120000Y-14870000D01*
X21094874Y-14714888D01*
X21039970Y-14567659D01*
X20957398Y-14433970D01*
X20850331Y-14318959D01*
X20722884Y-14227045D01*
X20579954Y-14161761D01*
X20494287Y-14139216D01*
X20370000Y-14196726D01*
X20270000Y-14196726D01*
X20145713Y-14139216D01*
X20060046Y-14161761D01*
X19917116Y-14227045D01*
X19789669Y-14318959D01*
X19682602Y-14433970D01*
X19600030Y-14567659D01*
X19545126Y-14714888D01*
X19520000Y-14870000D01*
X18664999Y-14870000D01*
X18664999Y-14496966D01*
X18692042Y-14407819D01*
X18700000Y-14327018D01*
X18700000Y-14327008D01*
X18702660Y-14300000D01*
X18700000Y-14272992D01*
X18700000Y-13540058D01*
X18726942Y-13475014D01*
X18737006Y-13424422D01*
X18742042Y-13407819D01*
X18743742Y-13390555D01*
X18750000Y-13359095D01*
X18750000Y-13327011D01*
X18752660Y-13300000D01*
X18750000Y-13272990D01*
X18750000Y-13240905D01*
X18743742Y-13209444D01*
X18742042Y-13192182D01*
X18737006Y-13175581D01*
X18726942Y-13124986D01*
X18700000Y-13059942D01*
X18700000Y-12940058D01*
X18726942Y-12875014D01*
X18750000Y-12759095D01*
X18750000Y-12640905D01*
X18726942Y-12524986D01*
X18681713Y-12415793D01*
X18616050Y-12317522D01*
X18532478Y-12233950D01*
X18434207Y-12168287D01*
X18325014Y-12123058D01*
X18209095Y-12100000D01*
X18090905Y-12100000D01*
X17974986Y-12123058D01*
X17865793Y-12168287D01*
X17767522Y-12233950D01*
X17683950Y-12317522D01*
X17618287Y-12415793D01*
X17573058Y-12524986D01*
X17550000Y-12640905D01*
X17550000Y-12759095D01*
X17573058Y-12875014D01*
X17600000Y-12940058D01*
X17600000Y-13059942D01*
X17573058Y-13124986D01*
X17550000Y-13240905D01*
X17550000Y-13359095D01*
X17573058Y-13475014D01*
X17600000Y-13540059D01*
X17600000Y-14138038D01*
X17597709Y-14145592D01*
X17572958Y-14227183D01*
X17562339Y-14335001D01*
X17565000Y-14362019D01*
X17564999Y-16707183D01*
X16972183Y-17300000D01*
X15127818Y-17300000D01*
X14435001Y-16607184D01*
X14435001Y-15720907D01*
X15150000Y-15720907D01*
X15150000Y-15839097D01*
X15173058Y-15955016D01*
X15218287Y-16064209D01*
X15283950Y-16162480D01*
X15367522Y-16246052D01*
X15465793Y-16311715D01*
X15574986Y-16356944D01*
X15690905Y-16380002D01*
X15809095Y-16380002D01*
X15925014Y-16356944D01*
X16034207Y-16311715D01*
X16132478Y-16246052D01*
X16198528Y-16180002D01*
X16501473Y-16180002D01*
X16567523Y-16246052D01*
X16665794Y-16311715D01*
X16774987Y-16356944D01*
X16890906Y-16380002D01*
X17009096Y-16380002D01*
X17125015Y-16356944D01*
X17234208Y-16311715D01*
X17332479Y-16246052D01*
X17416051Y-16162480D01*
X17481714Y-16064209D01*
X17526943Y-15955016D01*
X17550001Y-15839097D01*
X17550001Y-15720907D01*
X17526943Y-15604988D01*
X17481714Y-15495795D01*
X17416051Y-15397524D01*
X17332479Y-15313952D01*
X17234208Y-15248289D01*
X17125015Y-15203060D01*
X17009096Y-15180002D01*
X16890906Y-15180002D01*
X16774987Y-15203060D01*
X16665794Y-15248289D01*
X16567523Y-15313952D01*
X16501473Y-15380002D01*
X16198528Y-15380002D01*
X16132478Y-15313952D01*
X16034207Y-15248289D01*
X15925014Y-15203060D01*
X15809095Y-15180002D01*
X15690905Y-15180002D01*
X15574986Y-15203060D01*
X15465793Y-15248289D01*
X15367522Y-15313952D01*
X15283950Y-15397524D01*
X15218287Y-15495795D01*
X15173058Y-15604988D01*
X15150000Y-15720907D01*
X14435001Y-15720907D01*
X14435001Y-13662009D01*
X14437661Y-13635001D01*
X14435001Y-13607993D01*
X14435001Y-13607983D01*
X14427043Y-13527182D01*
X14395593Y-13423507D01*
X14344522Y-13327959D01*
X14275791Y-13244211D01*
X14254805Y-13226988D01*
X14108656Y-13080839D01*
X14081713Y-13015793D01*
X14016050Y-12917522D01*
X13932478Y-12833950D01*
X13834207Y-12768287D01*
X13725014Y-12723058D01*
X13609095Y-12700000D01*
X13490905Y-12700000D01*
X13374986Y-12723058D01*
X13309942Y-12750000D01*
X13190058Y-12750000D01*
X13125014Y-12723058D01*
X13009095Y-12700000D01*
X12890905Y-12700000D01*
X12774986Y-12723058D01*
X12665793Y-12768287D01*
X12567522Y-12833950D01*
X12483950Y-12917522D01*
X12418287Y-13015793D01*
X12373058Y-13124986D01*
X12350000Y-13240905D01*
X-21675000Y-13240905D01*
X-21675000Y-8837489D01*
X-19900000Y-8837489D01*
X-19900000Y-9162511D01*
X-19836592Y-9481287D01*
X-19712211Y-9781568D01*
X-19531639Y-10051814D01*
X-19301814Y-10281639D01*
X-19031568Y-10462211D01*
X-18731287Y-10586592D01*
X-18412511Y-10650000D01*
X-18087489Y-10650000D01*
X-17768713Y-10586592D01*
X-17468432Y-10462211D01*
X-17198186Y-10281639D01*
X-16968361Y-10051814D01*
X-16787789Y-9781568D01*
X-16663408Y-9481287D01*
X-16600000Y-9162511D01*
X-16600000Y-8837489D01*
X-16624848Y-8712565D01*
X-11950000Y-8712565D01*
X-11950000Y-9047435D01*
X-11884670Y-9375872D01*
X-11756521Y-9685252D01*
X-11570477Y-9963687D01*
X-11333687Y-10200477D01*
X-11055252Y-10386521D01*
X-10745872Y-10514670D01*
X-10417435Y-10580000D01*
X-10082565Y-10580000D01*
X-9754128Y-10514670D01*
X-9444748Y-10386521D01*
X-9166313Y-10200477D01*
X-8929523Y-9963687D01*
X-8743479Y-9685252D01*
X-8615330Y-9375872D01*
X-8550000Y-9047435D01*
X-8550000Y-8837489D01*
X16600000Y-8837489D01*
X16600000Y-9162511D01*
X16663408Y-9481287D01*
X16787789Y-9781568D01*
X16968361Y-10051814D01*
X17198186Y-10281639D01*
X17468432Y-10462211D01*
X17768713Y-10586592D01*
X18087489Y-10650000D01*
X18412511Y-10650000D01*
X18731287Y-10586592D01*
X19031568Y-10462211D01*
X19301814Y-10281639D01*
X19531639Y-10051814D01*
X19712211Y-9781568D01*
X19836592Y-9481287D01*
X19900000Y-9162511D01*
X19900000Y-8837489D01*
X19836592Y-8518713D01*
X19712211Y-8218432D01*
X19531639Y-7948186D01*
X19301814Y-7718361D01*
X19031568Y-7537789D01*
X18731287Y-7413408D01*
X18412511Y-7350000D01*
X18087489Y-7350000D01*
X17768713Y-7413408D01*
X17468432Y-7537789D01*
X17198186Y-7718361D01*
X16968361Y-7948186D01*
X16787789Y-8218432D01*
X16663408Y-8518713D01*
X16600000Y-8837489D01*
X-8550000Y-8837489D01*
X-8550000Y-8712565D01*
X-8615330Y-8384128D01*
X-8743479Y-8074748D01*
X-8929523Y-7796313D01*
X-9166313Y-7559523D01*
X-9444748Y-7373479D01*
X-9754128Y-7245330D01*
X-10082565Y-7180000D01*
X-10417435Y-7180000D01*
X-10745872Y-7245330D01*
X-11055252Y-7373479D01*
X-11333687Y-7559523D01*
X-11570477Y-7796313D01*
X-11756521Y-8074748D01*
X-11884670Y-8384128D01*
X-11950000Y-8712565D01*
X-16624848Y-8712565D01*
X-16663408Y-8518713D01*
X-16787789Y-8218432D01*
X-16968361Y-7948186D01*
X-17198186Y-7718361D01*
X-17468432Y-7537789D01*
X-17768713Y-7413408D01*
X-18087489Y-7350000D01*
X-18412511Y-7350000D01*
X-18731287Y-7413408D01*
X-19031568Y-7537789D01*
X-19301814Y-7718361D01*
X-19531639Y-7948186D01*
X-19712211Y-8218432D01*
X-19836592Y-8518713D01*
X-19900000Y-8837489D01*
X-21675000Y-8837489D01*
X-21675000Y-4060363D01*
X-21652045Y-4115781D01*
X-21509776Y-4328702D01*
X-21328702Y-4509776D01*
X-21115781Y-4652045D01*
X-20879196Y-4750042D01*
X-20628039Y-4800000D01*
X-20371961Y-4800000D01*
X-20120804Y-4750042D01*
X-20055023Y-4722795D01*
X-18908008Y-5869810D01*
X-18890790Y-5890790D01*
X-18869810Y-5908008D01*
X-18869805Y-5908013D01*
X-18807043Y-5959521D01*
X-18756579Y-5986494D01*
X-18711494Y-6010592D01*
X-18607819Y-6042042D01*
X-18527018Y-6050000D01*
X-18527009Y-6050000D01*
X-18500001Y-6052660D01*
X-18472993Y-6050000D01*
X-8927816Y-6050000D01*
X-8833017Y-6144799D01*
X-8833013Y-6144804D01*
X-7708655Y-7269163D01*
X-7681713Y-7334207D01*
X-7616050Y-7432478D01*
X-7532478Y-7516050D01*
X-7434207Y-7581713D01*
X-7325014Y-7626942D01*
X-7209095Y-7650000D01*
X-7090905Y-7650000D01*
X-6974986Y-7626942D01*
X-6909942Y-7600000D01*
X-6790058Y-7600000D01*
X-6725014Y-7626942D01*
X-6609095Y-7650000D01*
X-6490905Y-7650000D01*
X-6374986Y-7626942D01*
X-6265793Y-7581713D01*
X-6167522Y-7516050D01*
X-6083950Y-7432478D01*
X-6018287Y-7334207D01*
X-5973058Y-7225014D01*
X-5950000Y-7109095D01*
X-5950000Y-6990905D01*
X-5973058Y-6874986D01*
X-6018287Y-6765793D01*
X-6083950Y-6667522D01*
X-6167522Y-6583950D01*
X-6265793Y-6518287D01*
X-6374986Y-6473058D01*
X-6490905Y-6450000D01*
X-6609095Y-6450000D01*
X-6725014Y-6473058D01*
X-6790058Y-6500000D01*
X-6909942Y-6500000D01*
X-6930837Y-6491345D01*
X-8055196Y-5366987D01*
X-8055201Y-5366983D01*
X-8291988Y-5130195D01*
X-8309210Y-5109210D01*
X-8392958Y-5040479D01*
X-8488506Y-4989408D01*
X-8592181Y-4957958D01*
X-8672982Y-4950000D01*
X-8672992Y-4950000D01*
X-8700000Y-4947340D01*
X-8727008Y-4950000D01*
X-18272182Y-4950000D01*
X-19277205Y-3944977D01*
X-19249958Y-3879196D01*
X-19200000Y-3628039D01*
X-19200000Y-3371961D01*
X-17300000Y-3371961D01*
X-17300000Y-3628039D01*
X-17250042Y-3879196D01*
X-17152045Y-4115781D01*
X-17009776Y-4328702D01*
X-16828702Y-4509776D01*
X-16615781Y-4652045D01*
X-16379196Y-4750042D01*
X-16128039Y-4800000D01*
X-15871961Y-4800000D01*
X-15620804Y-4750042D01*
X-15384219Y-4652045D01*
X-15171298Y-4509776D01*
X-14990224Y-4328702D01*
X-14847955Y-4115781D01*
X-14749958Y-3879196D01*
X-14700000Y-3628039D01*
X-14700000Y-3371961D01*
X-14749958Y-3120804D01*
X-14847955Y-2884219D01*
X-14990224Y-2671298D01*
X-15171298Y-2490224D01*
X-15384219Y-2347955D01*
X-15620804Y-2249958D01*
X-15871961Y-2200000D01*
X-16128039Y-2200000D01*
X-16379196Y-2249958D01*
X-16615781Y-2347955D01*
X-16828702Y-2490224D01*
X-17009776Y-2671298D01*
X-17152045Y-2884219D01*
X-17250042Y-3120804D01*
X-17300000Y-3371961D01*
X-19200000Y-3371961D01*
X-19249958Y-3120804D01*
X-19347955Y-2884219D01*
X-19490224Y-2671298D01*
X-19671298Y-2490224D01*
X-19884219Y-2347955D01*
X-20120804Y-2249958D01*
X-20371961Y-2200000D01*
X-20628039Y-2200000D01*
X-20879196Y-2249958D01*
X-21115781Y-2347955D01*
X-21328702Y-2490224D01*
X-21509776Y-2671298D01*
X-21652045Y-2884219D01*
X-21675000Y-2939637D01*
X-21675000Y2439637D01*
X-21652045Y2384219D01*
X-21509776Y2171298D01*
X-21328702Y1990224D01*
X-21115781Y1847955D01*
X-20879196Y1749958D01*
X-20628039Y1700000D01*
X-20371961Y1700000D01*
X-20120804Y1749958D01*
X-19884219Y1847955D01*
X-19671298Y1990224D01*
X-19490224Y2171298D01*
X-19347955Y2384219D01*
X-19249958Y2620804D01*
X-19200000Y2871961D01*
X-19200000Y3128039D01*
X-17300000Y3128039D01*
X-17300000Y2871961D01*
X-17250042Y2620804D01*
X-17152045Y2384219D01*
X-17009776Y2171298D01*
X-16828702Y1990224D01*
X-16615781Y1847955D01*
X-16379196Y1749958D01*
X-16128039Y1700000D01*
X-15871961Y1700000D01*
X-15620804Y1749958D01*
X-15384219Y1847955D01*
X-15171298Y1990224D01*
X-14990224Y2171298D01*
X-14847955Y2384219D01*
X-14749958Y2620804D01*
X-14700000Y2871961D01*
X-14700000Y3128039D01*
X-14749958Y3379196D01*
X-14847955Y3615781D01*
X-14990224Y3828702D01*
X-15171298Y4009776D01*
X-15384219Y4152045D01*
X-15620804Y4250042D01*
X-15871961Y4300000D01*
X-16128039Y4300000D01*
X-16379196Y4250042D01*
X-16615781Y4152045D01*
X-16828702Y4009776D01*
X-17009776Y3828702D01*
X-17152045Y3615781D01*
X-17250042Y3379196D01*
X-17300000Y3128039D01*
X-19200000Y3128039D01*
X-19249958Y3379196D01*
X-19347955Y3615781D01*
X-19490224Y3828702D01*
X-19671298Y4009776D01*
X-19884219Y4152045D01*
X-20120804Y4250042D01*
X-20371961Y4300000D01*
X-20628039Y4300000D01*
X-20879196Y4250042D01*
X-21115781Y4152045D01*
X-21328702Y4009776D01*
X-21509776Y3828702D01*
X-21652045Y3615781D01*
X-21675000Y3560363D01*
X-21675000Y5439637D01*
X-21652045Y5384219D01*
X-21509776Y5171298D01*
X-21328702Y4990224D01*
X-21115781Y4847955D01*
X-20879196Y4749958D01*
X-20628039Y4700000D01*
X-20371961Y4700000D01*
X-20120804Y4749958D01*
X-19884219Y4847955D01*
X-19671298Y4990224D01*
X-19490224Y5171298D01*
X-19347955Y5384219D01*
X-19249958Y5620804D01*
X-19200000Y5871961D01*
X-19200000Y6128039D01*
X-17300000Y6128039D01*
X-17300000Y5871961D01*
X-17250042Y5620804D01*
X-17152045Y5384219D01*
X-17009776Y5171298D01*
X-16828702Y4990224D01*
X-16615781Y4847955D01*
X-16379196Y4749958D01*
X-16128039Y4700000D01*
X-15871961Y4700000D01*
X-15620804Y4749958D01*
X-15384219Y4847955D01*
X-15171298Y4990224D01*
X-14990224Y5171298D01*
X-14847955Y5384219D01*
X-14749958Y5620804D01*
X-14700000Y5871961D01*
X-14700000Y6128039D01*
X-14749958Y6379196D01*
X-14847955Y6615781D01*
X-14990224Y6828702D01*
X-15171298Y7009776D01*
X-15384219Y7152045D01*
X-15620804Y7250042D01*
X-15871961Y7300000D01*
X-16128039Y7300000D01*
X-16379196Y7250042D01*
X-16615781Y7152045D01*
X-16828702Y7009776D01*
X-17009776Y6828702D01*
X-17152045Y6615781D01*
X-17250042Y6379196D01*
X-17300000Y6128039D01*
X-19200000Y6128039D01*
X-19249958Y6379196D01*
X-19347955Y6615781D01*
X-19490224Y6828702D01*
X-19671298Y7009776D01*
X-19884219Y7152045D01*
X-20120804Y7250042D01*
X-20371961Y7300000D01*
X-20628039Y7300000D01*
X-20879196Y7250042D01*
X-21115781Y7152045D01*
X-21328702Y7009776D01*
X-21509776Y6828702D01*
X-21652045Y6615781D01*
X-21675000Y6560363D01*
X-21675000Y7709095D01*
X-14000000Y7709095D01*
X-14000000Y7590905D01*
X-13976942Y7474986D01*
X-13950000Y7409942D01*
X-13950000Y7290058D01*
X-13976942Y7225014D01*
X-14000000Y7109095D01*
X-14000000Y6990905D01*
X-13976942Y6874986D01*
X-13950000Y6809942D01*
X-13949999Y-1972982D01*
X-13952660Y-2000000D01*
X-13942041Y-2107818D01*
X-13910591Y-2211494D01*
X-13859521Y-2307042D01*
X-13808013Y-2369804D01*
X-13808007Y-2369810D01*
X-13790789Y-2390790D01*
X-13769809Y-2408008D01*
X-11633013Y-4544804D01*
X-11615790Y-4565790D01*
X-11532042Y-4634521D01*
X-11436494Y-4685592D01*
X-11332819Y-4717042D01*
X-11252018Y-4725000D01*
X-11252009Y-4725000D01*
X-11225001Y-4727660D01*
X-11197993Y-4725000D01*
X-10515058Y-4725000D01*
X-10450014Y-4751942D01*
X-10334095Y-4775000D01*
X-10215905Y-4775000D01*
X-10099986Y-4751942D01*
X-10034942Y-4725000D01*
X-9915058Y-4725000D01*
X-9850014Y-4751942D01*
X-9734095Y-4775000D01*
X-9615905Y-4775000D01*
X-9499986Y-4751942D01*
X-9390793Y-4706713D01*
X-9292522Y-4641050D01*
X-9208950Y-4557478D01*
X-9143287Y-4459207D01*
X-9098058Y-4350014D01*
X-9075000Y-4234095D01*
X-9075000Y-4115905D01*
X-9098058Y-3999986D01*
X-9143287Y-3890793D01*
X-9208950Y-3792522D01*
X-9292522Y-3708950D01*
X-9390793Y-3643287D01*
X-9499986Y-3598058D01*
X-9615905Y-3575000D01*
X-9734095Y-3575000D01*
X-9850014Y-3598058D01*
X-9915058Y-3625000D01*
X-10034942Y-3625000D01*
X-10099986Y-3598058D01*
X-10215905Y-3575000D01*
X-10334095Y-3575000D01*
X-10450014Y-3598058D01*
X-10515058Y-3625000D01*
X-10997183Y-3625000D01*
X-11250222Y-3371961D01*
X14700000Y-3371961D01*
X14700000Y-3628039D01*
X14749958Y-3879196D01*
X14847955Y-4115781D01*
X14990224Y-4328702D01*
X15171298Y-4509776D01*
X15384219Y-4652045D01*
X15620804Y-4750042D01*
X15871961Y-4800000D01*
X16128039Y-4800000D01*
X16379196Y-4750042D01*
X16615781Y-4652045D01*
X16828702Y-4509776D01*
X17009776Y-4328702D01*
X17152045Y-4115781D01*
X17250042Y-3879196D01*
X17300000Y-3628039D01*
X17300000Y-3371961D01*
X17250042Y-3120804D01*
X17152045Y-2884219D01*
X17009776Y-2671298D01*
X16828702Y-2490224D01*
X16615781Y-2347955D01*
X16379196Y-2249958D01*
X16128039Y-2200000D01*
X15871961Y-2200000D01*
X15620804Y-2249958D01*
X15384219Y-2347955D01*
X15171298Y-2490224D01*
X14990224Y-2671298D01*
X14847955Y-2884219D01*
X14749958Y-3120804D01*
X14700000Y-3371961D01*
X-11250222Y-3371961D01*
X-12850000Y-1772183D01*
X-12850000Y-570905D01*
X-1585000Y-570905D01*
X-1585000Y-689095D01*
X-1561942Y-805014D01*
X-1516713Y-914207D01*
X-1451050Y-1012478D01*
X-1385000Y-1078528D01*
X-1384999Y-1440905D01*
X-1385000Y-1796472D01*
X-1451050Y-1862522D01*
X-1516713Y-1960793D01*
X-1561942Y-2069986D01*
X-1585000Y-2185905D01*
X-1585000Y-2304095D01*
X-1561942Y-2420014D01*
X-1516713Y-2529207D01*
X-1451050Y-2627478D01*
X-1367478Y-2711050D01*
X-1269207Y-2776713D01*
X-1160014Y-2821942D01*
X-1044095Y-2845000D01*
X-925905Y-2845000D01*
X-809986Y-2821942D01*
X-700793Y-2776713D01*
X-602522Y-2711050D01*
X-518950Y-2627478D01*
X-453287Y-2529207D01*
X-408058Y-2420014D01*
X-385000Y-2304095D01*
X-385000Y-2185905D01*
X-408058Y-2069986D01*
X-453287Y-1960793D01*
X-518950Y-1862522D01*
X-585000Y-1796472D01*
X-585000Y-1078528D01*
X-518950Y-1012478D01*
X-453287Y-914207D01*
X-408058Y-805014D01*
X-385000Y-689095D01*
X-385000Y-570905D01*
X-408058Y-454986D01*
X-453287Y-345793D01*
X-518950Y-247522D01*
X-602522Y-163950D01*
X-700793Y-98287D01*
X-809986Y-53058D01*
X-925905Y-30000D01*
X-1044095Y-30000D01*
X-1160014Y-53058D01*
X-1269207Y-98287D01*
X-1367478Y-163950D01*
X-1451050Y-247522D01*
X-1516713Y-345793D01*
X-1561942Y-454986D01*
X-1585000Y-570905D01*
X-12850000Y-570905D01*
X-12850000Y6809942D01*
X-12823058Y6874986D01*
X-12800000Y6990905D01*
X-12800000Y7059095D01*
X1910000Y7059095D01*
X1910000Y6940905D01*
X1933058Y6824986D01*
X1978287Y6715793D01*
X2043950Y6617522D01*
X2127522Y6533950D01*
X2140001Y6525612D01*
X2140000Y6079647D01*
X2138065Y6060000D01*
X2140000Y6040354D01*
X2145788Y5981587D01*
X2168660Y5906187D01*
X2205803Y5836698D01*
X2255789Y5775789D01*
X2271052Y5763263D01*
X9500000Y-1465685D01*
X9500000Y-1559095D01*
X9523058Y-1675014D01*
X9568287Y-1784207D01*
X9633950Y-1882478D01*
X9717522Y-1966050D01*
X9815793Y-2031713D01*
X9924986Y-2076942D01*
X10040905Y-2100000D01*
X10159095Y-2100000D01*
X10275014Y-2076942D01*
X10384207Y-2031713D01*
X10482478Y-1966050D01*
X10566050Y-1882478D01*
X10631713Y-1784207D01*
X10676942Y-1675014D01*
X10700000Y-1559095D01*
X10700000Y-1440905D01*
X10676942Y-1324986D01*
X10666592Y-1299999D01*
X11034314Y-1299999D01*
X11200000Y-1465685D01*
X11200000Y-1559095D01*
X11223058Y-1675014D01*
X11268287Y-1784207D01*
X11333950Y-1882478D01*
X11417522Y-1966050D01*
X11515793Y-2031713D01*
X11624986Y-2076942D01*
X11740905Y-2100000D01*
X11859095Y-2100000D01*
X11975014Y-2076942D01*
X12084207Y-2031713D01*
X12182478Y-1966050D01*
X12266050Y-1882478D01*
X12331713Y-1784207D01*
X12376942Y-1675014D01*
X12400000Y-1559095D01*
X12400000Y-1440905D01*
X12376942Y-1324986D01*
X12331713Y-1215793D01*
X12266050Y-1117522D01*
X12182478Y-1033950D01*
X12084207Y-968287D01*
X11975014Y-923058D01*
X11859095Y-900000D01*
X11765685Y-900000D01*
X11496736Y-631051D01*
X11484210Y-615788D01*
X11423302Y-565802D01*
X11353813Y-528659D01*
X11278413Y-505787D01*
X11219646Y-499999D01*
X11219645Y-499999D01*
X11199999Y-498064D01*
X11180353Y-499999D01*
X10231383Y-499999D01*
X4847849Y4883534D01*
X4847849Y4981035D01*
X4849784Y5000681D01*
X4842061Y5079095D01*
X4819189Y5154496D01*
X4782046Y5223984D01*
X4744584Y5269632D01*
X4744582Y5269634D01*
X4732060Y5284892D01*
X4716803Y5297413D01*
X4649265Y5364951D01*
X4649265Y5458360D01*
X4626207Y5574279D01*
X4580978Y5683472D01*
X4515315Y5781743D01*
X4431743Y5865315D01*
X4333472Y5930978D01*
X4224279Y5976207D01*
X4108360Y5999265D01*
X3990170Y5999265D01*
X3874251Y5976207D01*
X3765058Y5930978D01*
X3666787Y5865315D01*
X3583215Y5781743D01*
X3517552Y5683472D01*
X3507201Y5658484D01*
X2940000Y6225685D01*
X2940000Y6581472D01*
X2976050Y6617522D01*
X3041713Y6715793D01*
X3086942Y6824986D01*
X3110000Y6940905D01*
X3110000Y7059095D01*
X3086942Y7175014D01*
X3041713Y7284207D01*
X2976050Y7382478D01*
X2892478Y7466050D01*
X2794207Y7531713D01*
X2685014Y7576942D01*
X2569095Y7600000D01*
X2450905Y7600000D01*
X2334986Y7576942D01*
X2225793Y7531713D01*
X2127522Y7466050D01*
X2043950Y7382478D01*
X1978287Y7284207D01*
X1933058Y7175014D01*
X1910000Y7059095D01*
X-12800000Y7059095D01*
X-12800000Y7109095D01*
X-12823058Y7225014D01*
X-12850000Y7290058D01*
X-12850000Y7409942D01*
X-12823058Y7474986D01*
X-12800000Y7590905D01*
X-12800000Y7709095D01*
X-12823058Y7825014D01*
X-12868287Y7934207D01*
X-12933950Y8032478D01*
X-13017522Y8116050D01*
X-13115793Y8181713D01*
X-13224986Y8226942D01*
X-13340905Y8250000D01*
X-13459095Y8250000D01*
X-13575014Y8226942D01*
X-13684207Y8181713D01*
X-13782478Y8116050D01*
X-13866050Y8032478D01*
X-13931713Y7934207D01*
X-13976942Y7825014D01*
X-14000000Y7709095D01*
X-21675000Y7709095D01*
X-21675000Y9811395D01*
X1738064Y9811395D01*
X1740000Y9791739D01*
X1739999Y8999648D01*
X1738064Y8980001D01*
X1739999Y8960355D01*
X1745787Y8901588D01*
X1768659Y8826188D01*
X1805802Y8756699D01*
X1855788Y8695790D01*
X1871051Y8683264D01*
X5120000Y5434314D01*
X5120000Y5340905D01*
X5143058Y5224986D01*
X5188287Y5115793D01*
X5253950Y5017522D01*
X5337522Y4933950D01*
X5435793Y4868287D01*
X5544986Y4823058D01*
X5660905Y4800000D01*
X5779095Y4800000D01*
X5895014Y4823058D01*
X6004207Y4868287D01*
X6102478Y4933950D01*
X6186050Y5017522D01*
X6251713Y5115793D01*
X6296942Y5224986D01*
X6320000Y5340905D01*
X6320000Y5459095D01*
X6296942Y5575014D01*
X6251713Y5684207D01*
X6186050Y5782478D01*
X6102478Y5866050D01*
X6004207Y5931713D01*
X5895014Y5976942D01*
X5779095Y6000000D01*
X5685686Y6000000D01*
X3892103Y7793582D01*
X3906499Y7795000D01*
X10639315Y7795000D01*
X14839338Y3594977D01*
X14749958Y3379196D01*
X14700000Y3128039D01*
X14700000Y2871961D01*
X14749958Y2620804D01*
X14847955Y2384219D01*
X14990224Y2171298D01*
X15171298Y1990224D01*
X15384219Y1847955D01*
X15620804Y1749958D01*
X15871961Y1700000D01*
X16128039Y1700000D01*
X16379196Y1749958D01*
X16615781Y1847955D01*
X16828702Y1990224D01*
X17009776Y2171298D01*
X17152045Y2384219D01*
X17250042Y2620804D01*
X17300000Y2871961D01*
X17300000Y3128039D01*
X17250042Y3379196D01*
X17152045Y3615781D01*
X17009776Y3828702D01*
X16828702Y4009776D01*
X16615781Y4152045D01*
X16379196Y4250042D01*
X16128039Y4300000D01*
X15871961Y4300000D01*
X15620804Y4250042D01*
X15405023Y4160662D01*
X13437646Y6128039D01*
X14700000Y6128039D01*
X14700000Y5871961D01*
X14749958Y5620804D01*
X14847955Y5384219D01*
X14990224Y5171298D01*
X15171298Y4990224D01*
X15384219Y4847955D01*
X15620804Y4749958D01*
X15871961Y4700000D01*
X16128039Y4700000D01*
X16379196Y4749958D01*
X16615781Y4847955D01*
X16828702Y4990224D01*
X17009776Y5171298D01*
X17152045Y5384219D01*
X17250042Y5620804D01*
X17300000Y5871961D01*
X17300000Y6128039D01*
X17250042Y6379196D01*
X17152045Y6615781D01*
X17009776Y6828702D01*
X16828702Y7009776D01*
X16615781Y7152045D01*
X16379196Y7250042D01*
X16128039Y7300000D01*
X15871961Y7300000D01*
X15620804Y7250042D01*
X15384219Y7152045D01*
X15171298Y7009776D01*
X14990224Y6828702D01*
X14847955Y6615781D01*
X14749958Y6379196D01*
X14700000Y6128039D01*
X13437646Y6128039D01*
X11101735Y8463950D01*
X11089211Y8479211D01*
X11028303Y8529197D01*
X10958814Y8566340D01*
X10883414Y8589212D01*
X10824647Y8595000D01*
X10824646Y8595000D01*
X10805000Y8596935D01*
X10785354Y8595000D01*
X4052537Y8595000D01*
X3785849Y8861688D01*
X3874207Y8898287D01*
X3972478Y8963950D01*
X4056050Y9047522D01*
X4121713Y9145793D01*
X4166942Y9254986D01*
X4190000Y9370905D01*
X4190000Y9489095D01*
X4166942Y9605014D01*
X4121713Y9714207D01*
X4056050Y9812478D01*
X4029433Y9839095D01*
X7860000Y9839095D01*
X7860000Y9720905D01*
X7883058Y9604986D01*
X7928287Y9495793D01*
X7993950Y9397522D01*
X8077522Y9313950D01*
X8175793Y9248287D01*
X8284986Y9203058D01*
X8400905Y9180000D01*
X8519095Y9180000D01*
X8635014Y9203058D01*
X8744207Y9248287D01*
X8842478Y9313950D01*
X8926050Y9397522D01*
X8991713Y9495793D01*
X9036942Y9604986D01*
X9060000Y9720905D01*
X9060000Y9814315D01*
X9515686Y10270000D01*
X14150354Y10270000D01*
X14170000Y10268065D01*
X14189646Y10270000D01*
X14189647Y10270000D01*
X14248414Y10275788D01*
X14323814Y10298660D01*
X14393303Y10335803D01*
X14454211Y10385789D01*
X14466737Y10401052D01*
X15405023Y11339338D01*
X15620804Y11249958D01*
X15871961Y11200000D01*
X16128039Y11200000D01*
X16379196Y11249958D01*
X16615781Y11347955D01*
X16828702Y11490224D01*
X17009776Y11671298D01*
X17152045Y11884219D01*
X17250042Y12120804D01*
X17300000Y12371961D01*
X17300000Y12628039D01*
X17250042Y12879196D01*
X17152045Y13115781D01*
X17009776Y13328702D01*
X16828702Y13509776D01*
X16615781Y13652045D01*
X16379196Y13750042D01*
X16128039Y13800000D01*
X15871961Y13800000D01*
X15620804Y13750042D01*
X15384219Y13652045D01*
X15171298Y13509776D01*
X14990224Y13328702D01*
X14847955Y13115781D01*
X14749958Y12879196D01*
X14700000Y12628039D01*
X14700000Y12371961D01*
X14749958Y12120804D01*
X14839338Y11905023D01*
X14004315Y11070000D01*
X9369643Y11070000D01*
X9349999Y11071935D01*
X9330355Y11070000D01*
X9330353Y11070000D01*
X9271586Y11064212D01*
X9196186Y11041340D01*
X9126697Y11004197D01*
X9094495Y10977769D01*
X9081049Y10966735D01*
X9081047Y10966733D01*
X9065789Y10954211D01*
X9053267Y10938953D01*
X8494315Y10380000D01*
X8400905Y10380000D01*
X8284986Y10356942D01*
X8175793Y10311713D01*
X8077522Y10246050D01*
X7993950Y10162478D01*
X7928287Y10064207D01*
X7883058Y9955014D01*
X7860000Y9839095D01*
X4029433Y9839095D01*
X3990000Y9878528D01*
X3990000Y9964315D01*
X6978954Y12953268D01*
X6994211Y12965789D01*
X7044197Y13026697D01*
X7081340Y13096186D01*
X7104212Y13171586D01*
X7110000Y13230353D01*
X7110000Y13230363D01*
X7111934Y13249999D01*
X7110000Y13269635D01*
X7110000Y14287435D01*
X8550000Y14287435D01*
X8550000Y13952565D01*
X8615330Y13624128D01*
X8743479Y13314748D01*
X8929523Y13036313D01*
X9166313Y12799523D01*
X9444748Y12613479D01*
X9754128Y12485330D01*
X10082565Y12420000D01*
X10417435Y12420000D01*
X10745872Y12485330D01*
X11055252Y12613479D01*
X11333687Y12799523D01*
X11570477Y13036313D01*
X11756521Y13314748D01*
X11884670Y13624128D01*
X11950000Y13952565D01*
X11950000Y14287435D01*
X11884670Y14615872D01*
X11756521Y14925252D01*
X11570477Y15203687D01*
X11333687Y15440477D01*
X11055252Y15626521D01*
X10745872Y15754670D01*
X10417435Y15820000D01*
X10082565Y15820000D01*
X9754128Y15754670D01*
X9444748Y15626521D01*
X9166313Y15440477D01*
X8929523Y15203687D01*
X8743479Y14925252D01*
X8615330Y14615872D01*
X8550000Y14287435D01*
X7110000Y14287435D01*
X7110000Y15894315D01*
X8925675Y17709990D01*
X12370344Y17709990D01*
X12389990Y17708055D01*
X12409636Y17709990D01*
X12409637Y17709990D01*
X12468404Y17715778D01*
X12543804Y17738650D01*
X12613293Y17775793D01*
X12674201Y17825779D01*
X12686727Y17841042D01*
X13258196Y18412511D01*
X16600000Y18412511D01*
X16600000Y18087489D01*
X16663408Y17768713D01*
X16787789Y17468432D01*
X16968361Y17198186D01*
X17198186Y16968361D01*
X17468432Y16787789D01*
X17768713Y16663408D01*
X18087489Y16600000D01*
X18412511Y16600000D01*
X18731287Y16663408D01*
X19031568Y16787789D01*
X19301814Y16968361D01*
X19531639Y17198186D01*
X19712211Y17468432D01*
X19836592Y17768713D01*
X19900000Y18087489D01*
X19900000Y18412511D01*
X19836592Y18731287D01*
X19712211Y19031568D01*
X19531639Y19301814D01*
X19301814Y19531639D01*
X19031568Y19712211D01*
X18731287Y19836592D01*
X18412511Y19900000D01*
X18087489Y19900000D01*
X17768713Y19836592D01*
X17468432Y19712211D01*
X17198186Y19531639D01*
X16968361Y19301814D01*
X16787789Y19031568D01*
X16663408Y18731287D01*
X16600000Y18412511D01*
X13258196Y18412511D01*
X13528954Y18683268D01*
X13544211Y18695789D01*
X13575560Y18733987D01*
X13594197Y18756697D01*
X13601410Y18770192D01*
X13631340Y18826186D01*
X13654212Y18901586D01*
X13660000Y18960353D01*
X13660000Y18960354D01*
X13661935Y18980000D01*
X13660000Y18999646D01*
X13660000Y19120935D01*
X13804729Y19180884D01*
X13993082Y19306737D01*
X14153263Y19466918D01*
X14279116Y19655271D01*
X14365806Y19864557D01*
X14410000Y20086735D01*
X14410000Y20313265D01*
X14365806Y20535443D01*
X14279116Y20744729D01*
X14153263Y20933082D01*
X13993082Y21093263D01*
X13804729Y21219116D01*
X13595443Y21305806D01*
X13373265Y21350000D01*
X13146735Y21350000D01*
X12924557Y21305806D01*
X12715271Y21219116D01*
X12526918Y21093263D01*
X12366737Y20933082D01*
X12240884Y20744729D01*
X12154194Y20535443D01*
X12110000Y20313265D01*
X12110000Y20086735D01*
X12154194Y19864557D01*
X12240884Y19655271D01*
X12366737Y19466918D01*
X12526918Y19306737D01*
X12715271Y19180884D01*
X12842498Y19128184D01*
X12224305Y18509990D01*
X10825676Y18509990D01*
X10988954Y18673268D01*
X11004211Y18685789D01*
X11023930Y18709816D01*
X11054196Y18746696D01*
X11054197Y18746697D01*
X11091340Y18816186D01*
X11114212Y18891586D01*
X11120000Y18950353D01*
X11120000Y18950363D01*
X11121934Y18969999D01*
X11120000Y18989635D01*
X11120000Y19120935D01*
X11264729Y19180884D01*
X11453082Y19306737D01*
X11613263Y19466918D01*
X11739116Y19655271D01*
X11825806Y19864557D01*
X11870000Y20086735D01*
X11870000Y20313265D01*
X11825806Y20535443D01*
X11739116Y20744729D01*
X11613263Y20933082D01*
X11453082Y21093263D01*
X11264729Y21219116D01*
X11055443Y21305806D01*
X10833265Y21350000D01*
X10606735Y21350000D01*
X10384557Y21305806D01*
X10175271Y21219116D01*
X9986918Y21093263D01*
X9826737Y20933082D01*
X9700884Y20744729D01*
X9614194Y20535443D01*
X9570000Y20313265D01*
X9570000Y20086735D01*
X9614194Y19864557D01*
X9700884Y19655271D01*
X9826737Y19466918D01*
X9986918Y19306737D01*
X10175271Y19180884D01*
X10309569Y19125255D01*
X10094315Y18910000D01*
X8613949Y18910000D01*
X8594302Y18911935D01*
X8580000Y18910526D01*
X8580000Y19120935D01*
X8724729Y19180884D01*
X8913082Y19306737D01*
X9073263Y19466918D01*
X9199116Y19655271D01*
X9285806Y19864557D01*
X9330000Y20086735D01*
X9330000Y20313265D01*
X9285806Y20535443D01*
X9199116Y20744729D01*
X9073263Y20933082D01*
X8913082Y21093263D01*
X8724729Y21219116D01*
X8515443Y21305806D01*
X8293265Y21350000D01*
X8066735Y21350000D01*
X7844557Y21305806D01*
X7635271Y21219116D01*
X7446918Y21093263D01*
X7286737Y20933082D01*
X7160884Y20744729D01*
X7074194Y20535443D01*
X7030000Y20313265D01*
X7030000Y20086735D01*
X7074194Y19864557D01*
X7160884Y19655271D01*
X7286737Y19466918D01*
X7446918Y19306737D01*
X7635271Y19180884D01*
X7780000Y19120935D01*
X7780000Y18827084D01*
X5641028Y16688111D01*
X5625770Y16675589D01*
X5613248Y16660331D01*
X5613245Y16660328D01*
X5575783Y16614680D01*
X5538641Y16545192D01*
X5515768Y16469791D01*
X5508045Y16391378D01*
X5509981Y16371722D01*
X5509980Y13747062D01*
X1871047Y10108128D01*
X1855789Y10095606D01*
X1843267Y10080348D01*
X1843264Y10080345D01*
X1805802Y10034697D01*
X1768660Y9965209D01*
X1745787Y9889808D01*
X1738064Y9811395D01*
X-21675000Y9811395D01*
X-21675000Y11939637D01*
X-21652045Y11884219D01*
X-21509776Y11671298D01*
X-21328702Y11490224D01*
X-21115781Y11347955D01*
X-20879196Y11249958D01*
X-20628039Y11200000D01*
X-20371961Y11200000D01*
X-20120804Y11249958D01*
X-19884219Y11347955D01*
X-19671298Y11490224D01*
X-19490224Y11671298D01*
X-19347955Y11884219D01*
X-19249958Y12120804D01*
X-19200000Y12371961D01*
X-19200000Y12628039D01*
X-17300000Y12628039D01*
X-17300000Y12371961D01*
X-17250042Y12120804D01*
X-17152045Y11884219D01*
X-17009776Y11671298D01*
X-16828702Y11490224D01*
X-16615781Y11347955D01*
X-16379196Y11249958D01*
X-16128039Y11200000D01*
X-15871961Y11200000D01*
X-15620804Y11249958D01*
X-15384219Y11347955D01*
X-15171298Y11490224D01*
X-14990224Y11671298D01*
X-14847955Y11884219D01*
X-14749958Y12120804D01*
X-14700000Y12371961D01*
X-14700000Y12628039D01*
X-14749958Y12879196D01*
X-14847955Y13115781D01*
X-14990224Y13328702D01*
X-15171298Y13509776D01*
X-15384219Y13652045D01*
X-15620804Y13750042D01*
X-15800703Y13785826D01*
X-4573463Y13785826D01*
X-4477695Y13615932D01*
X-4268981Y13504964D01*
X-4042629Y13436847D01*
X-3807337Y13414198D01*
X-3572148Y13437886D01*
X-3346100Y13507003D01*
X-3142305Y13615932D01*
X-3046537Y13785826D01*
X-3810000Y14549289D01*
X-4573463Y13785826D01*
X-15800703Y13785826D01*
X-15871961Y13800000D01*
X-16128039Y13800000D01*
X-16379196Y13750042D01*
X-16615781Y13652045D01*
X-16828702Y13509776D01*
X-17009776Y13328702D01*
X-17152045Y13115781D01*
X-17250042Y12879196D01*
X-17300000Y12628039D01*
X-19200000Y12628039D01*
X-19249958Y12879196D01*
X-19347955Y13115781D01*
X-19490224Y13328702D01*
X-19671298Y13509776D01*
X-19884219Y13652045D01*
X-20120804Y13750042D01*
X-20371961Y13800000D01*
X-20628039Y13800000D01*
X-20879196Y13750042D01*
X-21115781Y13652045D01*
X-21328702Y13509776D01*
X-21509776Y13328702D01*
X-21652045Y13115781D01*
X-21675000Y13060363D01*
X-21675000Y14617337D01*
X-5015802Y14617337D01*
X-4992114Y14382148D01*
X-4922997Y14156100D01*
X-4814068Y13952305D01*
X-4644174Y13856537D01*
X-3880711Y14620000D01*
X-3739289Y14620000D01*
X-2975826Y13856537D01*
X-2805932Y13952305D01*
X-2694964Y14161019D01*
X-2626847Y14387371D01*
X-2604198Y14622663D01*
X-2615833Y14738190D01*
X-2470000Y14738190D01*
X-2470000Y14501810D01*
X-2423884Y14269973D01*
X-2333426Y14051587D01*
X-2202101Y13855045D01*
X-2034955Y13687899D01*
X-1838413Y13556574D01*
X-1620027Y13466116D01*
X-1388190Y13420000D01*
X-1151810Y13420000D01*
X-919973Y13466116D01*
X-701587Y13556574D01*
X-505045Y13687899D01*
X-337899Y13855045D01*
X-206574Y14051587D01*
X-116116Y14269973D01*
X-70000Y14501810D01*
X-70000Y14738190D01*
X70000Y14738190D01*
X70000Y14501810D01*
X116116Y14269973D01*
X206574Y14051587D01*
X337899Y13855045D01*
X505045Y13687899D01*
X701587Y13556574D01*
X919973Y13466116D01*
X1151810Y13420000D01*
X1388190Y13420000D01*
X1620027Y13466116D01*
X1838413Y13556574D01*
X2034955Y13687899D01*
X2202101Y13855045D01*
X2333426Y14051587D01*
X2423884Y14269973D01*
X2470000Y14501810D01*
X2470000Y14738190D01*
X2610000Y14738190D01*
X2610000Y14501810D01*
X2656116Y14269973D01*
X2746574Y14051587D01*
X2877899Y13855045D01*
X3045045Y13687899D01*
X3241587Y13556574D01*
X3459973Y13466116D01*
X3691810Y13420000D01*
X3928190Y13420000D01*
X4160027Y13466116D01*
X4378413Y13556574D01*
X4574955Y13687899D01*
X4742101Y13855045D01*
X4873426Y14051587D01*
X4963884Y14269973D01*
X5010000Y14501810D01*
X5010000Y14738190D01*
X4963884Y14970027D01*
X4873426Y15188413D01*
X4742101Y15384955D01*
X4574955Y15552101D01*
X4378413Y15683426D01*
X4160027Y15773884D01*
X3928190Y15820000D01*
X3691810Y15820000D01*
X3459973Y15773884D01*
X3241587Y15683426D01*
X3045045Y15552101D01*
X2877899Y15384955D01*
X2746574Y15188413D01*
X2656116Y14970027D01*
X2610000Y14738190D01*
X2470000Y14738190D01*
X2423884Y14970027D01*
X2333426Y15188413D01*
X2202101Y15384955D01*
X2034955Y15552101D01*
X1838413Y15683426D01*
X1620027Y15773884D01*
X1388190Y15820000D01*
X1151810Y15820000D01*
X919973Y15773884D01*
X701587Y15683426D01*
X505045Y15552101D01*
X337899Y15384955D01*
X206574Y15188413D01*
X116116Y14970027D01*
X70000Y14738190D01*
X-70000Y14738190D01*
X-116116Y14970027D01*
X-206574Y15188413D01*
X-337899Y15384955D01*
X-505045Y15552101D01*
X-701587Y15683426D01*
X-919973Y15773884D01*
X-1151810Y15820000D01*
X-1388190Y15820000D01*
X-1620027Y15773884D01*
X-1838413Y15683426D01*
X-2034955Y15552101D01*
X-2202101Y15384955D01*
X-2333426Y15188413D01*
X-2423884Y14970027D01*
X-2470000Y14738190D01*
X-2615833Y14738190D01*
X-2627886Y14857852D01*
X-2697003Y15083900D01*
X-2805932Y15287695D01*
X-2975826Y15383463D01*
X-3739289Y14620000D01*
X-3880711Y14620000D01*
X-4644174Y15383463D01*
X-4814068Y15287695D01*
X-4925036Y15078981D01*
X-4993153Y14852629D01*
X-5015802Y14617337D01*
X-21675000Y14617337D01*
X-21675000Y15454174D01*
X-4573463Y15454174D01*
X-3810000Y14690711D01*
X-3046537Y15454174D01*
X-3142305Y15624068D01*
X-3351019Y15735036D01*
X-3577371Y15803153D01*
X-3812663Y15825802D01*
X-4047852Y15802114D01*
X-4273900Y15732997D01*
X-4477695Y15624068D01*
X-4573463Y15454174D01*
X-21675000Y15454174D01*
X-21675000Y18412511D01*
X-19900000Y18412511D01*
X-19900000Y18087489D01*
X-19836592Y17768713D01*
X-19712211Y17468432D01*
X-19531639Y17198186D01*
X-19301814Y16968361D01*
X-19031568Y16787789D01*
X-18731287Y16663408D01*
X-18412511Y16600000D01*
X-18087489Y16600000D01*
X-17768713Y16663408D01*
X-17468432Y16787789D01*
X-17198186Y16968361D01*
X-16968361Y17198186D01*
X-16787789Y17468432D01*
X-16663408Y17768713D01*
X-16600000Y18087489D01*
X-16600000Y18412511D01*
X-16663408Y18731287D01*
X-16787789Y19031568D01*
X-16968361Y19301814D01*
X-17198186Y19531639D01*
X-17468432Y19712211D01*
X-17768713Y19836592D01*
X-18087489Y19900000D01*
X-18412511Y19900000D01*
X-18731287Y19836592D01*
X-19031568Y19712211D01*
X-19301814Y19531639D01*
X-19531639Y19301814D01*
X-19712211Y19031568D01*
X-19836592Y18731287D01*
X-19900000Y18412511D01*
X-21675000Y18412511D01*
X-21675000Y18984103D01*
X-21622526Y19519275D01*
X-21471719Y20018770D01*
X-21226767Y20479459D01*
X-20896998Y20883797D01*
X-20696093Y21050000D01*
X1948549Y21050000D01*
X1948549Y19350000D01*
X1954341Y19291190D01*
X1971496Y19234640D01*
X1999353Y19182523D01*
X2036842Y19136842D01*
X2082523Y19099353D01*
X2134640Y19071496D01*
X2191190Y19054341D01*
X2250000Y19048549D01*
X3950000Y19048549D01*
X4008810Y19054341D01*
X4065360Y19071496D01*
X4117477Y19099353D01*
X4163158Y19136842D01*
X4200647Y19182523D01*
X4228504Y19234640D01*
X4245659Y19291190D01*
X4251451Y19350000D01*
X4251451Y19970886D01*
X4513052Y19970886D01*
X4579404Y19755432D01*
X4686514Y19557062D01*
X4830266Y19383400D01*
X5005136Y19241119D01*
X5204403Y19135688D01*
X5410886Y19073054D01*
X5590000Y19126163D01*
X5590000Y20150000D01*
X5690000Y20150000D01*
X5690000Y19126163D01*
X5869114Y19073054D01*
X6075597Y19135688D01*
X6274864Y19241119D01*
X6449734Y19383400D01*
X6593486Y19557062D01*
X6700596Y19755432D01*
X6766948Y19970886D01*
X6713915Y20150000D01*
X5690000Y20150000D01*
X5590000Y20150000D01*
X4566085Y20150000D01*
X4513052Y19970886D01*
X4251451Y19970886D01*
X4251451Y20429114D01*
X4513052Y20429114D01*
X4566085Y20250000D01*
X5590000Y20250000D01*
X5590000Y21273837D01*
X5690000Y21273837D01*
X5690000Y20250000D01*
X6713915Y20250000D01*
X6766948Y20429114D01*
X6700596Y20644568D01*
X6593486Y20842938D01*
X6449734Y21016600D01*
X6274864Y21158881D01*
X6075597Y21264312D01*
X5869114Y21326946D01*
X5690000Y21273837D01*
X5590000Y21273837D01*
X5410886Y21326946D01*
X5204403Y21264312D01*
X5005136Y21158881D01*
X4830266Y21016600D01*
X4686514Y20842938D01*
X4579404Y20644568D01*
X4513052Y20429114D01*
X4251451Y20429114D01*
X4251451Y21050000D01*
X4245659Y21108810D01*
X4228504Y21165360D01*
X4200647Y21217477D01*
X4163158Y21263158D01*
X4117477Y21300647D01*
X4065360Y21328504D01*
X4008810Y21345659D01*
X3950000Y21351451D01*
X2250000Y21351451D01*
X2191190Y21345659D01*
X2134640Y21328504D01*
X2082523Y21300647D01*
X2036842Y21263158D01*
X1999353Y21217477D01*
X1971496Y21165360D01*
X1954341Y21108810D01*
X1948549Y21050000D01*
X-20696093Y21050000D01*
X-20494969Y21216384D01*
X-20035999Y21464548D01*
X-19537573Y21618837D01*
X-19003343Y21674986D01*
X-18999441Y21675000D01*
X18984103Y21675000D01*
X19519275Y21622526D01*
%TA.AperFunction,Conductor*%
D20*
G36*
X19519275Y21622526D02*
G01*
X20018770Y21471719D01*
X20479459Y21226767D01*
X20883797Y20896998D01*
X21216384Y20494969D01*
X21464548Y20035999D01*
X21618837Y19537573D01*
X21674986Y19003343D01*
X21675000Y18999441D01*
X21675000Y13060363D01*
X21652045Y13115781D01*
X21509776Y13328702D01*
X21328702Y13509776D01*
X21115781Y13652045D01*
X20879196Y13750042D01*
X20628039Y13800000D01*
X20371961Y13800000D01*
X20120804Y13750042D01*
X19884219Y13652045D01*
X19671298Y13509776D01*
X19490224Y13328702D01*
X19347955Y13115781D01*
X19249958Y12879196D01*
X19200000Y12628039D01*
X19200000Y12371961D01*
X19249958Y12120804D01*
X19347955Y11884219D01*
X19490224Y11671298D01*
X19671298Y11490224D01*
X19884219Y11347955D01*
X20120804Y11249958D01*
X20371961Y11200000D01*
X20628039Y11200000D01*
X20879196Y11249958D01*
X21115781Y11347955D01*
X21328702Y11490224D01*
X21509776Y11671298D01*
X21652045Y11884219D01*
X21675000Y11939637D01*
X21675000Y6560363D01*
X21652045Y6615781D01*
X21509776Y6828702D01*
X21328702Y7009776D01*
X21115781Y7152045D01*
X20879196Y7250042D01*
X20628039Y7300000D01*
X20371961Y7300000D01*
X20120804Y7250042D01*
X19884219Y7152045D01*
X19671298Y7009776D01*
X19490224Y6828702D01*
X19347955Y6615781D01*
X19249958Y6379196D01*
X19200000Y6128039D01*
X19200000Y5871961D01*
X19249958Y5620804D01*
X19347955Y5384219D01*
X19490224Y5171298D01*
X19671298Y4990224D01*
X19884219Y4847955D01*
X20120804Y4749958D01*
X20371961Y4700000D01*
X20628039Y4700000D01*
X20879196Y4749958D01*
X21115781Y4847955D01*
X21328702Y4990224D01*
X21509776Y5171298D01*
X21652045Y5384219D01*
X21675000Y5439637D01*
X21675000Y3560363D01*
X21652045Y3615781D01*
X21509776Y3828702D01*
X21328702Y4009776D01*
X21115781Y4152045D01*
X20879196Y4250042D01*
X20628039Y4300000D01*
X20371961Y4300000D01*
X20120804Y4250042D01*
X19884219Y4152045D01*
X19671298Y4009776D01*
X19490224Y3828702D01*
X19347955Y3615781D01*
X19249958Y3379196D01*
X19200000Y3128039D01*
X19200000Y2871961D01*
X19249958Y2620804D01*
X19347955Y2384219D01*
X19490224Y2171298D01*
X19671298Y1990224D01*
X19884219Y1847955D01*
X20120804Y1749958D01*
X20371961Y1700000D01*
X20628039Y1700000D01*
X20879196Y1749958D01*
X21115781Y1847955D01*
X21328702Y1990224D01*
X21509776Y2171298D01*
X21652045Y2384219D01*
X21675000Y2439637D01*
X21675001Y-2939639D01*
X21652045Y-2884219D01*
X21509776Y-2671298D01*
X21328702Y-2490224D01*
X21115781Y-2347955D01*
X20879196Y-2249958D01*
X20628039Y-2200000D01*
X20371961Y-2200000D01*
X20120804Y-2249958D01*
X19884219Y-2347955D01*
X19671298Y-2490224D01*
X19490224Y-2671298D01*
X19347955Y-2884219D01*
X19249958Y-3120804D01*
X19200000Y-3371961D01*
X19200000Y-3628039D01*
X19249958Y-3879196D01*
X19347955Y-4115781D01*
X19490224Y-4328702D01*
X19671298Y-4509776D01*
X19884219Y-4652045D01*
X20120804Y-4750042D01*
X20371961Y-4800000D01*
X20628039Y-4800000D01*
X20879196Y-4750042D01*
X21115781Y-4652045D01*
X21328702Y-4509776D01*
X21509776Y-4328702D01*
X21652045Y-4115781D01*
X21675001Y-4060361D01*
X21675001Y-18984094D01*
X21622526Y-19519274D01*
X21471719Y-20018770D01*
X21226768Y-20479458D01*
X20896995Y-20883799D01*
X20494970Y-21216383D01*
X20035997Y-21464548D01*
X19537575Y-21618836D01*
X19003342Y-21674986D01*
X18999441Y-21675000D01*
X-18984104Y-21675000D01*
X-19519274Y-21622526D01*
X-20018770Y-21471719D01*
X-20479458Y-21226768D01*
X-20883799Y-20896995D01*
X-21216383Y-20494970D01*
X-21464548Y-20035997D01*
X-21568556Y-19700000D01*
X10880000Y-19700000D01*
X10880000Y-20000000D01*
X10905126Y-20155112D01*
X10960030Y-20302341D01*
X11042602Y-20436030D01*
X11149669Y-20551041D01*
X11277116Y-20642955D01*
X11420046Y-20708239D01*
X11505713Y-20730784D01*
X11630000Y-20673274D01*
X11630000Y-19700000D01*
X11730000Y-19700000D01*
X11730000Y-20673274D01*
X11854287Y-20730784D01*
X11939954Y-20708239D01*
X12082884Y-20642955D01*
X12210331Y-20551041D01*
X12317398Y-20436030D01*
X12399970Y-20302341D01*
X12454874Y-20155112D01*
X12480000Y-20000000D01*
X12480000Y-19700000D01*
X19520000Y-19700000D01*
X19520000Y-20000000D01*
X19545126Y-20155112D01*
X19600030Y-20302341D01*
X19682602Y-20436030D01*
X19789669Y-20551041D01*
X19917116Y-20642955D01*
X20060046Y-20708239D01*
X20145713Y-20730784D01*
X20270000Y-20673274D01*
X20270000Y-19700000D01*
X20370000Y-19700000D01*
X20370000Y-20673274D01*
X20494287Y-20730784D01*
X20579954Y-20708239D01*
X20722884Y-20642955D01*
X20850331Y-20551041D01*
X20957398Y-20436030D01*
X21039970Y-20302341D01*
X21094874Y-20155112D01*
X21120000Y-20000000D01*
X21120000Y-19700000D01*
X20370000Y-19700000D01*
X20270000Y-19700000D01*
X19520000Y-19700000D01*
X12480000Y-19700000D01*
X11730000Y-19700000D01*
X11630000Y-19700000D01*
X10880000Y-19700000D01*
X-21568556Y-19700000D01*
X-21618836Y-19537575D01*
X-21643806Y-19300000D01*
X10880000Y-19300000D01*
X10880000Y-19600000D01*
X11630000Y-19600000D01*
X11630000Y-18626726D01*
X11730000Y-18626726D01*
X11730000Y-19600000D01*
X12480000Y-19600000D01*
X12480000Y-19300000D01*
X19520000Y-19300000D01*
X19520000Y-19600000D01*
X20270000Y-19600000D01*
X20270000Y-18626726D01*
X20370000Y-18626726D01*
X20370000Y-19600000D01*
X21120000Y-19600000D01*
X21120000Y-19300000D01*
X21094874Y-19144888D01*
X21039970Y-18997659D01*
X20957398Y-18863970D01*
X20850331Y-18748959D01*
X20722884Y-18657045D01*
X20579954Y-18591761D01*
X20494287Y-18569216D01*
X20370000Y-18626726D01*
X20270000Y-18626726D01*
X20145713Y-18569216D01*
X20060046Y-18591761D01*
X19917116Y-18657045D01*
X19789669Y-18748959D01*
X19682602Y-18863970D01*
X19600030Y-18997659D01*
X19545126Y-19144888D01*
X19520000Y-19300000D01*
X12480000Y-19300000D01*
X12454874Y-19144888D01*
X12399970Y-18997659D01*
X12317398Y-18863970D01*
X12210331Y-18748959D01*
X12082884Y-18657045D01*
X11939954Y-18591761D01*
X11854287Y-18569216D01*
X11730000Y-18626726D01*
X11630000Y-18626726D01*
X11505713Y-18569216D01*
X11420046Y-18591761D01*
X11277116Y-18657045D01*
X11149669Y-18748959D01*
X11042602Y-18863970D01*
X10960030Y-18997659D01*
X10905126Y-19144888D01*
X10880000Y-19300000D01*
X-21643806Y-19300000D01*
X-21674986Y-19003342D01*
X-21675000Y-18999441D01*
X-21675000Y-15993509D01*
X-19915000Y-15993509D01*
X-19915000Y-17406492D01*
X-19898360Y-17575439D01*
X-19832602Y-17792215D01*
X-19725815Y-17991997D01*
X-19582106Y-18167107D01*
X-19406996Y-18310816D01*
X-19207214Y-18417602D01*
X-18990438Y-18483360D01*
X-18765000Y-18505564D01*
X-18539561Y-18483360D01*
X-18322785Y-18417602D01*
X-18123003Y-18310816D01*
X-17947893Y-18167107D01*
X-17804184Y-17991997D01*
X-17697398Y-17792215D01*
X-17631640Y-17575439D01*
X-17615000Y-17406492D01*
X-17615000Y-15993509D01*
X-16105000Y-15993509D01*
X-16105000Y-17406492D01*
X-16088360Y-17575439D01*
X-16022602Y-17792215D01*
X-15915815Y-17991997D01*
X-15772106Y-18167107D01*
X-15596996Y-18310816D01*
X-15397214Y-18417602D01*
X-15180438Y-18483360D01*
X-14955000Y-18505564D01*
X-14729561Y-18483360D01*
X-14512785Y-18417602D01*
X-14313003Y-18310816D01*
X-14137893Y-18167107D01*
X-13994184Y-17991997D01*
X-13887398Y-17792215D01*
X-13821640Y-17575439D01*
X-13805000Y-17406492D01*
X-13805000Y-15993509D01*
X-12295000Y-15993509D01*
X-12295000Y-17406492D01*
X-12278360Y-17575439D01*
X-12212602Y-17792215D01*
X-12105815Y-17991997D01*
X-11962106Y-18167107D01*
X-11786996Y-18310816D01*
X-11587214Y-18417602D01*
X-11370438Y-18483360D01*
X-11145000Y-18505564D01*
X-10919561Y-18483360D01*
X-10702785Y-18417602D01*
X-10503003Y-18310816D01*
X-10327893Y-18167107D01*
X-10184184Y-17991997D01*
X-10077398Y-17792215D01*
X-10011640Y-17575439D01*
X-9995000Y-17406492D01*
X-9995000Y-15993509D01*
X-8485000Y-15993509D01*
X-8485000Y-17406492D01*
X-8468360Y-17575439D01*
X-8402602Y-17792215D01*
X-8295815Y-17991997D01*
X-8152106Y-18167107D01*
X-7976996Y-18310816D01*
X-7777214Y-18417602D01*
X-7560438Y-18483360D01*
X-7335000Y-18505564D01*
X-7109561Y-18483360D01*
X-6892785Y-18417602D01*
X-6693003Y-18310816D01*
X-6517893Y-18167107D01*
X-6374184Y-17991997D01*
X-6267398Y-17792215D01*
X-6201640Y-17575439D01*
X-6185000Y-17406492D01*
X-6185000Y-15993509D01*
X-4675000Y-15993509D01*
X-4675000Y-17406492D01*
X-4658360Y-17575439D01*
X-4592602Y-17792215D01*
X-4485815Y-17991997D01*
X-4342106Y-18167107D01*
X-4166996Y-18310816D01*
X-3967214Y-18417602D01*
X-3750438Y-18483360D01*
X-3525000Y-18505564D01*
X-3299561Y-18483360D01*
X-3082785Y-18417602D01*
X-2883003Y-18310816D01*
X-2707893Y-18167107D01*
X-2564184Y-17991997D01*
X-2457398Y-17792215D01*
X-2391640Y-17575439D01*
X-2375000Y-17406492D01*
X-2375000Y-15993509D01*
X-865000Y-15993509D01*
X-865000Y-17406492D01*
X-848360Y-17575439D01*
X-782602Y-17792215D01*
X-675815Y-17991997D01*
X-532106Y-18167107D01*
X-356996Y-18310816D01*
X-157214Y-18417602D01*
X59562Y-18483360D01*
X285000Y-18505564D01*
X510439Y-18483360D01*
X727215Y-18417602D01*
X926997Y-18310816D01*
X1102107Y-18167107D01*
X1245816Y-17991997D01*
X1352602Y-17792215D01*
X1418360Y-17575439D01*
X1435000Y-17406492D01*
X1435000Y-15993509D01*
X2945000Y-15993509D01*
X2945000Y-17406492D01*
X2961640Y-17575439D01*
X3027398Y-17792215D01*
X3134185Y-17991997D01*
X3277894Y-18167107D01*
X3453004Y-18310816D01*
X3652786Y-18417602D01*
X3869562Y-18483360D01*
X4095000Y-18505564D01*
X4320439Y-18483360D01*
X4537215Y-18417602D01*
X4736997Y-18310816D01*
X4912107Y-18167107D01*
X5055816Y-17991997D01*
X5162602Y-17792215D01*
X5228360Y-17575439D01*
X5245000Y-17406492D01*
X5245000Y-16750000D01*
X6755000Y-16750000D01*
X6755000Y-17400000D01*
X6786851Y-17623393D01*
X6861672Y-17836280D01*
X6976588Y-18030479D01*
X7127182Y-18198528D01*
X7307667Y-18333969D01*
X7511107Y-18431596D01*
X7675886Y-18476946D01*
X7855000Y-18423837D01*
X7855000Y-16750000D01*
X7955000Y-16750000D01*
X7955000Y-18423837D01*
X8134114Y-18476946D01*
X8298893Y-18431596D01*
X8502333Y-18333969D01*
X8682818Y-18198528D01*
X8833412Y-18030479D01*
X8948328Y-17836280D01*
X9023149Y-17623393D01*
X9055000Y-17400000D01*
X9055000Y-16750000D01*
X7955000Y-16750000D01*
X7855000Y-16750000D01*
X6755000Y-16750000D01*
X5245000Y-16750000D01*
X5245000Y-16000000D01*
X6755000Y-16000000D01*
X6755000Y-16650000D01*
X7855000Y-16650000D01*
X7855000Y-14976163D01*
X7955000Y-14976163D01*
X7955000Y-16650000D01*
X9055000Y-16650000D01*
X9055000Y-16000000D01*
X9023149Y-15776607D01*
X8948328Y-15563720D01*
X8922457Y-15520000D01*
X10880000Y-15520000D01*
X10880000Y-16070000D01*
X10905126Y-16225112D01*
X10960030Y-16372341D01*
X11042602Y-16506030D01*
X11149669Y-16621041D01*
X11277116Y-16712955D01*
X11420046Y-16778239D01*
X11505713Y-16800784D01*
X11630000Y-16743274D01*
X11630000Y-15520000D01*
X11730000Y-15520000D01*
X11730000Y-16743274D01*
X11854287Y-16800784D01*
X11939954Y-16778239D01*
X12082884Y-16712955D01*
X12210331Y-16621041D01*
X12317398Y-16506030D01*
X12399970Y-16372341D01*
X12454874Y-16225112D01*
X12480000Y-16070000D01*
X12480000Y-15520000D01*
X11730000Y-15520000D01*
X11630000Y-15520000D01*
X10880000Y-15520000D01*
X8922457Y-15520000D01*
X8833412Y-15369521D01*
X8682818Y-15201472D01*
X8502333Y-15066031D01*
X8298893Y-14968404D01*
X8134114Y-14923054D01*
X7955000Y-14976163D01*
X7855000Y-14976163D01*
X7675886Y-14923054D01*
X7511107Y-14968404D01*
X7307667Y-15066031D01*
X7127182Y-15201472D01*
X6976588Y-15369521D01*
X6861672Y-15563720D01*
X6786851Y-15776607D01*
X6755000Y-16000000D01*
X5245000Y-16000000D01*
X5245000Y-15993508D01*
X5228360Y-15824561D01*
X5162602Y-15607785D01*
X5055816Y-15408003D01*
X4912107Y-15232893D01*
X4736996Y-15089184D01*
X4537214Y-14982398D01*
X4320438Y-14916640D01*
X4095000Y-14894436D01*
X3869561Y-14916640D01*
X3652785Y-14982398D01*
X3453003Y-15089184D01*
X3277893Y-15232893D01*
X3134184Y-15408004D01*
X3027398Y-15607786D01*
X2961640Y-15824562D01*
X2945000Y-15993509D01*
X1435000Y-15993509D01*
X1435000Y-15993508D01*
X1418360Y-15824561D01*
X1352602Y-15607785D01*
X1245816Y-15408003D01*
X1102107Y-15232893D01*
X926996Y-15089184D01*
X727214Y-14982398D01*
X510438Y-14916640D01*
X285000Y-14894436D01*
X59561Y-14916640D01*
X-157215Y-14982398D01*
X-356997Y-15089184D01*
X-532107Y-15232893D01*
X-675816Y-15408004D01*
X-782602Y-15607786D01*
X-848360Y-15824562D01*
X-865000Y-15993509D01*
X-2375000Y-15993509D01*
X-2375000Y-15993508D01*
X-2391640Y-15824561D01*
X-2457398Y-15607785D01*
X-2564184Y-15408003D01*
X-2707893Y-15232893D01*
X-2883004Y-15089184D01*
X-3082786Y-14982398D01*
X-3299562Y-14916640D01*
X-3525000Y-14894436D01*
X-3750439Y-14916640D01*
X-3967215Y-14982398D01*
X-4166997Y-15089184D01*
X-4342107Y-15232893D01*
X-4485816Y-15408004D01*
X-4592602Y-15607786D01*
X-4658360Y-15824562D01*
X-4675000Y-15993509D01*
X-6185000Y-15993509D01*
X-6185000Y-15993508D01*
X-6201640Y-15824561D01*
X-6267398Y-15607785D01*
X-6374184Y-15408003D01*
X-6517893Y-15232893D01*
X-6693004Y-15089184D01*
X-6892786Y-14982398D01*
X-7109562Y-14916640D01*
X-7335000Y-14894436D01*
X-7560439Y-14916640D01*
X-7777215Y-14982398D01*
X-7976997Y-15089184D01*
X-8152107Y-15232893D01*
X-8295816Y-15408004D01*
X-8402602Y-15607786D01*
X-8468360Y-15824562D01*
X-8485000Y-15993509D01*
X-9995000Y-15993509D01*
X-9995000Y-15993508D01*
X-10011640Y-15824561D01*
X-10077398Y-15607785D01*
X-10184184Y-15408003D01*
X-10327893Y-15232893D01*
X-10503004Y-15089184D01*
X-10702786Y-14982398D01*
X-10919562Y-14916640D01*
X-11145000Y-14894436D01*
X-11370439Y-14916640D01*
X-11587215Y-14982398D01*
X-11786997Y-15089184D01*
X-11962107Y-15232893D01*
X-12105816Y-15408004D01*
X-12212602Y-15607786D01*
X-12278360Y-15824562D01*
X-12295000Y-15993509D01*
X-13805000Y-15993509D01*
X-13805000Y-15993508D01*
X-13821640Y-15824561D01*
X-13887398Y-15607785D01*
X-13994184Y-15408003D01*
X-14137893Y-15232893D01*
X-14313004Y-15089184D01*
X-14512786Y-14982398D01*
X-14729562Y-14916640D01*
X-14955000Y-14894436D01*
X-15180439Y-14916640D01*
X-15397215Y-14982398D01*
X-15596997Y-15089184D01*
X-15772107Y-15232893D01*
X-15915816Y-15408004D01*
X-16022602Y-15607786D01*
X-16088360Y-15824562D01*
X-16105000Y-15993509D01*
X-17615000Y-15993509D01*
X-17615000Y-15993508D01*
X-17631640Y-15824561D01*
X-17697398Y-15607785D01*
X-17804184Y-15408003D01*
X-17947893Y-15232893D01*
X-18123004Y-15089184D01*
X-18322786Y-14982398D01*
X-18539562Y-14916640D01*
X-18765000Y-14894436D01*
X-18990439Y-14916640D01*
X-19207215Y-14982398D01*
X-19406997Y-15089184D01*
X-19582107Y-15232893D01*
X-19725816Y-15408004D01*
X-19832602Y-15607786D01*
X-19898360Y-15824562D01*
X-19915000Y-15993509D01*
X-21675000Y-15993509D01*
X-21675000Y-14870000D01*
X10880000Y-14870000D01*
X10880000Y-15420000D01*
X11630000Y-15420000D01*
X11630000Y-14196726D01*
X11730000Y-14196726D01*
X11730000Y-15420000D01*
X12480000Y-15420000D01*
X12480000Y-14870000D01*
X12454874Y-14714888D01*
X12399970Y-14567659D01*
X12317398Y-14433970D01*
X12210331Y-14318959D01*
X12082884Y-14227045D01*
X11939954Y-14161761D01*
X11854287Y-14139216D01*
X11730000Y-14196726D01*
X11630000Y-14196726D01*
X11505713Y-14139216D01*
X11420046Y-14161761D01*
X11277116Y-14227045D01*
X11149669Y-14318959D01*
X11042602Y-14433970D01*
X10960030Y-14567659D01*
X10905126Y-14714888D01*
X10880000Y-14870000D01*
X-21675000Y-14870000D01*
X-21675000Y-13240905D01*
X12350000Y-13240905D01*
X12350000Y-13359095D01*
X12373058Y-13475014D01*
X12418287Y-13584207D01*
X12483950Y-13682478D01*
X12567522Y-13766050D01*
X12665793Y-13831713D01*
X12774986Y-13876942D01*
X12890905Y-13900000D01*
X13009095Y-13900000D01*
X13125014Y-13876942D01*
X13190058Y-13850000D01*
X13309942Y-13850000D01*
X13330839Y-13858656D01*
X13335001Y-13862818D01*
X13335002Y-15416704D01*
X13292306Y-15399019D01*
X13171557Y-15375000D01*
X13048443Y-15375000D01*
X12927694Y-15399019D01*
X12813952Y-15446132D01*
X12711586Y-15514531D01*
X12624531Y-15601586D01*
X12556132Y-15703952D01*
X12509019Y-15817694D01*
X12485000Y-15938443D01*
X12485000Y-16061557D01*
X12509019Y-16182306D01*
X12556132Y-16296048D01*
X12624531Y-16398414D01*
X12711586Y-16485469D01*
X12813952Y-16553868D01*
X12927694Y-16600981D01*
X13048443Y-16625000D01*
X13171557Y-16625000D01*
X13292306Y-16600981D01*
X13335002Y-16583296D01*
X13335002Y-16807983D01*
X13332341Y-16835001D01*
X13342960Y-16942819D01*
X13374410Y-17046495D01*
X13425480Y-17142043D01*
X13476988Y-17204805D01*
X13476994Y-17204811D01*
X13494212Y-17225791D01*
X13515192Y-17243009D01*
X14491992Y-18219810D01*
X14509210Y-18240790D01*
X14530190Y-18258008D01*
X14530195Y-18258013D01*
X14582097Y-18300607D01*
X14592958Y-18309521D01*
X14688506Y-18360592D01*
X14792181Y-18392042D01*
X14872982Y-18400000D01*
X14872991Y-18400000D01*
X14899999Y-18402660D01*
X14927007Y-18400000D01*
X17172992Y-18400000D01*
X17200000Y-18402660D01*
X17227008Y-18400000D01*
X17227018Y-18400000D01*
X17307819Y-18392042D01*
X17411494Y-18360592D01*
X17507042Y-18309521D01*
X17590790Y-18240790D01*
X17608013Y-18219804D01*
X18484809Y-17343009D01*
X18505789Y-17325791D01*
X18523007Y-17304811D01*
X18523012Y-17304806D01*
X18574520Y-17242044D01*
X18625590Y-17146496D01*
X18625591Y-17146495D01*
X18657041Y-17042820D01*
X18664999Y-16962019D01*
X18664999Y-16962009D01*
X18667659Y-16935001D01*
X18664999Y-16907993D01*
X18664999Y-16583296D01*
X18707694Y-16600981D01*
X18828443Y-16625000D01*
X18951557Y-16625000D01*
X19072306Y-16600981D01*
X19186048Y-16553868D01*
X19288414Y-16485469D01*
X19375469Y-16398414D01*
X19443868Y-16296048D01*
X19490981Y-16182306D01*
X19515000Y-16061557D01*
X19515000Y-15938443D01*
X19490981Y-15817694D01*
X19443868Y-15703952D01*
X19375469Y-15601586D01*
X19293883Y-15520000D01*
X19520000Y-15520000D01*
X19520000Y-16070000D01*
X19545126Y-16225112D01*
X19600030Y-16372341D01*
X19682602Y-16506030D01*
X19789669Y-16621041D01*
X19917116Y-16712955D01*
X20060046Y-16778239D01*
X20145713Y-16800784D01*
X20270000Y-16743274D01*
X20270000Y-15520000D01*
X20370000Y-15520000D01*
X20370000Y-16743274D01*
X20494287Y-16800784D01*
X20579954Y-16778239D01*
X20722884Y-16712955D01*
X20850331Y-16621041D01*
X20957398Y-16506030D01*
X21039970Y-16372341D01*
X21094874Y-16225112D01*
X21120000Y-16070000D01*
X21120000Y-15520000D01*
X20370000Y-15520000D01*
X20270000Y-15520000D01*
X19520000Y-15520000D01*
X19293883Y-15520000D01*
X19288414Y-15514531D01*
X19186048Y-15446132D01*
X19072306Y-15399019D01*
X18951557Y-15375000D01*
X18828443Y-15375000D01*
X18707694Y-15399019D01*
X18664999Y-15416704D01*
X18664999Y-14870000D01*
X19520000Y-14870000D01*
X19520000Y-15420000D01*
X20270000Y-15420000D01*
X20270000Y-14196726D01*
X20370000Y-14196726D01*
X20370000Y-15420000D01*
X21120000Y-15420000D01*
X21120000Y-14870000D01*
X21094874Y-14714888D01*
X21039970Y-14567659D01*
X20957398Y-14433970D01*
X20850331Y-14318959D01*
X20722884Y-14227045D01*
X20579954Y-14161761D01*
X20494287Y-14139216D01*
X20370000Y-14196726D01*
X20270000Y-14196726D01*
X20145713Y-14139216D01*
X20060046Y-14161761D01*
X19917116Y-14227045D01*
X19789669Y-14318959D01*
X19682602Y-14433970D01*
X19600030Y-14567659D01*
X19545126Y-14714888D01*
X19520000Y-14870000D01*
X18664999Y-14870000D01*
X18664999Y-14496966D01*
X18692042Y-14407819D01*
X18700000Y-14327018D01*
X18700000Y-14327008D01*
X18702660Y-14300000D01*
X18700000Y-14272992D01*
X18700000Y-13540058D01*
X18726942Y-13475014D01*
X18737006Y-13424422D01*
X18742042Y-13407819D01*
X18743742Y-13390555D01*
X18750000Y-13359095D01*
X18750000Y-13327011D01*
X18752660Y-13300000D01*
X18750000Y-13272990D01*
X18750000Y-13240905D01*
X18743742Y-13209444D01*
X18742042Y-13192182D01*
X18737006Y-13175581D01*
X18726942Y-13124986D01*
X18700000Y-13059942D01*
X18700000Y-12940058D01*
X18726942Y-12875014D01*
X18750000Y-12759095D01*
X18750000Y-12640905D01*
X18726942Y-12524986D01*
X18681713Y-12415793D01*
X18616050Y-12317522D01*
X18532478Y-12233950D01*
X18434207Y-12168287D01*
X18325014Y-12123058D01*
X18209095Y-12100000D01*
X18090905Y-12100000D01*
X17974986Y-12123058D01*
X17865793Y-12168287D01*
X17767522Y-12233950D01*
X17683950Y-12317522D01*
X17618287Y-12415793D01*
X17573058Y-12524986D01*
X17550000Y-12640905D01*
X17550000Y-12759095D01*
X17573058Y-12875014D01*
X17600000Y-12940058D01*
X17600000Y-13059942D01*
X17573058Y-13124986D01*
X17550000Y-13240905D01*
X17550000Y-13359095D01*
X17573058Y-13475014D01*
X17600000Y-13540059D01*
X17600000Y-14138038D01*
X17597709Y-14145592D01*
X17572958Y-14227183D01*
X17562339Y-14335001D01*
X17565000Y-14362019D01*
X17564999Y-16707183D01*
X16972183Y-17300000D01*
X15127818Y-17300000D01*
X14435001Y-16607184D01*
X14435001Y-15720907D01*
X15150000Y-15720907D01*
X15150000Y-15839097D01*
X15173058Y-15955016D01*
X15218287Y-16064209D01*
X15283950Y-16162480D01*
X15367522Y-16246052D01*
X15465793Y-16311715D01*
X15574986Y-16356944D01*
X15690905Y-16380002D01*
X15809095Y-16380002D01*
X15925014Y-16356944D01*
X16034207Y-16311715D01*
X16132478Y-16246052D01*
X16198528Y-16180002D01*
X16501473Y-16180002D01*
X16567523Y-16246052D01*
X16665794Y-16311715D01*
X16774987Y-16356944D01*
X16890906Y-16380002D01*
X17009096Y-16380002D01*
X17125015Y-16356944D01*
X17234208Y-16311715D01*
X17332479Y-16246052D01*
X17416051Y-16162480D01*
X17481714Y-16064209D01*
X17526943Y-15955016D01*
X17550001Y-15839097D01*
X17550001Y-15720907D01*
X17526943Y-15604988D01*
X17481714Y-15495795D01*
X17416051Y-15397524D01*
X17332479Y-15313952D01*
X17234208Y-15248289D01*
X17125015Y-15203060D01*
X17009096Y-15180002D01*
X16890906Y-15180002D01*
X16774987Y-15203060D01*
X16665794Y-15248289D01*
X16567523Y-15313952D01*
X16501473Y-15380002D01*
X16198528Y-15380002D01*
X16132478Y-15313952D01*
X16034207Y-15248289D01*
X15925014Y-15203060D01*
X15809095Y-15180002D01*
X15690905Y-15180002D01*
X15574986Y-15203060D01*
X15465793Y-15248289D01*
X15367522Y-15313952D01*
X15283950Y-15397524D01*
X15218287Y-15495795D01*
X15173058Y-15604988D01*
X15150000Y-15720907D01*
X14435001Y-15720907D01*
X14435001Y-13662009D01*
X14437661Y-13635001D01*
X14435001Y-13607993D01*
X14435001Y-13607983D01*
X14427043Y-13527182D01*
X14395593Y-13423507D01*
X14344522Y-13327959D01*
X14275791Y-13244211D01*
X14254805Y-13226988D01*
X14108656Y-13080839D01*
X14081713Y-13015793D01*
X14016050Y-12917522D01*
X13932478Y-12833950D01*
X13834207Y-12768287D01*
X13725014Y-12723058D01*
X13609095Y-12700000D01*
X13490905Y-12700000D01*
X13374986Y-12723058D01*
X13309942Y-12750000D01*
X13190058Y-12750000D01*
X13125014Y-12723058D01*
X13009095Y-12700000D01*
X12890905Y-12700000D01*
X12774986Y-12723058D01*
X12665793Y-12768287D01*
X12567522Y-12833950D01*
X12483950Y-12917522D01*
X12418287Y-13015793D01*
X12373058Y-13124986D01*
X12350000Y-13240905D01*
X-21675000Y-13240905D01*
X-21675000Y-8837489D01*
X-19900000Y-8837489D01*
X-19900000Y-9162511D01*
X-19836592Y-9481287D01*
X-19712211Y-9781568D01*
X-19531639Y-10051814D01*
X-19301814Y-10281639D01*
X-19031568Y-10462211D01*
X-18731287Y-10586592D01*
X-18412511Y-10650000D01*
X-18087489Y-10650000D01*
X-17768713Y-10586592D01*
X-17468432Y-10462211D01*
X-17198186Y-10281639D01*
X-16968361Y-10051814D01*
X-16787789Y-9781568D01*
X-16663408Y-9481287D01*
X-16600000Y-9162511D01*
X-16600000Y-8837489D01*
X-16624848Y-8712565D01*
X-11950000Y-8712565D01*
X-11950000Y-9047435D01*
X-11884670Y-9375872D01*
X-11756521Y-9685252D01*
X-11570477Y-9963687D01*
X-11333687Y-10200477D01*
X-11055252Y-10386521D01*
X-10745872Y-10514670D01*
X-10417435Y-10580000D01*
X-10082565Y-10580000D01*
X-9754128Y-10514670D01*
X-9444748Y-10386521D01*
X-9166313Y-10200477D01*
X-8929523Y-9963687D01*
X-8743479Y-9685252D01*
X-8615330Y-9375872D01*
X-8550000Y-9047435D01*
X-8550000Y-8837489D01*
X16600000Y-8837489D01*
X16600000Y-9162511D01*
X16663408Y-9481287D01*
X16787789Y-9781568D01*
X16968361Y-10051814D01*
X17198186Y-10281639D01*
X17468432Y-10462211D01*
X17768713Y-10586592D01*
X18087489Y-10650000D01*
X18412511Y-10650000D01*
X18731287Y-10586592D01*
X19031568Y-10462211D01*
X19301814Y-10281639D01*
X19531639Y-10051814D01*
X19712211Y-9781568D01*
X19836592Y-9481287D01*
X19900000Y-9162511D01*
X19900000Y-8837489D01*
X19836592Y-8518713D01*
X19712211Y-8218432D01*
X19531639Y-7948186D01*
X19301814Y-7718361D01*
X19031568Y-7537789D01*
X18731287Y-7413408D01*
X18412511Y-7350000D01*
X18087489Y-7350000D01*
X17768713Y-7413408D01*
X17468432Y-7537789D01*
X17198186Y-7718361D01*
X16968361Y-7948186D01*
X16787789Y-8218432D01*
X16663408Y-8518713D01*
X16600000Y-8837489D01*
X-8550000Y-8837489D01*
X-8550000Y-8712565D01*
X-8615330Y-8384128D01*
X-8743479Y-8074748D01*
X-8929523Y-7796313D01*
X-9166313Y-7559523D01*
X-9444748Y-7373479D01*
X-9754128Y-7245330D01*
X-10082565Y-7180000D01*
X-10417435Y-7180000D01*
X-10745872Y-7245330D01*
X-11055252Y-7373479D01*
X-11333687Y-7559523D01*
X-11570477Y-7796313D01*
X-11756521Y-8074748D01*
X-11884670Y-8384128D01*
X-11950000Y-8712565D01*
X-16624848Y-8712565D01*
X-16663408Y-8518713D01*
X-16787789Y-8218432D01*
X-16968361Y-7948186D01*
X-17198186Y-7718361D01*
X-17468432Y-7537789D01*
X-17768713Y-7413408D01*
X-18087489Y-7350000D01*
X-18412511Y-7350000D01*
X-18731287Y-7413408D01*
X-19031568Y-7537789D01*
X-19301814Y-7718361D01*
X-19531639Y-7948186D01*
X-19712211Y-8218432D01*
X-19836592Y-8518713D01*
X-19900000Y-8837489D01*
X-21675000Y-8837489D01*
X-21675000Y-4060363D01*
X-21652045Y-4115781D01*
X-21509776Y-4328702D01*
X-21328702Y-4509776D01*
X-21115781Y-4652045D01*
X-20879196Y-4750042D01*
X-20628039Y-4800000D01*
X-20371961Y-4800000D01*
X-20120804Y-4750042D01*
X-20055023Y-4722795D01*
X-18908008Y-5869810D01*
X-18890790Y-5890790D01*
X-18869810Y-5908008D01*
X-18869805Y-5908013D01*
X-18807043Y-5959521D01*
X-18756579Y-5986494D01*
X-18711494Y-6010592D01*
X-18607819Y-6042042D01*
X-18527018Y-6050000D01*
X-18527009Y-6050000D01*
X-18500001Y-6052660D01*
X-18472993Y-6050000D01*
X-8927816Y-6050000D01*
X-8833017Y-6144799D01*
X-8833013Y-6144804D01*
X-7708655Y-7269163D01*
X-7681713Y-7334207D01*
X-7616050Y-7432478D01*
X-7532478Y-7516050D01*
X-7434207Y-7581713D01*
X-7325014Y-7626942D01*
X-7209095Y-7650000D01*
X-7090905Y-7650000D01*
X-6974986Y-7626942D01*
X-6909942Y-7600000D01*
X-6790058Y-7600000D01*
X-6725014Y-7626942D01*
X-6609095Y-7650000D01*
X-6490905Y-7650000D01*
X-6374986Y-7626942D01*
X-6265793Y-7581713D01*
X-6167522Y-7516050D01*
X-6083950Y-7432478D01*
X-6018287Y-7334207D01*
X-5973058Y-7225014D01*
X-5950000Y-7109095D01*
X-5950000Y-6990905D01*
X-5973058Y-6874986D01*
X-6018287Y-6765793D01*
X-6083950Y-6667522D01*
X-6167522Y-6583950D01*
X-6265793Y-6518287D01*
X-6374986Y-6473058D01*
X-6490905Y-6450000D01*
X-6609095Y-6450000D01*
X-6725014Y-6473058D01*
X-6790058Y-6500000D01*
X-6909942Y-6500000D01*
X-6930837Y-6491345D01*
X-8055196Y-5366987D01*
X-8055201Y-5366983D01*
X-8291988Y-5130195D01*
X-8309210Y-5109210D01*
X-8392958Y-5040479D01*
X-8488506Y-4989408D01*
X-8592181Y-4957958D01*
X-8672982Y-4950000D01*
X-8672992Y-4950000D01*
X-8700000Y-4947340D01*
X-8727008Y-4950000D01*
X-18272182Y-4950000D01*
X-19277205Y-3944977D01*
X-19249958Y-3879196D01*
X-19200000Y-3628039D01*
X-19200000Y-3371961D01*
X-17300000Y-3371961D01*
X-17300000Y-3628039D01*
X-17250042Y-3879196D01*
X-17152045Y-4115781D01*
X-17009776Y-4328702D01*
X-16828702Y-4509776D01*
X-16615781Y-4652045D01*
X-16379196Y-4750042D01*
X-16128039Y-4800000D01*
X-15871961Y-4800000D01*
X-15620804Y-4750042D01*
X-15384219Y-4652045D01*
X-15171298Y-4509776D01*
X-14990224Y-4328702D01*
X-14847955Y-4115781D01*
X-14749958Y-3879196D01*
X-14700000Y-3628039D01*
X-14700000Y-3371961D01*
X-14749958Y-3120804D01*
X-14847955Y-2884219D01*
X-14990224Y-2671298D01*
X-15171298Y-2490224D01*
X-15384219Y-2347955D01*
X-15620804Y-2249958D01*
X-15871961Y-2200000D01*
X-16128039Y-2200000D01*
X-16379196Y-2249958D01*
X-16615781Y-2347955D01*
X-16828702Y-2490224D01*
X-17009776Y-2671298D01*
X-17152045Y-2884219D01*
X-17250042Y-3120804D01*
X-17300000Y-3371961D01*
X-19200000Y-3371961D01*
X-19249958Y-3120804D01*
X-19347955Y-2884219D01*
X-19490224Y-2671298D01*
X-19671298Y-2490224D01*
X-19884219Y-2347955D01*
X-20120804Y-2249958D01*
X-20371961Y-2200000D01*
X-20628039Y-2200000D01*
X-20879196Y-2249958D01*
X-21115781Y-2347955D01*
X-21328702Y-2490224D01*
X-21509776Y-2671298D01*
X-21652045Y-2884219D01*
X-21675000Y-2939637D01*
X-21675000Y2439637D01*
X-21652045Y2384219D01*
X-21509776Y2171298D01*
X-21328702Y1990224D01*
X-21115781Y1847955D01*
X-20879196Y1749958D01*
X-20628039Y1700000D01*
X-20371961Y1700000D01*
X-20120804Y1749958D01*
X-19884219Y1847955D01*
X-19671298Y1990224D01*
X-19490224Y2171298D01*
X-19347955Y2384219D01*
X-19249958Y2620804D01*
X-19200000Y2871961D01*
X-19200000Y3128039D01*
X-17300000Y3128039D01*
X-17300000Y2871961D01*
X-17250042Y2620804D01*
X-17152045Y2384219D01*
X-17009776Y2171298D01*
X-16828702Y1990224D01*
X-16615781Y1847955D01*
X-16379196Y1749958D01*
X-16128039Y1700000D01*
X-15871961Y1700000D01*
X-15620804Y1749958D01*
X-15384219Y1847955D01*
X-15171298Y1990224D01*
X-14990224Y2171298D01*
X-14847955Y2384219D01*
X-14749958Y2620804D01*
X-14700000Y2871961D01*
X-14700000Y3128039D01*
X-14749958Y3379196D01*
X-14847955Y3615781D01*
X-14990224Y3828702D01*
X-15171298Y4009776D01*
X-15384219Y4152045D01*
X-15620804Y4250042D01*
X-15871961Y4300000D01*
X-16128039Y4300000D01*
X-16379196Y4250042D01*
X-16615781Y4152045D01*
X-16828702Y4009776D01*
X-17009776Y3828702D01*
X-17152045Y3615781D01*
X-17250042Y3379196D01*
X-17300000Y3128039D01*
X-19200000Y3128039D01*
X-19249958Y3379196D01*
X-19347955Y3615781D01*
X-19490224Y3828702D01*
X-19671298Y4009776D01*
X-19884219Y4152045D01*
X-20120804Y4250042D01*
X-20371961Y4300000D01*
X-20628039Y4300000D01*
X-20879196Y4250042D01*
X-21115781Y4152045D01*
X-21328702Y4009776D01*
X-21509776Y3828702D01*
X-21652045Y3615781D01*
X-21675000Y3560363D01*
X-21675000Y5439637D01*
X-21652045Y5384219D01*
X-21509776Y5171298D01*
X-21328702Y4990224D01*
X-21115781Y4847955D01*
X-20879196Y4749958D01*
X-20628039Y4700000D01*
X-20371961Y4700000D01*
X-20120804Y4749958D01*
X-19884219Y4847955D01*
X-19671298Y4990224D01*
X-19490224Y5171298D01*
X-19347955Y5384219D01*
X-19249958Y5620804D01*
X-19200000Y5871961D01*
X-19200000Y6128039D01*
X-17300000Y6128039D01*
X-17300000Y5871961D01*
X-17250042Y5620804D01*
X-17152045Y5384219D01*
X-17009776Y5171298D01*
X-16828702Y4990224D01*
X-16615781Y4847955D01*
X-16379196Y4749958D01*
X-16128039Y4700000D01*
X-15871961Y4700000D01*
X-15620804Y4749958D01*
X-15384219Y4847955D01*
X-15171298Y4990224D01*
X-14990224Y5171298D01*
X-14847955Y5384219D01*
X-14749958Y5620804D01*
X-14700000Y5871961D01*
X-14700000Y6128039D01*
X-14749958Y6379196D01*
X-14847955Y6615781D01*
X-14990224Y6828702D01*
X-15171298Y7009776D01*
X-15384219Y7152045D01*
X-15620804Y7250042D01*
X-15871961Y7300000D01*
X-16128039Y7300000D01*
X-16379196Y7250042D01*
X-16615781Y7152045D01*
X-16828702Y7009776D01*
X-17009776Y6828702D01*
X-17152045Y6615781D01*
X-17250042Y6379196D01*
X-17300000Y6128039D01*
X-19200000Y6128039D01*
X-19249958Y6379196D01*
X-19347955Y6615781D01*
X-19490224Y6828702D01*
X-19671298Y7009776D01*
X-19884219Y7152045D01*
X-20120804Y7250042D01*
X-20371961Y7300000D01*
X-20628039Y7300000D01*
X-20879196Y7250042D01*
X-21115781Y7152045D01*
X-21328702Y7009776D01*
X-21509776Y6828702D01*
X-21652045Y6615781D01*
X-21675000Y6560363D01*
X-21675000Y7709095D01*
X-14000000Y7709095D01*
X-14000000Y7590905D01*
X-13976942Y7474986D01*
X-13950000Y7409942D01*
X-13950000Y7290058D01*
X-13976942Y7225014D01*
X-14000000Y7109095D01*
X-14000000Y6990905D01*
X-13976942Y6874986D01*
X-13950000Y6809942D01*
X-13949999Y-1972982D01*
X-13952660Y-2000000D01*
X-13942041Y-2107818D01*
X-13910591Y-2211494D01*
X-13859521Y-2307042D01*
X-13808013Y-2369804D01*
X-13808007Y-2369810D01*
X-13790789Y-2390790D01*
X-13769809Y-2408008D01*
X-11633013Y-4544804D01*
X-11615790Y-4565790D01*
X-11532042Y-4634521D01*
X-11436494Y-4685592D01*
X-11332819Y-4717042D01*
X-11252018Y-4725000D01*
X-11252009Y-4725000D01*
X-11225001Y-4727660D01*
X-11197993Y-4725000D01*
X-10515058Y-4725000D01*
X-10450014Y-4751942D01*
X-10334095Y-4775000D01*
X-10215905Y-4775000D01*
X-10099986Y-4751942D01*
X-10034942Y-4725000D01*
X-9915058Y-4725000D01*
X-9850014Y-4751942D01*
X-9734095Y-4775000D01*
X-9615905Y-4775000D01*
X-9499986Y-4751942D01*
X-9390793Y-4706713D01*
X-9292522Y-4641050D01*
X-9208950Y-4557478D01*
X-9143287Y-4459207D01*
X-9098058Y-4350014D01*
X-9075000Y-4234095D01*
X-9075000Y-4115905D01*
X-9098058Y-3999986D01*
X-9143287Y-3890793D01*
X-9208950Y-3792522D01*
X-9292522Y-3708950D01*
X-9390793Y-3643287D01*
X-9499986Y-3598058D01*
X-9615905Y-3575000D01*
X-9734095Y-3575000D01*
X-9850014Y-3598058D01*
X-9915058Y-3625000D01*
X-10034942Y-3625000D01*
X-10099986Y-3598058D01*
X-10215905Y-3575000D01*
X-10334095Y-3575000D01*
X-10450014Y-3598058D01*
X-10515058Y-3625000D01*
X-10997183Y-3625000D01*
X-11250222Y-3371961D01*
X14700000Y-3371961D01*
X14700000Y-3628039D01*
X14749958Y-3879196D01*
X14847955Y-4115781D01*
X14990224Y-4328702D01*
X15171298Y-4509776D01*
X15384219Y-4652045D01*
X15620804Y-4750042D01*
X15871961Y-4800000D01*
X16128039Y-4800000D01*
X16379196Y-4750042D01*
X16615781Y-4652045D01*
X16828702Y-4509776D01*
X17009776Y-4328702D01*
X17152045Y-4115781D01*
X17250042Y-3879196D01*
X17300000Y-3628039D01*
X17300000Y-3371961D01*
X17250042Y-3120804D01*
X17152045Y-2884219D01*
X17009776Y-2671298D01*
X16828702Y-2490224D01*
X16615781Y-2347955D01*
X16379196Y-2249958D01*
X16128039Y-2200000D01*
X15871961Y-2200000D01*
X15620804Y-2249958D01*
X15384219Y-2347955D01*
X15171298Y-2490224D01*
X14990224Y-2671298D01*
X14847955Y-2884219D01*
X14749958Y-3120804D01*
X14700000Y-3371961D01*
X-11250222Y-3371961D01*
X-12850000Y-1772183D01*
X-12850000Y-570905D01*
X-1585000Y-570905D01*
X-1585000Y-689095D01*
X-1561942Y-805014D01*
X-1516713Y-914207D01*
X-1451050Y-1012478D01*
X-1385000Y-1078528D01*
X-1384999Y-1440905D01*
X-1385000Y-1796472D01*
X-1451050Y-1862522D01*
X-1516713Y-1960793D01*
X-1561942Y-2069986D01*
X-1585000Y-2185905D01*
X-1585000Y-2304095D01*
X-1561942Y-2420014D01*
X-1516713Y-2529207D01*
X-1451050Y-2627478D01*
X-1367478Y-2711050D01*
X-1269207Y-2776713D01*
X-1160014Y-2821942D01*
X-1044095Y-2845000D01*
X-925905Y-2845000D01*
X-809986Y-2821942D01*
X-700793Y-2776713D01*
X-602522Y-2711050D01*
X-518950Y-2627478D01*
X-453287Y-2529207D01*
X-408058Y-2420014D01*
X-385000Y-2304095D01*
X-385000Y-2185905D01*
X-408058Y-2069986D01*
X-453287Y-1960793D01*
X-518950Y-1862522D01*
X-585000Y-1796472D01*
X-585000Y-1078528D01*
X-518950Y-1012478D01*
X-453287Y-914207D01*
X-408058Y-805014D01*
X-385000Y-689095D01*
X-385000Y-570905D01*
X-408058Y-454986D01*
X-453287Y-345793D01*
X-518950Y-247522D01*
X-602522Y-163950D01*
X-700793Y-98287D01*
X-809986Y-53058D01*
X-925905Y-30000D01*
X-1044095Y-30000D01*
X-1160014Y-53058D01*
X-1269207Y-98287D01*
X-1367478Y-163950D01*
X-1451050Y-247522D01*
X-1516713Y-345793D01*
X-1561942Y-454986D01*
X-1585000Y-570905D01*
X-12850000Y-570905D01*
X-12850000Y6809942D01*
X-12823058Y6874986D01*
X-12800000Y6990905D01*
X-12800000Y7059095D01*
X1910000Y7059095D01*
X1910000Y6940905D01*
X1933058Y6824986D01*
X1978287Y6715793D01*
X2043950Y6617522D01*
X2127522Y6533950D01*
X2140001Y6525612D01*
X2140000Y6079647D01*
X2138065Y6060000D01*
X2140000Y6040354D01*
X2145788Y5981587D01*
X2168660Y5906187D01*
X2205803Y5836698D01*
X2255789Y5775789D01*
X2271052Y5763263D01*
X9500000Y-1465685D01*
X9500000Y-1559095D01*
X9523058Y-1675014D01*
X9568287Y-1784207D01*
X9633950Y-1882478D01*
X9717522Y-1966050D01*
X9815793Y-2031713D01*
X9924986Y-2076942D01*
X10040905Y-2100000D01*
X10159095Y-2100000D01*
X10275014Y-2076942D01*
X10384207Y-2031713D01*
X10482478Y-1966050D01*
X10566050Y-1882478D01*
X10631713Y-1784207D01*
X10676942Y-1675014D01*
X10700000Y-1559095D01*
X10700000Y-1440905D01*
X10676942Y-1324986D01*
X10666592Y-1299999D01*
X11034314Y-1299999D01*
X11200000Y-1465685D01*
X11200000Y-1559095D01*
X11223058Y-1675014D01*
X11268287Y-1784207D01*
X11333950Y-1882478D01*
X11417522Y-1966050D01*
X11515793Y-2031713D01*
X11624986Y-2076942D01*
X11740905Y-2100000D01*
X11859095Y-2100000D01*
X11975014Y-2076942D01*
X12084207Y-2031713D01*
X12182478Y-1966050D01*
X12266050Y-1882478D01*
X12331713Y-1784207D01*
X12376942Y-1675014D01*
X12400000Y-1559095D01*
X12400000Y-1440905D01*
X12376942Y-1324986D01*
X12331713Y-1215793D01*
X12266050Y-1117522D01*
X12182478Y-1033950D01*
X12084207Y-968287D01*
X11975014Y-923058D01*
X11859095Y-900000D01*
X11765685Y-900000D01*
X11496736Y-631051D01*
X11484210Y-615788D01*
X11423302Y-565802D01*
X11353813Y-528659D01*
X11278413Y-505787D01*
X11219646Y-499999D01*
X11219645Y-499999D01*
X11199999Y-498064D01*
X11180353Y-499999D01*
X10231383Y-499999D01*
X4847849Y4883534D01*
X4847849Y4981035D01*
X4849784Y5000681D01*
X4842061Y5079095D01*
X4819189Y5154496D01*
X4782046Y5223984D01*
X4744584Y5269632D01*
X4744582Y5269634D01*
X4732060Y5284892D01*
X4716803Y5297413D01*
X4649265Y5364951D01*
X4649265Y5458360D01*
X4626207Y5574279D01*
X4580978Y5683472D01*
X4515315Y5781743D01*
X4431743Y5865315D01*
X4333472Y5930978D01*
X4224279Y5976207D01*
X4108360Y5999265D01*
X3990170Y5999265D01*
X3874251Y5976207D01*
X3765058Y5930978D01*
X3666787Y5865315D01*
X3583215Y5781743D01*
X3517552Y5683472D01*
X3507201Y5658484D01*
X2940000Y6225685D01*
X2940000Y6581472D01*
X2976050Y6617522D01*
X3041713Y6715793D01*
X3086942Y6824986D01*
X3110000Y6940905D01*
X3110000Y7059095D01*
X3086942Y7175014D01*
X3041713Y7284207D01*
X2976050Y7382478D01*
X2892478Y7466050D01*
X2794207Y7531713D01*
X2685014Y7576942D01*
X2569095Y7600000D01*
X2450905Y7600000D01*
X2334986Y7576942D01*
X2225793Y7531713D01*
X2127522Y7466050D01*
X2043950Y7382478D01*
X1978287Y7284207D01*
X1933058Y7175014D01*
X1910000Y7059095D01*
X-12800000Y7059095D01*
X-12800000Y7109095D01*
X-12823058Y7225014D01*
X-12850000Y7290058D01*
X-12850000Y7409942D01*
X-12823058Y7474986D01*
X-12800000Y7590905D01*
X-12800000Y7709095D01*
X-12823058Y7825014D01*
X-12868287Y7934207D01*
X-12933950Y8032478D01*
X-13017522Y8116050D01*
X-13115793Y8181713D01*
X-13224986Y8226942D01*
X-13340905Y8250000D01*
X-13459095Y8250000D01*
X-13575014Y8226942D01*
X-13684207Y8181713D01*
X-13782478Y8116050D01*
X-13866050Y8032478D01*
X-13931713Y7934207D01*
X-13976942Y7825014D01*
X-14000000Y7709095D01*
X-21675000Y7709095D01*
X-21675000Y9811395D01*
X1738064Y9811395D01*
X1740000Y9791739D01*
X1739999Y8999648D01*
X1738064Y8980001D01*
X1739999Y8960355D01*
X1745787Y8901588D01*
X1768659Y8826188D01*
X1805802Y8756699D01*
X1855788Y8695790D01*
X1871051Y8683264D01*
X5120000Y5434314D01*
X5120000Y5340905D01*
X5143058Y5224986D01*
X5188287Y5115793D01*
X5253950Y5017522D01*
X5337522Y4933950D01*
X5435793Y4868287D01*
X5544986Y4823058D01*
X5660905Y4800000D01*
X5779095Y4800000D01*
X5895014Y4823058D01*
X6004207Y4868287D01*
X6102478Y4933950D01*
X6186050Y5017522D01*
X6251713Y5115793D01*
X6296942Y5224986D01*
X6320000Y5340905D01*
X6320000Y5459095D01*
X6296942Y5575014D01*
X6251713Y5684207D01*
X6186050Y5782478D01*
X6102478Y5866050D01*
X6004207Y5931713D01*
X5895014Y5976942D01*
X5779095Y6000000D01*
X5685686Y6000000D01*
X3892103Y7793582D01*
X3906499Y7795000D01*
X10639315Y7795000D01*
X14839338Y3594977D01*
X14749958Y3379196D01*
X14700000Y3128039D01*
X14700000Y2871961D01*
X14749958Y2620804D01*
X14847955Y2384219D01*
X14990224Y2171298D01*
X15171298Y1990224D01*
X15384219Y1847955D01*
X15620804Y1749958D01*
X15871961Y1700000D01*
X16128039Y1700000D01*
X16379196Y1749958D01*
X16615781Y1847955D01*
X16828702Y1990224D01*
X17009776Y2171298D01*
X17152045Y2384219D01*
X17250042Y2620804D01*
X17300000Y2871961D01*
X17300000Y3128039D01*
X17250042Y3379196D01*
X17152045Y3615781D01*
X17009776Y3828702D01*
X16828702Y4009776D01*
X16615781Y4152045D01*
X16379196Y4250042D01*
X16128039Y4300000D01*
X15871961Y4300000D01*
X15620804Y4250042D01*
X15405023Y4160662D01*
X13437646Y6128039D01*
X14700000Y6128039D01*
X14700000Y5871961D01*
X14749958Y5620804D01*
X14847955Y5384219D01*
X14990224Y5171298D01*
X15171298Y4990224D01*
X15384219Y4847955D01*
X15620804Y4749958D01*
X15871961Y4700000D01*
X16128039Y4700000D01*
X16379196Y4749958D01*
X16615781Y4847955D01*
X16828702Y4990224D01*
X17009776Y5171298D01*
X17152045Y5384219D01*
X17250042Y5620804D01*
X17300000Y5871961D01*
X17300000Y6128039D01*
X17250042Y6379196D01*
X17152045Y6615781D01*
X17009776Y6828702D01*
X16828702Y7009776D01*
X16615781Y7152045D01*
X16379196Y7250042D01*
X16128039Y7300000D01*
X15871961Y7300000D01*
X15620804Y7250042D01*
X15384219Y7152045D01*
X15171298Y7009776D01*
X14990224Y6828702D01*
X14847955Y6615781D01*
X14749958Y6379196D01*
X14700000Y6128039D01*
X13437646Y6128039D01*
X11101735Y8463950D01*
X11089211Y8479211D01*
X11028303Y8529197D01*
X10958814Y8566340D01*
X10883414Y8589212D01*
X10824647Y8595000D01*
X10824646Y8595000D01*
X10805000Y8596935D01*
X10785354Y8595000D01*
X4052537Y8595000D01*
X3785849Y8861688D01*
X3874207Y8898287D01*
X3972478Y8963950D01*
X4056050Y9047522D01*
X4121713Y9145793D01*
X4166942Y9254986D01*
X4190000Y9370905D01*
X4190000Y9489095D01*
X4166942Y9605014D01*
X4121713Y9714207D01*
X4056050Y9812478D01*
X4029433Y9839095D01*
X7860000Y9839095D01*
X7860000Y9720905D01*
X7883058Y9604986D01*
X7928287Y9495793D01*
X7993950Y9397522D01*
X8077522Y9313950D01*
X8175793Y9248287D01*
X8284986Y9203058D01*
X8400905Y9180000D01*
X8519095Y9180000D01*
X8635014Y9203058D01*
X8744207Y9248287D01*
X8842478Y9313950D01*
X8926050Y9397522D01*
X8991713Y9495793D01*
X9036942Y9604986D01*
X9060000Y9720905D01*
X9060000Y9814315D01*
X9515686Y10270000D01*
X14150354Y10270000D01*
X14170000Y10268065D01*
X14189646Y10270000D01*
X14189647Y10270000D01*
X14248414Y10275788D01*
X14323814Y10298660D01*
X14393303Y10335803D01*
X14454211Y10385789D01*
X14466737Y10401052D01*
X15405023Y11339338D01*
X15620804Y11249958D01*
X15871961Y11200000D01*
X16128039Y11200000D01*
X16379196Y11249958D01*
X16615781Y11347955D01*
X16828702Y11490224D01*
X17009776Y11671298D01*
X17152045Y11884219D01*
X17250042Y12120804D01*
X17300000Y12371961D01*
X17300000Y12628039D01*
X17250042Y12879196D01*
X17152045Y13115781D01*
X17009776Y13328702D01*
X16828702Y13509776D01*
X16615781Y13652045D01*
X16379196Y13750042D01*
X16128039Y13800000D01*
X15871961Y13800000D01*
X15620804Y13750042D01*
X15384219Y13652045D01*
X15171298Y13509776D01*
X14990224Y13328702D01*
X14847955Y13115781D01*
X14749958Y12879196D01*
X14700000Y12628039D01*
X14700000Y12371961D01*
X14749958Y12120804D01*
X14839338Y11905023D01*
X14004315Y11070000D01*
X9369643Y11070000D01*
X9349999Y11071935D01*
X9330355Y11070000D01*
X9330353Y11070000D01*
X9271586Y11064212D01*
X9196186Y11041340D01*
X9126697Y11004197D01*
X9094495Y10977769D01*
X9081049Y10966735D01*
X9081047Y10966733D01*
X9065789Y10954211D01*
X9053267Y10938953D01*
X8494315Y10380000D01*
X8400905Y10380000D01*
X8284986Y10356942D01*
X8175793Y10311713D01*
X8077522Y10246050D01*
X7993950Y10162478D01*
X7928287Y10064207D01*
X7883058Y9955014D01*
X7860000Y9839095D01*
X4029433Y9839095D01*
X3990000Y9878528D01*
X3990000Y9964315D01*
X6978954Y12953268D01*
X6994211Y12965789D01*
X7044197Y13026697D01*
X7081340Y13096186D01*
X7104212Y13171586D01*
X7110000Y13230353D01*
X7110000Y13230363D01*
X7111934Y13249999D01*
X7110000Y13269635D01*
X7110000Y14287435D01*
X8550000Y14287435D01*
X8550000Y13952565D01*
X8615330Y13624128D01*
X8743479Y13314748D01*
X8929523Y13036313D01*
X9166313Y12799523D01*
X9444748Y12613479D01*
X9754128Y12485330D01*
X10082565Y12420000D01*
X10417435Y12420000D01*
X10745872Y12485330D01*
X11055252Y12613479D01*
X11333687Y12799523D01*
X11570477Y13036313D01*
X11756521Y13314748D01*
X11884670Y13624128D01*
X11950000Y13952565D01*
X11950000Y14287435D01*
X11884670Y14615872D01*
X11756521Y14925252D01*
X11570477Y15203687D01*
X11333687Y15440477D01*
X11055252Y15626521D01*
X10745872Y15754670D01*
X10417435Y15820000D01*
X10082565Y15820000D01*
X9754128Y15754670D01*
X9444748Y15626521D01*
X9166313Y15440477D01*
X8929523Y15203687D01*
X8743479Y14925252D01*
X8615330Y14615872D01*
X8550000Y14287435D01*
X7110000Y14287435D01*
X7110000Y15894315D01*
X8925675Y17709990D01*
X12370344Y17709990D01*
X12389990Y17708055D01*
X12409636Y17709990D01*
X12409637Y17709990D01*
X12468404Y17715778D01*
X12543804Y17738650D01*
X12613293Y17775793D01*
X12674201Y17825779D01*
X12686727Y17841042D01*
X13258196Y18412511D01*
X16600000Y18412511D01*
X16600000Y18087489D01*
X16663408Y17768713D01*
X16787789Y17468432D01*
X16968361Y17198186D01*
X17198186Y16968361D01*
X17468432Y16787789D01*
X17768713Y16663408D01*
X18087489Y16600000D01*
X18412511Y16600000D01*
X18731287Y16663408D01*
X19031568Y16787789D01*
X19301814Y16968361D01*
X19531639Y17198186D01*
X19712211Y17468432D01*
X19836592Y17768713D01*
X19900000Y18087489D01*
X19900000Y18412511D01*
X19836592Y18731287D01*
X19712211Y19031568D01*
X19531639Y19301814D01*
X19301814Y19531639D01*
X19031568Y19712211D01*
X18731287Y19836592D01*
X18412511Y19900000D01*
X18087489Y19900000D01*
X17768713Y19836592D01*
X17468432Y19712211D01*
X17198186Y19531639D01*
X16968361Y19301814D01*
X16787789Y19031568D01*
X16663408Y18731287D01*
X16600000Y18412511D01*
X13258196Y18412511D01*
X13528954Y18683268D01*
X13544211Y18695789D01*
X13575560Y18733987D01*
X13594197Y18756697D01*
X13601410Y18770192D01*
X13631340Y18826186D01*
X13654212Y18901586D01*
X13660000Y18960353D01*
X13660000Y18960354D01*
X13661935Y18980000D01*
X13660000Y18999646D01*
X13660000Y19120935D01*
X13804729Y19180884D01*
X13993082Y19306737D01*
X14153263Y19466918D01*
X14279116Y19655271D01*
X14365806Y19864557D01*
X14410000Y20086735D01*
X14410000Y20313265D01*
X14365806Y20535443D01*
X14279116Y20744729D01*
X14153263Y20933082D01*
X13993082Y21093263D01*
X13804729Y21219116D01*
X13595443Y21305806D01*
X13373265Y21350000D01*
X13146735Y21350000D01*
X12924557Y21305806D01*
X12715271Y21219116D01*
X12526918Y21093263D01*
X12366737Y20933082D01*
X12240884Y20744729D01*
X12154194Y20535443D01*
X12110000Y20313265D01*
X12110000Y20086735D01*
X12154194Y19864557D01*
X12240884Y19655271D01*
X12366737Y19466918D01*
X12526918Y19306737D01*
X12715271Y19180884D01*
X12842498Y19128184D01*
X12224305Y18509990D01*
X10825676Y18509990D01*
X10988954Y18673268D01*
X11004211Y18685789D01*
X11023930Y18709816D01*
X11054196Y18746696D01*
X11054197Y18746697D01*
X11091340Y18816186D01*
X11114212Y18891586D01*
X11120000Y18950353D01*
X11120000Y18950363D01*
X11121934Y18969999D01*
X11120000Y18989635D01*
X11120000Y19120935D01*
X11264729Y19180884D01*
X11453082Y19306737D01*
X11613263Y19466918D01*
X11739116Y19655271D01*
X11825806Y19864557D01*
X11870000Y20086735D01*
X11870000Y20313265D01*
X11825806Y20535443D01*
X11739116Y20744729D01*
X11613263Y20933082D01*
X11453082Y21093263D01*
X11264729Y21219116D01*
X11055443Y21305806D01*
X10833265Y21350000D01*
X10606735Y21350000D01*
X10384557Y21305806D01*
X10175271Y21219116D01*
X9986918Y21093263D01*
X9826737Y20933082D01*
X9700884Y20744729D01*
X9614194Y20535443D01*
X9570000Y20313265D01*
X9570000Y20086735D01*
X9614194Y19864557D01*
X9700884Y19655271D01*
X9826737Y19466918D01*
X9986918Y19306737D01*
X10175271Y19180884D01*
X10309569Y19125255D01*
X10094315Y18910000D01*
X8613949Y18910000D01*
X8594302Y18911935D01*
X8580000Y18910526D01*
X8580000Y19120935D01*
X8724729Y19180884D01*
X8913082Y19306737D01*
X9073263Y19466918D01*
X9199116Y19655271D01*
X9285806Y19864557D01*
X9330000Y20086735D01*
X9330000Y20313265D01*
X9285806Y20535443D01*
X9199116Y20744729D01*
X9073263Y20933082D01*
X8913082Y21093263D01*
X8724729Y21219116D01*
X8515443Y21305806D01*
X8293265Y21350000D01*
X8066735Y21350000D01*
X7844557Y21305806D01*
X7635271Y21219116D01*
X7446918Y21093263D01*
X7286737Y20933082D01*
X7160884Y20744729D01*
X7074194Y20535443D01*
X7030000Y20313265D01*
X7030000Y20086735D01*
X7074194Y19864557D01*
X7160884Y19655271D01*
X7286737Y19466918D01*
X7446918Y19306737D01*
X7635271Y19180884D01*
X7780000Y19120935D01*
X7780000Y18827084D01*
X5641028Y16688111D01*
X5625770Y16675589D01*
X5613248Y16660331D01*
X5613245Y16660328D01*
X5575783Y16614680D01*
X5538641Y16545192D01*
X5515768Y16469791D01*
X5508045Y16391378D01*
X5509981Y16371722D01*
X5509980Y13747062D01*
X1871047Y10108128D01*
X1855789Y10095606D01*
X1843267Y10080348D01*
X1843264Y10080345D01*
X1805802Y10034697D01*
X1768660Y9965209D01*
X1745787Y9889808D01*
X1738064Y9811395D01*
X-21675000Y9811395D01*
X-21675000Y11939637D01*
X-21652045Y11884219D01*
X-21509776Y11671298D01*
X-21328702Y11490224D01*
X-21115781Y11347955D01*
X-20879196Y11249958D01*
X-20628039Y11200000D01*
X-20371961Y11200000D01*
X-20120804Y11249958D01*
X-19884219Y11347955D01*
X-19671298Y11490224D01*
X-19490224Y11671298D01*
X-19347955Y11884219D01*
X-19249958Y12120804D01*
X-19200000Y12371961D01*
X-19200000Y12628039D01*
X-17300000Y12628039D01*
X-17300000Y12371961D01*
X-17250042Y12120804D01*
X-17152045Y11884219D01*
X-17009776Y11671298D01*
X-16828702Y11490224D01*
X-16615781Y11347955D01*
X-16379196Y11249958D01*
X-16128039Y11200000D01*
X-15871961Y11200000D01*
X-15620804Y11249958D01*
X-15384219Y11347955D01*
X-15171298Y11490224D01*
X-14990224Y11671298D01*
X-14847955Y11884219D01*
X-14749958Y12120804D01*
X-14700000Y12371961D01*
X-14700000Y12628039D01*
X-14749958Y12879196D01*
X-14847955Y13115781D01*
X-14990224Y13328702D01*
X-15171298Y13509776D01*
X-15384219Y13652045D01*
X-15620804Y13750042D01*
X-15800703Y13785826D01*
X-4573463Y13785826D01*
X-4477695Y13615932D01*
X-4268981Y13504964D01*
X-4042629Y13436847D01*
X-3807337Y13414198D01*
X-3572148Y13437886D01*
X-3346100Y13507003D01*
X-3142305Y13615932D01*
X-3046537Y13785826D01*
X-3810000Y14549289D01*
X-4573463Y13785826D01*
X-15800703Y13785826D01*
X-15871961Y13800000D01*
X-16128039Y13800000D01*
X-16379196Y13750042D01*
X-16615781Y13652045D01*
X-16828702Y13509776D01*
X-17009776Y13328702D01*
X-17152045Y13115781D01*
X-17250042Y12879196D01*
X-17300000Y12628039D01*
X-19200000Y12628039D01*
X-19249958Y12879196D01*
X-19347955Y13115781D01*
X-19490224Y13328702D01*
X-19671298Y13509776D01*
X-19884219Y13652045D01*
X-20120804Y13750042D01*
X-20371961Y13800000D01*
X-20628039Y13800000D01*
X-20879196Y13750042D01*
X-21115781Y13652045D01*
X-21328702Y13509776D01*
X-21509776Y13328702D01*
X-21652045Y13115781D01*
X-21675000Y13060363D01*
X-21675000Y14617337D01*
X-5015802Y14617337D01*
X-4992114Y14382148D01*
X-4922997Y14156100D01*
X-4814068Y13952305D01*
X-4644174Y13856537D01*
X-3880711Y14620000D01*
X-3739289Y14620000D01*
X-2975826Y13856537D01*
X-2805932Y13952305D01*
X-2694964Y14161019D01*
X-2626847Y14387371D01*
X-2604198Y14622663D01*
X-2615833Y14738190D01*
X-2470000Y14738190D01*
X-2470000Y14501810D01*
X-2423884Y14269973D01*
X-2333426Y14051587D01*
X-2202101Y13855045D01*
X-2034955Y13687899D01*
X-1838413Y13556574D01*
X-1620027Y13466116D01*
X-1388190Y13420000D01*
X-1151810Y13420000D01*
X-919973Y13466116D01*
X-701587Y13556574D01*
X-505045Y13687899D01*
X-337899Y13855045D01*
X-206574Y14051587D01*
X-116116Y14269973D01*
X-70000Y14501810D01*
X-70000Y14738190D01*
X70000Y14738190D01*
X70000Y14501810D01*
X116116Y14269973D01*
X206574Y14051587D01*
X337899Y13855045D01*
X505045Y13687899D01*
X701587Y13556574D01*
X919973Y13466116D01*
X1151810Y13420000D01*
X1388190Y13420000D01*
X1620027Y13466116D01*
X1838413Y13556574D01*
X2034955Y13687899D01*
X2202101Y13855045D01*
X2333426Y14051587D01*
X2423884Y14269973D01*
X2470000Y14501810D01*
X2470000Y14738190D01*
X2610000Y14738190D01*
X2610000Y14501810D01*
X2656116Y14269973D01*
X2746574Y14051587D01*
X2877899Y13855045D01*
X3045045Y13687899D01*
X3241587Y13556574D01*
X3459973Y13466116D01*
X3691810Y13420000D01*
X3928190Y13420000D01*
X4160027Y13466116D01*
X4378413Y13556574D01*
X4574955Y13687899D01*
X4742101Y13855045D01*
X4873426Y14051587D01*
X4963884Y14269973D01*
X5010000Y14501810D01*
X5010000Y14738190D01*
X4963884Y14970027D01*
X4873426Y15188413D01*
X4742101Y15384955D01*
X4574955Y15552101D01*
X4378413Y15683426D01*
X4160027Y15773884D01*
X3928190Y15820000D01*
X3691810Y15820000D01*
X3459973Y15773884D01*
X3241587Y15683426D01*
X3045045Y15552101D01*
X2877899Y15384955D01*
X2746574Y15188413D01*
X2656116Y14970027D01*
X2610000Y14738190D01*
X2470000Y14738190D01*
X2423884Y14970027D01*
X2333426Y15188413D01*
X2202101Y15384955D01*
X2034955Y15552101D01*
X1838413Y15683426D01*
X1620027Y15773884D01*
X1388190Y15820000D01*
X1151810Y15820000D01*
X919973Y15773884D01*
X701587Y15683426D01*
X505045Y15552101D01*
X337899Y15384955D01*
X206574Y15188413D01*
X116116Y14970027D01*
X70000Y14738190D01*
X-70000Y14738190D01*
X-116116Y14970027D01*
X-206574Y15188413D01*
X-337899Y15384955D01*
X-505045Y15552101D01*
X-701587Y15683426D01*
X-919973Y15773884D01*
X-1151810Y15820000D01*
X-1388190Y15820000D01*
X-1620027Y15773884D01*
X-1838413Y15683426D01*
X-2034955Y15552101D01*
X-2202101Y15384955D01*
X-2333426Y15188413D01*
X-2423884Y14970027D01*
X-2470000Y14738190D01*
X-2615833Y14738190D01*
X-2627886Y14857852D01*
X-2697003Y15083900D01*
X-2805932Y15287695D01*
X-2975826Y15383463D01*
X-3739289Y14620000D01*
X-3880711Y14620000D01*
X-4644174Y15383463D01*
X-4814068Y15287695D01*
X-4925036Y15078981D01*
X-4993153Y14852629D01*
X-5015802Y14617337D01*
X-21675000Y14617337D01*
X-21675000Y15454174D01*
X-4573463Y15454174D01*
X-3810000Y14690711D01*
X-3046537Y15454174D01*
X-3142305Y15624068D01*
X-3351019Y15735036D01*
X-3577371Y15803153D01*
X-3812663Y15825802D01*
X-4047852Y15802114D01*
X-4273900Y15732997D01*
X-4477695Y15624068D01*
X-4573463Y15454174D01*
X-21675000Y15454174D01*
X-21675000Y18412511D01*
X-19900000Y18412511D01*
X-19900000Y18087489D01*
X-19836592Y17768713D01*
X-19712211Y17468432D01*
X-19531639Y17198186D01*
X-19301814Y16968361D01*
X-19031568Y16787789D01*
X-18731287Y16663408D01*
X-18412511Y16600000D01*
X-18087489Y16600000D01*
X-17768713Y16663408D01*
X-17468432Y16787789D01*
X-17198186Y16968361D01*
X-16968361Y17198186D01*
X-16787789Y17468432D01*
X-16663408Y17768713D01*
X-16600000Y18087489D01*
X-16600000Y18412511D01*
X-16663408Y18731287D01*
X-16787789Y19031568D01*
X-16968361Y19301814D01*
X-17198186Y19531639D01*
X-17468432Y19712211D01*
X-17768713Y19836592D01*
X-18087489Y19900000D01*
X-18412511Y19900000D01*
X-18731287Y19836592D01*
X-19031568Y19712211D01*
X-19301814Y19531639D01*
X-19531639Y19301814D01*
X-19712211Y19031568D01*
X-19836592Y18731287D01*
X-19900000Y18412511D01*
X-21675000Y18412511D01*
X-21675000Y18984103D01*
X-21622526Y19519275D01*
X-21471719Y20018770D01*
X-21226767Y20479459D01*
X-20896998Y20883797D01*
X-20696093Y21050000D01*
X1948549Y21050000D01*
X1948549Y19350000D01*
X1954341Y19291190D01*
X1971496Y19234640D01*
X1999353Y19182523D01*
X2036842Y19136842D01*
X2082523Y19099353D01*
X2134640Y19071496D01*
X2191190Y19054341D01*
X2250000Y19048549D01*
X3950000Y19048549D01*
X4008810Y19054341D01*
X4065360Y19071496D01*
X4117477Y19099353D01*
X4163158Y19136842D01*
X4200647Y19182523D01*
X4228504Y19234640D01*
X4245659Y19291190D01*
X4251451Y19350000D01*
X4251451Y19970886D01*
X4513052Y19970886D01*
X4579404Y19755432D01*
X4686514Y19557062D01*
X4830266Y19383400D01*
X5005136Y19241119D01*
X5204403Y19135688D01*
X5410886Y19073054D01*
X5590000Y19126163D01*
X5590000Y20150000D01*
X5690000Y20150000D01*
X5690000Y19126163D01*
X5869114Y19073054D01*
X6075597Y19135688D01*
X6274864Y19241119D01*
X6449734Y19383400D01*
X6593486Y19557062D01*
X6700596Y19755432D01*
X6766948Y19970886D01*
X6713915Y20150000D01*
X5690000Y20150000D01*
X5590000Y20150000D01*
X4566085Y20150000D01*
X4513052Y19970886D01*
X4251451Y19970886D01*
X4251451Y20429114D01*
X4513052Y20429114D01*
X4566085Y20250000D01*
X5590000Y20250000D01*
X5590000Y21273837D01*
X5690000Y21273837D01*
X5690000Y20250000D01*
X6713915Y20250000D01*
X6766948Y20429114D01*
X6700596Y20644568D01*
X6593486Y20842938D01*
X6449734Y21016600D01*
X6274864Y21158881D01*
X6075597Y21264312D01*
X5869114Y21326946D01*
X5690000Y21273837D01*
X5590000Y21273837D01*
X5410886Y21326946D01*
X5204403Y21264312D01*
X5005136Y21158881D01*
X4830266Y21016600D01*
X4686514Y20842938D01*
X4579404Y20644568D01*
X4513052Y20429114D01*
X4251451Y20429114D01*
X4251451Y21050000D01*
X4245659Y21108810D01*
X4228504Y21165360D01*
X4200647Y21217477D01*
X4163158Y21263158D01*
X4117477Y21300647D01*
X4065360Y21328504D01*
X4008810Y21345659D01*
X3950000Y21351451D01*
X2250000Y21351451D01*
X2191190Y21345659D01*
X2134640Y21328504D01*
X2082523Y21300647D01*
X2036842Y21263158D01*
X1999353Y21217477D01*
X1971496Y21165360D01*
X1954341Y21108810D01*
X1948549Y21050000D01*
X-20696093Y21050000D01*
X-20494969Y21216384D01*
X-20035999Y21464548D01*
X-19537573Y21618837D01*
X-19003343Y21674986D01*
X-18999441Y21675000D01*
X18984103Y21675000D01*
X19519275Y21622526D01*
G37*
%TD.AperFunction*%
%TD*%
M02*
