%TF.GenerationSoftware,KiCad,Pcbnew,5.1.10*%
%TF.CreationDate,2021-05-04T11:05:08+02:00*%
%TF.ProjectId,Mainboard,4d61696e-626f-4617-9264-2e6b69636164,rev?*%
%TF.SameCoordinates,Original*%
%TF.FileFunction,Legend,Bot*%
%TF.FilePolarity,Positive*%
%FSLAX46Y46*%
G04 Gerber Fmt 4.6, Leading zero omitted, Abs format (unit mm)*
G04 Created by KiCad (PCBNEW 5.1.10) date 2021-05-04 11:05:08*
%MOMM*%
%LPD*%
G01*
G04 APERTURE LIST*
%ADD10C,0.150000*%
%ADD11C,0.120000*%
G04 APERTURE END LIST*
D10*
X-18479285Y-21303571D02*
X-19050714Y-21303571D01*
X-18765000Y-21589285D02*
X-18765000Y-21017857D01*
X-10859285Y-21303571D02*
X-11430714Y-21303571D01*
X-11145000Y-21589285D02*
X-11145000Y-21017857D01*
X-3239285Y-21303571D02*
X-3810714Y-21303571D01*
X-3525000Y-21589285D02*
X-3525000Y-21017857D01*
X-14669285Y-21303571D02*
X-15240714Y-21303571D01*
X-7049285Y-21303571D02*
X-7620714Y-21303571D01*
X570714Y-21303571D02*
X-714Y-21303571D01*
X4380714Y-21303571D02*
X3809285Y-21303571D01*
X4095000Y-21589285D02*
X4095000Y-21017857D01*
X8190714Y-21303571D02*
X7619285Y-21303571D01*
X-16252857Y-21196428D02*
X-16002857Y-21196428D01*
X-16002857Y-21589285D02*
X-16002857Y-20839285D01*
X-16360000Y-20839285D01*
X-16610000Y-21375000D02*
X-16967142Y-21375000D01*
X-16538571Y-21589285D02*
X-16788571Y-20839285D01*
X-17038571Y-21589285D01*
X-17288571Y-21589285D02*
X-17288571Y-20839285D01*
X-17717142Y-21589285D01*
X-17717142Y-20839285D01*
X-8293571Y-21553571D02*
X-8400714Y-21589285D01*
X-8579285Y-21589285D01*
X-8650714Y-21553571D01*
X-8686428Y-21517857D01*
X-8722142Y-21446428D01*
X-8722142Y-21375000D01*
X-8686428Y-21303571D01*
X-8650714Y-21267857D01*
X-8579285Y-21232142D01*
X-8436428Y-21196428D01*
X-8365000Y-21160714D01*
X-8329285Y-21125000D01*
X-8293571Y-21053571D01*
X-8293571Y-20982142D01*
X-8329285Y-20910714D01*
X-8365000Y-20875000D01*
X-8436428Y-20839285D01*
X-8615000Y-20839285D01*
X-8722142Y-20875000D01*
X-9007857Y-21553571D02*
X-9115000Y-21589285D01*
X-9293571Y-21589285D01*
X-9365000Y-21553571D01*
X-9400714Y-21517857D01*
X-9436428Y-21446428D01*
X-9436428Y-21375000D01*
X-9400714Y-21303571D01*
X-9365000Y-21267857D01*
X-9293571Y-21232142D01*
X-9150714Y-21196428D01*
X-9079285Y-21160714D01*
X-9043571Y-21125000D01*
X-9007857Y-21053571D01*
X-9007857Y-20982142D01*
X-9043571Y-20910714D01*
X-9079285Y-20875000D01*
X-9150714Y-20839285D01*
X-9329285Y-20839285D01*
X-9436428Y-20875000D01*
X-10186428Y-21589285D02*
X-9936428Y-21232142D01*
X-9757857Y-21589285D02*
X-9757857Y-20839285D01*
X-10043571Y-20839285D01*
X-10115000Y-20875000D01*
X-10150714Y-20910714D01*
X-10186428Y-20982142D01*
X-10186428Y-21089285D01*
X-10150714Y-21160714D01*
X-10115000Y-21196428D01*
X-10043571Y-21232142D01*
X-9757857Y-21232142D01*
X-1030714Y-20839285D02*
X-1459285Y-20839285D01*
X-1244999Y-21589285D02*
X-1244999Y-20839285D01*
X-2137857Y-21517857D02*
X-2102142Y-21553571D01*
X-1994999Y-21589285D01*
X-1923571Y-21589285D01*
X-1816428Y-21553571D01*
X-1744999Y-21482142D01*
X-1709285Y-21410714D01*
X-1673571Y-21267857D01*
X-1673571Y-21160714D01*
X-1709285Y-21017857D01*
X-1744999Y-20946428D01*
X-1816428Y-20875000D01*
X-1923571Y-20839285D01*
X-1994999Y-20839285D01*
X-2102142Y-20875000D01*
X-2137857Y-20910714D01*
X6142857Y-20839285D02*
X6500000Y-20839285D01*
X6535714Y-21196428D01*
X6500000Y-21160714D01*
X6428571Y-21125000D01*
X6250000Y-21125000D01*
X6178571Y-21160714D01*
X6142857Y-21196428D01*
X6107142Y-21267857D01*
X6107142Y-21446428D01*
X6142857Y-21517857D01*
X6178571Y-21553571D01*
X6250000Y-21589285D01*
X6428571Y-21589285D01*
X6500000Y-21553571D01*
X6535714Y-21517857D01*
X5892857Y-20839285D02*
X5642857Y-21589285D01*
X5392857Y-20839285D01*
D11*
%TO.C,U4*%
X-4180000Y-7100000D02*
X-4180000Y-5150000D01*
X-4180000Y-7100000D02*
X-4180000Y-9050000D01*
X940000Y-7100000D02*
X940000Y-5150000D01*
X940000Y-7100000D02*
X940000Y-10550000D01*
%TO.C,U3*%
X-510000Y2990000D02*
X-810000Y2990000D01*
X-810000Y2990000D02*
X-810000Y3290000D01*
X6110000Y2990000D02*
X6410000Y2990000D01*
X6410000Y2990000D02*
X6410000Y3290000D01*
X-510000Y10210000D02*
X-810000Y10210000D01*
X-810000Y10210000D02*
X-810000Y9910000D01*
X6110000Y10210000D02*
X6410000Y10210000D01*
X6410000Y10210000D02*
X6410000Y9910000D01*
X6410000Y9910000D02*
X7725000Y9910000D01*
D10*
%TO.C,U2*%
X12375000Y-8475000D02*
X12150000Y-8475000D01*
X12375000Y-5125000D02*
X12075000Y-5125000D01*
X9025000Y-5125000D02*
X9325000Y-5125000D01*
X9025000Y-8475000D02*
X9325000Y-8475000D01*
X12375000Y-8475000D02*
X12375000Y-5125000D01*
X9025000Y-8475000D02*
X9025000Y-5125000D01*
X12150000Y-8475000D02*
X12150000Y-9700000D01*
D11*
%TO.C,U1*%
X5560000Y-1920000D02*
X5560000Y-2850000D01*
X5560000Y-5080000D02*
X5560000Y-4150000D01*
X5560000Y-5080000D02*
X3400000Y-5080000D01*
X5560000Y-1920000D02*
X4100000Y-1920000D01*
%TO.C,R15*%
X-12877500Y8962742D02*
X-12877500Y9437258D01*
X-13922500Y8962742D02*
X-13922500Y9437258D01*
%TO.C,R14*%
X-5322500Y11437258D02*
X-5322500Y10962742D01*
X-4277500Y11437258D02*
X-4277500Y10962742D01*
%TO.C,R13*%
X-11437258Y3977500D02*
X-10962742Y3977500D01*
X-11437258Y5022500D02*
X-10962742Y5022500D01*
%TO.C,R12*%
X-7537258Y3977500D02*
X-7062742Y3977500D01*
X-7537258Y5022500D02*
X-7062742Y5022500D01*
%TO.C,R11*%
X9062742Y-3022500D02*
X9537258Y-3022500D01*
X9062742Y-1977500D02*
X9537258Y-1977500D01*
%TO.C,R10*%
X12837258Y-1977500D02*
X12362742Y-1977500D01*
X12837258Y-3022500D02*
X12362742Y-3022500D01*
%TO.C,R9*%
X9762742Y3477500D02*
X10237258Y3477500D01*
X9762742Y4522500D02*
X10237258Y4522500D01*
%TO.C,R8*%
X16562742Y277500D02*
X17037258Y277500D01*
X16562742Y1322500D02*
X17037258Y1322500D01*
%TO.C,R7*%
X19662742Y-13222500D02*
X20137258Y-13222500D01*
X19662742Y-12177500D02*
X20137258Y-12177500D01*
%TO.C,R6*%
X3277500Y17437258D02*
X3277500Y16962742D01*
X4322500Y17437258D02*
X4322500Y16962742D01*
%TO.C,R5*%
X9637258Y-11227500D02*
X9162742Y-11227500D01*
X9637258Y-12272500D02*
X9162742Y-12272500D01*
%TO.C,R4*%
X16562742Y9777500D02*
X17037258Y9777500D01*
X16562742Y10822500D02*
X17037258Y10822500D01*
%TO.C,R3*%
X737500Y17437258D02*
X737500Y16962742D01*
X1782500Y17437258D02*
X1782500Y16962742D01*
%TO.C,R2*%
X-16562742Y1322500D02*
X-17037258Y1322500D01*
X-16562742Y277500D02*
X-17037258Y277500D01*
%TO.C,R1*%
X-16562742Y10822500D02*
X-17037258Y10822500D01*
X-16562742Y9777500D02*
X-17037258Y9777500D01*
%TO.C,Q3*%
X-8360000Y9620000D02*
X-8360000Y10550000D01*
X-8360000Y12780000D02*
X-8360000Y11850000D01*
X-8360000Y12780000D02*
X-6200000Y12780000D01*
X-8360000Y9620000D02*
X-6900000Y9620000D01*
%TO.C,Q2*%
X-9620000Y940000D02*
X-10550000Y940000D01*
X-12780000Y940000D02*
X-11850000Y940000D01*
X-12780000Y940000D02*
X-12780000Y3100000D01*
X-9620000Y940000D02*
X-9620000Y2400000D01*
%TO.C,Q1*%
X-5720000Y940000D02*
X-6650000Y940000D01*
X-8880000Y940000D02*
X-7950000Y940000D01*
X-8880000Y940000D02*
X-8880000Y3100000D01*
X-5720000Y940000D02*
X-5720000Y2400000D01*
%TO.C,J6*%
X-13050000Y-13100000D02*
X-20670000Y-13100000D01*
X-20670000Y-20400000D02*
X-20670000Y-13100000D01*
X-20670000Y-20400000D02*
X-13050000Y-20400000D01*
X-13050000Y-20400000D02*
X-13050000Y-13100000D01*
X-13060000Y-13700000D02*
X-20660000Y-13700000D01*
X-13910000Y-20000000D02*
X-15960000Y-20000000D01*
X-19810000Y-20000000D02*
X-17760000Y-20000000D01*
X-19810000Y-20000000D02*
X-19810000Y-20400000D01*
X-17760000Y-20000000D02*
X-17760000Y-20400000D01*
X-13910000Y-20000000D02*
X-13910000Y-20400000D01*
X-15960000Y-20000000D02*
X-15960000Y-20400000D01*
%TO.C,J5*%
X-5430000Y-13100000D02*
X-13050000Y-13100000D01*
X-13050000Y-20400000D02*
X-13050000Y-13100000D01*
X-13050000Y-20400000D02*
X-5430000Y-20400000D01*
X-5430000Y-20400000D02*
X-5430000Y-13100000D01*
X-5440000Y-13700000D02*
X-13040000Y-13700000D01*
X-6290000Y-20000000D02*
X-8340000Y-20000000D01*
X-12190000Y-20000000D02*
X-10140000Y-20000000D01*
X-12190000Y-20000000D02*
X-12190000Y-20400000D01*
X-10140000Y-20000000D02*
X-10140000Y-20400000D01*
X-6290000Y-20000000D02*
X-6290000Y-20400000D01*
X-8340000Y-20000000D02*
X-8340000Y-20400000D01*
%TO.C,J4*%
X2190000Y-13100000D02*
X-5430000Y-13100000D01*
X-5430000Y-20400000D02*
X-5430000Y-13100000D01*
X-5430000Y-20400000D02*
X2190000Y-20400000D01*
X2190000Y-20400000D02*
X2190000Y-13100000D01*
X2180000Y-13700000D02*
X-5420000Y-13700000D01*
X1330000Y-20000000D02*
X-720000Y-20000000D01*
X-4570000Y-20000000D02*
X-2520000Y-20000000D01*
X-4570000Y-20000000D02*
X-4570000Y-20400000D01*
X-2520000Y-20000000D02*
X-2520000Y-20400000D01*
X1330000Y-20000000D02*
X1330000Y-20400000D01*
X-720000Y-20000000D02*
X-720000Y-20400000D01*
%TO.C,J3*%
X14590000Y21530000D02*
X14590000Y18870000D01*
X4370000Y21530000D02*
X14590000Y21530000D01*
X4370000Y18870000D02*
X14590000Y18870000D01*
X4370000Y21530000D02*
X4370000Y18870000D01*
X3100000Y21530000D02*
X1770000Y21530000D01*
X1770000Y21530000D02*
X1770000Y20200000D01*
%TO.C,J2*%
X20700000Y-20600000D02*
X20700000Y-22500000D01*
X20700000Y-16700000D02*
X20700000Y-18700000D01*
X11300000Y-20600000D02*
X11300000Y-22500000D01*
X11300000Y-16700000D02*
X11300000Y-18700000D01*
X20700000Y-22500000D02*
X11300000Y-22500000D01*
%TO.C,J1*%
X9810000Y-13100000D02*
X2190000Y-13100000D01*
X2190000Y-20400000D02*
X2190000Y-13100000D01*
X2190000Y-20400000D02*
X9810000Y-20400000D01*
X9810000Y-20400000D02*
X9810000Y-13100000D01*
X9800000Y-13700000D02*
X2200000Y-13700000D01*
X8950000Y-20000000D02*
X6900000Y-20000000D01*
X3050000Y-20000000D02*
X5100000Y-20000000D01*
X3050000Y-20000000D02*
X3050000Y-20400000D01*
X5100000Y-20000000D02*
X5100000Y-20400000D01*
X8950000Y-20000000D02*
X8950000Y-20400000D01*
X6900000Y-20000000D02*
X6900000Y-20400000D01*
%TO.C,D5*%
X-14200000Y11075000D02*
X-14200000Y12725000D01*
X-14200000Y12725000D02*
X-10250000Y12725000D01*
X-14200000Y11075000D02*
X-10250000Y11075000D01*
%TO.C,D4*%
X-11075000Y-5000000D02*
X-12725000Y-5000000D01*
X-12725000Y-5000000D02*
X-12725000Y-1050000D01*
X-11075000Y-5000000D02*
X-11075000Y-1050000D01*
%TO.C,D3*%
X-7175000Y-5000000D02*
X-8825000Y-5000000D01*
X-8825000Y-5000000D02*
X-8825000Y-1050000D01*
X-7175000Y-5000000D02*
X-7175000Y-1050000D01*
%TO.C,D2*%
X2775000Y-7900000D02*
X4425000Y-7900000D01*
X4425000Y-7900000D02*
X4425000Y-11850000D01*
X2775000Y-7900000D02*
X2775000Y-11850000D01*
%TO.C,D1*%
X5175000Y-7900000D02*
X6825000Y-7900000D01*
X6825000Y-7900000D02*
X6825000Y-11850000D01*
X5175000Y-7900000D02*
X5175000Y-11850000D01*
%TO.C,C7*%
X-5810000Y-10209420D02*
X-5810000Y-10490580D01*
X-4790000Y-10209420D02*
X-4790000Y-10490580D01*
%TO.C,C6*%
X13090000Y-6659420D02*
X13090000Y-6940580D01*
X14110000Y-6659420D02*
X14110000Y-6940580D01*
%TO.C,C5*%
X-1760580Y-12310000D02*
X-1479420Y-12310000D01*
X-1760580Y-11290000D02*
X-1479420Y-11290000D01*
%TO.C,C4*%
X8590000Y6740580D02*
X8590000Y6459420D01*
X9610000Y6740580D02*
X9610000Y6459420D01*
%TO.C,C3*%
X10390000Y6740580D02*
X10390000Y6459420D01*
X11410000Y6740580D02*
X11410000Y6459420D01*
%TO.C,C2*%
X4409420Y-1310000D02*
X4690580Y-1310000D01*
X4409420Y-290000D02*
X4690580Y-290000D01*
%TO.C,C1*%
X4409420Y-6710000D02*
X4690580Y-6710000D01*
X4409420Y-5690000D02*
X4690580Y-5690000D01*
%TO.C,BZ1*%
X-6300000Y19300000D02*
X-6300000Y15300000D01*
X-12100000Y21100000D02*
X-8100000Y21100000D01*
X-13900000Y15300000D02*
X-13900000Y19300000D01*
X-8100000Y13500000D02*
X-12100000Y13500000D01*
X-7600000Y16800000D02*
X-7600000Y17800000D01*
X-7600000Y17800000D02*
X-7100000Y17300000D01*
X-7100000Y17300000D02*
X-7600000Y16800000D01*
%TO.C,U4*%
D10*
X-5260714Y-6528571D02*
X-4653571Y-6528571D01*
X-4582142Y-6564285D01*
X-4546428Y-6600000D01*
X-4510714Y-6671428D01*
X-4510714Y-6814285D01*
X-4546428Y-6885714D01*
X-4582142Y-6921428D01*
X-4653571Y-6957142D01*
X-5260714Y-6957142D01*
X-5010714Y-7635714D02*
X-4510714Y-7635714D01*
X-5296428Y-7457142D02*
X-4760714Y-7278571D01*
X-4760714Y-7742857D01*
%TO.C,U3*%
X-3410714Y7171428D02*
X-2803571Y7171428D01*
X-2732142Y7135714D01*
X-2696428Y7100000D01*
X-2660714Y7028571D01*
X-2660714Y6885714D01*
X-2696428Y6814285D01*
X-2732142Y6778571D01*
X-2803571Y6742857D01*
X-3410714Y6742857D01*
X-3410714Y6457142D02*
X-3410714Y5992857D01*
X-3125000Y6242857D01*
X-3125000Y6135714D01*
X-3089285Y6064285D01*
X-3053571Y6028571D01*
X-2982142Y5992857D01*
X-2803571Y5992857D01*
X-2732142Y6028571D01*
X-2696428Y6064285D01*
X-2660714Y6135714D01*
X-2660714Y6350000D01*
X-2696428Y6421428D01*
X-2732142Y6457142D01*
%TO.C,U2*%
X7889285Y-6228571D02*
X8496428Y-6228571D01*
X8567857Y-6264285D01*
X8603571Y-6300000D01*
X8639285Y-6371428D01*
X8639285Y-6514285D01*
X8603571Y-6585714D01*
X8567857Y-6621428D01*
X8496428Y-6657142D01*
X7889285Y-6657142D01*
X7960714Y-6978571D02*
X7925000Y-7014285D01*
X7889285Y-7085714D01*
X7889285Y-7264285D01*
X7925000Y-7335714D01*
X7960714Y-7371428D01*
X8032142Y-7407142D01*
X8103571Y-7407142D01*
X8210714Y-7371428D01*
X8639285Y-6942857D01*
X8639285Y-7407142D01*
%TO.C,U1*%
X2189285Y-2928571D02*
X2796428Y-2928571D01*
X2867857Y-2964285D01*
X2903571Y-3000000D01*
X2939285Y-3071428D01*
X2939285Y-3214285D01*
X2903571Y-3285714D01*
X2867857Y-3321428D01*
X2796428Y-3357142D01*
X2189285Y-3357142D01*
X2939285Y-4107142D02*
X2939285Y-3678571D01*
X2939285Y-3892857D02*
X2189285Y-3892857D01*
X2296428Y-3821428D01*
X2367857Y-3750000D01*
X2403571Y-3678571D01*
%TO.C,R15*%
X-14360714Y9682142D02*
X-14717857Y9932142D01*
X-14360714Y10110714D02*
X-15110714Y10110714D01*
X-15110714Y9825000D01*
X-15075000Y9753571D01*
X-15039285Y9717857D01*
X-14967857Y9682142D01*
X-14860714Y9682142D01*
X-14789285Y9717857D01*
X-14753571Y9753571D01*
X-14717857Y9825000D01*
X-14717857Y10110714D01*
X-14360714Y8967857D02*
X-14360714Y9396428D01*
X-14360714Y9182142D02*
X-15110714Y9182142D01*
X-15003571Y9253571D01*
X-14932142Y9325000D01*
X-14896428Y9396428D01*
X-15110714Y8289285D02*
X-15110714Y8646428D01*
X-14753571Y8682142D01*
X-14789285Y8646428D01*
X-14825000Y8575000D01*
X-14825000Y8396428D01*
X-14789285Y8325000D01*
X-14753571Y8289285D01*
X-14682142Y8253571D01*
X-14503571Y8253571D01*
X-14432142Y8289285D01*
X-14396428Y8325000D01*
X-14360714Y8396428D01*
X-14360714Y8575000D01*
X-14396428Y8646428D01*
X-14432142Y8682142D01*
%TO.C,R14*%
X-3160714Y11682142D02*
X-3517857Y11932142D01*
X-3160714Y12110714D02*
X-3910714Y12110714D01*
X-3910714Y11825000D01*
X-3875000Y11753571D01*
X-3839285Y11717857D01*
X-3767857Y11682142D01*
X-3660714Y11682142D01*
X-3589285Y11717857D01*
X-3553571Y11753571D01*
X-3517857Y11825000D01*
X-3517857Y12110714D01*
X-3160714Y10967857D02*
X-3160714Y11396428D01*
X-3160714Y11182142D02*
X-3910714Y11182142D01*
X-3803571Y11253571D01*
X-3732142Y11325000D01*
X-3696428Y11396428D01*
X-3660714Y10325000D02*
X-3160714Y10325000D01*
X-3946428Y10503571D02*
X-3410714Y10682142D01*
X-3410714Y10217857D01*
%TO.C,R13*%
X-10717857Y5460714D02*
X-10467857Y5817857D01*
X-10289285Y5460714D02*
X-10289285Y6210714D01*
X-10575000Y6210714D01*
X-10646428Y6175000D01*
X-10682142Y6139285D01*
X-10717857Y6067857D01*
X-10717857Y5960714D01*
X-10682142Y5889285D01*
X-10646428Y5853571D01*
X-10575000Y5817857D01*
X-10289285Y5817857D01*
X-11432142Y5460714D02*
X-11003571Y5460714D01*
X-11217857Y5460714D02*
X-11217857Y6210714D01*
X-11146428Y6103571D01*
X-11075000Y6032142D01*
X-11003571Y5996428D01*
X-11682142Y6210714D02*
X-12146428Y6210714D01*
X-11896428Y5925000D01*
X-12003571Y5925000D01*
X-12075000Y5889285D01*
X-12110714Y5853571D01*
X-12146428Y5782142D01*
X-12146428Y5603571D01*
X-12110714Y5532142D01*
X-12075000Y5496428D01*
X-12003571Y5460714D01*
X-11789285Y5460714D01*
X-11717857Y5496428D01*
X-11682142Y5532142D01*
%TO.C,R12*%
X-6817857Y5460714D02*
X-6567857Y5817857D01*
X-6389285Y5460714D02*
X-6389285Y6210714D01*
X-6675000Y6210714D01*
X-6746428Y6175000D01*
X-6782142Y6139285D01*
X-6817857Y6067857D01*
X-6817857Y5960714D01*
X-6782142Y5889285D01*
X-6746428Y5853571D01*
X-6675000Y5817857D01*
X-6389285Y5817857D01*
X-7532142Y5460714D02*
X-7103571Y5460714D01*
X-7317857Y5460714D02*
X-7317857Y6210714D01*
X-7246428Y6103571D01*
X-7175000Y6032142D01*
X-7103571Y5996428D01*
X-7817857Y6139285D02*
X-7853571Y6175000D01*
X-7925000Y6210714D01*
X-8103571Y6210714D01*
X-8175000Y6175000D01*
X-8210714Y6139285D01*
X-8246428Y6067857D01*
X-8246428Y5996428D01*
X-8210714Y5889285D01*
X-7782142Y5460714D01*
X-8246428Y5460714D01*
%TO.C,R11*%
X9782142Y-1539285D02*
X10032142Y-1182142D01*
X10210714Y-1539285D02*
X10210714Y-789285D01*
X9925000Y-789285D01*
X9853571Y-825000D01*
X9817857Y-860714D01*
X9782142Y-932142D01*
X9782142Y-1039285D01*
X9817857Y-1110714D01*
X9853571Y-1146428D01*
X9925000Y-1182142D01*
X10210714Y-1182142D01*
X9067857Y-1539285D02*
X9496428Y-1539285D01*
X9282142Y-1539285D02*
X9282142Y-789285D01*
X9353571Y-896428D01*
X9425000Y-967857D01*
X9496428Y-1003571D01*
X8353571Y-1539285D02*
X8782142Y-1539285D01*
X8567857Y-1539285D02*
X8567857Y-789285D01*
X8639285Y-896428D01*
X8710714Y-967857D01*
X8782142Y-1003571D01*
%TO.C,R10*%
X13082142Y-1539285D02*
X13332142Y-1182142D01*
X13510714Y-1539285D02*
X13510714Y-789285D01*
X13225000Y-789285D01*
X13153571Y-825000D01*
X13117857Y-860714D01*
X13082142Y-932142D01*
X13082142Y-1039285D01*
X13117857Y-1110714D01*
X13153571Y-1146428D01*
X13225000Y-1182142D01*
X13510714Y-1182142D01*
X12367857Y-1539285D02*
X12796428Y-1539285D01*
X12582142Y-1539285D02*
X12582142Y-789285D01*
X12653571Y-896428D01*
X12725000Y-967857D01*
X12796428Y-1003571D01*
X11903571Y-789285D02*
X11832142Y-789285D01*
X11760714Y-825000D01*
X11725000Y-860714D01*
X11689285Y-932142D01*
X11653571Y-1075000D01*
X11653571Y-1253571D01*
X11689285Y-1396428D01*
X11725000Y-1467857D01*
X11760714Y-1503571D01*
X11832142Y-1539285D01*
X11903571Y-1539285D01*
X11975000Y-1503571D01*
X12010714Y-1467857D01*
X12046428Y-1396428D01*
X12082142Y-1253571D01*
X12082142Y-1075000D01*
X12046428Y-932142D01*
X12010714Y-860714D01*
X11975000Y-825000D01*
X11903571Y-789285D01*
%TO.C,R9*%
X10125000Y2230714D02*
X10375000Y2587857D01*
X10553571Y2230714D02*
X10553571Y2980714D01*
X10267857Y2980714D01*
X10196428Y2945000D01*
X10160714Y2909285D01*
X10125000Y2837857D01*
X10125000Y2730714D01*
X10160714Y2659285D01*
X10196428Y2623571D01*
X10267857Y2587857D01*
X10553571Y2587857D01*
X9767857Y2230714D02*
X9625000Y2230714D01*
X9553571Y2266428D01*
X9517857Y2302142D01*
X9446428Y2409285D01*
X9410714Y2552142D01*
X9410714Y2837857D01*
X9446428Y2909285D01*
X9482142Y2945000D01*
X9553571Y2980714D01*
X9696428Y2980714D01*
X9767857Y2945000D01*
X9803571Y2909285D01*
X9839285Y2837857D01*
X9839285Y2659285D01*
X9803571Y2587857D01*
X9767857Y2552142D01*
X9696428Y2516428D01*
X9553571Y2516428D01*
X9482142Y2552142D01*
X9446428Y2587857D01*
X9410714Y2659285D01*
%TO.C,R8*%
X16925000Y-839285D02*
X17175000Y-482142D01*
X17353571Y-839285D02*
X17353571Y-89285D01*
X17067857Y-89285D01*
X16996428Y-125000D01*
X16960714Y-160714D01*
X16925000Y-232142D01*
X16925000Y-339285D01*
X16960714Y-410714D01*
X16996428Y-446428D01*
X17067857Y-482142D01*
X17353571Y-482142D01*
X16496428Y-410714D02*
X16567857Y-375000D01*
X16603571Y-339285D01*
X16639285Y-267857D01*
X16639285Y-232142D01*
X16603571Y-160714D01*
X16567857Y-125000D01*
X16496428Y-89285D01*
X16353571Y-89285D01*
X16282142Y-125000D01*
X16246428Y-160714D01*
X16210714Y-232142D01*
X16210714Y-267857D01*
X16246428Y-339285D01*
X16282142Y-375000D01*
X16353571Y-410714D01*
X16496428Y-410714D01*
X16567857Y-446428D01*
X16603571Y-482142D01*
X16639285Y-553571D01*
X16639285Y-696428D01*
X16603571Y-767857D01*
X16567857Y-803571D01*
X16496428Y-839285D01*
X16353571Y-839285D01*
X16282142Y-803571D01*
X16246428Y-767857D01*
X16210714Y-696428D01*
X16210714Y-553571D01*
X16246428Y-482142D01*
X16282142Y-446428D01*
X16353571Y-410714D01*
%TO.C,R7*%
X20025000Y-11889285D02*
X20275000Y-11532142D01*
X20453571Y-11889285D02*
X20453571Y-11139285D01*
X20167857Y-11139285D01*
X20096428Y-11175000D01*
X20060714Y-11210714D01*
X20025000Y-11282142D01*
X20025000Y-11389285D01*
X20060714Y-11460714D01*
X20096428Y-11496428D01*
X20167857Y-11532142D01*
X20453571Y-11532142D01*
X19775000Y-11139285D02*
X19275000Y-11139285D01*
X19596428Y-11889285D01*
%TO.C,R6*%
X5439285Y17325000D02*
X5082142Y17575000D01*
X5439285Y17753571D02*
X4689285Y17753571D01*
X4689285Y17467857D01*
X4725000Y17396428D01*
X4760714Y17360714D01*
X4832142Y17325000D01*
X4939285Y17325000D01*
X5010714Y17360714D01*
X5046428Y17396428D01*
X5082142Y17467857D01*
X5082142Y17753571D01*
X4689285Y16682142D02*
X4689285Y16825000D01*
X4725000Y16896428D01*
X4760714Y16932142D01*
X4867857Y17003571D01*
X5010714Y17039285D01*
X5296428Y17039285D01*
X5367857Y17003571D01*
X5403571Y16967857D01*
X5439285Y16896428D01*
X5439285Y16753571D01*
X5403571Y16682142D01*
X5367857Y16646428D01*
X5296428Y16610714D01*
X5117857Y16610714D01*
X5046428Y16646428D01*
X5010714Y16682142D01*
X4975000Y16753571D01*
X4975000Y16896428D01*
X5010714Y16967857D01*
X5046428Y17003571D01*
X5117857Y17039285D01*
%TO.C,R5*%
X11725000Y-12089285D02*
X11975000Y-11732142D01*
X12153571Y-12089285D02*
X12153571Y-11339285D01*
X11867857Y-11339285D01*
X11796428Y-11375000D01*
X11760714Y-11410714D01*
X11725000Y-11482142D01*
X11725000Y-11589285D01*
X11760714Y-11660714D01*
X11796428Y-11696428D01*
X11867857Y-11732142D01*
X12153571Y-11732142D01*
X11046428Y-11339285D02*
X11403571Y-11339285D01*
X11439285Y-11696428D01*
X11403571Y-11660714D01*
X11332142Y-11625000D01*
X11153571Y-11625000D01*
X11082142Y-11660714D01*
X11046428Y-11696428D01*
X11010714Y-11767857D01*
X11010714Y-11946428D01*
X11046428Y-12017857D01*
X11082142Y-12053571D01*
X11153571Y-12089285D01*
X11332142Y-12089285D01*
X11403571Y-12053571D01*
X11439285Y-12017857D01*
%TO.C,R4*%
X16925000Y8660714D02*
X17175000Y9017857D01*
X17353571Y8660714D02*
X17353571Y9410714D01*
X17067857Y9410714D01*
X16996428Y9375000D01*
X16960714Y9339285D01*
X16925000Y9267857D01*
X16925000Y9160714D01*
X16960714Y9089285D01*
X16996428Y9053571D01*
X17067857Y9017857D01*
X17353571Y9017857D01*
X16282142Y9160714D02*
X16282142Y8660714D01*
X16460714Y9446428D02*
X16639285Y8910714D01*
X16175000Y8910714D01*
%TO.C,R3*%
X339285Y17325000D02*
X-17857Y17575000D01*
X339285Y17753571D02*
X-410714Y17753571D01*
X-410714Y17467857D01*
X-375000Y17396428D01*
X-339285Y17360714D01*
X-267857Y17325000D01*
X-160714Y17325000D01*
X-89285Y17360714D01*
X-53571Y17396428D01*
X-17857Y17467857D01*
X-17857Y17753571D01*
X-410714Y17075000D02*
X-410714Y16610714D01*
X-125000Y16860714D01*
X-125000Y16753571D01*
X-89285Y16682142D01*
X-53571Y16646428D01*
X17857Y16610714D01*
X196428Y16610714D01*
X267857Y16646428D01*
X303571Y16682142D01*
X339285Y16753571D01*
X339285Y16967857D01*
X303571Y17039285D01*
X267857Y17075000D01*
%TO.C,R2*%
X-16675000Y-839285D02*
X-16425000Y-482142D01*
X-16246428Y-839285D02*
X-16246428Y-89285D01*
X-16532142Y-89285D01*
X-16603571Y-125000D01*
X-16639285Y-160714D01*
X-16675000Y-232142D01*
X-16675000Y-339285D01*
X-16639285Y-410714D01*
X-16603571Y-446428D01*
X-16532142Y-482142D01*
X-16246428Y-482142D01*
X-16960714Y-160714D02*
X-16996428Y-125000D01*
X-17067857Y-89285D01*
X-17246428Y-89285D01*
X-17317857Y-125000D01*
X-17353571Y-160714D01*
X-17389285Y-232142D01*
X-17389285Y-303571D01*
X-17353571Y-410714D01*
X-16925000Y-839285D01*
X-17389285Y-839285D01*
%TO.C,R1*%
X-16675000Y8660714D02*
X-16425000Y9017857D01*
X-16246428Y8660714D02*
X-16246428Y9410714D01*
X-16532142Y9410714D01*
X-16603571Y9375000D01*
X-16639285Y9339285D01*
X-16675000Y9267857D01*
X-16675000Y9160714D01*
X-16639285Y9089285D01*
X-16603571Y9053571D01*
X-16532142Y9017857D01*
X-16246428Y9017857D01*
X-17389285Y8660714D02*
X-16960714Y8660714D01*
X-17175000Y8660714D02*
X-17175000Y9410714D01*
X-17103571Y9303571D01*
X-17032142Y9232142D01*
X-16960714Y9196428D01*
%TO.C,Q3*%
X-7528571Y8389285D02*
X-7457142Y8425000D01*
X-7385714Y8496428D01*
X-7278571Y8603571D01*
X-7207142Y8639285D01*
X-7135714Y8639285D01*
X-7171428Y8460714D02*
X-7100000Y8496428D01*
X-7028571Y8567857D01*
X-6992857Y8710714D01*
X-6992857Y8960714D01*
X-7028571Y9103571D01*
X-7100000Y9175000D01*
X-7171428Y9210714D01*
X-7314285Y9210714D01*
X-7385714Y9175000D01*
X-7457142Y9103571D01*
X-7492857Y8960714D01*
X-7492857Y8710714D01*
X-7457142Y8567857D01*
X-7385714Y8496428D01*
X-7314285Y8460714D01*
X-7171428Y8460714D01*
X-7742857Y9210714D02*
X-8207142Y9210714D01*
X-7957142Y8925000D01*
X-8064285Y8925000D01*
X-8135714Y8889285D01*
X-8171428Y8853571D01*
X-8207142Y8782142D01*
X-8207142Y8603571D01*
X-8171428Y8532142D01*
X-8135714Y8496428D01*
X-8064285Y8460714D01*
X-7850000Y8460714D01*
X-7778571Y8496428D01*
X-7742857Y8532142D01*
%TO.C,Q2*%
X-13189285Y1771428D02*
X-13225000Y1842857D01*
X-13296428Y1914285D01*
X-13403571Y2021428D01*
X-13439285Y2092857D01*
X-13439285Y2164285D01*
X-13260714Y2128571D02*
X-13296428Y2200000D01*
X-13367857Y2271428D01*
X-13510714Y2307142D01*
X-13760714Y2307142D01*
X-13903571Y2271428D01*
X-13975000Y2200000D01*
X-14010714Y2128571D01*
X-14010714Y1985714D01*
X-13975000Y1914285D01*
X-13903571Y1842857D01*
X-13760714Y1807142D01*
X-13510714Y1807142D01*
X-13367857Y1842857D01*
X-13296428Y1914285D01*
X-13260714Y1985714D01*
X-13260714Y2128571D01*
X-13939285Y1521428D02*
X-13975000Y1485714D01*
X-14010714Y1414285D01*
X-14010714Y1235714D01*
X-13975000Y1164285D01*
X-13939285Y1128571D01*
X-13867857Y1092857D01*
X-13796428Y1092857D01*
X-13689285Y1128571D01*
X-13260714Y1557142D01*
X-13260714Y1092857D01*
%TO.C,Q1*%
X-4489285Y1771428D02*
X-4525000Y1842857D01*
X-4596428Y1914285D01*
X-4703571Y2021428D01*
X-4739285Y2092857D01*
X-4739285Y2164285D01*
X-4560714Y2128571D02*
X-4596428Y2200000D01*
X-4667857Y2271428D01*
X-4810714Y2307142D01*
X-5060714Y2307142D01*
X-5203571Y2271428D01*
X-5275000Y2200000D01*
X-5310714Y2128571D01*
X-5310714Y1985714D01*
X-5275000Y1914285D01*
X-5203571Y1842857D01*
X-5060714Y1807142D01*
X-4810714Y1807142D01*
X-4667857Y1842857D01*
X-4596428Y1914285D01*
X-4560714Y1985714D01*
X-4560714Y2128571D01*
X-4560714Y1092857D02*
X-4560714Y1521428D01*
X-4560714Y1307142D02*
X-5310714Y1307142D01*
X-5203571Y1378571D01*
X-5132142Y1450000D01*
X-5096428Y1521428D01*
%TO.C,J6*%
X-16609999Y-13989285D02*
X-16609999Y-14525000D01*
X-16574285Y-14632142D01*
X-16502857Y-14703571D01*
X-16395714Y-14739285D01*
X-16324285Y-14739285D01*
X-17288571Y-13989285D02*
X-17145714Y-13989285D01*
X-17074285Y-14025000D01*
X-17038571Y-14060714D01*
X-16967142Y-14167857D01*
X-16931428Y-14310714D01*
X-16931428Y-14596428D01*
X-16967142Y-14667857D01*
X-17002857Y-14703571D01*
X-17074285Y-14739285D01*
X-17217142Y-14739285D01*
X-17288571Y-14703571D01*
X-17324285Y-14667857D01*
X-17360000Y-14596428D01*
X-17360000Y-14417857D01*
X-17324285Y-14346428D01*
X-17288571Y-14310714D01*
X-17217142Y-14275000D01*
X-17074285Y-14275000D01*
X-17002857Y-14310714D01*
X-16967142Y-14346428D01*
X-16931428Y-14417857D01*
%TO.C,J5*%
X-8990000Y-13989285D02*
X-8990000Y-14525000D01*
X-8954285Y-14632142D01*
X-8882857Y-14703571D01*
X-8775714Y-14739285D01*
X-8704285Y-14739285D01*
X-9704285Y-13989285D02*
X-9347142Y-13989285D01*
X-9311428Y-14346428D01*
X-9347142Y-14310714D01*
X-9418571Y-14275000D01*
X-9597142Y-14275000D01*
X-9668571Y-14310714D01*
X-9704285Y-14346428D01*
X-9740000Y-14417857D01*
X-9740000Y-14596428D01*
X-9704285Y-14667857D01*
X-9668571Y-14703571D01*
X-9597142Y-14739285D01*
X-9418571Y-14739285D01*
X-9347142Y-14703571D01*
X-9311428Y-14667857D01*
%TO.C,J4*%
X-1369999Y-13989285D02*
X-1369999Y-14525000D01*
X-1334285Y-14632142D01*
X-1262857Y-14703571D01*
X-1155714Y-14739285D01*
X-1084285Y-14739285D01*
X-2048571Y-14239285D02*
X-2048571Y-14739285D01*
X-1869999Y-13953571D02*
X-1691428Y-14489285D01*
X-2155714Y-14489285D01*
%TO.C,J3*%
X1020000Y20610714D02*
X1020000Y20075000D01*
X1055714Y19967857D01*
X1127142Y19896428D01*
X1234285Y19860714D01*
X1305714Y19860714D01*
X734285Y20610714D02*
X270000Y20610714D01*
X520000Y20325000D01*
X412857Y20325000D01*
X341428Y20289285D01*
X305714Y20253571D01*
X270000Y20182142D01*
X270000Y20003571D01*
X305714Y19932142D01*
X341428Y19896428D01*
X412857Y19860714D01*
X627142Y19860714D01*
X698571Y19896428D01*
X734285Y19932142D01*
%TO.C,J2*%
X16250000Y-18189285D02*
X16250000Y-18725000D01*
X16285714Y-18832142D01*
X16357142Y-18903571D01*
X16464285Y-18939285D01*
X16535714Y-18939285D01*
X15928571Y-18260714D02*
X15892857Y-18225000D01*
X15821428Y-18189285D01*
X15642857Y-18189285D01*
X15571428Y-18225000D01*
X15535714Y-18260714D01*
X15500000Y-18332142D01*
X15500000Y-18403571D01*
X15535714Y-18510714D01*
X15964285Y-18939285D01*
X15500000Y-18939285D01*
%TO.C,J1*%
X6250000Y-13989285D02*
X6250000Y-14525000D01*
X6285714Y-14632142D01*
X6357142Y-14703571D01*
X6464285Y-14739285D01*
X6535714Y-14739285D01*
X5500000Y-14739285D02*
X5928571Y-14739285D01*
X5714285Y-14739285D02*
X5714285Y-13989285D01*
X5785714Y-14096428D01*
X5857142Y-14167857D01*
X5928571Y-14203571D01*
%TO.C,D5*%
X-11346428Y9960714D02*
X-11346428Y10710714D01*
X-11525000Y10710714D01*
X-11632142Y10675000D01*
X-11703571Y10603571D01*
X-11739285Y10532142D01*
X-11775000Y10389285D01*
X-11775000Y10282142D01*
X-11739285Y10139285D01*
X-11703571Y10067857D01*
X-11632142Y9996428D01*
X-11525000Y9960714D01*
X-11346428Y9960714D01*
X-12453571Y10710714D02*
X-12096428Y10710714D01*
X-12060714Y10353571D01*
X-12096428Y10389285D01*
X-12167857Y10425000D01*
X-12346428Y10425000D01*
X-12417857Y10389285D01*
X-12453571Y10353571D01*
X-12489285Y10282142D01*
X-12489285Y10103571D01*
X-12453571Y10032142D01*
X-12417857Y9996428D01*
X-12346428Y9960714D01*
X-12167857Y9960714D01*
X-12096428Y9996428D01*
X-12060714Y10032142D01*
%TO.C,D4*%
X-9960714Y-2146428D02*
X-10710714Y-2146428D01*
X-10710714Y-2325000D01*
X-10675000Y-2432142D01*
X-10603571Y-2503571D01*
X-10532142Y-2539285D01*
X-10389285Y-2575000D01*
X-10282142Y-2575000D01*
X-10139285Y-2539285D01*
X-10067857Y-2503571D01*
X-9996428Y-2432142D01*
X-9960714Y-2325000D01*
X-9960714Y-2146428D01*
X-10460714Y-3217857D02*
X-9960714Y-3217857D01*
X-10746428Y-3039285D02*
X-10210714Y-2860714D01*
X-10210714Y-3325000D01*
%TO.C,D3*%
X-6060714Y-2146428D02*
X-6810714Y-2146428D01*
X-6810714Y-2325000D01*
X-6775000Y-2432142D01*
X-6703571Y-2503571D01*
X-6632142Y-2539285D01*
X-6489285Y-2575000D01*
X-6382142Y-2575000D01*
X-6239285Y-2539285D01*
X-6167857Y-2503571D01*
X-6096428Y-2432142D01*
X-6060714Y-2325000D01*
X-6060714Y-2146428D01*
X-6810714Y-2825000D02*
X-6810714Y-3289285D01*
X-6525000Y-3039285D01*
X-6525000Y-3146428D01*
X-6489285Y-3217857D01*
X-6453571Y-3253571D01*
X-6382142Y-3289285D01*
X-6203571Y-3289285D01*
X-6132142Y-3253571D01*
X-6096428Y-3217857D01*
X-6060714Y-3146428D01*
X-6060714Y-2932142D01*
X-6096428Y-2860714D01*
X-6132142Y-2825000D01*
%TO.C,D2*%
X2339285Y-9646428D02*
X1589285Y-9646428D01*
X1589285Y-9825000D01*
X1625000Y-9932142D01*
X1696428Y-10003571D01*
X1767857Y-10039285D01*
X1910714Y-10075000D01*
X2017857Y-10075000D01*
X2160714Y-10039285D01*
X2232142Y-10003571D01*
X2303571Y-9932142D01*
X2339285Y-9825000D01*
X2339285Y-9646428D01*
X1660714Y-10360714D02*
X1625000Y-10396428D01*
X1589285Y-10467857D01*
X1589285Y-10646428D01*
X1625000Y-10717857D01*
X1660714Y-10753571D01*
X1732142Y-10789285D01*
X1803571Y-10789285D01*
X1910714Y-10753571D01*
X2339285Y-10325000D01*
X2339285Y-10789285D01*
%TO.C,D1*%
X7939285Y-9646428D02*
X7189285Y-9646428D01*
X7189285Y-9825000D01*
X7225000Y-9932142D01*
X7296428Y-10003571D01*
X7367857Y-10039285D01*
X7510714Y-10075000D01*
X7617857Y-10075000D01*
X7760714Y-10039285D01*
X7832142Y-10003571D01*
X7903571Y-9932142D01*
X7939285Y-9825000D01*
X7939285Y-9646428D01*
X7939285Y-10789285D02*
X7939285Y-10360714D01*
X7939285Y-10575000D02*
X7189285Y-10575000D01*
X7296428Y-10503571D01*
X7367857Y-10432142D01*
X7403571Y-10360714D01*
%TO.C,C7*%
X-6182142Y-10225000D02*
X-6146428Y-10189285D01*
X-6110714Y-10082142D01*
X-6110714Y-10010714D01*
X-6146428Y-9903571D01*
X-6217857Y-9832142D01*
X-6289285Y-9796428D01*
X-6432142Y-9760714D01*
X-6539285Y-9760714D01*
X-6682142Y-9796428D01*
X-6753571Y-9832142D01*
X-6825000Y-9903571D01*
X-6860714Y-10010714D01*
X-6860714Y-10082142D01*
X-6825000Y-10189285D01*
X-6789285Y-10225000D01*
X-6860714Y-10475000D02*
X-6860714Y-10975000D01*
X-6110714Y-10653571D01*
%TO.C,C6*%
X15067857Y-6675000D02*
X15103571Y-6639285D01*
X15139285Y-6532142D01*
X15139285Y-6460714D01*
X15103571Y-6353571D01*
X15032142Y-6282142D01*
X14960714Y-6246428D01*
X14817857Y-6210714D01*
X14710714Y-6210714D01*
X14567857Y-6246428D01*
X14496428Y-6282142D01*
X14425000Y-6353571D01*
X14389285Y-6460714D01*
X14389285Y-6532142D01*
X14425000Y-6639285D01*
X14460714Y-6675000D01*
X14389285Y-7317857D02*
X14389285Y-7175000D01*
X14425000Y-7103571D01*
X14460714Y-7067857D01*
X14567857Y-6996428D01*
X14710714Y-6960714D01*
X14996428Y-6960714D01*
X15067857Y-6996428D01*
X15103571Y-7032142D01*
X15139285Y-7103571D01*
X15139285Y-7246428D01*
X15103571Y-7317857D01*
X15067857Y-7353571D01*
X14996428Y-7389285D01*
X14817857Y-7389285D01*
X14746428Y-7353571D01*
X14710714Y-7317857D01*
X14675000Y-7246428D01*
X14675000Y-7103571D01*
X14710714Y-7032142D01*
X14746428Y-6996428D01*
X14817857Y-6960714D01*
%TO.C,C5*%
X725000Y-12067857D02*
X760714Y-12103571D01*
X867857Y-12139285D01*
X939285Y-12139285D01*
X1046428Y-12103571D01*
X1117857Y-12032142D01*
X1153571Y-11960714D01*
X1189285Y-11817857D01*
X1189285Y-11710714D01*
X1153571Y-11567857D01*
X1117857Y-11496428D01*
X1046428Y-11425000D01*
X939285Y-11389285D01*
X867857Y-11389285D01*
X760714Y-11425000D01*
X725000Y-11460714D01*
X46428Y-11389285D02*
X403571Y-11389285D01*
X439285Y-11746428D01*
X403571Y-11710714D01*
X332142Y-11675000D01*
X153571Y-11675000D01*
X82142Y-11710714D01*
X46428Y-11746428D01*
X10714Y-11817857D01*
X10714Y-11996428D01*
X46428Y-12067857D01*
X82142Y-12103571D01*
X153571Y-12139285D01*
X332142Y-12139285D01*
X403571Y-12103571D01*
X439285Y-12067857D01*
%TO.C,C4*%
X9367857Y8825000D02*
X9403571Y8860714D01*
X9439285Y8967857D01*
X9439285Y9039285D01*
X9403571Y9146428D01*
X9332142Y9217857D01*
X9260714Y9253571D01*
X9117857Y9289285D01*
X9010714Y9289285D01*
X8867857Y9253571D01*
X8796428Y9217857D01*
X8725000Y9146428D01*
X8689285Y9039285D01*
X8689285Y8967857D01*
X8725000Y8860714D01*
X8760714Y8825000D01*
X8939285Y8182142D02*
X9439285Y8182142D01*
X8653571Y8360714D02*
X9189285Y8539285D01*
X9189285Y8075000D01*
%TO.C,C3*%
X11167857Y8825000D02*
X11203571Y8860714D01*
X11239285Y8967857D01*
X11239285Y9039285D01*
X11203571Y9146428D01*
X11132142Y9217857D01*
X11060714Y9253571D01*
X10917857Y9289285D01*
X10810714Y9289285D01*
X10667857Y9253571D01*
X10596428Y9217857D01*
X10525000Y9146428D01*
X10489285Y9039285D01*
X10489285Y8967857D01*
X10525000Y8860714D01*
X10560714Y8825000D01*
X10489285Y8575000D02*
X10489285Y8110714D01*
X10775000Y8360714D01*
X10775000Y8253571D01*
X10810714Y8182142D01*
X10846428Y8146428D01*
X10917857Y8110714D01*
X11096428Y8110714D01*
X11167857Y8146428D01*
X11203571Y8182142D01*
X11239285Y8253571D01*
X11239285Y8467857D01*
X11203571Y8539285D01*
X11167857Y8575000D01*
%TO.C,C2*%
X6975000Y-1067857D02*
X7010714Y-1103571D01*
X7117857Y-1139285D01*
X7189285Y-1139285D01*
X7296428Y-1103571D01*
X7367857Y-1032142D01*
X7403571Y-960714D01*
X7439285Y-817857D01*
X7439285Y-710714D01*
X7403571Y-567857D01*
X7367857Y-496428D01*
X7296428Y-425000D01*
X7189285Y-389285D01*
X7117857Y-389285D01*
X7010714Y-425000D01*
X6975000Y-460714D01*
X6689285Y-460714D02*
X6653571Y-425000D01*
X6582142Y-389285D01*
X6403571Y-389285D01*
X6332142Y-425000D01*
X6296428Y-460714D01*
X6260714Y-532142D01*
X6260714Y-603571D01*
X6296428Y-710714D01*
X6725000Y-1139285D01*
X6260714Y-1139285D01*
%TO.C,C1*%
X6975000Y-6467857D02*
X7010714Y-6503571D01*
X7117857Y-6539285D01*
X7189285Y-6539285D01*
X7296428Y-6503571D01*
X7367857Y-6432142D01*
X7403571Y-6360714D01*
X7439285Y-6217857D01*
X7439285Y-6110714D01*
X7403571Y-5967857D01*
X7367857Y-5896428D01*
X7296428Y-5825000D01*
X7189285Y-5789285D01*
X7117857Y-5789285D01*
X7010714Y-5825000D01*
X6975000Y-5860714D01*
X6260714Y-6539285D02*
X6689285Y-6539285D01*
X6475000Y-6539285D02*
X6475000Y-5789285D01*
X6546428Y-5896428D01*
X6617857Y-5967857D01*
X6689285Y-6003571D01*
%TO.C,BZ1*%
X-9439285Y17353571D02*
X-9546428Y17317857D01*
X-9582142Y17282142D01*
X-9617857Y17210714D01*
X-9617857Y17103571D01*
X-9582142Y17032142D01*
X-9546428Y16996428D01*
X-9475000Y16960714D01*
X-9189285Y16960714D01*
X-9189285Y17710714D01*
X-9439285Y17710714D01*
X-9510714Y17675000D01*
X-9546428Y17639285D01*
X-9582142Y17567857D01*
X-9582142Y17496428D01*
X-9546428Y17425000D01*
X-9510714Y17389285D01*
X-9439285Y17353571D01*
X-9189285Y17353571D01*
X-9867857Y17710714D02*
X-10367857Y17710714D01*
X-9867857Y16960714D01*
X-10367857Y16960714D01*
X-11046428Y16960714D02*
X-10617857Y16960714D01*
X-10832142Y16960714D02*
X-10832142Y17710714D01*
X-10760714Y17603571D01*
X-10689285Y17532142D01*
X-10617857Y17496428D01*
X-12328571Y14780952D02*
X-12328571Y14019047D01*
X-11947619Y14400000D02*
X-12709523Y14400000D01*
%TD*%
M02*
